<svg width="23" height="19" viewBox="0 0 23 19" fill="none" xmlns="http://www.w3.org/2000/svg">
<path d="M6.58381 18.2898C5.23722 18.2841 4.08665 17.929 3.1321 17.2244C2.17756 16.5199 1.44744 15.4943 0.941761 14.1477C0.43608 12.8011 0.183239 11.179 0.183239 9.28125C0.183239 7.3892 0.43608 5.77273 0.941761 4.43182C1.45313 3.09091 2.18608 2.06818 3.14062 1.36364C4.10085 0.659091 5.24858 0.306818 6.58381 0.306818C7.91903 0.306818 9.06392 0.661931 10.0185 1.37216C10.973 2.0767 11.7031 3.09943 12.2088 4.44034C12.7202 5.77557 12.9759 7.3892 12.9759 9.28125C12.9759 11.1847 12.723 12.8097 12.2173 14.1562C11.7116 15.4972 10.9815 16.5227 10.027 17.233C9.07244 17.9375 7.92472 18.2898 6.58381 18.2898ZM6.58381 16.0142C7.76563 16.0142 8.68892 15.4375 9.35369 14.2841C10.0241 13.1307 10.3594 11.4631 10.3594 9.28125C10.3594 7.83239 10.206 6.60795 9.89915 5.60795C9.59801 4.60227 9.16335 3.84091 8.59517 3.32386C8.03267 2.80114 7.36222 2.53977 6.58381 2.53977C5.40767 2.53977 4.48438 3.11932 3.81392 4.27841C3.14347 5.4375 2.8054 7.10511 2.79972 9.28125C2.79972 10.7358 2.95028 11.9659 3.25142 12.9716C3.55824 13.9716 3.9929 14.7301 4.5554 15.2472C5.1179 15.7585 5.79403 16.0142 6.58381 16.0142ZM22.1357 0.545454V18H19.4936V4.09943H19.3487C19.2578 4.26989 19.0476 4.45455 18.718 4.65341C18.3942 4.85227 17.9766 5.02557 17.4652 5.17329C16.9595 5.32102 16.3743 5.39489 15.7095 5.39489V3.23011C16.3516 3.23011 16.9112 3.11648 17.3885 2.8892C17.8714 2.66193 18.2805 2.3892 18.6158 2.07102C18.951 1.74716 19.2067 1.44318 19.3828 1.15909C19.5589 0.869318 19.6584 0.664772 19.6811 0.545454H22.1357Z" fill="#0466C8"/>
</svg>
