<svg width="29" height="19" viewBox="0 0 29 19" fill="none" xmlns="http://www.w3.org/2000/svg">
<path d="M7.15021 18.2898C5.80362 18.2841 4.65305 17.929 3.69851 17.2244C2.74396 16.5199 2.01385 15.4943 1.50817 14.1477C1.00249 12.8011 0.749645 11.179 0.749645 9.28125C0.749645 7.3892 1.00249 5.77273 1.50817 4.43182C2.01953 3.09091 2.75249 2.06818 3.70703 1.36364C4.66726 0.659091 5.81499 0.306818 7.15021 0.306818C8.48544 0.306818 9.63033 0.661931 10.5849 1.37216C11.5394 2.0767 12.2695 3.09943 12.7752 4.44034C13.2866 5.77557 13.5423 7.3892 13.5423 9.28125C13.5423 11.1847 13.2894 12.8097 12.7837 14.1562C12.2781 15.4972 11.5479 16.5227 10.5934 17.233C9.63885 17.9375 8.49112 18.2898 7.15021 18.2898ZM7.15021 16.0142C8.33203 16.0142 9.25533 15.4375 9.9201 14.2841C10.5906 13.1307 10.9258 11.4631 10.9258 9.28125C10.9258 7.83239 10.7724 6.60795 10.4656 5.60795C10.1644 4.60227 9.72976 3.84091 9.16158 3.32386C8.59908 2.80114 7.92862 2.53977 7.15021 2.53977C5.97408 2.53977 5.05078 3.11932 4.38033 4.27841C3.70987 5.4375 3.3718 7.10511 3.36612 9.28125C3.36612 10.7358 3.51669 11.9659 3.81783 12.9716C4.12465 13.9716 4.5593 14.7301 5.1218 15.2472C5.6843 15.7585 6.36044 16.0142 7.15021 16.0142ZM16.5657 18V16.0909L22.4719 9.97159C23.1026 9.30682 23.6225 8.72443 24.0316 8.22443C24.4464 7.71875 24.756 7.23864 24.9606 6.78409C25.1651 6.32955 25.2674 5.84659 25.2674 5.33523C25.2674 4.75568 25.131 4.25568 24.8583 3.83523C24.5856 3.40909 24.2134 3.08239 23.7418 2.85511C23.2702 2.62216 22.739 2.50568 22.1481 2.50568C21.5231 2.50568 20.9776 2.63352 20.5117 2.8892C20.0458 3.14489 19.6879 3.50568 19.4379 3.97159C19.1879 4.4375 19.0629 4.98295 19.0629 5.60795H16.5487C16.5487 4.54545 16.793 3.61648 17.2816 2.82102C17.7702 2.02557 18.4407 1.40909 19.293 0.971591C20.1452 0.528409 21.114 0.306818 22.1992 0.306818C23.2958 0.306818 24.2617 0.525568 25.0969 0.963068C25.9379 1.39489 26.5941 1.98579 27.0657 2.73579C27.5373 3.48011 27.7731 4.32102 27.7731 5.25852C27.7731 5.90625 27.6509 6.53977 27.4066 7.15909C27.168 7.77841 26.7504 8.46875 26.1538 9.23011C25.5572 9.9858 24.7276 10.9034 23.6651 11.983L20.1964 15.6136V15.7415H28.0543V18H16.5657Z" fill="#0466C8"/>
</svg>
