<svg width="76" height="75" viewBox="0 0 76 75" fill="none" xmlns="http://www.w3.org/2000/svg">
<path d="M0.5 40.625C0.5 18.1884 18.6884 0 41.125 0H49.25C63.7475 0 75.5 11.7525 75.5 26.25V41.25C75.5 59.8896 60.3896 75 41.75 75H34.875C15.8902 75 0.5 59.6098 0.5 40.625Z" fill="#FFF2F2"/>
<path d="M52.5 39.5385V44.1538C52.5 46.4877 50.6031 48.3846 48.2692 48.3846H47.8846V48.7692C47.8846 51.1031 45.9877 53 43.6538 53H37.5C36.8631 53 36.3462 52.4831 36.3462 51.8462C36.3462 51.2092 36.8631 50.6923 37.5 50.6923H43.6538C44.7138 50.6923 45.5769 49.8292 45.5769 48.7692V48.3846H45.1923C43.7077 48.3846 42.5 47.1769 42.5 45.6923V38C42.5 36.5154 43.7077 35.3077 45.1923 35.3077H45.5769V33.3846C45.5769 28.9308 41.9538 25.3077 37.5 25.3077C33.0462 25.3077 29.4231 28.9308 29.4231 33.3846V35.3077H29.8077C31.2923 35.3077 32.5 36.5154 32.5 38V45.6923C32.5 47.1769 31.2923 48.3846 29.8077 48.3846H26.7308C24.3969 48.3846 22.5 46.4877 22.5 44.1538V39.5385C22.5 37.2046 24.3969 35.3077 26.7308 35.3077H27.1154V33.3846C27.1154 27.6585 31.7738 23 37.5 23C43.2262 23 47.8846 27.6585 47.8846 33.3846V35.3077H48.2692C50.6031 35.3077 52.5 37.2046 52.5 39.5385Z" fill="#FF0000"/>
</svg>
