<svg width="242" height="18" viewBox="0 0 242 18" fill="none" xmlns="http://www.w3.org/2000/svg">
<path d="M0.962 17.5L7.358 0.755999H11.206L17.576 17.5H13.936L12.35 13.47H6.188L4.628 17.5H0.962ZM6.708 10.766H11.83L9.256 4.032L6.708 10.766ZM20.0172 17.5V0.755999H27.8692C29.1865 0.755999 30.2612 1.00733 31.0932 1.51C31.9425 2.01267 32.5752 2.69733 32.9912 3.564C33.4072 4.43067 33.6152 5.41867 33.6152 6.528C33.6152 7.65467 33.3725 8.65133 32.8872 9.518C32.4192 10.3847 31.7432 11.0607 30.8592 11.546C29.9925 12.014 28.9612 12.248 27.7652 12.248H23.5272V17.5H20.0172ZM23.5272 9.466H27.0372C28.0425 9.466 28.7965 9.206 29.2992 8.686C29.8192 8.14867 30.0792 7.42933 30.0792 6.528C30.0792 5.55733 29.8365 4.82067 29.3512 4.318C28.8658 3.798 28.1378 3.538 27.1672 3.538H23.5272V9.466ZM35.5562 17.5V0.755999H47.5682V3.486H39.0662V7.776H46.6062V10.48H39.0662V14.796H47.5682V17.5H35.5562ZM48.8233 17.5L54.8813 9.102L48.9793 0.755999H53.1133L56.9873 6.346L60.8613 0.755999H64.9953L59.0933 9.102L65.1513 17.5H60.9653L56.9873 11.91L53.0093 17.5H48.8233Z" fill="#0466C8"/>
<path d="M75.7632 17.76C72.9552 17.76 70.8059 17.006 69.3152 15.498C67.8245 13.9727 67.0792 11.9013 67.0792 9.284C67.0792 6.51067 67.7985 4.35267 69.2372 2.81C70.6932 1.26733 72.8599 0.495999 75.7372 0.495999C76.7425 0.495999 77.6439 0.573999 78.4412 0.729999C79.2559 0.868666 80.0185 1.068 80.7292 1.328V4.396C79.2559 3.78933 77.6785 3.486 75.9972 3.486C74.0905 3.486 72.7212 3.96267 71.8892 4.916C71.0572 5.86933 70.6412 7.32533 70.6412 9.284C70.6412 12.9587 72.4439 14.796 76.0492 14.796C76.8639 14.796 77.6699 14.7267 78.4672 14.588C79.2645 14.432 80.0272 14.2067 80.7552 13.912V17.006C80.0445 17.2313 79.2819 17.4133 78.4672 17.552C77.6699 17.6907 76.7685 17.76 75.7632 17.76ZM88.0149 17.5V11.312L82.0089 0.755999H85.6749L89.7829 8.322L93.8909 0.755999H97.5309L91.5249 11.312V17.5H88.0149ZM99.4644 17.5V0.755999H107.94C109.622 0.755999 110.87 1.15467 111.684 1.952C112.516 2.732 112.932 3.84133 112.932 5.28C112.932 6.18133 112.759 6.93533 112.412 7.542C112.066 8.13133 111.598 8.59067 111.008 8.92C111.788 9.16267 112.404 9.57 112.854 10.142C113.322 10.6967 113.556 11.52 113.556 12.612C113.556 14.224 113.097 15.446 112.178 16.278C111.277 17.0927 109.968 17.5 108.252 17.5H99.4644ZM102.974 7.698H107.29C108.14 7.698 108.746 7.516 109.11 7.152C109.474 6.77067 109.656 6.242 109.656 5.566C109.656 4.82067 109.466 4.266 109.084 3.902C108.72 3.538 108.036 3.356 107.03 3.356H102.974V7.698ZM102.974 14.926H107.42C108.304 14.926 108.954 14.744 109.37 14.38C109.786 14.016 109.994 13.3747 109.994 12.456C109.994 11.7107 109.786 11.156 109.37 10.792C108.972 10.428 108.244 10.246 107.186 10.246H102.974V14.926ZM115.994 17.5V0.755999H128.006V3.486H119.504V7.776H127.044V10.48H119.504V14.796H128.006V17.5H115.994ZM130.441 17.5V0.755999H138.475C140.399 0.755999 141.812 1.26733 142.713 2.29C143.614 3.29533 144.065 4.656 144.065 6.372C144.065 7.49867 143.77 8.46933 143.181 9.284C142.609 10.0987 141.794 10.688 140.737 11.052C141.014 11.2773 141.231 11.52 141.387 11.78C141.56 12.04 141.734 12.3867 141.907 12.82L143.935 17.5H140.295L138.319 13.002C138.146 12.6207 137.955 12.352 137.747 12.196C137.539 12.04 137.192 11.962 136.707 11.962H133.951V17.5H130.441ZM133.951 9.05H137.565C138.484 9.05 139.203 8.85067 139.723 8.452C140.243 8.036 140.503 7.34267 140.503 6.372C140.503 5.436 140.278 4.75133 139.827 4.318C139.376 3.88467 138.692 3.668 137.773 3.668H133.951V9.05ZM151.713 17.76C150.639 17.76 149.633 17.682 148.697 17.526C147.779 17.37 146.981 17.1447 146.305 16.85V13.756C147.068 14.068 147.891 14.3193 148.775 14.51C149.659 14.7007 150.526 14.796 151.375 14.796C152.589 14.796 153.481 14.6833 154.053 14.458C154.625 14.2327 154.911 13.7213 154.911 12.924C154.911 12.4213 154.79 12.0227 154.547 11.728C154.305 11.4333 153.88 11.1733 153.273 10.948C152.684 10.7053 151.843 10.4367 150.751 10.142C149.001 9.65667 147.77 9.05 147.059 8.322C146.349 7.594 145.993 6.58867 145.993 5.306C145.993 3.76333 146.557 2.576 147.683 1.744C148.81 0.911999 150.448 0.495999 152.597 0.495999C153.603 0.495999 154.539 0.565332 155.405 0.703999C156.272 0.842666 156.974 1.00733 157.511 1.198V4.292C156.09 3.75467 154.608 3.486 153.065 3.486C151.973 3.486 151.115 3.60733 150.491 3.85C149.867 4.07533 149.555 4.56067 149.555 5.306C149.555 5.73933 149.668 6.086 149.893 6.346C150.119 6.606 150.5 6.84 151.037 7.048C151.592 7.256 152.363 7.49 153.351 7.75C154.721 8.114 155.778 8.54733 156.523 9.05C157.269 9.55267 157.78 10.1247 158.057 10.766C158.352 11.4073 158.499 12.1267 158.499 12.924C158.499 14.38 157.945 15.55 156.835 16.434C155.726 17.318 154.019 17.76 151.713 17.76ZM160.935 17.5V0.755999H172.947V3.486H164.445V7.776H171.985V10.48H164.445V14.796H172.947V17.5H160.935ZM175.382 17.5V0.755999H183.416C185.34 0.755999 186.753 1.26733 187.654 2.29C188.556 3.29533 189.006 4.656 189.006 6.372C189.006 7.49867 188.712 8.46933 188.122 9.284C187.55 10.0987 186.736 10.688 185.678 11.052C185.956 11.2773 186.172 11.52 186.328 11.78C186.502 12.04 186.675 12.3867 186.848 12.82L188.876 17.5H185.236L183.26 13.002C183.087 12.6207 182.896 12.352 182.688 12.196C182.48 12.04 182.134 11.962 181.648 11.962H178.892V17.5H175.382ZM178.892 9.05H182.506C183.425 9.05 184.144 8.85067 184.664 8.452C185.184 8.036 185.444 7.34267 185.444 6.372C185.444 5.436 185.219 4.75133 184.768 4.318C184.318 3.88467 183.633 3.668 182.714 3.668H178.892V9.05ZM195.629 17.5L189.233 0.755999H192.899L197.527 13.574L202.181 0.755999H205.847L199.477 17.5H195.629ZM207.628 17.5V0.755999H211.138V17.5H207.628ZM222.267 17.76C219.459 17.76 217.31 17.006 215.819 15.498C214.328 13.9727 213.583 11.9013 213.583 9.284C213.583 6.51067 214.302 4.35267 215.741 2.81C217.197 1.26733 219.364 0.495999 222.241 0.495999C223.246 0.495999 224.148 0.573999 224.945 0.729999C225.76 0.868666 226.522 1.068 227.233 1.328V4.396C225.76 3.78933 224.182 3.486 222.501 3.486C220.594 3.486 219.225 3.96267 218.393 4.916C217.561 5.86933 217.145 7.32533 217.145 9.284C217.145 12.9587 218.948 14.796 222.553 14.796C223.368 14.796 224.174 14.7267 224.971 14.588C225.768 14.432 226.531 14.2067 227.259 13.912V17.006C226.548 17.2313 225.786 17.4133 224.971 17.552C224.174 17.6907 223.272 17.76 222.267 17.76ZM229.693 17.5V0.755999H241.705V3.486H233.203V7.776H240.743V10.48H233.203V14.796H241.705V17.5H229.693Z" fill="#001845"/>
</svg>
