<svg width="329" height="26" viewBox="0 0 329 26" fill="none" xmlns="http://www.w3.org/2000/svg">
<path d="M4.61863 25H0.812322L9.36492 1.23377H13.5078L22.0604 25H18.254L11.535 5.55068H11.3493L4.61863 25ZM5.25689 15.6931H17.6042V18.7103H5.25689V15.6931ZM25.4924 25V1.23377H33.9638C35.8128 1.23377 37.3446 1.5703 38.5592 2.24337C39.7738 2.91643 40.6828 3.83707 41.2863 5.00526C41.8897 6.16572 42.1914 7.47318 42.1914 8.92762C42.1914 10.3898 41.8859 11.705 41.2747 12.8732C40.6712 14.0336 39.7583 14.9543 38.536 15.6351C37.3214 16.3082 35.7934 16.6447 33.9522 16.6447H28.1267V13.6043H33.6272C34.7954 13.6043 35.7432 13.4031 36.4704 13.0008C37.1976 12.5908 37.7314 12.0338 38.0718 11.3298C38.4122 10.6258 38.5824 9.82504 38.5824 8.92762C38.5824 8.0302 38.4122 7.23335 38.0718 6.53707C37.7314 5.84079 37.1937 5.29538 36.4588 4.90082C35.7315 4.50627 34.7722 4.30899 33.5808 4.30899H29.0782V25H25.4924ZM46.3952 25V1.23377H61.2955V4.32059H49.981V11.5619H60.518V14.6371H49.981V21.9132H61.4348V25H46.3952ZM68.5803 1.23377L74.2666 10.5291H74.4522L80.1385 1.23377H84.293L76.8892 13.1169L84.3394 25H80.1617L74.4522 15.8324H74.2666L68.5571 25H64.3795L71.9573 13.1169L64.4259 1.23377H68.5803Z" fill="#0466C8"/>
<path d="M107.589 8.96243H103.969C103.829 8.18879 103.57 7.50799 103.191 6.92002C102.812 6.33206 102.348 5.83306 101.799 5.42303C101.249 5.013 100.634 4.70354 99.9534 4.49466C99.2803 4.28578 98.5647 4.18134 97.8065 4.18134C96.4372 4.18134 95.211 4.52561 94.1279 5.21415C93.0525 5.90269 92.2015 6.91229 91.5748 8.24295C90.9559 9.57361 90.6465 11.1983 90.6465 13.1169C90.6465 15.051 90.9559 16.6834 91.5748 18.014C92.2015 19.3447 93.0564 20.3504 94.1395 21.0312C95.2226 21.712 96.441 22.0524 97.7949 22.0524C98.5453 22.0524 99.2571 21.9519 99.9302 21.7507C100.611 21.5418 101.226 21.2362 101.775 20.8339C102.325 20.4317 102.789 19.9404 103.168 19.3602C103.555 18.7722 103.822 18.0991 103.969 17.341L107.589 17.3526C107.396 18.5208 107.021 19.5961 106.464 20.5786C105.914 21.5534 105.206 22.3967 104.34 23.1084C103.481 23.8125 102.499 24.3579 101.392 24.7447C100.286 25.1315 99.0792 25.3249 97.7717 25.3249C95.7138 25.3249 93.8803 24.8375 92.2711 23.8627C90.662 22.8802 89.3932 21.4761 88.4648 19.6503C87.5442 17.8245 87.0839 15.6467 87.0839 13.1169C87.0839 10.5793 87.548 8.40154 88.4764 6.58349C89.4048 4.7577 90.6736 3.35741 92.2827 2.38262C93.8919 1.4001 95.7216 0.908838 97.7717 0.908838C99.0327 0.908838 100.209 1.09064 101.3 1.45426C102.398 1.81013 103.384 2.3362 104.259 3.03248C105.133 3.72102 105.856 4.56429 106.429 5.56228C107.001 6.55254 107.388 7.68593 107.589 8.96243ZM110.046 1.23377H114.12L120.328 12.0377H120.583L126.792 1.23377H130.865L122.243 15.6699V25H118.669V15.6699L110.046 1.23377ZM134.251 25V1.23377H142.954C144.641 1.23377 146.037 1.51228 147.143 2.0693C148.25 2.61858 149.078 3.36515 149.627 4.30899C150.176 5.24509 150.451 6.30111 150.451 7.47704C150.451 8.4673 150.269 9.30284 149.905 9.98364C149.542 10.6567 149.054 11.1983 148.443 11.6083C147.84 12.0106 147.174 12.3046 146.447 12.4902V12.7223C147.236 12.761 148.006 13.0163 148.757 13.4882C149.515 13.9524 150.141 14.6139 150.636 15.4726C151.132 16.3314 151.379 17.3758 151.379 18.6059C151.379 19.8205 151.093 20.9113 150.52 21.8784C149.956 22.8377 149.081 23.5997 147.898 24.1645C146.714 24.7215 145.202 25 143.36 25H134.251ZM137.837 21.9248H143.012C144.73 21.9248 145.96 21.5921 146.703 20.9268C147.445 20.2615 147.817 19.4298 147.817 18.4318C147.817 17.6814 147.627 16.9928 147.248 16.3662C146.869 15.7395 146.327 15.2405 145.623 14.8692C144.927 14.4978 144.099 14.3122 143.14 14.3122H137.837V21.9248ZM137.837 11.5154H142.641C143.445 11.5154 144.169 11.3607 144.811 11.0513C145.461 10.7418 145.975 10.3086 146.354 9.75155C146.741 9.18679 146.935 8.52146 146.935 7.75556C146.935 6.77303 146.59 5.94911 145.902 5.28378C145.213 4.61844 144.157 4.28578 142.734 4.28578H137.837V11.5154ZM155.632 25V1.23377H170.533V4.32059H159.218V11.5619H169.755V14.6371H159.218V21.9132H170.672V25H155.632ZM175.322 25V1.23377H183.794C185.635 1.23377 187.163 1.55096 188.378 2.18534C189.6 2.81973 190.513 3.69781 191.116 4.81959C191.72 5.93363 192.021 7.22174 192.021 8.68392C192.021 10.1384 191.716 11.4187 191.105 12.525C190.501 13.6236 189.588 14.4785 188.366 15.0897C187.151 15.7008 185.623 16.0064 183.782 16.0064H177.365V12.9196H183.457C184.618 12.9196 185.562 12.7533 186.289 12.4206C187.024 12.0879 187.561 11.6044 187.902 10.97C188.242 10.3356 188.412 9.57361 188.412 8.68392C188.412 7.7865 188.238 7.00899 187.89 6.3514C187.55 5.6938 187.012 5.19094 186.277 4.8428C185.55 4.48693 184.594 4.30899 183.411 4.30899H178.908V25H175.322ZM187.055 14.2773L192.927 25H188.842L183.086 14.2773H187.055ZM209.347 7.47704C209.223 6.37848 208.713 5.52747 207.815 4.92403C206.918 4.31286 205.788 4.00727 204.427 4.00727C203.452 4.00727 202.609 4.162 201.897 4.47145C201.185 4.77317 200.632 5.19094 200.237 5.72475C199.851 6.25082 199.657 6.8504 199.657 7.52346C199.657 8.08822 199.789 8.57561 200.052 8.98564C200.323 9.39567 200.675 9.73994 201.108 10.0185C201.549 10.2892 202.021 10.5175 202.524 10.7031C203.026 10.8811 203.51 11.0281 203.974 11.1441L206.295 11.7475C207.053 11.9332 207.831 12.1846 208.628 12.5018C209.424 12.819 210.163 13.2368 210.844 13.7551C211.525 14.2735 212.074 14.9156 212.492 15.6815C212.917 16.4474 213.13 17.3642 213.13 18.4318C213.13 19.7779 212.782 20.9732 212.086 22.0176C211.397 23.062 210.395 23.886 209.08 24.4894C207.773 25.0928 206.191 25.3946 204.334 25.3946C202.555 25.3946 201.015 25.1122 199.715 24.5474C198.416 23.9827 197.398 23.1819 196.663 22.1453C195.928 21.1009 195.522 19.863 195.445 18.4318H199.042C199.112 19.2905 199.39 20.0062 199.878 20.5786C200.373 21.1434 201.003 21.565 201.769 21.8435C202.543 22.1143 203.39 22.2497 204.311 22.2497C205.324 22.2497 206.225 22.0911 207.015 21.7739C207.811 21.449 208.438 21.0003 208.895 20.4278C209.351 19.8476 209.579 19.1706 209.579 18.397C209.579 17.693 209.378 17.1166 208.976 16.6679C208.581 16.2192 208.044 15.8478 207.363 15.5539C206.69 15.2599 205.928 15.0007 205.077 14.7763L202.268 14.0104C200.365 13.4921 198.857 12.7301 197.742 11.7243C196.636 10.7186 196.083 9.38794 196.083 7.73235C196.083 6.363 196.454 5.16773 197.197 4.14652C197.94 3.12532 198.945 2.33234 200.214 1.76758C201.483 1.19508 202.914 0.908838 204.508 0.908838C206.117 0.908838 207.537 1.19122 208.767 1.75597C210.005 2.32073 210.979 3.09824 211.691 4.0885C212.403 5.07102 212.774 6.20054 212.805 7.47704H209.347ZM217.415 25V1.23377H232.316V4.32059H221.001V11.5619H231.538V14.6371H221.001V21.9132H232.455V25H217.415ZM237.105 25V1.23377H245.577C247.418 1.23377 248.946 1.55096 250.16 2.18534C251.383 2.81973 252.296 3.69781 252.899 4.81959C253.503 5.93363 253.804 7.22174 253.804 8.68392C253.804 10.1384 253.499 11.4187 252.888 12.525C252.284 13.6236 251.371 14.4785 250.149 15.0897C248.934 15.7008 247.406 16.0064 245.565 16.0064H239.148V12.9196H245.24C246.401 12.9196 247.344 12.7533 248.072 12.4206C248.807 12.0879 249.344 11.6044 249.685 10.97C250.025 10.3356 250.195 9.57361 250.195 8.68392C250.195 7.7865 250.021 7.00899 249.673 6.3514C249.333 5.6938 248.795 5.19094 248.06 4.8428C247.333 4.48693 246.377 4.30899 245.194 4.30899H240.691V25H237.105ZM248.838 14.2773L254.709 25H250.625L244.869 14.2773H248.838ZM259.67 1.23377L266.285 20.5902H266.552L273.167 1.23377H277.043L268.49 25H264.347L255.795 1.23377H259.67ZM284.06 1.23377V25H280.475V1.23377H284.06ZM309.022 8.96243H305.401C305.262 8.18879 305.003 7.50799 304.624 6.92002C304.245 6.33206 303.781 5.83306 303.231 5.42303C302.682 5.013 302.067 4.70354 301.386 4.49466C300.713 4.28578 299.997 4.18134 299.239 4.18134C297.87 4.18134 296.644 4.52561 295.561 5.21415C294.485 5.90269 293.634 6.91229 293.008 8.24295C292.389 9.57361 292.079 11.1983 292.079 13.1169C292.079 15.051 292.389 16.6834 293.008 18.014C293.634 19.3447 294.489 20.3504 295.572 21.0312C296.655 21.712 297.874 22.0524 299.228 22.0524C299.978 22.0524 300.69 21.9519 301.363 21.7507C302.044 21.5418 302.659 21.2362 303.208 20.8339C303.757 20.4317 304.222 19.9404 304.601 19.3602C304.987 18.7722 305.254 18.0991 305.401 17.341L309.022 17.3526C308.829 18.5208 308.453 19.5961 307.896 20.5786C307.347 21.5534 306.639 22.3967 305.773 23.1084C304.914 23.8125 303.931 24.3579 302.825 24.7447C301.719 25.1315 300.512 25.3249 299.204 25.3249C297.147 25.3249 295.313 24.8375 293.704 23.8627C292.095 22.8802 290.826 21.4761 289.898 19.6503C288.977 17.8245 288.517 15.6467 288.517 13.1169C288.517 10.5793 288.981 8.40154 289.909 6.58349C290.838 4.7577 292.106 3.35741 293.715 2.38262C295.325 1.4001 297.154 0.908838 299.204 0.908838C300.465 0.908838 301.641 1.09064 302.732 1.45426C303.831 1.81013 304.817 2.3362 305.691 3.03248C306.566 3.72102 307.289 4.56429 307.861 5.56228C308.434 6.55254 308.821 7.68593 309.022 8.96243ZM313.313 25V1.23377H328.213V4.32059H316.899V11.5619H327.436V14.6371H316.899V21.9132H328.352V25H313.313Z" fill="#F4F8F4"/>
</svg>
