<svg width="76" height="75" viewBox="0 0 76 75" fill="none" xmlns="http://www.w3.org/2000/svg">
<path d="M0.75 40.625C0.75 18.1884 18.9384 0 41.375 0H49.5C63.9975 0 75.75 11.7525 75.75 26.25V41.25C75.75 59.8896 60.6396 75 42 75H35.125C16.1402 75 0.75 59.6098 0.75 40.625Z" fill="#EDFFED"/>
<path d="M30.7039 30.8811L31.7167 30.6581C32.9565 30.4266 33.7417 29.1731 33.4786 27.9129C33.3502 26.9294 32.9078 25.5016 32.7714 24.4848C32.383 22.6036 31.2312 21.9346 30.2602 21.9346C28.0947 21.9346 24.6868 23.3069 23.0598 25.7668C21.8942 27.5367 21.6307 29.6966 22.2966 31.8705C24.4813 38.9595 29.9749 47.2781 35.8097 52.1047C39.7013 55.3427 45.0901 53.9564 47.949 48.5651C47.949 48.5511 47.9631 48.5233 47.9769 48.4954C48.3652 47.6036 48.1989 46.2657 46.548 45.1509C45.7852 44.7018 44.4493 43.6381 43.7592 43.2557C42.5846 42.4504 41.1817 42.7842 40.4988 43.8131L39.9162 44.6771C39.6162 45.118 38.9641 45.2244 38.39 44.6771C35.4755 41.8093 31.627 36.0258 30.1212 32.3025C29.8685 31.7013 30.0688 30.9921 30.7039 30.8811Z" fill="#4DAC4D"/>
<path d="M53.9953 29.3344C53.9953 25.2793 50.2357 21.9766 45.6157 21.9766C41.0097 21.9766 37.25 25.2793 37.25 29.3344C37.25 31.1878 38.0405 32.9437 39.4558 34.2954C39.5251 34.3512 39.6363 34.4905 39.6363 34.6577L39.7609 37.2776C39.7749 37.7374 40.0384 38.1276 40.4272 38.3507C40.8347 38.5555 41.3237 38.529 41.6897 38.3088L44.4365 36.6087C44.7974 36.6644 45.1858 36.6923 45.6157 36.6923C50.2357 36.6923 53.9953 33.3897 53.9953 29.3344Z" fill="#4DAC4D"/>
</svg>
