<svg width="257" height="624" viewBox="0 0 257 624" fill="none" xmlns="http://www.w3.org/2000/svg">
<g clip-path="url(#clip0_538_76)">
<rect x="0.27906" y="0.673804" width="426.374" height="431.358" rx="5.5" transform="matrix(-0.911181 -0.412007 0.353061 -0.9356 489.335 673.751)" stroke="#DDE1EB"/>
<rect x="0.27906" y="0.673804" width="395.058" height="399.676" rx="5.5" transform="matrix(-0.911181 -0.412007 0.353061 -0.9356 480.659 652.478)" stroke="#DDE1EB"/>
<rect x="0.27906" y="0.673804" width="347.214" height="351.271" rx="5.5" transform="matrix(-0.911181 -0.412007 0.353061 -0.9356 457.721 624.755)" stroke="#DDE1EB"/>
<rect x="0.27906" y="0.673804" width="288.932" height="292.306" rx="5.5" transform="matrix(-0.911181 -0.412007 0.353061 -0.9356 425.404 589.902)" stroke="#DDE1EB"/>
<rect x="0.27906" y="0.673804" width="228.04" height="230.701" rx="5.5" transform="matrix(-0.911181 -0.412007 0.353061 -0.9356 390.092 555.62)" stroke="#DDE1EB"/>
<rect x="0.27906" y="0.673804" width="177.587" height="179.656" rx="5.5" transform="matrix(-0.911181 -0.412007 0.353061 -0.9356 363.189 526.105)" stroke="#DDE1EB"/>
<rect x="0.27906" y="0.673804" width="134.962" height="136.532" rx="5.5" transform="matrix(-0.911181 -0.412007 0.353061 -0.9356 344.209 500.173)" stroke="#DDE1EB"/>
</g>
<defs>
<clipPath id="clip0_538_76">
<rect width="257" height="624" fill="white" transform="matrix(-1 0 0 -1 257 624)"/>
</clipPath>
</defs>
</svg>
