<svg width="32" height="32" viewBox="0 0 32 32" fill="none" xmlns="http://www.w3.org/2000/svg">
<path fill-rule="evenodd" clip-rule="evenodd" d="M19.4882 20.4148L19.4937 20.4157C19.5058 20.4167 19.517 20.4185 19.529 20.4204L19.5643 20.426L21.3465 18.6438C21.9316 18.0587 22.7257 17.729 23.5531 17.729C24.3815 17.729 25.1746 18.0587 25.7607 18.6438L28.0861 20.9692C28.6712 21.5543 29 22.3483 29 23.1767C29 24.0042 28.6712 24.7982 28.0861 25.3833L25.7607 27.7097C24.5413 28.929 22.5724 29.2968 20.2061 28.7591C17.0865 28.0496 13.1999 25.765 9.71722 22.2824C6.23456 18.7998 3.94994 14.9142 3.24134 11.7947C2.70269 9.42747 3.07136 7.45958 4.29075 6.24021L6.61627 3.91384C7.20135 3.32876 7.99539 3 8.82379 3C9.65127 3 10.4453 3.32876 11.0304 3.91384L13.3568 6.24021C13.9419 6.82529 14.2707 7.61931 14.2707 8.44677C14.2707 9.27517 13.9419 10.0692 13.3568 10.6543L11.6164 12.3937C11.5904 12.4197 11.5784 12.4569 11.583 12.4931C11.5849 12.5107 11.5867 12.5284 11.5886 12.5451C11.7641 13.9576 12.8497 15.8113 14.5196 17.4811C16.2024 19.1639 18.0719 20.2532 19.4882 20.4148Z" fill="#0466C8"/>
</svg>
