<svg width="30" height="34" viewBox="0 0 30 34" fill="none" xmlns="http://www.w3.org/2000/svg">
<path d="M19.1484 24.3574C17.9952 25.1715 16.5706 25.6463 15.0443 25.6463C13.518 25.6463 12.0935 25.1715 10.9403 24.3574C8.87129 25.0697 7.37891 27.0709 7.37891 29.3773V32.6334C7.37891 32.9047 7.61633 33.1082 7.85376 33.1082H22.201C22.4723 33.1082 22.6759 32.8708 22.6759 32.6334V29.3773C22.6759 27.0709 21.1835 25.1036 19.1484 24.3574Z" fill="#FB2B2B"/>
<path d="M15.0103 23.0338C17.5579 23.0338 19.6231 20.9685 19.6231 18.4209C19.6231 15.8733 17.5579 13.8081 15.0103 13.8081C12.4627 13.8081 10.3975 15.8733 10.3975 18.4209C10.3975 20.9685 12.4627 23.0338 15.0103 23.0338Z" fill="#FB2B2B"/>
<path d="M8.08978 21.7791C8.49679 21.6435 8.7003 21.2025 8.56463 20.7955C8.42896 20.3885 7.98802 20.185 7.58101 20.3207L4.49449 21.4739C3.85005 20.6598 2.73076 20.2867 1.6793 20.6598C0.390426 21.1347 -0.287931 22.5592 0.186919 23.8481C0.424344 24.4586 0.865276 24.9674 1.4758 25.2388C1.81498 25.4083 2.15415 25.4762 2.52725 25.4762C2.79859 25.4762 3.10385 25.4423 3.3752 25.3405C3.98572 25.1031 4.49449 24.6621 4.76583 24.0516C4.93542 23.6785 5.00325 23.3054 5.00325 22.8984L8.08978 21.7791Z" fill="#FB2B2B"/>
<path d="M21.9288 15.0979C21.5218 15.2336 21.3183 15.6745 21.454 16.0816C21.5557 16.3868 21.861 16.5903 22.1662 16.5903C22.268 16.5903 22.3358 16.5903 22.4376 16.5564L25.5241 15.4371C25.7615 15.7424 26.0668 16.0137 26.4399 16.1833C26.7791 16.3529 27.1182 16.4207 27.4913 16.4207C27.7627 16.4207 28.0679 16.3868 28.3393 16.2851C28.9498 16.0476 29.4586 15.6067 29.7299 14.9962C30.0013 14.3857 30.0352 13.7073 29.7978 13.0968C29.3229 11.8079 27.8984 11.1295 26.6095 11.6044C25.999 11.8418 25.4902 12.2828 25.2188 12.8933C25.0493 13.2664 24.9814 13.6395 24.9814 14.0465L21.9288 15.0979Z" fill="#FB2B2B"/>
<path d="M1.68046 16.2511C1.9518 16.3529 2.25706 16.3868 2.5284 16.3868C3.30851 16.3868 4.02079 16.0476 4.49564 15.4371L7.58216 16.5564C7.68391 16.5903 7.75175 16.5903 7.8535 16.5903C8.15876 16.5903 8.46403 16.3868 8.56578 16.0815C8.70145 15.6745 8.49794 15.2336 8.09093 15.0979L5.00441 13.9786C5.00441 13.6055 4.93657 13.1985 4.76698 12.8254C4.49564 12.2149 3.98687 11.774 3.37635 11.5365C2.08747 11.0617 0.66292 11.74 0.188071 13.0289C-0.0493543 13.6394 -0.0154365 14.3178 0.255906 14.9283C0.527249 15.5728 1.03602 16.0137 1.68046 16.2511Z" fill="#FB2B2B"/>
<path d="M28.3396 20.6606C27.2881 20.2875 26.1688 20.6606 25.5244 21.4746L22.4718 20.3553C22.0648 20.2197 21.6238 20.4232 21.4881 20.8302C21.3525 21.2372 21.556 21.6781 21.963 21.8138L25.0495 22.9331C25.0495 23.3062 25.1174 23.7132 25.2869 24.0863C25.5583 24.6968 26.0671 25.1378 26.6776 25.3752C26.9489 25.4769 27.2542 25.5108 27.5255 25.5108C28.5431 25.5108 29.4928 24.8664 29.8659 23.8828C30.3068 22.56 29.6284 21.1354 28.3396 20.6606Z" fill="#FB2B2B"/>
<path d="M9.48086 9.29765C9.61653 9.29765 9.78612 9.26373 9.92179 9.22981C10.2271 9.12806 10.5323 9.06022 10.8715 8.99239V11.4684C10.8715 11.7736 11.1428 12.045 11.4481 12.045H13.9241C13.8563 11.7397 13.7884 11.4345 13.7206 11.1631C13.6867 11.0275 13.6528 10.8918 13.6528 10.7222C13.6528 9.84033 14.4668 9.12806 15.3826 9.36548C15.8574 9.46724 16.2644 9.87425 16.4001 10.3491C16.4679 10.6204 16.4679 10.9257 16.3662 11.1631C16.2644 11.4684 16.1966 11.7397 16.1627 12.045H18.6387C18.9439 12.045 19.2153 11.7736 19.2153 11.4684V8.99239C19.5545 9.06022 19.8597 9.12806 20.165 9.22981C20.3007 9.26373 20.4363 9.29765 20.6059 9.29765C21.4878 9.29765 22.2001 8.48362 21.9626 7.56784C21.8609 7.09299 21.4539 6.68597 20.979 6.5503C20.7077 6.48247 20.4024 6.48247 20.165 6.58422C19.8597 6.68597 19.5205 6.75381 19.2153 6.82164V4.34564C19.2153 4.04038 18.9439 3.76904 18.6387 3.76904H16.1627C16.2305 3.42986 16.2983 3.1246 16.4001 2.81934C16.4679 2.58191 16.5019 2.31057 16.434 2.00531C16.2983 1.53046 15.8913 1.12345 15.4165 1.02169C14.5007 0.818185 13.6867 1.49654 13.6867 2.37841C13.6867 2.51408 13.7206 2.68367 13.7545 2.81934C13.8563 3.1246 13.9241 3.46378 13.9919 3.76904H11.482C11.1768 3.76904 10.9054 4.04038 10.9054 4.34564V6.82164C10.6002 6.75381 10.261 6.68597 9.95571 6.58422C9.71829 6.51638 9.44694 6.48247 9.14168 6.5503C8.66683 6.68597 8.25982 7.09299 8.15807 7.56784C7.88672 8.48362 8.56508 9.29765 9.48086 9.29765Z" fill="#FB2B2B"/>
</svg>
