<svg width="30" height="30" viewBox="0 0 30 30" fill="none" xmlns="http://www.w3.org/2000/svg">
<path d="M20 3.25C20 2.54994 20 2.1999 19.8638 1.93251C19.7439 1.69731 19.5527 1.50608 19.3175 1.38624C19.0501 1.25 18.7001 1.25 18 1.25H10.1006C9.22722 1.24999 8.50198 1.24998 7.90534 1.2954C7.28237 1.34282 6.70812 1.44451 6.15371 1.69573C5.28674 2.08857 4.5499 2.72071 4.0298 3.51786C3.69721 4.02763 3.50938 4.57974 3.36778 5.18826C3.23216 5.77107 3.12191 6.48782 2.9891 7.35112L2.3196 11.7029C2.14362 12.8466 1.99937 13.7842 1.94834 14.5495C1.89569 15.339 1.93013 16.0757 2.19946 16.7819C2.61303 17.8662 3.39087 18.7728 4.39966 19.3464C5.05664 19.72 5.77955 19.8661 6.56791 19.9341C7.33202 20 8.28064 20 9.43783 20H10.5001C10.8708 20 11.0736 20.001 11.2193 20.0129L11.2358 20.0143L11.2373 20.0308C11.2492 20.1765 11.2501 20.3793 11.2501 20.75V24.4177C11.2501 26.8104 13.1898 28.75 15.5824 28.75C16.4825 28.75 17.2981 28.22 17.6636 27.3975L21.8645 17.9454C21.9664 17.7161 22.0197 17.5978 22.0633 17.5146L22.0672 17.5072L22.0755 17.5067C22.1693 17.5006 22.2989 17.5 22.5499 17.5H23.5483C24.2072 17.5 24.7757 17.5 25.2439 17.4618C25.7381 17.4214 26.2296 17.3323 26.7026 17.0913C27.4082 16.7318 27.9819 16.1581 28.3414 15.4525C28.5824 14.9795 28.6716 14.488 28.7119 13.9938C28.7502 13.5256 28.7502 12.9571 28.7501 12.2982V6.45179C28.7502 5.79287 28.7502 5.22443 28.7119 4.75622C28.6716 4.26204 28.5824 3.77051 28.3414 3.29754C27.9819 2.59193 27.4082 2.01825 26.7026 1.65873C26.2296 1.41774 25.7381 1.32859 25.2439 1.28822C24.7757 1.24996 24.2073 1.24998 23.5484 1.25C22.9694 1.25 22.5 1.71937 22.5 2.29837V12.5C22.5 13.1904 21.9404 13.75 21.25 13.75C20.5596 13.75 20 13.1904 20 12.5V3.25Z" fill="#FB2B2B"/>
</svg>
