<svg width="18" height="18" viewBox="0 0 18 18" fill="none" xmlns="http://www.w3.org/2000/svg">
<path d="M9.1 0.359374C13.9699 0.359374 17.9156 4.30508 17.9156 9.175C17.9156 14.0449 13.9699 17.9906 9.1 17.9906C4.23008 17.9906 0.284375 14.0449 0.284375 9.175C0.284375 4.30508 4.23008 0.359374 9.1 0.359374ZM9.1 16.2844C13.0102 16.2844 16.2094 13.1207 16.2094 9.175C16.2094 5.26484 13.0102 2.06562 9.1 2.06562C5.1543 2.06562 1.99063 5.26484 1.99063 9.175C1.99063 13.1207 5.1543 16.2844 9.1 16.2844ZM11.2684 12.5875L8.24688 10.3836C8.14023 10.3125 8.10469 10.1703 8.10469 10.0637V4.19844C8.10469 3.98516 8.28242 3.77187 8.53125 3.77187H9.66875C9.88203 3.77187 10.0953 3.98516 10.0953 4.19844V9.24609L12.4414 10.9879C12.6547 11.1301 12.6902 11.3789 12.548 11.5922L11.8727 12.4809C11.7305 12.6941 11.4816 12.7297 11.2684 12.5875Z" fill="white"/>
</svg>
