<svg width="32" height="32" viewBox="0 0 32 32" fill="none" xmlns="http://www.w3.org/2000/svg">
<path d="M0 17.3333C0 7.7604 7.7604 0 17.3333 0H20.8C26.9856 0 32 5.01441 32 11.2V17.6C32 25.5529 25.5529 32 17.6 32H14.6667C6.56649 32 0 25.4335 0 17.3333Z" fill="#417EC6"/>
<path d="M10.9598 15.3135C11.7541 15.3135 12.3998 14.6985 12.3998 13.9421C12.3998 13.1856 11.7541 12.5706 10.9598 12.5706C10.1656 12.5706 9.5198 13.1856 9.5198 13.9421C9.5198 14.6985 10.1656 15.3135 10.9598 15.3135ZM21.0398 15.3135C21.8341 15.3135 22.4798 14.6985 22.4798 13.9421C22.4798 13.1856 21.8341 12.5706 21.0398 12.5706C20.2456 12.5706 19.5998 13.1856 19.5998 13.9421C19.5998 14.6985 20.2456 15.3135 21.0398 15.3135ZM21.7598 15.9992H20.3198C19.9238 15.9992 19.5661 16.1514 19.3051 16.3978C20.2118 16.8714 20.8553 17.7264 20.9948 18.7421H22.4798C22.8781 18.7421 23.1998 18.4356 23.1998 18.0564V17.3706C23.1998 16.6142 22.5541 15.9992 21.7598 15.9992ZM15.9998 15.9992C17.3926 15.9992 18.5198 14.9256 18.5198 13.5992C18.5198 12.2728 17.3926 11.1992 15.9998 11.1992C14.6071 11.1992 13.4798 12.2728 13.4798 13.5992C13.4798 14.9256 14.6071 15.9992 15.9998 15.9992ZM17.7278 16.6849H17.5411C17.0731 16.8992 16.5533 17.0278 15.9998 17.0278C15.4463 17.0278 14.9288 16.8992 14.4586 16.6849H14.2718C12.8408 16.6849 11.6798 17.7906 11.6798 19.1535V19.7706C11.6798 20.3385 12.1636 20.7992 12.7598 20.7992H19.2398C19.8361 20.7992 20.3198 20.3385 20.3198 19.7706V19.1535C20.3198 17.7906 19.1588 16.6849 17.7278 16.6849ZM12.6946 16.3978C12.4336 16.1514 12.0758 15.9992 11.6798 15.9992H10.2398C9.44555 15.9992 8.7998 16.6142 8.7998 17.3706V18.0564C8.7998 18.4356 9.12155 18.7421 9.5198 18.7421H11.0026C11.1443 17.7264 11.7878 16.8714 12.6946 16.3978Z" fill="white"/>
</svg>
