<svg width="32" height="32" viewBox="0 0 32 32" fill="none" xmlns="http://www.w3.org/2000/svg">
<path d="M0 17.3333C0 7.7604 7.7604 0 17.3333 0H20.8C26.9856 0 32 5.01441 32 11.2V17.6C32 25.5529 25.5529 32 17.6 32H14.6667C6.56649 32 0 25.4335 0 17.3333Z" fill="#E68F40"/>
<path d="M17.683 15.4944C17.6922 15.2954 17.6552 15.097 17.5748 14.9136C17.4944 14.7301 17.3726 14.5662 17.2182 14.4338C16.9074 14.1721 16.4837 14.0412 15.9472 14.0412C15.5143 14.0209 15.0868 14.1414 14.7334 14.3831C14.5969 14.4859 14.4856 14.6164 14.4076 14.7655C14.3296 14.9145 14.2868 15.0783 14.2822 15.2452C14.2797 15.2861 14.2942 15.3262 14.3224 15.3569C14.3505 15.3876 14.3902 15.4063 14.4326 15.4089L15.1621 15.4219C15.2194 15.4238 15.2757 15.4075 15.3224 15.3756C15.3692 15.3437 15.4037 15.2978 15.4208 15.2452C15.4429 15.1619 15.4894 15.0865 15.5547 15.0278C15.6588 14.9374 15.7951 14.8892 15.9352 14.8931C16.0157 14.8884 16.0962 14.9005 16.1713 14.9288C16.2464 14.9571 16.3141 15.0008 16.3699 15.0568C16.4749 15.1784 16.5285 15.3335 16.5203 15.4915C16.5236 15.6563 16.4782 15.8186 16.3894 15.9594C16.299 16.098 16.1764 16.2145 16.0315 16.2999C15.8025 16.443 15.5993 16.6212 15.4298 16.8273C15.3323 16.9777 15.2768 17.1499 15.2689 17.3271C15.267 17.3507 15.2702 17.3743 15.2783 17.3966C15.2864 17.4188 15.2992 17.4393 15.3158 17.4565C15.3325 17.4738 15.3527 17.4876 15.3752 17.497C15.3976 17.5064 15.4219 17.5112 15.4464 17.5111H16.2375C16.2814 17.5114 16.3238 17.496 16.3566 17.4679C16.3894 17.4398 16.4102 17.401 16.415 17.359C16.4216 17.2632 16.445 17.1691 16.4842 17.0808C16.5547 16.9593 16.6588 16.859 16.785 16.7911C17.0414 16.6631 17.2621 16.4778 17.4288 16.2507C17.4496 16.2232 17.4692 16.195 17.4876 16.1661C17.5888 16.0075 17.6525 15.8296 17.6744 15.6451C17.6761 15.6307 17.6776 15.6163 17.6788 15.6018C17.6792 15.5972 17.6795 15.5927 17.6798 15.5882C17.68 15.5857 17.6802 15.5833 17.6803 15.5809C17.6822 15.5522 17.6831 15.5233 17.683 15.4944Z" fill="white"/>
<path fill-rule="evenodd" clip-rule="evenodd" d="M17.6544 21.8301V21.4114C17.6531 21.3082 17.6115 21.2094 17.5379 21.1344C17.4643 21.0595 17.3641 21.0141 17.2573 21.0072H14.7154C14.6602 21.007 14.6056 21.0173 14.5546 21.0375C14.5036 21.0578 14.4572 21.0876 14.4182 21.1251C14.3792 21.1627 14.3483 21.2073 14.3273 21.2565C14.3063 21.3056 14.2956 21.3582 14.2958 21.4114V21.8301C14.2952 21.9879 14.354 22.1406 14.4613 22.2599C14.5686 22.3792 14.7171 22.4571 14.8793 22.4792L14.9846 22.8544C15.0094 22.9546 15.069 23.0436 15.1535 23.1066C15.2381 23.1696 15.3425 23.2028 15.4494 23.2007H16.5023C16.6077 23.1981 16.7095 23.1631 16.7929 23.1008C16.8762 23.0385 16.9367 22.9522 16.9655 22.8544L17.0708 22.4792C17.2331 22.4571 17.3815 22.3792 17.4888 22.2599C17.5961 22.1406 17.6549 21.9879 17.6544 21.8301ZM15.4464 10.7176V9.33395C15.4464 9.19254 15.5047 9.05693 15.6085 8.95694C15.7123 8.85695 15.8531 8.80078 15.9999 8.80078C16.1467 8.80078 16.2875 8.85695 16.3913 8.95694C16.4951 9.05693 16.5534 9.19254 16.5534 9.33395V10.7176C16.5534 10.859 16.4951 10.9946 16.3913 11.0946C16.2875 11.1946 16.1467 11.2507 15.9999 11.2507C15.8531 11.2507 15.7123 11.1946 15.6085 11.0946C15.5047 10.9946 15.4464 10.859 15.4464 10.7176ZM11.174 16.1088C11.0705 16.209 10.9304 16.2662 10.7837 16.268L9.35331 16.2651C9.20651 16.2651 9.06572 16.209 8.96192 16.109C8.85812 16.009 8.7998 15.8734 8.7998 15.732C8.7998 15.5906 8.85812 15.455 8.96192 15.355C9.06572 15.255 9.20651 15.1988 9.35331 15.1988H10.7837C10.9305 15.1988 11.0713 15.255 11.1751 15.355C11.2789 15.455 11.3372 15.5906 11.3372 15.732C11.336 15.8733 11.2774 16.0086 11.174 16.1088ZM21.2086 15.2017H22.6374L22.645 15.1988C22.7227 15.1981 22.7997 15.2129 22.8712 15.2423C22.9426 15.2717 23.007 15.3151 23.0601 15.3698C23.1088 15.4197 23.1463 15.4788 23.1701 15.5434C23.1939 15.608 23.2036 15.6766 23.1985 15.745C23.1961 15.8848 23.1367 16.018 23.0331 16.1159C22.9295 16.2138 22.7901 16.2684 22.645 16.268H21.2086C21.1359 16.268 21.0639 16.2543 20.9967 16.2275C20.9296 16.2007 20.8686 16.1614 20.8172 16.1119C20.7658 16.0624 20.725 16.0036 20.6972 15.9389C20.6694 15.8742 20.655 15.8049 20.655 15.7349C20.655 15.6649 20.6694 15.5955 20.6972 15.5308C20.725 15.4662 20.7658 15.4074 20.8172 15.3579C20.8686 15.3084 20.9296 15.2691 20.9967 15.2423C21.0639 15.2155 21.1359 15.2017 21.2086 15.2017ZM10.8106 20.5714C10.75 20.4828 10.7181 20.3787 10.719 20.2726L10.728 20.2668C10.7277 20.1952 10.7421 20.1242 10.7705 20.0581C10.7989 19.9919 10.8407 19.9318 10.8935 19.8814L11.9163 18.8962C12.0215 18.8019 12.1599 18.7495 12.3036 18.7495C12.4473 18.7495 12.5857 18.8019 12.6909 18.8962C12.7448 18.9462 12.7877 19.0062 12.817 19.0725C12.8463 19.1389 12.8614 19.2102 12.8614 19.2823C12.8614 19.3544 12.8463 19.4258 12.817 19.4921C12.7877 19.5585 12.7448 19.6184 12.6909 19.6684L11.6666 20.6551C11.5887 20.7302 11.4894 20.7812 11.3813 20.8017C11.2731 20.8222 11.1611 20.8113 11.0595 20.7703C10.9579 20.7292 10.8712 20.66 10.8106 20.5714ZM20.6994 10.664C20.8482 10.664 20.991 10.7202 21.0972 10.8204L21.1048 10.8147C21.1571 10.8645 21.1986 10.9238 21.2269 10.9893C21.2553 11.0547 21.2698 11.1248 21.2698 11.1957C21.2698 11.2666 21.2553 11.3367 21.2269 11.4021C21.1986 11.4675 21.1571 11.5269 21.1048 11.5767L20.0865 12.5576C19.9833 12.6575 19.8433 12.7143 19.6969 12.7155C19.5516 12.7128 19.4118 12.6616 19.3014 12.5706C19.246 12.5203 19.2017 12.4597 19.1712 12.3925C19.1407 12.3253 19.1246 12.2528 19.1239 12.1794C19.1241 12.1082 19.139 12.0378 19.1676 11.9721C19.1963 11.9065 19.2382 11.8469 19.2908 11.797L20.3016 10.8204C20.4078 10.7202 20.5507 10.664 20.6994 10.664ZM12.0952 12.6883C12.0263 12.6585 11.9644 12.6155 11.9133 12.5619L10.886 11.5811C10.8237 11.5339 10.7725 11.4745 10.7357 11.4069C10.6989 11.3392 10.6774 11.2649 10.6725 11.1887C10.6676 11.1125 10.6795 11.0362 10.7074 10.9647C10.7353 10.8933 10.7786 10.8283 10.8343 10.774C10.8901 10.7198 10.9571 10.6775 11.0311 10.65C11.105 10.6224 11.1841 10.6103 11.2633 10.6142C11.3424 10.6182 11.4198 10.6382 11.4903 10.673C11.5609 10.7078 11.623 10.7566 11.6726 10.8161L12.6909 11.797C12.7476 11.8451 12.7935 11.9038 12.8259 11.9695C12.8583 12.0353 12.8764 12.1067 12.8792 12.1795C12.882 12.2522 12.8694 12.3247 12.8421 12.3926C12.8149 12.4605 12.7736 12.5223 12.7207 12.5743C12.6678 12.6263 12.6045 12.6674 12.5347 12.6951C12.4648 12.7227 12.3898 12.7364 12.3142 12.7353C12.2387 12.7341 12.1642 12.7181 12.0952 12.6883ZM20.7042 20.8031C20.5565 20.8043 20.4144 20.749 20.3091 20.6493L19.2908 19.6699C19.2379 19.62 19.1958 19.5604 19.167 19.4945C19.1383 19.4287 19.1235 19.3581 19.1235 19.2867C19.1235 19.2153 19.1383 19.1446 19.167 19.0788C19.1958 19.013 19.2379 18.9534 19.2908 18.9035C19.3973 18.8035 19.54 18.7476 19.6887 18.7476C19.8373 18.7476 19.98 18.8035 20.0865 18.9035L21.0897 19.8843C21.195 19.984 21.2549 20.12 21.2562 20.2622C21.2575 20.4044 21.2 20.5413 21.0965 20.6428C20.993 20.7442 20.8519 20.8019 20.7042 20.8031ZM17.6803 15.5809C17.6802 15.5833 17.68 15.5857 17.6798 15.5882C17.6795 15.5927 17.6792 15.5972 17.6788 15.6018C17.6776 15.6163 17.6761 15.6307 17.6744 15.6451C17.6525 15.8296 17.5888 16.0075 17.4876 16.1661" fill="white"/>
<path fill-rule="evenodd" clip-rule="evenodd" d="M17.9928 19.7018C17.9536 19.9215 17.8353 20.1209 17.6588 20.265C17.4822 20.4091 17.2586 20.4887 17.0272 20.4899H14.947C14.7131 20.492 14.4863 20.4124 14.3085 20.266C14.1308 20.1195 14.014 19.916 13.9799 19.6931C13.8938 19.1666 13.6424 18.6782 13.2594 18.2935C12.748 17.7819 12.4032 17.1373 12.2677 16.4392C12.1322 15.7411 12.2119 15.02 12.497 14.365C12.782 13.71 13.2599 13.1497 13.8717 12.7534C14.4835 12.357 15.2024 12.1419 15.9397 12.1345H15.9683C16.7121 12.1298 17.4407 12.3368 18.0629 12.7294C18.685 13.1221 19.1729 13.6829 19.4654 14.3417C19.758 15.0004 19.8421 15.7276 19.7072 16.4322C19.5723 17.1368 19.2244 17.7873 18.7072 18.3022C18.3233 18.6855 18.0735 19.1748 17.9928 19.7018ZM16.3389 18.0611C16.3857 18.1062 16.412 18.1674 16.412 18.2312V18.6325C16.412 18.6963 16.3857 18.7575 16.3389 18.8026C16.2921 18.8477 16.2285 18.873 16.1623 18.873H15.5216C15.4554 18.873 15.3919 18.8477 15.345 18.8026C15.2982 18.7575 15.2719 18.6963 15.2719 18.6325V18.2312C15.2719 18.1674 15.2982 18.1062 15.345 18.0611C15.3919 18.016 15.4554 17.9907 15.5216 17.9907H16.1623C16.2285 17.9907 16.2921 18.016 16.3389 18.0611ZM17.5748 14.9136C17.6552 15.097 17.6922 15.2954 17.683 15.4944C17.6831 15.5233 17.6822 15.5522 17.6803 15.5809L17.6798 15.5882L17.6788 15.6018C17.6776 15.6163 17.6761 15.6307 17.6744 15.6451C17.6525 15.8296 17.5888 16.0075 17.4876 16.1661C17.4692 16.195 17.4496 16.2232 17.4288 16.2507C17.2621 16.4778 17.0414 16.6631 16.785 16.7911C16.6588 16.859 16.5547 16.9593 16.4842 17.0808C16.445 17.1691 16.4216 17.2632 16.415 17.359C16.4102 17.401 16.3894 17.4398 16.3566 17.4679C16.3238 17.496 16.2814 17.5114 16.2375 17.5111H15.4464C15.4219 17.5112 15.3976 17.5064 15.3752 17.497C15.3527 17.4876 15.3325 17.4738 15.3158 17.4565C15.2992 17.4393 15.2864 17.4188 15.2783 17.3966C15.2702 17.3743 15.267 17.3507 15.2689 17.3271C15.2768 17.1499 15.3323 16.9777 15.4298 16.8273C15.5993 16.6212 15.8025 16.443 16.0315 16.2999C16.1764 16.2145 16.299 16.098 16.3894 15.9594C16.4782 15.8186 16.5236 15.6563 16.5203 15.4915C16.5285 15.3335 16.4749 15.1784 16.3699 15.0568C16.3141 15.0008 16.2464 14.9571 16.1713 14.9288C16.0962 14.9005 16.0157 14.8884 15.9352 14.8931C15.7951 14.8892 15.6588 14.9374 15.5547 15.0278C15.4894 15.0865 15.4429 15.1619 15.4208 15.2452C15.4037 15.2978 15.3692 15.3437 15.3224 15.3756C15.2757 15.4075 15.2194 15.4238 15.1621 15.4219L14.4326 15.4089C14.3902 15.4063 14.3505 15.3876 14.3224 15.3569C14.2942 15.3262 14.2797 15.2861 14.2822 15.2452C14.2868 15.0783 14.3296 14.9145 14.4076 14.7655C14.4856 14.6164 14.5969 14.4859 14.7334 14.3831C15.0868 14.1414 15.5143 14.0209 15.9472 14.0412C16.4837 14.0412 16.9074 14.1721 17.2182 14.4338C17.3726 14.5662 17.4944 14.7301 17.5748 14.9136Z" fill="white"/>
<path d="M16.412 18.2312C16.412 18.1674 16.3857 18.1062 16.3389 18.0611C16.2921 18.016 16.2285 17.9907 16.1623 17.9907H15.5216C15.4554 17.9907 15.3919 18.016 15.345 18.0611C15.2982 18.1062 15.2719 18.1674 15.2719 18.2312V18.6325C15.2719 18.6963 15.2982 18.7575 15.345 18.8026C15.3919 18.8477 15.4554 18.873 15.5216 18.873H16.1623C16.2285 18.873 16.2921 18.8477 16.3389 18.8026C16.3857 18.7575 16.412 18.6963 16.412 18.6325V18.2312Z" fill="white"/>
</svg>
