<svg width="32" height="32" viewBox="0 0 32 32" fill="none" xmlns="http://www.w3.org/2000/svg">
<path d="M0 17.3333C0 7.7604 7.7604 0 17.3333 0H20.8C26.9856 0 32 5.01441 32 11.2V17.6C32 25.5529 25.5529 32 17.6 32H14.6667C6.56649 32 0 25.4335 0 17.3333Z" fill="#E68F40"/>
<path d="M11.5 16.0371C11.5 16.2496 11.5156 16.4559 11.5469 16.6559C11.5781 16.8559 11.625 17.0559 11.6875 17.2559C11.75 17.4684 11.7562 17.684 11.7062 17.9027C11.6562 18.1215 11.55 18.3121 11.3875 18.4746C11.25 18.6121 11.0844 18.6746 10.8906 18.6621C10.6969 18.6496 10.5625 18.5559 10.4875 18.3809C10.325 18.0059 10.2031 17.6215 10.1219 17.2277C10.0406 16.834 10 16.4371 10 16.0371C10 14.3621 10.5812 12.9371 11.7437 11.7621C12.9062 10.5871 14.325 9.99961 16 9.99961H16.1312L15.4562 9.32461C15.3187 9.18711 15.25 9.01211 15.25 8.79961C15.25 8.58711 15.3187 8.41211 15.4562 8.27461C15.5937 8.13711 15.7687 8.06836 15.9812 8.06836C16.1937 8.06836 16.3687 8.13711 16.5062 8.27461L18.4562 10.2246C18.6062 10.3746 18.6812 10.5496 18.6812 10.7496C18.6812 10.9496 18.6062 11.1246 18.4562 11.2746L16.5062 13.2246C16.3687 13.3621 16.1937 13.4309 15.9812 13.4309C15.7687 13.4309 15.5937 13.3621 15.4562 13.2246C15.3187 13.0871 15.25 12.9121 15.25 12.6996C15.25 12.4871 15.3187 12.3121 15.4562 12.1746L16.1312 11.4996H16C14.75 11.4996 13.6875 11.9402 12.8125 12.8215C11.9375 13.7027 11.5 14.7746 11.5 16.0371ZM20.5 15.9621C20.5 15.7496 20.4844 15.5434 20.4531 15.3434C20.4219 15.1434 20.375 14.9434 20.3125 14.7434C20.25 14.5309 20.2437 14.3152 20.2937 14.0965C20.3437 13.8777 20.45 13.6871 20.6125 13.5246C20.75 13.3871 20.9156 13.3246 21.1094 13.3371C21.3031 13.3496 21.4375 13.4434 21.5125 13.6184C21.675 13.9934 21.7969 14.3777 21.8781 14.7715C21.9594 15.1652 22 15.5621 22 15.9621C22 17.6371 21.4187 19.0621 20.2562 20.2371C19.0937 21.4121 17.675 21.9996 16 21.9996H15.8687L16.5437 22.6746C16.6812 22.8121 16.75 22.9871 16.75 23.1996C16.75 23.4121 16.6812 23.5871 16.5437 23.7246C16.4062 23.8621 16.2312 23.9309 16.0187 23.9309C15.8062 23.9309 15.6312 23.8621 15.4937 23.7246L13.5437 21.7746C13.3937 21.6246 13.3187 21.4496 13.3187 21.2496C13.3187 21.0496 13.3937 20.8746 13.5437 20.7246L15.4937 18.7746C15.6312 18.6371 15.8062 18.5684 16.0187 18.5684C16.2312 18.5684 16.4062 18.6371 16.5437 18.7746C16.6812 18.9121 16.75 19.0871 16.75 19.2996C16.75 19.5121 16.6812 19.6871 16.5437 19.8246L15.8687 20.4996H16C17.25 20.4996 18.3125 20.059 19.1875 19.1777C20.0625 18.2965 20.5 17.2246 20.5 15.9621Z" fill="white"/>
</svg>
