<svg width="32" height="32" viewBox="0 0 32 32" fill="none" xmlns="http://www.w3.org/2000/svg">
<path d="M0 17.3333C0 7.7604 7.7604 0 17.3333 0H20.8C26.9856 0 32 5.01441 32 11.2V17.6C32 25.5529 25.5529 32 17.6 32H14.6667C6.56649 32 0 25.4335 0 17.3333Z" fill="#F35D93"/>
<path d="M9.025 20.2191C8.875 20.0691 8.80312 19.891 8.80937 19.6848C8.81562 19.4785 8.8875 19.3066 9.025 19.1691L12.9812 15.1566C13.2687 14.8691 13.625 14.7254 14.05 14.7254C14.475 14.7254 14.8312 14.8691 15.1187 15.1566L17.05 17.1066L20.95 13.2441H19.75C19.5375 13.2441 19.3594 13.1723 19.2156 13.0285C19.0719 12.8848 19 12.7066 19 12.4941C19 12.2816 19.0719 12.1035 19.2156 11.9598C19.3594 11.816 19.5375 11.7441 19.75 11.7441H22.75C22.9625 11.7441 23.1406 11.816 23.2844 11.9598C23.4281 12.1035 23.5 12.2816 23.5 12.4941V15.4941C23.5 15.7066 23.4281 15.8848 23.2844 16.0285C23.1406 16.1723 22.9625 16.2441 22.75 16.2441C22.5375 16.2441 22.3594 16.1723 22.2156 16.0285C22.0719 15.8848 22 15.7066 22 15.4941V14.2941L18.1187 18.1754C17.8312 18.4629 17.475 18.6066 17.05 18.6066C16.625 18.6066 16.2687 18.4629 15.9812 18.1754L14.05 16.2441L10.075 20.2191C9.9375 20.3566 9.7625 20.4254 9.55 20.4254C9.3375 20.4254 9.1625 20.3566 9.025 20.2191Z" fill="white"/>
</svg>
