<svg width="32" height="32" viewBox="0 0 32 32" fill="none" xmlns="http://www.w3.org/2000/svg">
<path d="M0 17.3333C0 7.7604 7.7604 0 17.3333 0H20.8C26.9856 0 32 5.01441 32 11.2V17.6C32 25.5529 25.5529 32 17.6 32H14.6667C6.56649 32 0 25.4335 0 17.3333Z" fill="#F35D93"/>
<path d="M16.0004 9.40039C14.695 9.40039 13.419 9.78747 12.3336 10.5127C11.2483 11.2379 10.4023 12.2687 9.90279 13.4747C9.40325 14.6807 9.27255 16.0077 9.52721 17.288C9.78187 18.5683 10.4105 19.7443 11.3335 20.6673C12.2565 21.5903 13.4325 22.2189 14.7128 22.4736C15.9931 22.7282 17.3201 22.5975 18.5261 22.098C19.7321 21.5985 20.7629 20.7525 21.4881 19.6672C22.2133 18.5818 22.6004 17.3057 22.6004 16.0004C22.5985 14.2505 21.9026 12.5729 20.6653 11.3355C19.4279 10.0982 17.7503 9.40224 16.0004 9.40039ZM19.5542 16.5081H16.0004C15.8657 16.5081 15.7366 16.4546 15.6414 16.3594C15.5462 16.2642 15.4927 16.135 15.4927 16.0004V12.4465C15.4927 12.3119 15.5462 12.1828 15.6414 12.0876C15.7366 11.9923 15.8657 11.9389 16.0004 11.9389C16.135 11.9389 16.2642 11.9923 16.3594 12.0876C16.4546 12.1828 16.5081 12.3119 16.5081 12.4465V15.4927H19.5542C19.6889 15.4927 19.818 15.5462 19.9132 15.6414C20.0084 15.7366 20.0619 15.8657 20.0619 16.0004C20.0619 16.135 20.0084 16.2642 19.9132 16.3594C19.818 16.4546 19.6889 16.5081 19.5542 16.5081Z" fill="white"/>
</svg>
