<svg width="32" height="32" viewBox="0 0 32 32" fill="none" xmlns="http://www.w3.org/2000/svg">
<path d="M0 17.3333C0 7.7604 7.7604 0 17.3333 0H20.8C26.9856 0 32 5.01441 32 11.2V17.6C32 25.5529 25.5529 32 17.6 32H14.6667C6.56649 32 0 25.4335 0 17.3333Z" fill="#E68F40"/>
<path d="M11.5 22C11.0858 22 10.75 21.6642 10.75 21.25V21.1882C10.75 20.8081 11.0581 20.5 11.4382 20.5C11.742 20.5 12.0098 20.3008 12.0972 20.0098L13.4312 15.5688C13.5312 15.2438 13.7157 14.9845 13.9847 14.791C14.2537 14.5975 14.5505 14.5005 14.875 14.5H17.125C17.45 14.5 17.747 14.597 18.016 14.791C18.285 14.985 18.4692 15.2443 18.5687 15.5688L19.9028 20.0098C19.9902 20.3008 20.258 20.5 20.5618 20.5C20.9419 20.5 21.25 20.8081 21.25 21.1882V21.25C21.25 21.6642 20.9142 22 20.5 22H11.5ZM16 13C15.5858 13 15.25 12.6642 15.25 12.25V10C15.25 9.58579 15.5858 9.25 16 9.25C16.4142 9.25 16.75 9.58579 16.75 10V12.25C16.75 12.6642 16.4142 13 16 13ZM20.245 14.32C19.9512 14.6159 19.4729 14.6167 19.1781 14.3219C18.8833 14.0271 18.8841 13.5488 19.18 13.255L20.7794 11.6669C21.0707 11.3777 21.541 11.3785 21.8312 11.6688C22.1215 11.959 22.1223 12.4293 21.8331 12.7206L20.245 14.32ZM21.25 18.25C20.8358 18.25 20.5 17.9142 20.5 17.5C20.5 17.0858 20.8358 16.75 21.25 16.75H23.5C23.9142 16.75 24.25 17.0858 24.25 17.5C24.25 17.9142 23.9142 18.25 23.5 18.25H21.25ZM12.8219 14.3219C12.5271 14.6167 12.0488 14.6159 11.755 14.32L10.1669 12.7206C9.87767 12.4293 9.8785 11.959 10.1687 11.6688C10.459 11.3785 10.9293 11.3777 11.2206 11.6669L12.82 13.255C13.1159 13.5488 13.1167 14.0271 12.8219 14.3219ZM8.5 18.25C8.08579 18.25 7.75 17.9142 7.75 17.5C7.75 17.0858 8.08579 16.75 8.5 16.75H10.75C11.1642 16.75 11.5 17.0858 11.5 17.5C11.5 17.9142 11.1642 18.25 10.75 18.25H8.5Z" fill="white"/>
</svg>
