<svg width="32" height="32" viewBox="0 0 32 32" fill="none" xmlns="http://www.w3.org/2000/svg">
<path d="M0 17.3333C0 7.7604 7.7604 0 17.3333 0H20.8C26.9856 0 32 5.01441 32 11.2V17.6C32 25.5529 25.5529 32 17.6 32H14.6667C6.56649 32 0 25.4335 0 17.3333Z" fill="#417EC6"/>
<path d="M16 17.1258L17.5938 18.3445C17.6688 18.407 17.7438 18.4102 17.8188 18.3539C17.8938 18.2977 17.9188 18.2258 17.8938 18.1383L17.275 16.1508L18.9438 14.8383C19.0063 14.7758 19.025 14.7039 19 14.6227C18.975 14.5414 18.9188 14.5008 18.8313 14.5008H16.825L16.1875 12.4945C16.1625 12.407 16.1 12.3633 16 12.3633C15.9 12.3633 15.8375 12.407 15.8125 12.4945L15.175 14.5008H13.1688C13.0813 14.5008 13.0219 14.5414 12.9906 14.6227C12.9594 14.7039 12.975 14.7758 13.0375 14.8383L14.6875 16.1508L14.0688 18.157C14.0438 18.2445 14.0688 18.3164 14.1438 18.3727C14.2188 18.4289 14.2938 18.4258 14.3688 18.3633L16 17.1258ZM16 23.4258C15.9125 23.4258 15.8313 23.4195 15.7563 23.407C15.6813 23.3945 15.6063 23.3758 15.5313 23.3508C13.8438 22.7883 12.5 21.7477 11.5 20.2289C10.5 18.7102 10 17.0758 10 15.3258V11.782C10 11.4695 10.0906 11.1883 10.2719 10.9383C10.4531 10.6883 10.6875 10.507 10.975 10.3945L15.475 8.70703C15.65 8.64453 15.825 8.61328 16 8.61328C16.175 8.61328 16.35 8.64453 16.525 8.70703L21.025 10.3945C21.3125 10.507 21.5469 10.6883 21.7281 10.9383C21.9094 11.1883 22 11.4695 22 11.782V15.3258C22 17.0758 21.5 18.7102 20.5 20.2289C19.5 21.7477 18.1563 22.7883 16.4688 23.3508C16.3938 23.3758 16.3188 23.3945 16.2438 23.407C16.1688 23.4195 16.0875 23.4258 16 23.4258Z" fill="white"/>
</svg>
