<svg width="32" height="32" viewBox="0 0 32 32" fill="none" xmlns="http://www.w3.org/2000/svg">
<path d="M0 17.3333C0 7.7604 7.7604 0 17.3333 0H20.8C26.9856 0 32 5.01441 32 11.2V17.6C32 25.5529 25.5529 32 17.6 32H14.6667C6.56649 32 0 25.4335 0 17.3333Z" fill="#417EC6"/>
<path d="M16 19.75C16.3978 19.75 16.7794 19.592 17.0607 19.3107C17.342 19.0294 17.5 18.6478 17.5 18.25C17.5 17.8522 17.342 17.4706 17.0607 17.1893C16.7794 16.908 16.3978 16.75 16 16.75C15.6022 16.75 15.2206 16.908 14.9393 17.1893C14.658 17.4706 14.5 17.8522 14.5 18.25C14.5 18.6478 14.658 19.0294 14.9393 19.3107C15.2206 19.592 15.6022 19.75 16 19.75ZM20.5 13C20.8978 13 21.2794 13.158 21.5607 13.4393C21.842 13.7206 22 14.1022 22 14.5V22C22 22.3978 21.842 22.7794 21.5607 23.0607C21.2794 23.342 20.8978 23.5 20.5 23.5H11.5C11.1022 23.5 10.7206 23.342 10.4393 23.0607C10.158 22.7794 10 22.3978 10 22V14.5C10 14.1022 10.158 13.7206 10.4393 13.4393C10.7206 13.158 11.1022 13 11.5 13H12.25V11.5C12.25 10.5054 12.6451 9.55161 13.3483 8.84835C14.0516 8.14509 15.0054 7.75 16 7.75C16.4925 7.75 16.9801 7.847 17.4351 8.03545C17.89 8.22391 18.3034 8.50013 18.6517 8.84835C18.9999 9.19657 19.2761 9.60997 19.4645 10.0649C19.653 10.5199 19.75 11.0075 19.75 11.5V13H20.5ZM16 9.25C15.4033 9.25 14.831 9.48705 14.409 9.90901C13.9871 10.331 13.75 10.9033 13.75 11.5V13H18.25V11.5C18.25 10.9033 18.0129 10.331 17.591 9.90901C17.169 9.48705 16.5967 9.25 16 9.25Z" fill="white"/>
</svg>
