<svg width="32" height="32" viewBox="0 0 32 32" fill="none" xmlns="http://www.w3.org/2000/svg">
<path d="M0 17.3333C0 7.7604 7.7604 0 17.3333 0H20.8C26.9856 0 32 5.01441 32 11.2V17.6C32 25.5529 25.5529 32 17.6 32H14.6667C6.56649 32 0 25.4335 0 17.3333Z" fill="#E68F40"/>
<path d="M12.2441 17.877C12.0452 17.877 11.8545 17.956 11.7138 18.0966C11.5732 18.2373 11.4941 18.4281 11.4941 18.627V19.9635C10.5275 18.8703 9.99395 17.4613 9.99415 16.002C9.99382 15.7814 10.0068 15.561 10.0331 15.342C10.0475 15.243 10.0418 15.1422 10.0166 15.0455C9.99144 14.9488 9.94715 14.858 9.88638 14.7787C9.82561 14.6993 9.74959 14.6329 9.66278 14.5833C9.57598 14.5337 9.48014 14.502 9.3809 14.49C9.28166 14.478 9.18102 14.486 9.0849 14.5134C8.98878 14.5409 8.89912 14.5873 8.82118 14.6499C8.74325 14.7125 8.67862 14.79 8.63108 14.878C8.58355 14.9659 8.55408 15.0625 8.5444 15.162C8.51052 15.4407 8.49374 15.7212 8.49415 16.002C8.49517 17.7916 9.13841 19.5214 10.3069 20.877H9.24415C9.04524 20.877 8.85447 20.956 8.71382 21.0966C8.57317 21.2373 8.49415 21.4281 8.49415 21.627C8.49415 21.8259 8.57317 22.0166 8.71382 22.1573C8.85447 22.2979 9.04524 22.377 9.24415 22.377H12.2441C12.3614 22.3754 12.4767 22.3459 12.5803 22.2909C12.6838 22.2358 12.7728 22.1568 12.8396 22.0605C12.8479 22.0492 12.8591 22.0402 12.8674 22.0282C12.8726 22.0207 12.8726 22.0117 12.8771 22.0042C12.9129 21.9439 12.9396 21.8787 12.9566 21.8107C12.9679 21.7725 12.9759 21.7333 12.9806 21.6937C12.9829 21.6712 12.9941 21.651 12.9941 21.627V18.627C12.9941 18.4281 12.9151 18.2373 12.7745 18.0966C12.6338 17.956 12.4431 17.877 12.2441 17.877ZM13.3691 11.502H12.0319C13.1254 10.5352 14.5346 10.0017 15.9941 10.002C16.2148 10.0015 16.4352 10.0148 16.6541 10.0417C16.8518 10.0656 17.0508 10.01 17.2074 9.88711C17.364 9.76425 17.4654 9.58421 17.4893 9.38659C17.5131 9.18897 17.4575 8.98996 17.3347 8.83335C17.2118 8.67673 17.0318 8.57534 16.8341 8.55147C16.5554 8.51794 16.2749 8.50141 15.9941 8.50197C14.2045 8.50299 12.4747 9.14623 11.1191 10.3147V9.25197C11.1191 9.05305 11.0401 8.86229 10.8995 8.72164C10.7588 8.58098 10.5681 8.50197 10.3691 8.50197C10.1702 8.50197 9.97947 8.58098 9.83882 8.72164C9.69817 8.86229 9.61915 9.05305 9.61915 9.25197V12.252C9.62378 12.3016 9.63358 12.3506 9.6484 12.3982C9.66648 12.4908 9.7024 12.5789 9.75415 12.6577L9.76315 12.6705C9.81262 12.7424 9.8746 12.8049 9.94615 12.855C9.9544 12.861 9.9589 12.87 9.96715 12.876C9.97765 12.8835 9.98965 12.8857 10.0009 12.8917C10.0436 12.9173 10.0888 12.9385 10.1359 12.9547C10.1991 12.9767 10.2649 12.9901 10.3316 12.9945C10.3451 12.9945 10.3556 13.002 10.3691 13.002H13.3691C13.5681 13.002 13.7588 12.9229 13.8995 12.7823C14.0401 12.6416 14.1191 12.4509 14.1191 12.252C14.1191 12.0531 14.0401 11.8623 13.8995 11.7216C13.7588 11.581 13.5681 11.502 13.3691 11.502ZM22.3391 19.605C22.321 19.5127 22.2851 19.4248 22.2334 19.3462L22.2251 19.3335C22.1755 19.2614 22.1132 19.199 22.0414 19.149C22.0331 19.143 22.0294 19.134 22.0204 19.128C22.0129 19.1227 22.0031 19.1227 21.9949 19.1175C21.8997 19.0644 21.7954 19.0298 21.6874 19.0155C21.6634 19.0132 21.6431 19.002 21.6191 19.002H18.6191C18.4202 19.002 18.2295 19.081 18.0888 19.2216C17.9482 19.3623 17.8691 19.5531 17.8691 19.752C17.8691 19.9509 17.9482 20.1416 18.0888 20.2823C18.2295 20.4229 18.4202 20.502 18.6191 20.502H19.9556C18.8624 21.4686 17.4534 22.0021 15.9941 22.002C15.7735 22.0022 15.5531 21.9887 15.3341 21.9615C15.1365 21.9376 14.9375 21.9932 14.7809 22.1161C14.6243 22.2389 14.5229 22.419 14.499 22.6166C14.4752 22.8142 14.5308 23.0132 14.6536 23.1698C14.7765 23.3265 14.9565 23.4278 15.1541 23.4517C15.4329 23.4852 15.7134 23.502 15.9941 23.502C17.7838 23.5009 19.5136 22.8577 20.8691 21.6892V22.752C20.8691 22.9509 20.9482 23.1416 21.0888 23.2823C21.2295 23.4229 21.4202 23.502 21.6191 23.502C21.8181 23.502 22.0088 23.4229 22.1495 23.2823C22.2901 23.1416 22.3691 22.9509 22.3691 22.752V19.752C22.3643 19.7023 22.3542 19.6525 22.3391 19.605ZM22.7441 11.127C22.9431 11.127 23.1338 11.0479 23.2745 10.9073C23.4151 10.7666 23.4941 10.5759 23.4941 10.377C23.4941 10.1781 23.4151 9.98729 23.2745 9.84664C23.1338 9.70598 22.9431 9.62697 22.7441 9.62697H19.7441C19.6953 9.63174 19.647 9.64154 19.6001 9.65622L19.5949 9.65697C19.504 9.67535 19.4174 9.711 19.3399 9.76197L19.3249 9.77172C19.2532 9.82127 19.191 9.88325 19.1411 9.95472C19.1351 9.96222 19.1261 9.96672 19.1201 9.97497C19.1149 9.98247 19.1149 9.99222 19.1096 10.0005C19.0562 10.0963 19.0216 10.2014 19.0076 10.3102C19.0054 10.3327 18.9941 10.353 18.9941 10.377V13.377C18.9941 13.5759 19.0732 13.7666 19.2138 13.9073C19.3545 14.0479 19.5452 14.127 19.7441 14.127C19.9431 14.127 20.1338 14.0479 20.2745 13.9073C20.4151 13.7666 20.4941 13.5759 20.4941 13.377V12.0397C21.4608 13.1332 21.9943 14.5424 21.9941 16.002C21.9942 16.2226 21.981 16.443 21.9544 16.662C21.9307 16.8593 21.9862 17.0581 22.1088 17.2146C22.2314 17.371 22.4111 17.4725 22.6084 17.4967C22.6388 17.5003 22.6693 17.502 22.6999 17.502C22.883 17.5016 23.0596 17.4343 23.1966 17.3128C23.3335 17.1912 23.4212 17.0237 23.4431 16.842C23.4773 16.5633 23.4943 16.2827 23.4941 16.002C23.4931 14.2123 22.8499 12.4825 21.6814 11.127H22.7441Z" fill="white"/>
</svg>
