<svg width="32" height="32" viewBox="0 0 32 32" fill="none" xmlns="http://www.w3.org/2000/svg">
<path d="M0 17.3333C0 7.7604 7.7604 0 17.3333 0H20.8C26.9856 0 32 5.01441 32 11.2V17.6C32 25.5529 25.5529 32 17.6 32H14.6667C6.56649 32 0 25.4335 0 17.3333Z" fill="#F35D93"/>
<path d="M14.505 8.5789C13.9961 8.4143 13.4452 8.43638 12.9511 8.64116C12.457 8.84595 12.052 9.22006 11.8087 9.6964L11.2042 10.8784C11.1324 11.0191 11.0179 11.1336 10.8772 11.2054L9.69447 11.8099C9.21812 12.0532 8.84402 12.4581 8.63923 12.9522C8.43444 13.4464 8.41237 13.9972 8.57697 14.5062L8.98647 15.7699C9.03508 15.9201 9.03508 16.0817 8.98647 16.2319L8.57772 17.4957C8.41312 18.0046 8.43519 18.5554 8.63998 19.0496C8.84477 19.5437 9.21887 19.9486 9.69522 20.1919L10.8772 20.7964C11.0179 20.8682 11.1324 20.9827 11.2042 21.1234L11.8087 22.3061C12.052 22.7825 12.457 23.1566 12.9511 23.3614C13.4452 23.5662 13.9961 23.5882 14.505 23.4236L15.7687 23.0141C15.9189 22.9655 16.0806 22.9655 16.2307 23.0141L17.4945 23.4229C18.0033 23.5876 18.5541 23.5656 19.0482 23.3609C19.5423 23.1563 19.9473 22.7824 20.1907 22.3061L20.7952 21.1234C20.8671 20.9827 20.9815 20.8682 21.1222 20.7964L22.305 20.1927C22.7815 19.9494 23.1557 19.5443 23.3605 19.05C23.5653 18.5557 23.5873 18.0047 23.4225 17.4957L23.013 16.2319C22.9644 16.0817 22.9644 15.9201 23.013 15.7699L23.4217 14.5062C23.5864 13.9973 23.5644 13.4465 23.3598 12.9524C23.1551 12.4583 22.7812 12.0533 22.305 11.8099L21.1222 11.2054C20.9815 11.1336 20.8671 11.0191 20.7952 10.8784L20.1915 9.69565C19.9482 9.21914 19.5431 8.84492 19.0488 8.64012C18.5545 8.43532 18.0035 8.41335 17.4945 8.57815L16.2307 8.98765C16.0806 9.03626 15.9189 9.03626 15.7687 8.98765L14.505 8.5789ZM12.0697 15.8187L13.1302 14.7582L15.2512 16.8799L19.494 12.6372L20.5552 13.6977L15.2512 19.0002L12.0697 15.8187Z" fill="white"/>
</svg>
