<svg width="32" height="32" viewBox="0 0 32 32" fill="none" xmlns="http://www.w3.org/2000/svg">
<path d="M0 17.3333C0 7.7604 7.7604 0 17.3333 0H20.8C26.9856 0 32 5.01441 32 11.2V17.6C32 25.5529 25.5529 32 17.6 32H14.6667C6.56649 32 0 25.4335 0 17.3333Z" fill="#E68F40"/>
<path d="M21.811 18.8018C21.3598 18.804 20.9205 18.9409 20.5535 19.1936L18.7726 18.179C18.8566 17.928 18.9008 17.6661 18.9035 17.4024C18.9014 16.7834 18.6862 16.1826 18.2916 15.6939C17.8971 15.2052 17.3453 14.8562 16.7228 14.7015V13.0782C17.2078 12.9131 17.6165 12.5883 17.8768 12.1612C18.1371 11.7341 18.2321 11.2322 18.1452 10.7442C18.0582 10.2561 17.7947 9.81338 17.4014 9.49422C17.0081 9.17505 16.5103 9 15.9959 9C15.4815 9 14.9836 9.17505 14.5903 9.49422C14.197 9.81338 13.9336 10.2561 13.8466 10.7442C13.7596 11.2322 13.8546 11.7341 14.1149 12.1612C14.3752 12.5883 14.784 12.9131 15.269 13.0782V14.7015C14.6464 14.8562 14.0947 15.2052 13.7001 15.6939C13.3055 16.1826 13.0904 16.7834 13.0883 17.4024C13.091 17.6661 13.1351 17.928 13.2191 18.179L11.4382 19.1936C11.0713 18.9409 10.6319 18.804 10.1807 18.8018C9.74939 18.8018 9.32778 18.9249 8.96917 19.1555C8.61055 19.3862 8.33105 19.714 8.166 20.0976C8.00094 20.4811 7.95776 20.9032 8.0419 21.3104C8.12604 21.7176 8.33374 22.0916 8.63871 22.3852C8.94369 22.6787 9.33225 22.8787 9.75526 22.9597C10.1783 23.0407 10.6167 22.9991 11.0152 22.8402C11.4137 22.6813 11.7543 22.4123 11.9939 22.0671C12.2335 21.7219 12.3614 21.316 12.3614 20.9009C12.3587 20.7114 12.3294 20.5231 12.2742 20.3411L13.946 19.3825C14.4908 19.9038 15.2277 20.1964 15.9959 20.1964C16.764 20.1964 17.5009 19.9038 18.0457 19.3825L19.7176 20.3411C19.5958 20.7649 19.6153 21.2147 19.7733 21.6272C19.9314 22.0397 20.22 22.3941 20.5985 22.6402C20.9769 22.8863 21.4261 23.0119 21.8827 22.9991C22.3392 22.9863 22.7801 22.8359 23.1431 22.569C23.506 22.3021 23.7728 21.9322 23.9057 21.5116C24.0386 21.0909 24.0309 20.6407 23.8837 20.2245C23.7365 19.8083 23.4573 19.4471 23.0854 19.1918C22.7136 18.9365 22.2678 18.8001 21.811 18.8018ZM10.1807 21.6006C10.0369 21.6006 9.89639 21.5596 9.77685 21.4827C9.65731 21.4058 9.56414 21.2965 9.50913 21.1686C9.45411 21.0408 9.43971 20.9001 9.46776 20.7644C9.49581 20.6286 9.56504 20.504 9.6667 20.4061C9.76836 20.3083 9.89788 20.2416 10.0389 20.2146C10.1799 20.1876 10.326 20.2015 10.4589 20.2544C10.5917 20.3074 10.7052 20.3971 10.7851 20.5121C10.865 20.6272 10.9076 20.7625 10.9076 20.9009C10.9076 21.0865 10.831 21.2644 10.6947 21.3956C10.5584 21.5269 10.3735 21.6006 10.1807 21.6006ZM15.9959 10.4053C16.1396 10.4053 16.2802 10.4463 16.3997 10.5232C16.5192 10.6001 16.6124 10.7094 16.6674 10.8372C16.7224 10.9651 16.7368 11.1058 16.7088 11.2415C16.6807 11.3772 16.6115 11.5019 16.5099 11.5998C16.4082 11.6976 16.2787 11.7643 16.1377 11.7913C15.9967 11.8183 15.8505 11.8044 15.7177 11.7515C15.5849 11.6985 15.4713 11.6088 15.3915 11.4937C15.3116 11.3787 15.269 11.2434 15.269 11.105C15.269 10.9194 15.3456 10.7415 15.4819 10.6102C15.6182 10.479 15.8031 10.4053 15.9959 10.4053ZM15.9959 18.8018C15.7083 18.8018 15.4273 18.7197 15.1882 18.5659C14.9491 18.4122 14.7628 18.1936 14.6527 17.9379C14.5427 17.6822 14.5139 17.4008 14.57 17.1293C14.6261 16.8579 14.7646 16.6085 14.9679 16.4128C15.1712 16.2171 15.4302 16.0838 15.7122 16.0298C15.9943 15.9758 16.2866 16.0036 16.5522 16.1095C16.8179 16.2154 17.0449 16.3948 17.2047 16.6249C17.3644 16.855 17.4497 17.1256 17.4497 17.4024C17.4497 17.7735 17.2965 18.1294 17.0239 18.3919C16.7512 18.6543 16.3814 18.8018 15.9959 18.8018ZM21.811 21.6006C21.6673 21.6006 21.5267 21.5596 21.4072 21.4827C21.2877 21.4058 21.1945 21.2965 21.1395 21.1686C21.0845 21.0408 21.0701 20.9001 21.0981 20.7644C21.1262 20.6286 21.1954 20.504 21.297 20.4061C21.3987 20.3083 21.5282 20.2416 21.6692 20.2146C21.8102 20.1876 21.9564 20.2015 22.0892 20.2544C22.222 20.3074 22.3356 20.3971 22.4154 20.5121C22.4953 20.6272 22.5379 20.7625 22.5379 20.9009C22.5379 21.0865 22.4614 21.2644 22.325 21.3956C22.1887 21.5269 22.0038 21.6006 21.811 21.6006Z" fill="#E5E5E5"/>
</svg>
