<svg width="32" height="32" viewBox="0 0 32 32" fill="none" xmlns="http://www.w3.org/2000/svg">
<path d="M0 17.3333C0 7.7604 7.7604 0 17.3333 0H20.8C26.9856 0 32 5.01441 32 11.2V17.6C32 25.5529 25.5529 32 17.6 32H14.6667C6.56649 32 0 25.4335 0 17.3333Z" fill="#417EC6"/>
<path d="M17.6872 18.3426L17.3869 18.6594C17.3869 18.6594 16.6721 19.4111 14.7217 17.3578C12.7713 15.3045 13.4861 14.5528 13.4861 14.5528L13.6755 14.3528C14.1415 13.8617 14.1857 13.0737 13.7785 12.4981L12.9468 11.3213C12.4426 10.6085 11.469 10.5148 10.8915 11.1227L9.85589 12.2124C9.5701 12.514 9.37869 12.9041 9.40179 13.3377C9.46119 14.4465 9.93509 16.8311 12.5779 19.6144C15.381 22.5647 18.0113 22.6821 19.0865 22.5759C19.427 22.5429 19.7227 22.3587 19.961 22.1079L20.8982 21.1205C21.5319 20.4539 21.3537 19.3121 20.5432 18.8461L19.2825 18.1201C18.7505 17.8145 18.103 17.9043 17.6872 18.3419" fill="white"/>
<path d="M19.3002 16.0005C20.0179 16.0004 20.716 15.7663 21.2887 15.3338C21.8614 14.9013 22.2774 14.2939 22.4738 13.6036C22.6703 12.9134 22.6363 12.1779 22.3771 11.5087C22.118 10.8395 21.6477 10.273 21.0376 9.89506C20.4275 9.51714 19.7108 9.34838 18.9962 9.41438C18.2816 9.48037 17.6079 9.77751 17.0774 10.2608C16.5468 10.744 16.1882 11.3871 16.056 12.0924C15.9238 12.7978 16.0251 13.527 16.3446 14.1696C16.405 14.2863 16.4207 14.421 16.3888 14.5485L16.1921 15.2831C16.1727 15.3558 16.1727 15.4324 16.1922 15.5051C16.2117 15.5778 16.25 15.6442 16.3032 15.6974C16.3564 15.7506 16.4228 15.7889 16.4955 15.8084C16.5682 15.8279 16.6448 15.8279 16.7175 15.8085L17.4521 15.6118C17.5796 15.5799 17.7143 15.5956 17.831 15.656C18.2874 15.8832 18.7904 16.0012 19.3002 16.0005Z" fill="white"/>
</svg>
