<svg width="32" height="32" viewBox="0 0 32 32" fill="none" xmlns="http://www.w3.org/2000/svg">
<path d="M0 17.3333C0 7.7604 7.7604 0 17.3333 0H20.8C26.9856 0 32 5.01441 32 11.2V17.6C32 25.5529 25.5529 32 17.6 32H14.6667C6.56649 32 0 25.4335 0 17.3333Z" fill="#E68F40"/>
<path d="M10.9225 17.9186C10.923 18.1366 11.0076 18.3454 11.1576 18.4995C11.3076 18.6536 11.5109 18.7404 11.7231 18.741H12.4149C12.5039 19.0961 12.6378 19.4378 12.8131 19.7572L12.3328 20.2506C12.1838 20.4057 12.1003 20.6148 12.1003 20.8326C12.1003 21.0504 12.1838 21.2594 12.3328 21.4145L12.6674 21.7582C12.8183 21.9112 13.0219 21.9969 13.2339 21.9969C13.446 21.9969 13.6495 21.9112 13.8005 21.7582L14.2624 21.2796C14.5776 21.4738 14.9175 21.6221 15.2724 21.7202V22.3781C15.2729 22.596 15.3574 22.8048 15.5074 22.9589C15.6575 23.113 15.8608 23.1998 16.0729 23.2004H16.5451C16.7572 23.1998 16.9606 23.113 17.1106 22.9589C17.2606 22.8048 17.3451 22.596 17.3457 22.3781V21.7245C17.6994 21.6246 18.0379 21.4749 18.3515 21.2796L18.8114 21.754C18.962 21.9068 19.1652 21.9925 19.3769 21.9925C19.5886 21.9925 19.7918 21.9068 19.9424 21.754L20.277 21.4103C20.427 21.2558 20.5111 21.0465 20.5111 20.8284C20.5111 20.6102 20.427 20.4009 20.277 20.2464L19.8049 19.7572C19.9853 19.4388 20.1234 19.097 20.2155 18.741H20.9052C21.1174 18.7404 21.3207 18.6536 21.4707 18.4995C21.6207 18.3454 21.7052 18.1366 21.7058 17.9186V17.4337C21.7052 17.2158 21.6207 17.0069 21.4707 16.8529C21.3207 16.6988 21.1174 16.6119 20.9052 16.6114H20.197C20.1111 16.2535 19.9792 15.9089 19.8049 15.5867L20.277 15.1017C20.4268 14.9476 20.511 14.7386 20.511 14.5208C20.511 14.303 20.4268 14.0941 20.277 13.9399L19.9424 13.5963C19.7923 13.4424 19.589 13.356 19.3769 13.356C19.1648 13.356 18.9614 13.4424 18.8114 13.5963L18.3495 14.0686C18.0352 13.874 17.6959 13.7257 17.3416 13.6279V12.97C17.341 12.7521 17.2565 12.5433 17.1065 12.3892C16.9565 12.2351 16.7531 12.1483 16.541 12.1477H16.0688C15.8567 12.1483 15.6534 12.2351 15.5033 12.3892C15.3533 12.5433 15.2688 12.7521 15.2682 12.97V13.6279C14.9148 13.7264 14.5763 13.8747 14.2624 14.0686L13.8026 13.5963C13.6521 13.4423 13.4484 13.3558 13.236 13.3558C13.0236 13.3558 12.8199 13.4423 12.6694 13.5963L12.3348 13.9399C12.186 14.0947 12.1026 14.3034 12.1026 14.5208C12.1026 14.7383 12.186 14.947 12.3348 15.1017L12.8111 15.5867C12.6361 15.9091 12.5029 16.2536 12.4149 16.6114H11.7231C11.5109 16.6119 11.3076 16.6988 11.1576 16.8529C11.0076 17.0069 10.923 17.2158 10.9225 17.4337V17.9186ZM16.3152 14.9288C16.843 14.9288 17.3589 15.0896 17.7978 15.3908C18.2366 15.692 18.5787 16.12 18.7807 16.6209C18.9826 17.1218 19.0355 17.6729 18.9325 18.2046C18.8295 18.7363 18.5754 19.2247 18.2022 19.608C17.829 19.9914 17.3534 20.2524 16.8358 20.3582C16.3181 20.464 15.7816 20.4097 15.2939 20.2022C14.8063 19.9948 14.3895 19.6434 14.0963 19.1927C13.8031 18.7419 13.6465 18.212 13.6465 17.6698C13.6465 16.9429 13.9277 16.2457 14.4282 15.7317C14.9286 15.2176 15.6074 14.9288 16.3152 14.9288ZM16.0401 10.9227V9.68293C16.0401 9.60799 16.0691 9.53613 16.1207 9.48314C16.1722 9.43016 16.2422 9.40039 16.3152 9.40039C16.3881 9.40039 16.4581 9.43016 16.5097 9.48314C16.5613 9.53613 16.5902 9.60799 16.5902 9.68293V10.9269C16.5902 11.0019 16.5613 11.0737 16.5097 11.1267C16.4581 11.1797 16.3881 11.2095 16.3152 11.2095C16.2422 11.2095 16.1722 11.1797 16.1207 11.1267C16.0691 11.0737 16.0401 11.0019 16.0401 10.9269V10.9227ZM14.8536 17.2945C14.8394 17.2838 14.8288 17.2687 14.8234 17.2514C14.818 17.2341 14.818 17.2155 14.8235 17.1983C14.8289 17.181 14.8395 17.166 14.8538 17.1552C14.868 17.1445 14.8852 17.1387 14.9028 17.1385H15.8533C15.8713 17.1388 15.8889 17.1329 15.9034 17.1219C15.9179 17.1108 15.9284 17.0952 15.9333 17.0774L16.2248 16.1496C16.2303 16.1323 16.241 16.1171 16.2554 16.1064C16.2698 16.0956 16.2871 16.0899 16.3049 16.0899C16.3227 16.0899 16.34 16.0956 16.3544 16.1064C16.3688 16.1171 16.3795 16.1323 16.385 16.1496L16.6765 17.0774C16.6814 17.0952 16.6919 17.1108 16.7064 17.1219C16.7209 17.1329 16.7385 17.1388 16.7565 17.1385H17.707C17.7246 17.1385 17.7419 17.1441 17.7563 17.1547C17.7706 17.1653 17.7814 17.1803 17.787 17.1975C17.7929 17.215 17.7931 17.2339 17.7875 17.2514C17.782 17.2689 17.771 17.284 17.7562 17.2945L16.9864 17.8659C16.9717 17.8764 16.9607 17.8916 16.9551 17.9091C16.9496 17.9266 16.9497 17.9455 16.9556 17.9629L17.2512 18.8907C17.2571 18.9081 17.2573 18.927 17.2517 18.9445C17.2462 18.962 17.2352 18.9772 17.2204 18.9876C17.2064 18.9989 17.189 19.0051 17.1712 19.0051C17.1533 19.0051 17.136 18.9989 17.1219 18.9876L16.3542 18.412C16.3401 18.4007 16.3228 18.3946 16.3049 18.3946C16.287 18.3946 16.2697 18.4007 16.2556 18.412L15.4941 18.9876C15.48 18.9989 15.4626 19.0051 15.4448 19.0051C15.4269 19.0051 15.4096 18.9989 15.3955 18.9876C15.3808 18.9772 15.3698 18.962 15.3642 18.9445C15.3587 18.927 15.3588 18.9081 15.3647 18.8907L15.6603 17.9629C15.6653 17.9455 15.665 17.9269 15.6595 17.9096C15.654 17.8923 15.6435 17.8771 15.6295 17.8659L14.8536 17.2945ZM12.2363 10.8742C12.2019 10.8095 12.1936 10.7335 12.213 10.6626C12.2324 10.5916 12.2781 10.5312 12.3402 10.4943C12.4024 10.4575 12.4761 10.447 12.5457 10.4652C12.6152 10.4834 12.6751 10.5288 12.7125 10.5917L13.3181 11.6691C13.3538 11.7344 13.3631 11.8115 13.3439 11.8837C13.3247 11.9559 13.2785 12.0174 13.2155 12.055C13.1522 12.0916 13.0775 12.101 13.0075 12.0813C12.9375 12.0615 12.878 12.0142 12.8419 11.9495L12.2363 10.8742ZM9.43217 13.4782C9.45005 13.4462 9.4739 13.4181 9.50237 13.3955C9.53085 13.373 9.56337 13.3564 9.59808 13.3468C9.6328 13.3372 9.66901 13.3348 9.70466 13.3396C9.7403 13.3444 9.77466 13.3564 9.80578 13.3749L10.8548 13.9969C10.9179 14.0344 10.964 14.0961 10.9828 14.1684C11.0017 14.2408 10.9918 14.3179 10.9553 14.3827C10.9375 14.4148 10.9136 14.4429 10.8851 14.4654C10.8567 14.488 10.8241 14.5045 10.7894 14.5141C10.7547 14.5237 10.7185 14.5262 10.6829 14.5213C10.6472 14.5165 10.6129 14.5045 10.5817 14.486L9.54097 13.8577C9.47807 13.8217 9.43145 13.7617 9.4111 13.6908C9.39076 13.6198 9.39833 13.5435 9.43217 13.4782ZM19.2855 11.6754L19.9014 10.598C19.9388 10.5351 19.9987 10.4897 20.0682 10.4715C20.1378 10.4533 20.2115 10.4638 20.2737 10.5007C20.3358 10.5375 20.3815 10.5979 20.4009 10.6689C20.4203 10.7399 20.412 10.8158 20.3776 10.8805L19.7618 11.9559C19.7453 11.9906 19.722 12.0215 19.6933 12.0466C19.6647 12.0717 19.6314 12.0905 19.5954 12.1019C19.5594 12.1132 19.5215 12.1169 19.4841 12.1126C19.4467 12.1083 19.4105 12.0961 19.3779 12.0769C19.3452 12.0577 19.3167 12.0318 19.2942 12.0008C19.2717 11.9698 19.2556 11.9344 19.247 11.8967C19.2383 11.8591 19.2373 11.82 19.2439 11.782C19.2505 11.7439 19.2647 11.7076 19.2855 11.6754ZM21.6524 14.3764C21.6167 14.3111 21.6074 14.2341 21.6266 14.1618C21.6458 14.0896 21.692 14.0281 21.755 13.9906L22.804 13.3685C22.8667 13.3371 22.9388 13.3312 23.0055 13.3523C23.0723 13.3733 23.1287 13.4196 23.1635 13.4819C23.1982 13.5441 23.2086 13.6175 23.1925 13.6873C23.1765 13.7571 23.1352 13.818 23.077 13.8577L22.0281 14.4797C21.9649 14.5172 21.8899 14.5273 21.8194 14.5079C21.749 14.4886 21.6889 14.4413 21.6524 14.3764Z" fill="white"/>
</svg>
