<svg width="32" height="32" viewBox="0 0 32 32" fill="none" xmlns="http://www.w3.org/2000/svg">
<path d="M0 17.3333C0 7.7604 7.7604 0 17.3333 0H20.8C26.9856 0 32 5.01441 32 11.2V17.6C32 25.5529 25.5529 32 17.6 32H14.6667C6.56649 32 0 25.4335 0 17.3333Z" fill="#417EC6"/>
<g clip-path="url(#clip0_634_2682)">
<path d="M15.7004 16.0008C17.6888 16.0008 19.3004 14.3892 19.3004 12.4008C19.3004 10.4123 17.6888 8.80078 15.7004 8.80078C13.712 8.80078 12.1004 10.4123 12.1004 12.4008C12.1004 14.3892 13.712 16.0008 15.7004 16.0008ZM18.2204 16.9008H17.7507C17.1263 17.1877 16.4316 17.3508 15.7004 17.3508C14.9691 17.3508 14.2773 17.1877 13.6501 16.9008H13.1804C11.0935 16.9008 9.40039 18.5939 9.40039 20.6808V21.8508C9.40039 22.5961 10.0051 23.2008 10.7504 23.2008H20.6504C21.3957 23.2008 22.0004 22.5961 22.0004 21.8508V20.6808C22.0004 18.5939 20.3073 16.9008 18.2204 16.9008Z" fill="white"/>
</g>
<defs>
<clipPath id="clip0_634_2682">
<rect width="12.6" height="14.4" fill="white" transform="translate(9.40039 8.80078)"/>
</clipPath>
</defs>
</svg>
