<svg width="32" height="32" viewBox="0 0 32 32" fill="none" xmlns="http://www.w3.org/2000/svg">
<path d="M0 17.3333C0 7.7604 7.7604 0 17.3333 0H20.8C26.9856 0 32 5.01441 32 11.2V17.6C32 25.5529 25.5529 32 17.6 32H14.6667C6.56649 32 0 25.4335 0 17.3333Z" fill="#F35D93"/>
<path fill-rule="evenodd" clip-rule="evenodd" d="M12.1363 9.26809C12.1841 9.22089 12.222 9.16485 12.2479 9.10319C12.2738 9.04152 12.2871 8.97542 12.2871 8.90867C12.2871 8.84193 12.2738 8.77583 12.2479 8.71416C12.222 8.6525 12.1841 8.59646 12.1363 8.54926C12.0885 8.50207 12.0317 8.46463 11.9692 8.43908C11.9068 8.41354 11.8398 8.40039 11.7722 8.40039C11.7046 8.40039 11.6377 8.41354 11.5752 8.43908C11.5127 8.46463 11.456 8.50207 11.4081 8.54926L9.35127 10.5798C9.30338 10.627 9.26539 10.683 9.23946 10.7447C9.21354 10.8064 9.2002 10.8725 9.2002 10.9392C9.2002 11.006 9.21354 11.0721 9.23946 11.1338C9.26539 11.1955 9.30338 11.2515 9.35127 11.2987L11.4081 13.3292C11.456 13.3764 11.5127 13.4139 11.5752 13.4394C11.6377 13.465 11.7046 13.4781 11.7722 13.4781C11.8398 13.4781 11.9068 13.465 11.9692 13.4394C12.0317 13.4139 12.0885 13.3764 12.1363 13.3292C12.1841 13.282 12.222 13.226 12.2479 13.1643C12.2738 13.1027 12.2871 13.0366 12.2871 12.9698C12.2871 12.9031 12.2738 12.837 12.2479 12.7753C12.222 12.7136 12.1841 12.6576 12.1363 12.6104L10.9567 11.4469H18.4571C19.4117 11.4469 20.3273 11.8213 21.0023 12.4877C21.6774 13.1541 22.0566 14.0579 22.0566 15.0004C22.0566 15.135 22.1108 15.2641 22.2072 15.3593C22.3037 15.4545 22.4345 15.508 22.5708 15.508C22.7072 15.508 22.838 15.4545 22.9344 15.3593C23.0309 15.2641 23.0851 15.135 23.0851 15.0004C23.0851 13.7887 22.5975 12.6266 21.7296 11.7698C20.8616 10.913 19.6845 10.4316 18.4571 10.4316H10.9567L12.1363 9.26809Z" fill="white" stroke="white"/>
<path fill-rule="evenodd" clip-rule="evenodd" d="M10.7443 16.9998C10.7443 16.8652 10.6901 16.7361 10.5936 16.6409C10.4972 16.5457 10.3664 16.4922 10.23 16.4922C10.0937 16.4922 9.96287 16.5457 9.86643 16.6409C9.77 16.7361 9.71582 16.8652 9.71582 16.9998C9.71582 18.2115 10.2034 19.3736 11.0713 20.2304C11.9392 21.0873 13.1164 21.5686 14.3438 21.5686H21.8442L20.6646 22.7321C20.568 22.8275 20.5138 22.9567 20.5138 23.0915C20.5138 23.2264 20.568 23.3556 20.6646 23.451C20.7612 23.5463 20.8921 23.5998 21.0287 23.5998C21.1652 23.5998 21.2962 23.5463 21.3927 23.451L23.4496 21.4204C23.4975 21.3732 23.5355 21.3172 23.5614 21.2555C23.5873 21.1939 23.6007 21.1277 23.6007 21.061C23.6007 20.9942 23.5873 20.9281 23.5614 20.8664C23.5355 20.8047 23.4975 20.7487 23.4496 20.7016L21.3927 18.671C21.2962 18.5757 21.1652 18.5221 21.0287 18.5221C20.8921 18.5221 20.7612 18.5757 20.6646 18.671C20.568 18.7663 20.5138 18.8956 20.5138 19.0304C20.5138 19.1652 20.568 19.2945 20.6646 19.3898L21.8442 20.5533H14.3438C13.3891 20.5533 12.4736 20.1789 11.7985 19.5125C11.1235 18.8461 10.7443 17.9423 10.7443 16.9998Z" fill="white" stroke="white"/>
</svg>
