<svg width="32" height="32" viewBox="0 0 32 32" fill="none" xmlns="http://www.w3.org/2000/svg">
<path d="M0 17.3333C0 7.7604 7.7604 0 17.3333 0H20.8C26.9856 0 32 5.01441 32 11.2V17.6C32 25.5529 25.5529 32 17.6 32H14.6667C6.56649 32 0 25.4335 0 17.3333Z" fill="#417EC6"/>
<path d="M18.415 11.5225L20.3125 10.0675L17.92 10L17.125 7.75L16.33 10L13.9375 10.0675L15.835 11.5225L15.1525 13.8175L17.125 12.46L19.0975 13.8175L18.415 11.5225Z" fill="white"/>
<path d="M17.2075 10.9375L18.4375 10L16.8925 9.9625L16.375 8.5L15.8575 9.9625L14.3125 10L15.5425 10.9375L15.1 12.4225L16.375 11.545L17.65 12.4225L17.2075 10.9375Z" fill="white"/>
<path d="M21.7075 16.1875L22.9375 15.25L21.3925 15.2125L20.875 13.75L20.3575 15.2125L18.8125 15.25L20.0425 16.1875L19.6 17.6725L20.875 16.795L22.15 17.6725L21.7075 16.1875Z" fill="white"/>
<path d="M22.6208 14.2982L24.0278 13.219L22.2533 13.1688L21.6638 11.5L21.0743 13.1688L19.2998 13.219L20.7068 14.2982L20.2006 16L21.6638 14.9935L23.1271 16L22.6208 14.2982Z" fill="white"/>
<path d="M12.25 11.5001C12.25 16.0601 15.94 19.7501 20.5 19.7501C20.8975 19.7501 21.2875 19.7201 21.67 19.6676C20.4625 21.5201 18.3775 22.7501 16 22.7501C12.2725 22.7501 9.25 19.7276 9.25 16.0001C9.25 13.6226 10.48 11.5376 12.3325 10.3301C12.28 10.7126 12.25 11.1026 12.25 11.5001Z" fill="white" stroke="white" stroke-width="2" stroke-linecap="round" stroke-linejoin="round"/>
</svg>
