<svg width="32" height="32" viewBox="0 0 32 32" fill="none" xmlns="http://www.w3.org/2000/svg">
<path d="M0 17.3333C0 7.7604 7.7604 0 17.3333 0H20.8C26.9856 0 32 5.01441 32 11.2V17.6C32 25.5529 25.5529 32 17.6 32H14.6667C6.56649 32 0 25.4335 0 17.3333Z" fill="#F35D93"/>
<g clip-path="url(#clip0_634_1947)">
<path d="M19 9.25C19.5739 9.24997 20.1261 9.46924 20.5437 9.86296C20.9613 10.2567 21.2126 10.7951 21.2463 11.368L21.25 11.5V19H21.8125C22.2978 19 22.6975 19.369 22.7455 19.8415L22.75 19.9375V21.25C22.75 21.8239 22.5308 22.3761 22.137 22.7937C21.7433 23.2113 21.2049 23.4626 20.632 23.4963L20.5 23.5H13C12.4261 23.5 11.8739 23.2808 11.4563 22.887C11.0387 22.4933 10.7874 21.9549 10.7538 21.382L10.75 21.25V13.75H9.4375C9.20541 13.7501 8.98152 13.6641 8.80918 13.5087C8.63683 13.3532 8.52827 13.1394 8.5045 12.9085L8.5 12.8125V11.5C8.49997 10.9261 8.71924 10.3739 9.11296 9.9563C9.50668 9.53874 10.0451 9.28742 10.618 9.25375L10.75 9.25H19ZM21.25 20.5H14.5V21.25C14.5 21.5125 14.455 21.7653 14.3725 22H20.5C20.6989 22 20.8897 21.921 21.0303 21.7803C21.171 21.6397 21.25 21.4489 21.25 21.25V20.5ZM16 16H14.5C14.3088 16.0002 14.125 16.0734 13.986 16.2046C13.847 16.3359 13.7633 16.5152 13.7521 16.706C13.7409 16.8969 13.803 17.0848 13.9257 17.2314C14.0484 17.378 14.2224 17.4722 14.4123 17.4948L14.5 17.5H16C16.1912 17.4998 16.375 17.4266 16.514 17.2954C16.653 17.1641 16.7367 16.9848 16.7479 16.794C16.7591 16.6031 16.697 16.4152 16.5743 16.2686C16.4516 16.122 16.2776 16.0278 16.0878 16.0053L16 16ZM17.5 13H14.5C14.3011 13 14.1103 13.079 13.9697 13.2197C13.829 13.3603 13.75 13.5511 13.75 13.75C13.75 13.9489 13.829 14.1397 13.9697 14.2803C14.1103 14.421 14.3011 14.5 14.5 14.5H17.5C17.6989 14.5 17.8897 14.421 18.0303 14.2803C18.171 14.1397 18.25 13.9489 18.25 13.75C18.25 13.5511 18.171 13.3603 18.0303 13.2197C17.8897 13.079 17.6989 13 17.5 13ZM10.75 10.75C10.5511 10.75 10.3603 10.829 10.2197 10.9697C10.079 11.1103 10 11.3011 10 11.5V12.25H10.75V10.75Z" fill="white"/>
</g>
<defs>
<clipPath id="clip0_634_1947">
<rect width="18" height="18" fill="white" transform="translate(7 7)"/>
</clipPath>
</defs>
</svg>
