<svg width="24" height="24" viewBox="0 0 24 24" fill="none" xmlns="http://www.w3.org/2000/svg">
<path d="M22 12C22 17.5228 17.5228 22 12 22C6.47715 22 2 17.5228 2 12C2 6.47715 6.47715 2 12 2C17.5228 2 22 6.47715 22 12Z" stroke="#FF0000" stroke-width="2" stroke-linecap="round" stroke-linejoin="round"/>
<path d="M8.39752 7.1187L12.0002 10.7214L15.5842 7.13737C15.6634 7.0531 15.7587 6.98569 15.8646 6.93918C15.9704 6.89267 16.0846 6.86802 16.2002 6.8667C16.4477 6.8667 16.6851 6.96503 16.8602 7.14007C17.0352 7.3151 17.1335 7.5525 17.1335 7.80003C17.1357 7.91446 17.1145 8.02813 17.0711 8.13406C17.0278 8.23998 16.9633 8.33594 16.8815 8.41603L13.2509 12L16.8815 15.6307C17.0353 15.7812 17.1255 15.985 17.1335 16.2C17.1335 16.4476 17.0352 16.685 16.8602 16.86C16.6851 17.035 16.4477 17.1334 16.2002 17.1334C16.0812 17.1383 15.9626 17.1184 15.8517 17.0751C15.7408 17.0317 15.6402 16.9657 15.5562 16.8814L12.0002 13.2787L8.40685 16.872C8.32799 16.9535 8.23378 17.0185 8.12965 17.0634C8.02553 17.1082 7.91355 17.132 7.80018 17.1334C7.55265 17.1334 7.31525 17.035 7.14022 16.86C6.96518 16.685 6.86685 16.4476 6.86685 16.2C6.86468 16.0856 6.88591 15.9719 6.92924 15.866C6.97257 15.7601 7.0371 15.6641 7.11885 15.584L10.7495 12L7.11885 8.36937C6.96502 8.21887 6.87482 8.01508 6.86685 7.80003C6.86685 7.5525 6.96518 7.3151 7.14022 7.14007C7.31525 6.96503 7.55265 6.8667 7.80018 6.8667C8.02418 6.8695 8.23885 6.96003 8.39752 7.1187Z" fill="#FF0000"/>
</svg>
