<svg width="76" height="75" viewBox="0 0 76 75" fill="none" xmlns="http://www.w3.org/2000/svg">
<path d="M0.25 40.625C0.25 18.1884 18.4384 0 40.875 0H49C63.4975 0 75.25 11.7525 75.25 26.25V41.25C75.25 59.8896 60.1396 75 41.5 75H34.625C15.6402 75 0.25 59.6098 0.25 40.625Z" fill="#FFF6E8"/>
<path d="M50.6442 37.968C50.6421 37.8933 50.6187 37.8272 50.6017 37.7579C50.5857 37.6896 50.5772 37.6213 50.5475 37.5563C50.5421 37.5456 50.5443 37.5339 50.5389 37.5243C50.5145 37.4752 50.473 37.4432 50.4422 37.4005C50.3986 37.3387 50.3592 37.2747 50.305 37.2245C50.2539 37.1765 50.1912 37.1435 50.1306 37.1072C50.0753 37.0731 50.0221 37.0347 49.9615 37.0112C49.8881 36.9835 49.8073 36.9749 49.7264 36.9632C49.6796 36.9547 49.6371 36.9333 49.5871 36.9333C49.5765 36.9333 49.568 36.9387 49.5573 36.9397C49.4808 36.9419 49.4127 36.9664 49.3415 36.9835C49.2755 36.9995 49.2085 37.008 49.1447 37.0368C49.1341 37.0421 49.1224 37.04 49.1117 37.0453L36.8252 43.2075L24.5387 37.0453C24.5281 37.04 24.5164 37.0411 24.5058 37.0368C24.4419 37.0069 24.3749 36.9995 24.309 36.9835C24.2378 36.9653 24.1697 36.9419 24.0931 36.9397C24.0825 36.9387 24.074 36.9333 24.0633 36.9333C24.0134 36.9333 23.9708 36.9547 23.923 36.9622C23.8421 36.9728 23.7613 36.9813 23.6879 37.0101C23.6273 37.0336 23.5752 37.072 23.5188 37.1061C23.4582 37.1435 23.3965 37.1765 23.3444 37.2235C23.2912 37.2736 23.2508 37.3376 23.2072 37.3995C23.1764 37.4432 23.1349 37.4741 23.1105 37.5232C23.1051 37.5339 23.1062 37.5456 23.1019 37.5552C23.0722 37.6213 23.0637 37.6896 23.0477 37.7568C23.0318 37.8272 23.0084 37.8933 23.0062 37.968C23.0062 37.9797 22.9998 37.9883 22.9998 38V51.8667C22.9998 53.0432 23.9538 54 25.1268 54H48.5236C49.6967 54 50.6506 53.0432 50.6506 51.8667V38C50.6506 37.9883 50.6442 37.9797 50.6442 37.968Z" fill="#E29E37"/>
<path d="M24.0636 39.0666C23.7914 39.0666 23.5191 38.962 23.3117 38.754C22.8959 38.337 22.8959 37.6628 23.3117 37.2458L27.5657 32.9791C27.9815 32.5621 28.6536 32.5621 29.0695 32.9791C29.4853 33.3962 29.4853 34.0703 29.0695 34.4874L24.8155 38.754C24.6081 38.962 24.3359 39.0666 24.0636 39.0666Z" fill="#E29E37"/>
<path d="M49.5871 39.0668C49.3148 39.0668 49.0426 38.9622 48.8352 38.7542L44.5812 34.4876C44.1654 34.0705 44.1654 33.3964 44.5812 32.9793C44.9971 32.5622 45.6692 32.5622 46.085 32.9793L50.339 37.246C50.7548 37.663 50.7548 38.3372 50.339 38.7542C50.1316 38.9622 49.8594 39.0668 49.5871 39.0668Z" fill="#E29E37"/>
<path d="M44.2696 22H29.3807C28.2077 22 27.2538 22.9568 27.2538 24.1333V40.7925L35.8744 45.1157C36.1722 45.265 36.4987 45.3386 36.8252 45.3386C37.1517 45.3386 37.4782 45.264 37.777 45.1157L46.3966 40.7925V24.1333C46.3966 22.9568 45.4426 22 44.2696 22ZM41.0791 36.9333H32.5701C31.9831 36.9333 31.5067 36.4555 31.5067 35.8667C31.5067 35.2779 31.9831 34.8 32.5701 34.8H41.0791C41.6662 34.8 42.1426 35.2779 42.1426 35.8667C42.1426 36.4555 41.6662 36.9333 41.0791 36.9333ZM41.0791 32.6667H32.5701C31.9831 32.6667 31.5067 32.1888 31.5067 31.6C31.5067 31.0112 31.9831 30.5333 32.5701 30.5333H41.0791C41.6662 30.5333 42.1426 31.0112 42.1426 31.6C42.1426 32.1888 41.6662 32.6667 41.0791 32.6667ZM41.0791 28.4H32.5701C31.9831 28.4 31.5067 27.9221 31.5067 27.3333C31.5067 26.7445 31.9831 26.2667 32.5701 26.2667H41.0791C41.6662 26.2667 42.1426 26.7445 42.1426 27.3333C42.1426 27.9221 41.6662 28.4 41.0791 28.4Z" fill="#E29E37"/>
</svg>
