<svg width="32" height="32" viewBox="0 0 32 32" fill="none" xmlns="http://www.w3.org/2000/svg">
<path d="M0 17.3333C0 7.7604 7.7604 0 17.3333 0H20.8C26.9856 0 32 5.01441 32 11.2V17.6C32 25.5529 25.5529 32 17.6 32H14.6667C6.56649 32 0 25.4335 0 17.3333Z" fill="#F35D93"/>
<path d="M14.5052 8.5789C13.9963 8.4143 13.4454 8.43638 12.9513 8.64116C12.4572 8.84595 12.0522 9.22006 11.809 9.6964L11.2045 10.8784C11.1326 11.0191 11.0182 11.1336 10.8775 11.2054L9.69471 11.8099C9.21837 12.0532 8.84426 12.4581 8.63947 12.9522C8.43469 13.4464 8.41261 13.9972 8.57721 14.5062L8.98671 15.7699C9.03532 15.9201 9.03532 16.0817 8.98671 16.2319L8.57796 17.4957C8.41336 18.0046 8.43544 18.5554 8.64022 19.0496C8.84501 19.5437 9.21912 19.9486 9.69546 20.1919L10.8775 20.7964C11.0182 20.8682 11.1326 20.9827 11.2045 21.1234L11.809 22.3061C12.0522 22.7825 12.4572 23.1566 12.9513 23.3614C13.4454 23.5662 13.9963 23.5882 14.5052 23.4236L15.769 23.0141C15.9191 22.9655 16.0808 22.9655 16.231 23.0141L17.4947 23.4229C18.0035 23.5876 18.5544 23.5656 19.0484 23.3609C19.5425 23.1563 19.9476 22.7824 20.191 22.3061L20.7955 21.1234C20.8673 20.9827 20.9817 20.8682 21.1225 20.7964L22.3052 20.1927C22.7817 19.9494 23.1559 19.5443 23.3607 19.05C23.5655 18.5557 23.5875 18.0047 23.4227 17.4957L23.0132 16.2319C22.9646 16.0817 22.9646 15.9201 23.0132 15.7699L23.422 14.5062C23.5866 13.9973 23.5647 13.4465 23.36 12.9524C23.1554 12.4583 22.7814 12.0533 22.3052 11.8099L21.1225 11.2054C20.9817 11.1336 20.8673 11.0191 20.7955 10.8784L20.1917 9.69565C19.9484 9.21914 19.5433 8.84492 19.0491 8.64012C18.5548 8.43532 18.0037 8.41335 17.4947 8.57815L16.231 8.98765C16.0808 9.03626 15.9191 9.03626 15.769 8.98765L14.5052 8.5789ZM12.07 15.8187L13.1305 14.7582L15.2515 16.8799L19.4942 12.6372L20.5555 13.6977L15.2515 19.0002L12.07 15.8187Z" fill="white"/>
</svg>
