<svg width="32" height="32" viewBox="0 0 32 32" fill="none" xmlns="http://www.w3.org/2000/svg">
<path d="M0 17.3333C0 7.7604 7.7604 0 17.3333 0H20.8C26.9856 0 32 5.01441 32 11.2V17.6C32 25.5529 25.5529 32 17.6 32H14.6667C6.56649 32 0 25.4335 0 17.3333Z" fill="#E68F40"/>
<path d="M15.2426 11.8219C14.9886 11.8218 14.7423 11.7345 14.5451 11.5745C14.3478 11.4145 14.2114 11.1916 14.1589 10.9431C13.0339 11.3501 12.073 12.1142 11.423 13.1186C10.773 14.123 10.4696 15.3125 10.5591 16.5055C10.6486 17.6986 11.1261 18.8295 11.9187 19.7257C12.7113 20.6218 13.7754 21.234 14.9485 21.4686C16.1217 21.7032 17.3394 21.5474 18.4157 21.025C19.492 20.5026 20.3677 19.6423 20.9092 18.5754C21.4506 17.5086 21.628 16.2939 21.4143 15.1167C21.2006 13.9396 20.6074 12.8648 19.7255 12.0564C19.523 11.8723 19.3965 11.6191 19.3711 11.3465C19.3457 11.074 19.423 10.8018 19.588 10.5834C18.8797 10.1261 18.0897 9.80991 17.2614 9.65234C17.236 9.83855 17.1633 10.0152 17.0504 10.1653L16.1253 11.3838C16.0216 11.5196 15.8881 11.6298 15.735 11.7058C15.5819 11.7817 15.4135 11.8215 15.2426 11.8219ZM11.9548 16.5081C11.8671 16.506 11.7837 16.4697 11.7225 16.4069C11.6612 16.3441 11.6269 16.2599 11.6269 16.1722C11.6269 16.0844 11.6612 16.0002 11.7225 15.9374C11.7837 15.8747 11.8671 15.8383 11.9548 15.8362H12.5866C12.6743 15.8383 12.7577 15.8747 12.819 15.9374C12.8802 16.0002 12.9145 16.0844 12.9145 16.1722C12.9145 16.2599 12.8802 16.3441 12.819 16.4069C12.7577 16.4697 12.6743 16.506 12.5866 16.5081H11.9548ZM13.6806 18.9526L13.2338 19.3992C13.2027 19.4309 13.1656 19.4561 13.1247 19.4733C13.0838 19.4906 13.0399 19.4996 12.9955 19.4998C12.951 19.5 12.907 19.4914 12.866 19.4745C12.8249 19.4575 12.7876 19.4327 12.7562 19.4012C12.7249 19.3698 12.7 19.3325 12.6831 19.2914C12.6663 19.2504 12.6577 19.2063 12.6579 19.1619C12.6582 19.1175 12.6672 19.0736 12.6845 19.0327C12.7018 18.9918 12.7271 18.9548 12.7588 18.9237L13.2056 18.4771C13.2688 18.4151 13.354 18.3806 13.4426 18.381C13.5312 18.3815 13.616 18.4169 13.6786 18.4796C13.7412 18.5422 13.7765 18.6271 13.7769 18.7157C13.7773 18.8042 13.7427 18.8894 13.6806 18.9526ZM13.8219 13.9399C13.7588 14.0029 13.6733 14.0382 13.5842 14.0382C13.4951 14.0381 13.4096 14.0027 13.3466 13.9397L12.9 13.4929C12.8683 13.4618 12.8431 13.4247 12.8259 13.3838C12.8086 13.3429 12.7996 13.2989 12.7994 13.2545C12.7992 13.2101 12.8078 13.1661 12.8247 13.1251C12.8416 13.084 12.8665 13.0467 12.8979 13.0153C12.9294 12.9839 12.9667 12.9591 13.0078 12.9422C13.0488 12.9253 13.0928 12.9168 13.1372 12.917C13.1816 12.9172 13.2256 12.9263 13.2665 12.9436C13.3074 12.9609 13.3444 12.9861 13.3755 13.0178L13.8221 13.4647C13.8851 13.5277 13.9204 13.6132 13.9204 13.7024C13.9203 13.7915 13.8849 13.8769 13.8219 13.9399ZM16.367 20.4484C16.368 20.4932 16.3602 20.5378 16.3438 20.5795C16.3274 20.6213 16.3028 20.6593 16.2715 20.6913C16.2402 20.7234 16.2028 20.7489 16.1615 20.7663C16.1202 20.7837 16.0758 20.7927 16.031 20.7927C15.9862 20.7927 15.9418 20.7837 15.9005 20.7663C15.8592 20.7489 15.8218 20.7234 15.7905 20.6913C15.7592 20.6593 15.7346 20.6213 15.7182 20.5795C15.7018 20.5378 15.6939 20.4932 15.695 20.4484V19.8166C15.6939 19.7718 15.7018 19.7272 15.7182 19.6855C15.7346 19.6438 15.7592 19.6058 15.7905 19.5737C15.8218 19.5416 15.8592 19.5161 15.9005 19.4987C15.9418 19.4813 15.9862 19.4723 16.031 19.4723C16.0758 19.4723 16.1202 19.4813 16.1615 19.4987C16.2028 19.5161 16.2402 19.5416 16.2715 19.5737C16.3028 19.6058 16.3274 19.6438 16.3438 19.6855C16.3602 19.7272 16.368 19.7718 16.367 19.8166V20.4484ZM20.1862 15.8362C20.2739 15.8383 20.3572 15.8747 20.4185 15.9374C20.4798 16.0002 20.5141 16.0844 20.5141 16.1722C20.5141 16.2599 20.4798 16.3441 20.4185 16.4069C20.3572 16.4697 20.2739 16.506 20.1862 16.5081H19.5544C19.5096 16.5092 19.465 16.5013 19.4233 16.4849C19.3815 16.4686 19.3435 16.444 19.3115 16.4127C19.2794 16.3814 19.2539 16.344 19.2365 16.3027C19.2191 16.2614 19.2101 16.217 19.2101 16.1722C19.2101 16.1273 19.2191 16.083 19.2365 16.0417C19.2539 16.0004 19.2794 15.963 19.3115 15.9316C19.3435 15.9003 19.3815 15.8758 19.4233 15.8594C19.465 15.843 19.5096 15.8351 19.5544 15.8362H20.1862ZM18.3879 13.2945L18.8347 12.8479C18.8659 12.8162 18.9029 12.791 18.9438 12.7738C18.9848 12.7565 19.0287 12.7475 19.0731 12.7473C19.1175 12.7471 19.1615 12.7557 19.2026 12.7726C19.2436 12.7895 19.2809 12.8144 19.3123 12.8458C19.3437 12.8773 19.3685 12.9146 19.3854 12.9557C19.4023 12.9967 19.4108 13.0407 19.4106 13.0851C19.4104 13.1295 19.4013 13.1735 19.384 13.2144C19.3667 13.2553 19.3415 13.2923 19.3098 13.3234L18.863 13.77C18.8318 13.8017 18.7948 13.8269 18.7538 13.8441C18.7129 13.8614 18.669 13.8704 18.6246 13.8706C18.5802 13.8708 18.5362 13.8622 18.4951 13.8452C18.4541 13.8283 18.4168 13.8035 18.3854 13.772C18.354 13.7406 18.3292 13.7033 18.3123 13.6622C18.2954 13.6212 18.2868 13.5771 18.2871 13.5327C18.2873 13.4883 18.2963 13.4444 18.3137 13.4035C18.331 13.3626 18.3562 13.3256 18.3879 13.2945ZM18.2737 18.3913C18.3368 18.3284 18.4223 18.2932 18.5114 18.2932C18.6005 18.2932 18.686 18.3284 18.7491 18.3913L19.196 18.8381C19.2576 18.9014 19.2918 18.9865 19.2912 19.0749C19.2906 19.1633 19.2552 19.2478 19.1927 19.3103C19.1302 19.3728 19.0456 19.4082 18.9573 19.4088C18.8689 19.4094 18.7838 19.3752 18.7205 19.3136L18.2737 18.8667C18.2107 18.8036 18.1754 18.7181 18.1754 18.629C18.1754 18.5399 18.2107 18.4544 18.2737 18.3913ZM16.367 13.0857V15.6361L17.1333 14.901C17.1648 14.8691 17.2024 14.8438 17.2439 14.8267C17.2854 14.8096 17.3298 14.8009 17.3747 14.8013C17.4196 14.8016 17.4639 14.8109 17.5051 14.8287C17.5463 14.8464 17.5836 14.8722 17.6146 14.9046C17.6457 14.937 17.67 14.9752 17.686 15.0171C17.7021 15.059 17.7096 15.1037 17.7081 15.1485C17.7066 15.1934 17.6961 15.2375 17.6773 15.2782C17.6585 15.3189 17.6317 15.3555 17.5985 15.3857L16.2637 16.6669C16.2162 16.7125 16.1563 16.7432 16.0915 16.7551C16.0267 16.767 15.9599 16.7596 15.8993 16.7337C15.8387 16.7079 15.787 16.6648 15.7507 16.6098C15.7144 16.5548 15.695 16.4904 15.6951 16.4245V13.0857C15.6972 12.998 15.7336 12.9146 15.7963 12.8533C15.8591 12.7921 15.9433 12.7578 16.0311 12.7578C16.1188 12.7578 16.203 12.7921 16.2658 12.8533C16.3286 12.9146 16.3648 12.998 16.367 13.0857Z" fill="white"/>
<path d="M20.7685 10.919C20.6834 10.841 20.5707 10.7999 20.4552 10.8049C20.3398 10.8099 20.2311 10.8606 20.153 10.9458C20.0749 11.0309 20.0339 11.1436 20.0389 11.2591C20.0439 11.3745 20.0946 11.4832 20.1798 11.5613C21.2119 12.5077 21.8901 13.7781 22.1021 15.1624C22.3141 16.5466 22.0473 17.9618 21.3458 19.1738C20.6442 20.3857 19.55 21.3219 18.244 21.8275C16.9381 22.3331 15.4987 22.3777 14.1639 21.9541C12.8292 21.5304 11.679 20.6638 10.9037 19.4977C10.1283 18.3315 9.7743 16.9356 9.90013 15.5409C10.0259 14.1462 10.6241 12.8362 11.5956 11.8276C12.5671 10.819 13.8538 10.1722 15.2428 9.99431L14.8961 10.451C14.8262 10.5431 14.7957 10.6591 14.8113 10.7735C14.827 10.888 14.8874 10.9916 14.9794 11.0615C15.0714 11.1314 15.1874 11.1619 15.3019 11.1462C15.4164 11.1306 15.52 11.0701 15.5899 10.9781L16.5153 9.75941C16.5798 9.67435 16.6109 9.56854 16.6026 9.46208C16.5943 9.35562 16.5472 9.25591 16.4703 9.18186L15.367 8.1216C15.2837 8.04152 15.172 7.99781 15.0564 8.00008C14.9409 8.00236 14.831 8.05044 14.7509 8.13374C14.6708 8.21705 14.6271 8.32875 14.6294 8.44428C14.6317 8.5598 14.6798 8.6697 14.7631 8.74978L15.1555 9.1269C13.5671 9.32462 12.094 10.0589 10.98 11.2083C9.86606 12.3576 9.1781 13.853 9.0301 15.4467C8.88209 17.0404 9.28292 18.6369 10.1662 19.9717C11.0495 21.3065 12.3622 22.2995 13.8869 22.7863C15.4117 23.2732 17.057 23.2246 18.5503 22.6486C20.0437 22.0725 21.2955 21.0037 22.0984 19.6191C22.9013 18.2345 23.2072 16.6171 22.9653 15.0349C22.7235 13.4527 21.9484 12.0006 20.7685 10.919Z" fill="white"/>
</svg>
