<svg width="32" height="32" viewBox="0 0 32 32" fill="none" xmlns="http://www.w3.org/2000/svg">
<path d="M0 17.3333C0 7.7604 7.7604 0 17.3333 0H20.8C26.9856 0 32 5.01441 32 11.2V17.6C32 25.5529 25.5529 32 17.6 32H14.6667C6.56649 32 0 25.4335 0 17.3333Z" fill="#417EC6"/>
<path d="M16.75 9.85C16.75 9.51863 17.0186 9.25 17.35 9.25H19.15C19.4814 9.25 19.75 9.51863 19.75 9.85V10.15C19.75 10.4814 19.4814 10.75 19.15 10.75H17.35C17.0186 10.75 16.75 10.4814 16.75 10.15V9.85ZM9.25 13.6C9.25 13.2686 9.51863 13 9.85 13H11.65C11.9814 13 12.25 13.2686 12.25 13.6V13.9C12.25 14.2314 11.9814 14.5 11.65 14.5H9.85C9.51863 14.5 9.25 14.2314 9.25 13.9V13.6ZM9.25 19.6C9.25 19.2686 9.51863 19 9.85 19H11.65C11.9814 19 12.25 19.2686 12.25 19.6V19.9C12.25 20.2314 11.9814 20.5 11.65 20.5H9.85C9.51863 20.5 9.25 20.2314 9.25 19.9V19.6ZM8.5 16.6C8.5 16.2686 8.76863 16 9.1 16H10.8925C11.2239 16 11.4925 16.2686 11.4925 16.6V16.9C11.4925 17.2314 11.2239 17.5 10.8925 17.5H9.1C8.76863 17.5 8.5 17.2314 8.5 16.9V16.6ZM22.8563 12.4545C23.0904 12.2202 23.0904 11.8404 22.8561 11.6061L22.644 11.394C22.4097 11.1597 22.0298 11.1597 21.7955 11.394L21.2718 11.9177C21.0767 12.1128 20.775 12.1463 20.5268 12.0254C19.8194 11.6808 19.041 11.5002 18.25 11.5C15.3557 11.5 13 13.8557 13 16.75C13 19.6442 15.3557 22 18.25 22C21.1442 22 23.5 19.6442 23.5 16.75C23.4994 15.6279 23.1378 14.5411 22.4767 13.6468C22.2852 13.3876 22.2889 13.0222 22.5167 12.7943L22.8563 12.4545ZM19 16.9C19 17.2314 18.7314 17.5 18.4 17.5H18.1C17.7686 17.5 17.5 17.2314 17.5 16.9V14.3185C17.5 13.9871 17.7686 13.7185 18.1 13.7185H18.4C18.7314 13.7185 19 13.9871 19 14.3185V16.9Z" fill="white"/>
</svg>
