<svg width="76" height="75" viewBox="0 0 76 75" fill="none" xmlns="http://www.w3.org/2000/svg">
<path d="M0.5 40.625C0.5 18.1884 18.6884 0 41.125 0H49.25C63.7475 0 75.5 11.7525 75.5 26.25V41.25C75.5 59.8896 60.3896 75 41.75 75H34.875C15.8902 75 0.5 59.6098 0.5 40.625Z" fill="#F1F6FF"/>
<path d="M22.5317 22.5898C23.2082 22.2266 23.9719 22 24.7949 22H45.7179C46.5409 22 47.3046 22.2249 47.9811 22.5898L36.524 31.1849C35.7655 31.7228 34.7473 31.7228 33.9888 31.1849L22.5317 22.5898ZM32.4667 33.2951L20.6451 24.4216C20.2441 25.1135 20 25.9092 20 26.7568V40.5946C20 43.2238 22.1446 45.3514 24.7949 45.3514H31.4031C31.3508 44.9189 31.3333 44.4865 31.3333 44.0541C31.3333 39.9373 33.3385 36.2876 36.4246 34.0216C36.041 34.1254 35.6574 34.1773 35.2564 34.1773C34.28 34.1773 33.3036 33.8832 32.4667 33.2951ZM49.8677 24.4216L39.1446 32.4649C40.6267 31.8595 42.2656 31.5135 43.9744 31.5135C46.3805 31.5135 48.6123 32.1708 50.5128 33.347V26.7568C50.5128 25.9092 50.2687 25.1135 49.8677 24.4216ZM54 44.0541C54 49.539 49.5015 54 43.9744 54C38.4472 54 33.9487 49.539 33.9487 44.0541C33.9487 38.5691 38.4472 34.1081 43.9744 34.1081C49.5015 34.1081 54 38.5691 54 44.0541ZM45.2821 44.0541C45.2821 43.3379 44.6962 42.7568 43.9744 42.7568C43.2525 42.7568 42.6667 43.3379 42.6667 44.0541V47.5135C42.6667 48.2296 43.2525 48.8108 43.9744 48.8108C44.6962 48.8108 45.2821 48.2296 45.2821 47.5135V44.0541ZM45.2821 40.5946C45.2821 40.2486 45.1426 39.9183 44.8985 39.6778C44.4103 39.1935 43.5385 39.1935 43.0503 39.6778C42.8062 39.92 42.6667 40.2486 42.6667 40.5946C42.6667 40.7676 42.7015 40.9405 42.7713 41.0962C42.8236 41.2519 42.9282 41.3903 43.0503 41.5114C43.2944 41.7535 43.6256 41.8919 43.9744 41.8919C44.3231 41.8919 44.6544 41.7535 44.8985 41.5114C45.0205 41.3903 45.1251 41.2519 45.1774 41.0962C45.2472 40.9405 45.2821 40.7676 45.2821 40.5946Z" fill="#3E65B3"/>
</svg>
