<svg width="30" height="30" viewBox="0 0 30 30" fill="none" xmlns="http://www.w3.org/2000/svg">
<path d="M15.0001 17.1429C13.453 17.1429 11.9693 16.522 10.8753 15.4169C9.78137 14.3118 9.16679 12.8129 9.16679 11.25H11.5001C11.5001 12.1877 11.8689 13.0871 12.5252 13.7501C13.1816 14.4132 14.0719 14.7857 15.0001 14.7857C15.9284 14.7857 16.8186 14.4132 17.475 13.7501C18.1314 13.0871 18.5001 12.1877 18.5001 11.25H20.8335C20.8335 12.8129 20.2189 14.3118 19.1249 15.4169C18.0309 16.522 16.5472 17.1429 15.0001 17.1429ZM15.0001 5.35714C15.9284 5.35714 16.8186 5.72965 17.475 6.39273C18.1314 7.0558 18.5001 7.95513 18.5001 8.89286H11.5001C11.5001 7.95513 11.8689 7.0558 12.5252 6.39273C13.1816 5.72965 14.0719 5.35714 15.0001 5.35714ZM23.1668 8.89286H20.8335C20.8335 8.119 20.6826 7.35271 20.3894 6.63776C20.0963 5.9228 19.6666 5.27318 19.1249 4.72598C18.5832 4.17878 17.9402 3.74471 17.2324 3.44857C16.5247 3.15242 15.7662 3 15.0001 3C13.453 3 11.9693 3.62085 10.8753 4.72598C9.78137 5.8311 9.16679 7.32997 9.16679 8.89286H6.83346C5.53846 8.89286 4.50012 9.94179 4.50012 11.25V25.3929C4.50012 26.018 4.74595 26.6176 5.18354 27.0596C5.62112 27.5017 6.21462 27.75 6.83346 27.75H23.1668C23.7856 27.75 24.3791 27.5017 24.8167 27.0596C25.2543 26.6176 25.5001 26.018 25.5001 25.3929V11.25C25.5001 10.6248 25.2543 10.0253 24.8167 9.58325C24.3791 9.1412 23.7856 8.89286 23.1668 8.89286Z" fill="#FF0000"/>
</svg>
