<svg width="33" height="32" viewBox="0 0 33 32" fill="none" xmlns="http://www.w3.org/2000/svg">
<path fill-rule="evenodd" clip-rule="evenodd" d="M9.95349 6C8.0005 6 6.23446 6.45817 4.95261 7.57545C3.65861 8.70335 3 10.3783 3 12.527V20.473C3 22.6218 3.65861 24.2967 4.95261 25.4245C6.23446 26.5419 8.0005 27 9.95349 27H22.0465C23.9995 27 25.7656 26.5419 27.0473 25.4245C28.3414 24.2967 29 22.6218 29 20.473V12.527C29 10.3783 28.3414 8.70335 27.0473 7.57545C25.7656 6.45817 23.9995 6 22.0465 6H9.95349ZM24.7414 12.3707C25.1377 12.0832 25.2108 11.5486 24.9045 11.1765C24.5983 10.8044 24.0287 10.7359 23.6323 11.0234L16.9241 15.8888C16.3798 16.2838 15.62 16.2838 15.0756 15.8888L8.36761 11.0234C7.97124 10.7359 7.40164 10.8044 7.09536 11.1765C6.78908 11.5486 6.86211 12.0832 7.25849 12.3707L13.9666 17.2362C15.1643 18.1049 16.8356 18.1049 18.0333 17.2362L24.7414 12.3707Z" fill="#0466C8"/>
</svg>
