<svg width="257" height="624" viewBox="0 0 257 624" fill="none" xmlns="http://www.w3.org/2000/svg">
<g clip-path="url(#clip0_207_1466)">
<rect x="-0.27906" y="-0.673804" width="426.374" height="431.358" rx="5.5" transform="matrix(0.911181 0.412007 -0.353061 0.9356 -232.302 -48.26)" stroke="#FFE8E9"/>
<rect x="-0.27906" y="-0.673804" width="395.058" height="399.676" rx="5.5" transform="matrix(0.911181 0.412007 -0.353061 0.9356 -223.63 -26.9875)" stroke="#FFE8E9"/>
<rect x="-0.27906" y="-0.673804" width="347.214" height="351.271" rx="5.5" transform="matrix(0.911181 0.412007 -0.353061 0.9356 -200.688 0.735645)" stroke="#FFE8E9"/>
<rect x="-0.27906" y="-0.673804" width="288.932" height="292.306" rx="5.5" transform="matrix(0.911181 0.412007 -0.353061 0.9356 -168.376 35.5892)" stroke="#FFE8E9"/>
<rect x="-0.27906" y="-0.673804" width="228.04" height="230.701" rx="5.5" transform="matrix(0.911181 0.412007 -0.353061 0.9356 -133.063 69.8704)" stroke="#FFE8E9"/>
<rect x="-0.27906" y="-0.673804" width="177.587" height="179.656" rx="5.5" transform="matrix(0.911181 0.412007 -0.353061 0.9356 -106.157 99.386)" stroke="#FFE8E9"/>
<rect x="-0.27906" y="-0.673804" width="134.962" height="136.532" rx="5.5" transform="matrix(0.911181 0.412007 -0.353061 0.9356 -87.1806 125.318)" stroke="#FFE8E9"/>
</g>
<defs>
<clipPath id="clip0_207_1466">
<rect width="257" height="624" fill="white"/>
</clipPath>
</defs>
</svg>
