<svg width="68" height="68" viewBox="0 0 68 68" fill="none" xmlns="http://www.w3.org/2000/svg">
<path d="M68 34C68 52.7777 52.7777 68 34 68C15.2223 68 0 52.7777 0 34C0 15.2223 15.2223 0 34 0C52.7777 0 68 15.2223 68 34ZM4.87401 34C4.87401 50.0858 17.9142 63.126 34 63.126C50.0858 63.126 63.126 50.0858 63.126 34C63.126 17.9142 50.0858 4.87401 34 4.87401C17.9142 4.87401 4.87401 17.9142 4.87401 34Z" fill="#D9D9D9"/>
<path d="M20.2088 26.4545V41H17.5739V29.0185H17.4886L14.0866 31.1918V28.777L17.7017 26.4545H20.2088ZM28.9588 41.1989C28.0118 41.1989 27.1643 41.0213 26.4162 40.6662C25.6681 40.3063 25.0739 39.8139 24.6335 39.1889C24.1979 38.5639 23.9659 37.849 23.9375 37.044H26.4943C26.5417 37.6406 26.7997 38.1283 27.2685 38.5071C27.7372 38.8812 28.3007 39.0682 28.9588 39.0682C29.4749 39.0682 29.9342 38.9498 30.3366 38.7131C30.7391 38.4763 31.0563 38.1473 31.2884 37.7259C31.5204 37.3045 31.634 36.8239 31.6293 36.2841C31.634 35.7348 31.518 35.2472 31.2812 34.821C31.0445 34.3949 30.7202 34.0611 30.3082 33.8196C29.8963 33.5734 29.4228 33.4503 28.8878 33.4503C28.4522 33.4455 28.0237 33.526 27.6023 33.6918C27.1809 33.8575 26.8471 34.0753 26.6009 34.3452L24.2216 33.9545L24.9815 26.4545H33.419V28.6562H27.1619L26.7429 32.5128H26.8281C27.098 32.1955 27.4792 31.9328 27.9716 31.7244C28.464 31.5114 29.0038 31.4048 29.5909 31.4048C30.4716 31.4048 31.2576 31.6132 31.9489 32.0298C32.6402 32.4418 33.1847 33.0099 33.5824 33.7344C33.9801 34.4588 34.179 35.2874 34.179 36.2202C34.179 37.1813 33.9564 38.0384 33.5114 38.7912C33.071 39.5393 32.4579 40.1288 31.6719 40.5597C30.8906 40.9858 29.9863 41.1989 28.9588 41.1989ZM44.3352 38.2727V37.5057C44.3352 36.9422 44.4536 36.4238 44.6903 35.9503C44.9318 35.4768 45.2822 35.0956 45.7415 34.8068C46.2008 34.518 46.7571 34.3736 47.4105 34.3736C48.0829 34.3736 48.6463 34.518 49.1009 34.8068C49.5554 35.0909 49.8987 35.4697 50.1307 35.9432C50.3674 36.4167 50.4858 36.9375 50.4858 37.5057V38.2727C50.4858 38.8362 50.3674 39.3546 50.1307 39.8281C49.8939 40.3016 49.5459 40.6828 49.0866 40.9716C48.6321 41.2604 48.0734 41.4048 47.4105 41.4048C46.7476 41.4048 46.1866 41.2604 45.7273 40.9716C45.268 40.6828 44.92 40.3016 44.6832 39.8281C44.4512 39.3546 44.3352 38.8362 44.3352 38.2727ZM46.1889 37.5057V38.2727C46.1889 38.6468 46.2789 38.9901 46.4588 39.3026C46.6387 39.6151 46.956 39.7713 47.4105 39.7713C47.8698 39.7713 48.1847 39.6174 48.3551 39.3097C48.5303 38.9972 48.6179 38.6515 48.6179 38.2727V37.5057C48.6179 37.1269 48.535 36.7812 48.3693 36.4688C48.2036 36.1515 47.884 35.9929 47.4105 35.9929C46.9654 35.9929 46.6506 36.1515 46.4659 36.4688C46.2813 36.7812 46.1889 37.1269 46.1889 37.5057ZM36.9418 29.9489V29.1818C36.9418 28.6136 37.0625 28.0928 37.304 27.6193C37.5455 27.1458 37.8958 26.767 38.3551 26.483C38.8144 26.1941 39.3707 26.0497 40.0241 26.0497C40.6918 26.0497 41.2528 26.1941 41.7074 26.483C42.1667 26.767 42.5123 27.1458 42.7443 27.6193C42.9763 28.0928 43.0923 28.6136 43.0923 29.1818V29.9489C43.0923 30.517 42.974 31.0379 42.7372 31.5114C42.5052 31.9801 42.1596 32.3565 41.7003 32.6406C41.241 32.9247 40.6823 33.0668 40.0241 33.0668C39.3565 33.0668 38.7931 32.9247 38.3338 32.6406C37.8793 32.3565 37.5336 31.9777 37.2969 31.5043C37.0601 31.0308 36.9418 30.5123 36.9418 29.9489ZM38.8097 29.1818V29.9489C38.8097 30.3277 38.8973 30.6733 39.0724 30.9858C39.2524 31.2936 39.5696 31.4474 40.0241 31.4474C40.4787 31.4474 40.7912 31.2936 40.9616 30.9858C41.1368 30.6733 41.2244 30.3277 41.2244 29.9489V29.1818C41.2244 28.803 41.1416 28.4574 40.9759 28.1449C40.8101 27.8277 40.4929 27.669 40.0241 27.669C39.5743 27.669 39.2595 27.8277 39.0795 28.1449C38.8996 28.4621 38.8097 28.8078 38.8097 29.1818ZM37.7514 41L47.7514 26.4545H49.527L39.527 41H37.7514Z" fill="#0466C8"/>
<path d="M34 2.43701C34 1.09109 35.0925 -0.00908972 36.435 0.0872981C40.9586 0.412088 45.3801 1.63938 49.4357 3.70578C53.4912 5.77219 57.0831 8.62794 60.0047 12.0967C60.8718 13.1261 60.6239 14.6566 59.535 15.4477C58.4461 16.2389 56.9295 15.9897 56.0502 14.9708C53.5892 12.119 50.5929 9.76566 47.2229 8.04856C43.8529 6.33145 40.1879 5.29072 36.4342 4.97591C35.093 4.86342 34 3.78293 34 2.43701Z" fill="#0466C8"/>
</svg>
