<svg width="43" height="40" viewBox="0 0 43 40" fill="none" xmlns="http://www.w3.org/2000/svg">
<path d="M30.1667 1.42857H14.2778C14.2778 0.714286 13.5556 0 12.8333 0C12.1111 0 11.3889 0.714286 11.3889 1.42857V2.85714V20V37.1429H9.94444C9.07778 37.1429 8.5 37.7143 8.5 38.5714C8.5 39.4286 9.07778 40 9.94444 40H15.7222C16.5889 40 17.1667 39.4286 17.1667 38.5714C17.1667 37.7143 16.5889 37.1429 15.7222 37.1429H14.2778V21.4286H30.1667C32.6222 21.4286 34.5 19.4286 34.5 17.1429V5.71429C34.5 3.28571 32.6222 1.42857 30.1667 1.42857ZM21.5 18.5714H14.2778V12.8571H21.5V18.5714ZM31.6111 10H24.3889V4.28571H30.1667C30.8889 4.28571 31.6111 5 31.6111 5.71429V10Z" fill="#0466C8"/>
</svg>
