<svg width="23" height="14" viewBox="0 0 23 14" fill="none" xmlns="http://www.w3.org/2000/svg">
<path d="M0 0H22.8421V14H0V0Z" fill="white"/>
<path d="M0 0H22.8421V1.84211H0V0ZM0 3.31579H22.8421V4.78948H0V3.31579ZM0 6.26316H22.8421V7.73685H0V6.26316Z" fill="#D22F27"/>
<path d="M0 0H11.7895V7.73685H0V0Z" fill="#1E50A0"/>
<path d="M0 9.21045H22.8421V10.6841H0V9.21045Z" fill="#D22F27"/>
<path d="M1.65749 2.48674C2.01357 2.48674 2.30223 2.19808 2.30223 1.842C2.30223 1.48592 2.01357 1.19727 1.65749 1.19727C1.30142 1.19727 1.01276 1.48592 1.01276 1.842C1.01276 2.19808 1.30142 2.48674 1.65749 2.48674Z" fill="white"/>
<path d="M4.60494 2.48674C4.96102 2.48674 5.24968 2.19808 5.24968 1.842C5.24968 1.48592 4.96102 1.19727 4.60494 1.19727C4.24886 1.19727 3.96021 1.48592 3.96021 1.842C3.96021 2.19808 4.24886 2.48674 4.60494 2.48674Z" fill="white"/>
<path d="M7.55239 2.48674C7.90847 2.48674 8.19713 2.19808 8.19713 1.842C8.19713 1.48592 7.90847 1.19727 7.55239 1.19727C7.19631 1.19727 6.90765 1.48592 6.90765 1.842C6.90765 2.19808 7.19631 2.48674 7.55239 2.48674Z" fill="white"/>
<path d="M10.4998 2.48674C10.8559 2.48674 11.1446 2.19808 11.1446 1.842C11.1446 1.48592 10.8559 1.19727 10.4998 1.19727C10.1438 1.19727 9.8551 1.48592 9.8551 1.842C9.8551 2.19808 10.1438 2.48674 10.4998 2.48674Z" fill="white"/>
<path d="M9.02615 3.96062C9.38222 3.96062 9.67088 3.67196 9.67088 3.31588C9.67088 2.9598 9.38222 2.67114 9.02615 2.67114C8.67007 2.67114 8.38141 2.9598 8.38141 3.31588C8.38141 3.67196 8.67007 3.96062 9.02615 3.96062Z" fill="white"/>
<path d="M6.07864 3.96062C6.43471 3.96062 6.72337 3.67196 6.72337 3.31588C6.72337 2.9598 6.43471 2.67114 6.07864 2.67114C5.72256 2.67114 5.4339 2.9598 5.4339 3.31588C5.4339 3.67196 5.72256 3.96062 6.07864 3.96062Z" fill="white"/>
<path d="M3.13119 3.96062C3.48727 3.96062 3.77593 3.67196 3.77593 3.31588C3.77593 2.9598 3.48727 2.67114 3.13119 2.67114C2.77511 2.67114 2.48645 2.9598 2.48645 3.31588C2.48645 3.67196 2.77511 3.96062 3.13119 3.96062Z" fill="white"/>
<path d="M1.65749 5.43425C2.01357 5.43425 2.30223 5.14559 2.30223 4.78951C2.30223 4.43343 2.01357 4.14478 1.65749 4.14478C1.30142 4.14478 1.01276 4.43343 1.01276 4.78951C1.01276 5.14559 1.30142 5.43425 1.65749 5.43425Z" fill="white"/>
<path d="M4.60494 5.43425C4.96102 5.43425 5.24968 5.14559 5.24968 4.78951C5.24968 4.43343 4.96102 4.14478 4.60494 4.14478C4.24886 4.14478 3.96021 4.43343 3.96021 4.78951C3.96021 5.14559 4.24886 5.43425 4.60494 5.43425Z" fill="white"/>
<path d="M7.55239 5.43425C7.90847 5.43425 8.19713 5.14559 8.19713 4.78951C8.19713 4.43343 7.90847 4.14478 7.55239 4.14478C7.19631 4.14478 6.90765 4.43343 6.90765 4.78951C6.90765 5.14559 7.19631 5.43425 7.55239 5.43425Z" fill="white"/>
<path d="M10.4998 5.43425C10.8559 5.43425 11.1446 5.14559 11.1446 4.78951C11.1446 4.43343 10.8559 4.14478 10.4998 4.14478C10.1438 4.14478 9.8551 4.43343 9.8551 4.78951C9.8551 5.14559 10.1438 5.43425 10.4998 5.43425Z" fill="white"/>
<path d="M9.02615 6.90788C9.38222 6.90788 9.67088 6.61922 9.67088 6.26315C9.67088 5.90707 9.38222 5.61841 9.02615 5.61841C8.67007 5.61841 8.38141 5.90707 8.38141 6.26315C8.38141 6.61922 8.67007 6.90788 9.02615 6.90788Z" fill="white"/>
<path d="M6.07864 6.90788C6.43471 6.90788 6.72337 6.61922 6.72337 6.26315C6.72337 5.90707 6.43471 5.61841 6.07864 5.61841C5.72256 5.61841 5.4339 5.90707 5.4339 6.26315C5.4339 6.61922 5.72256 6.90788 6.07864 6.90788Z" fill="white"/>
<path d="M3.13119 6.90788C3.48727 6.90788 3.77593 6.61922 3.77593 6.26315C3.77593 5.90707 3.48727 5.61841 3.13119 5.61841C2.77511 5.61841 2.48645 5.90707 2.48645 6.26315C2.48645 6.61922 2.77511 6.90788 3.13119 6.90788Z" fill="white"/>
<path d="M0 12.158H22.8421V14.0001H0V12.158Z" fill="#D22F27"/>
</svg>
