<svg width="43" height="40" viewBox="0 0 43 40" fill="none" xmlns="http://www.w3.org/2000/svg">
<path fill-rule="evenodd" clip-rule="evenodd" d="M21.5462 1.02389C20.8892 0.999257 20.1723 0.999669 19.3779 1.00012L18.0823 1.00025C15.5122 1.00021 13.4406 1.00017 11.8112 1.21851C10.1196 1.44521 8.69536 1.93015 7.56416 3.05766C6.43297 4.18515 5.94642 5.6048 5.719 7.29087C5.49994 8.91483 5.49996 10.9797 5.5 13.5414V26.8593C5.49996 29.4211 5.49994 31.4859 5.719 33.11C5.94642 34.796 6.43297 36.2155 7.56416 37.3432C8.69536 38.4706 10.1196 38.9556 11.8112 39.1823C13.4406 39.4005 15.5122 39.4005 18.0823 39.4005H23.9266C26.4968 39.4005 28.5683 39.4005 30.1977 39.1823C31.8893 38.9556 33.3134 38.4706 34.4448 37.3432C35.576 36.2155 36.0625 34.796 36.2899 33.11C36.5089 31.4859 36.5089 29.4211 36.5089 26.8593V19.9228C36.5094 18.6878 36.5098 17.7405 36.3548 16.8869C36.2533 16.9101 36.1477 16.9223 36.039 16.9223H34.0565C31.4866 16.9223 29.4148 16.9223 27.7856 16.7041C26.0938 16.4774 24.6697 15.9924 23.5385 14.8649C22.4072 13.7374 21.9206 12.3178 21.6932 10.6317C21.4743 9.00772 21.4743 6.94289 21.4743 4.38118V1.46855C21.4743 1.31315 21.4996 1.16363 21.5462 1.02389ZM12.0776 22.0735C12.0776 21.2977 12.7087 20.6687 13.4871 20.6687H22.8838C23.6622 20.6687 24.2933 21.2977 24.2933 22.0735C24.2933 22.8494 23.6622 23.4784 22.8838 23.4784H13.4871C12.7087 23.4784 12.0776 22.8494 12.0776 22.0735ZM13.4871 28.1614C12.7087 28.1614 12.0776 28.7904 12.0776 29.5663C12.0776 30.3422 12.7087 30.9712 13.4871 30.9712H28.5217C29.3001 30.9712 29.9312 30.3422 29.9312 29.5663C29.9312 28.7904 29.3001 28.1614 28.5217 28.1614H13.4871Z" fill="#0466C8"/>
<path d="M35.1051 14.1126C34.8352 13.7183 34.5261 13.2983 34.1784 12.8262L29.0847 5.90287C27.6186 3.90776 26.5987 2.51996 25.0919 1.75888C24.8331 1.6281 24.5675 1.51981 24.293 1.43018L24.2935 1.46861V4.27839C24.2935 6.96718 24.2965 8.84246 24.4873 10.2574C24.6728 11.6319 25.0118 12.3597 25.532 12.8782C26.0522 13.3966 26.7823 13.7346 28.1614 13.9194C29.581 14.1096 31.4624 14.1126 34.16 14.1126H35.1051Z" fill="#0466C8"/>
</svg>
