<svg width="33" height="32" viewBox="0 0 33 32" fill="none" xmlns="http://www.w3.org/2000/svg">
<path fill-rule="evenodd" clip-rule="evenodd" d="M12.6352 26.9068L12.7034 26.9731L12.7087 26.9784C13.9572 28.1872 15.1677 29.0157 16.5368 28.9998C17.8997 28.9839 19.1053 28.1338 20.353 26.9063C22.063 25.2321 24.2757 22.9739 25.8742 20.2948C27.4788 17.6057 28.5143 14.4089 27.7352 10.9003C25.1027 -0.957704 7.91107 -0.971597 5.26481 10.8877C4.50776 14.2969 5.46419 17.4155 6.98943 20.0585C8.50892 22.6917 10.635 24.9274 12.3402 26.6159C12.4395 26.7142 12.5376 26.8108 12.6341 26.9057L12.6352 26.9068ZM16.5 8.28019C14.2686 8.28019 12.4596 10.108 12.4596 12.3626C12.4596 14.6172 14.2686 16.445 16.5 16.445C18.7315 16.445 20.5405 14.6172 20.5405 12.3626C20.5405 10.108 18.7315 8.28019 16.5 8.28019Z" fill="#0466C8"/>
</svg>
