<svg width="45" height="45" viewBox="0 0 45 45" fill="none" xmlns="http://www.w3.org/2000/svg">
<g filter="url(#filter0_d_207_1527)">
<path d="M22.4783 36.9476C31.5789 36.9476 38.9565 29.5721 38.9565 20.4738C38.9565 11.3756 31.5789 4 22.4783 4C13.3777 4 6.00012 11.3756 6.00012 20.4738C6.00012 29.5721 13.3777 36.9476 22.4783 36.9476Z" fill="white"/>
</g>
<path d="M26.2444 19.4195L19.7468 13.2905C19.684 13.2276 19.6052 13.1769 19.5159 13.1422C19.4266 13.1074 19.3291 13.0894 19.2304 13.0894C19.1317 13.0894 19.0342 13.1074 18.9449 13.1422C18.8557 13.1769 18.7768 13.2276 18.714 13.2905C18.5758 13.4269 18.5001 13.599 18.5001 13.7768C18.5001 13.9547 18.5758 14.1268 18.714 14.2632L24.6963 19.9059L18.7146 25.5486C18.5768 25.6852 18.5014 25.8574 18.5014 26.0351C18.5014 26.2129 18.5768 26.3851 18.7146 26.5217C18.7773 26.5846 18.8562 26.6353 18.9455 26.6701C19.0348 26.7048 19.1323 26.7229 19.231 26.7229C19.3297 26.7229 19.4272 26.7048 19.5164 26.6701C19.6057 26.6353 19.6846 26.5846 19.7474 26.5217L26.2449 20.3918C26.3809 20.2547 26.4552 20.0828 26.4551 19.9056C26.455 19.7283 26.3805 19.5566 26.2444 19.4195Z" fill="#313131"/>
<defs>
<filter id="filter0_d_207_1527" x="0.00012207" y="0" width="44.9564" height="44.9478" filterUnits="userSpaceOnUse" color-interpolation-filters="sRGB">
<feFlood flood-opacity="0" result="BackgroundImageFix"/>
<feColorMatrix in="SourceAlpha" type="matrix" values="0 0 0 0 0 0 0 0 0 0 0 0 0 0 0 0 0 0 127 0" result="hardAlpha"/>
<feOffset dy="2"/>
<feGaussianBlur stdDeviation="3"/>
<feColorMatrix type="matrix" values="0 0 0 0 0 0 0 0 0 0 0 0 0 0 0 0 0 0 0.102 0"/>
<feBlend mode="normal" in2="BackgroundImageFix" result="effect1_dropShadow_207_1527"/>
<feBlend mode="normal" in="SourceGraphic" in2="effect1_dropShadow_207_1527" result="shape"/>
</filter>
</defs>
</svg>
