<svg width="30" height="30" viewBox="0 0 30 30" fill="none" xmlns="http://www.w3.org/2000/svg">
<path d="M10.1596 19.821C8.58669 21.0562 7.57434 22.9732 7.57434 25.1264V27.1515H3.52425C2.40391 27.1515 1.49921 26.2468 1.49921 25.1264V23.7764C1.49921 21.1642 3.61209 19.0513 6.22431 19.0513H7.57434C8.53269 19.0513 9.41723 19.3346 10.1596 19.821Z" fill="#FB2B2B"/>
<path d="M23.0997 19.0518C24.7772 19.0518 26.1371 17.6919 26.1371 16.0144C26.1371 14.3369 24.7772 12.9771 23.0997 12.9771C21.4222 12.9771 20.0623 14.3369 20.0623 16.0144C20.0623 17.6919 21.4222 19.0518 23.0997 19.0518Z" fill="#FB2B2B"/>
<path d="M6.89969 19.0518C8.5772 19.0518 9.93708 17.6919 9.93708 16.0144C9.93708 14.3369 8.5772 12.9771 6.89969 12.9771C5.22219 12.9771 3.8623 14.3369 3.8623 16.0144C3.8623 17.6919 5.22219 19.0518 6.89969 19.0518Z" fill="#FB2B2B"/>
<path d="M28.5 23.7764V25.1264C28.5 26.2468 27.5953 27.1515 26.4749 27.1515H22.4248V25.1264C22.4248 22.9732 21.4125 21.0562 19.8396 19.821C20.5823 19.335 21.4665 19.0513 22.4248 19.0513H23.7749C26.3871 19.0513 28.5 21.1642 28.5 23.7764Z" fill="#FB2B2B"/>
<path d="M14.9997 19.7261C17.05 19.7261 18.7121 18.064 18.7121 16.0137C18.7121 13.9634 17.05 12.3013 14.9997 12.3013C12.9494 12.3013 11.2873 13.9634 11.2873 16.0137C11.2873 18.064 12.9494 19.7261 14.9997 19.7261Z" fill="#FB2B2B"/>
<path d="M15.6743 19.7266H14.3243C11.3467 19.7266 8.92419 22.1491 8.92419 25.1267V27.1517C8.92419 28.2685 9.83249 29.1768 10.9492 29.1768H19.0494C20.1662 29.1768 21.0745 28.2685 21.0745 27.1517V25.1267C21.0745 22.1491 18.652 19.7266 15.6743 19.7266Z" fill="#FB2B2B"/>
<path d="M24.7873 10.0625L23.1583 10.6418C22.6961 10.8059 22.2133 10.4553 22.2266 9.96497L22.2741 8.23693L21.22 6.86674C20.9209 6.47793 21.1055 5.9102 21.5761 5.77159L23.2343 5.2827L24.2117 3.85671C24.4889 3.45206 25.0861 3.45206 25.3634 3.85671L26.3408 5.2827L27.999 5.77159C28.4695 5.9102 28.6538 6.47829 28.355 6.86674L27.3009 8.23693L27.3484 9.96497C27.3618 10.4553 26.879 10.8063 26.4167 10.6418L24.7877 10.0625H24.7873Z" fill="#FB2B2B"/>
<path d="M5.21175 10.0625L3.58271 10.6418C3.12046 10.8059 2.63769 10.4553 2.65101 9.96497L2.69853 8.23693L1.64443 6.86674C1.34526 6.47793 1.52994 5.9102 2.00047 5.77159L3.65867 5.2827L4.63609 3.85671C4.9133 3.45206 5.51056 3.45206 5.78776 3.85671L6.76518 5.2827L8.42338 5.77159C8.89391 5.9102 9.07824 6.47829 8.77943 6.86674L7.72533 8.23693L7.77285 9.96497C7.78617 10.4553 7.3034 10.8063 6.84115 10.6418L5.21175 10.0625Z" fill="#FB2B2B"/>
<path d="M15 8.5438L13.0689 9.23069C12.521 9.42546 11.9482 9.00929 11.9644 8.42823L12.0209 6.37943L10.771 4.75507C10.4163 4.29426 10.6352 3.62104 11.1929 3.45652L13.1589 2.87691L14.3178 1.18631C14.6464 0.706777 15.3546 0.706777 15.6833 1.18631L16.8421 2.87691L18.8081 3.45652C19.3658 3.62104 19.5847 4.29426 19.2301 4.75507L17.9801 6.37943L18.0366 8.42823C18.0525 9.00965 17.4801 9.42546 16.9321 9.23069L15.0011 8.5438H15Z" fill="#FB2B2B"/>
</svg>
