<svg width="28" height="28" viewBox="0 0 28 28" fill="none" xmlns="http://www.w3.org/2000/svg">
<path fill-rule="evenodd" clip-rule="evenodd" d="M0.578721 19.6255C0.578721 15.1669 4.11441 11.5005 8.53925 11.5005C12.9641 11.5005 16.4998 15.1669 16.4998 19.6255C16.4998 24.0841 12.9641 27.7505 8.53925 27.7505C7.62968 27.7505 6.75347 27.5943 5.93659 27.306C5.80158 27.2583 5.71783 27.2288 5.65641 27.2085C5.64527 27.2048 5.63615 27.2019 5.62885 27.1996L5.62206 27.2003C5.57918 27.2051 5.52074 27.2129 5.41242 27.2277L1.66892 27.739C1.26385 27.7943 0.857327 27.6481 0.580352 27.3473C0.303377 27.0466 0.190957 26.6295 0.279319 26.2303L1.0435 22.7782C1.07005 22.6583 1.08426 22.5935 1.09339 22.5459C1.09391 22.5432 1.09481 22.5384 1.09481 22.5384C1.09254 22.5305 1.08966 22.5207 1.08607 22.5088C1.06549 22.4406 1.03521 22.3477 0.986003 22.1971C0.721397 21.3871 0.578721 20.5219 0.578721 19.6255Z" fill="#FB2B2B"/>
<path d="M5.43418 9.46624C6.40615 9.16388 7.4422 9.00049 8.52211 9.00049C14.4139 9.00049 18.9999 13.8638 18.9999 19.6255C18.9999 20.6425 18.857 21.6316 18.5892 22.5709C19.2668 22.4492 19.9239 22.2674 20.5545 22.0312C20.6435 21.9979 20.7322 21.9639 20.8221 21.9331C20.8946 21.9415 20.9669 21.9528 21.0391 21.9634L25.0553 22.5521C25.2448 22.58 25.46 22.6116 25.6476 22.6222C25.8552 22.6341 26.1779 22.6328 26.52 22.4857C26.9471 22.302 27.2908 21.9662 27.4843 21.5434C27.6392 21.2049 27.6479 20.8822 27.6409 20.6744C27.6345 20.4865 27.6079 20.2707 27.5844 20.0805L27.0769 15.9582C27.0637 15.851 27.0569 15.7947 27.0529 15.7534C27.0749 15.6631 27.1161 15.5757 27.1492 15.4891C27.6227 14.2479 27.8814 12.9028 27.8814 11.5005C27.8814 5.27957 22.8074 0.250488 16.5656 0.250488C11.0208 0.250488 6.39763 4.21903 5.43418 9.46624Z" fill="#FB2B2B"/>
</svg>
