<svg width="30" height="30" viewBox="0 0 30 30" fill="none" xmlns="http://www.w3.org/2000/svg">
<path d="M15 15C14.2107 15 13.4215 14.86 12.8062 14.5799L4.13437 10.6254C3.7377 10.4449 2.8125 9.91699 2.8125 8.92031C2.8125 7.92363 3.7377 7.39688 4.13555 7.21406L12.8824 3.22559C14.0877 2.6748 15.9064 2.6748 17.1123 3.22559L25.8645 7.21406C26.2623 7.39512 27.1875 7.92305 27.1875 8.92031C27.1875 9.91758 26.2623 10.4438 25.8645 10.626L17.1926 14.5799C16.5785 14.86 15.7893 15 15 15Z" fill="#FB2B2B"/>
<path d="M25.8609 13.2896L24.9768 12.8906L22.7051 13.9301L17.1973 16.4496C16.582 16.7309 15.791 16.8709 15.0035 16.8709C14.216 16.8709 13.4256 16.7309 12.8109 16.4496L7.29902 13.9301L5.02676 12.8906L4.13496 13.2914C3.7377 13.4725 2.8125 14.0039 2.8125 15C2.8125 15.9961 3.7377 16.5281 4.13437 16.7092L12.8062 20.6719C13.418 20.9531 14.2084 21.0938 15 21.0938C15.7916 21.0938 16.5785 20.9531 17.1938 20.6725L25.858 16.7109C26.257 16.5299 27.1875 16.0014 27.1875 15C27.1875 13.9986 26.2635 13.4725 25.8609 13.2896Z" fill="#FB2B2B"/>
<path d="M25.8609 19.3828L24.9768 18.9844L22.7051 20.0232L17.1973 22.5398C16.582 22.8199 15.791 22.9605 15.0035 22.9605C14.216 22.9605 13.4256 22.8205 12.8109 22.5398L7.29902 20.0203L5.02676 18.9844L4.13496 19.3852C3.7377 19.5662 2.8125 20.0977 2.8125 21.0938C2.8125 22.0898 3.7377 22.6213 4.13437 22.8018L12.8062 26.7621C13.418 27.0422 14.2113 27.1875 15 27.1875C15.7887 27.1875 16.575 27.0422 17.1902 26.7615L25.8574 22.8023C26.257 22.6219 27.1875 22.0934 27.1875 21.0938C27.1875 20.0941 26.2635 19.5662 25.8609 19.3828Z" fill="#FB2B2B"/>
</svg>
