<svg width="30" height="30" viewBox="0 0 30 30" fill="none" xmlns="http://www.w3.org/2000/svg">
<path d="M17.8121 18.9033L17.3116 19.4313C17.3116 19.4313 16.1203 20.6842 12.8696 17.2621C9.61893 13.8399 10.8103 12.587 10.8103 12.587L11.126 12.2537C11.9026 11.4352 11.9763 10.1218 11.2976 9.1626L9.91154 7.20127C9.0711 6.01325 7.44852 5.85704 6.48597 6.87016L4.75998 8.68629C4.28366 9.189 3.96464 9.83912 4.00314 10.5618C4.10215 12.4099 4.89199 16.3842 9.29661 21.023C13.9685 25.9401 18.3523 26.1359 20.1443 25.9588C20.7119 25.9038 21.2047 25.5969 21.6018 25.1789L23.1639 23.5333C24.22 22.4222 23.923 20.5192 22.5721 19.7426L20.471 18.5326C19.5843 18.0233 18.5052 18.1729 17.8121 18.9022" fill="#4DAC4D"/>
<path d="M20.5002 14.9992C21.6964 14.999 22.8598 14.6089 23.8143 13.8881C24.7688 13.1672 25.4622 12.1548 25.7896 11.0044C26.1169 9.85401 26.0604 8.62825 25.6284 7.51288C25.1965 6.39752 24.4127 5.45335 23.3958 4.82348C22.379 4.1936 21.1846 3.91235 19.9935 4.02233C18.8025 4.13232 17.6797 4.62756 16.7955 5.43299C15.9112 6.23843 15.3136 7.31015 15.0932 8.48576C14.8728 9.66136 15.0417 10.8768 15.5742 11.9478C15.6749 12.1422 15.7011 12.3668 15.6479 12.5792L15.3201 13.8035C15.2876 13.9247 15.2876 14.0524 15.3201 14.1736C15.3526 14.2948 15.4164 14.4053 15.5052 14.494C15.5939 14.5828 15.7044 14.6466 15.8257 14.6791C15.9469 14.7116 16.0745 14.7116 16.1957 14.6791L17.4201 14.3513C17.6325 14.2981 17.857 14.3244 18.0515 14.425C18.8122 14.8037 19.6505 15.0003 20.5002 14.9992Z" fill="#4DAC4D"/>
</svg>
