<svg width="24" height="24" viewBox="0 0 24 24" fill="none" xmlns="http://www.w3.org/2000/svg">
<path d="M10.375 16.375L10.5625 17.2812C10.625 17.5729 10.7656 17.8073 10.9844 17.9844C11.2031 18.1615 11.4583 18.25 11.75 18.25H12.25C12.5417 18.25 12.7969 18.1562 13.0156 17.9688C13.2344 17.7812 13.375 17.5417 13.4375 17.25L13.625 16.375C13.875 16.2708 14.1094 16.1615 14.3281 16.0469C14.5469 15.9323 14.7708 15.7917 15 15.625L15.9062 15.9062C16.1771 15.9896 16.4427 15.9792 16.7031 15.875C16.9635 15.7708 17.1667 15.6042 17.3125 15.375L17.5625 14.9375C17.7083 14.6875 17.7604 14.4167 17.7188 14.125C17.6771 13.8333 17.5417 13.5938 17.3125 13.4062L16.625 12.8125C16.6667 12.5208 16.6875 12.25 16.6875 12C16.6875 11.75 16.6667 11.4792 16.625 11.1875L17.3125 10.5938C17.5417 10.4062 17.6771 10.1719 17.7188 9.89062C17.7604 9.60938 17.7083 9.34375 17.5625 9.09375L17.2812 8.625C17.1354 8.39583 16.9375 8.22917 16.6875 8.125C16.4375 8.02083 16.1771 8.01042 15.9062 8.09375L15 8.375C14.7708 8.20833 14.5469 8.06771 14.3281 7.95312C14.1094 7.83854 13.875 7.72917 13.625 7.625L13.4375 6.71875C13.375 6.42708 13.2344 6.19271 13.0156 6.01562C12.7969 5.83854 12.5417 5.75 12.25 5.75H11.75C11.4583 5.75 11.2031 5.84375 10.9844 6.03125C10.7656 6.21875 10.625 6.45833 10.5625 6.75L10.375 7.625C10.125 7.72917 9.89062 7.83854 9.67188 7.95312C9.45312 8.06771 9.22917 8.20833 9 8.375L8.09375 8.09375C7.82292 8.01042 7.55729 8.02083 7.29688 8.125C7.03646 8.22917 6.83333 8.39583 6.6875 8.625L6.4375 9.0625C6.29167 9.3125 6.23958 9.58333 6.28125 9.875C6.32292 10.1667 6.45833 10.4062 6.6875 10.5938L7.375 11.1875C7.33333 11.4792 7.3125 11.75 7.3125 12C7.3125 12.25 7.33333 12.5208 7.375 12.8125L6.6875 13.4062C6.45833 13.5938 6.32292 13.8281 6.28125 14.1094C6.23958 14.3906 6.29167 14.6562 6.4375 14.9062L6.71875 15.375C6.86458 15.6042 7.0625 15.7708 7.3125 15.875C7.5625 15.9792 7.82292 15.9896 8.09375 15.9062L9 15.625C9.22917 15.7917 9.45312 15.9323 9.67188 16.0469C9.89062 16.1615 10.125 16.2708 10.375 16.375ZM12 14.5C11.3125 14.5 10.724 14.2552 10.2344 13.7656C9.74479 13.276 9.5 12.6875 9.5 12C9.5 11.3125 9.74479 10.724 10.2344 10.2344C10.724 9.74479 11.3125 9.5 12 9.5C12.6875 9.5 13.276 9.74479 13.7656 10.2344C14.2552 10.724 14.5 11.3125 14.5 12C14.5 12.6875 14.2552 13.276 13.7656 13.7656C13.276 14.2552 12.6875 14.5 12 14.5ZM3.25 23.25C2.5625 23.25 1.97396 23.0052 1.48438 22.5156C0.994792 22.026 0.75 21.4375 0.75 20.75V3.25C0.75 2.5625 0.994792 1.97396 1.48438 1.48438C1.97396 0.994792 2.5625 0.75 3.25 0.75H20.75C21.4375 0.75 22.026 0.994792 22.5156 1.48438C23.0052 1.97396 23.25 2.5625 23.25 3.25V20.75C23.25 21.4375 23.0052 22.026 22.5156 22.5156C22.026 23.0052 21.4375 23.25 20.75 23.25H3.25Z" fill="#4DAC4D"/>
</svg>
