<svg width="75" height="75" viewBox="0 0 75 75" fill="none" xmlns="http://www.w3.org/2000/svg">
<path d="M0 40.625C0 18.1884 18.1884 0 40.625 0H48.75C63.2475 0 75 11.7525 75 26.25V41.25C75 59.8896 59.8896 75 41.25 75H34.375C15.3902 75 0 59.6098 0 40.625Z" fill="#F8F6FF"/>
<path d="M45.4355 22.25C46.7598 22.25 48.002 22.4961 49.1621 22.9883C50.3223 23.4805 51.3301 24.1602 52.1855 25.0273C53.041 25.8945 53.7207 26.9082 54.2246 28.0684C54.7285 29.2285 54.9805 30.4707 54.9805 31.7949C54.9805 32.4746 54.9102 33.1484 54.7695 33.8164C54.6289 34.4844 54.418 35.1289 54.1367 35.75H45.998L42.623 32.2344L36.998 37.8594L29.123 29.9844L23.498 35.75H19.8594C19.5781 35.1289 19.3672 34.4844 19.2266 33.8164C19.0859 33.1484 19.0156 32.4746 19.0156 31.7949C19.0156 30.4707 19.2617 29.2285 19.7539 28.0684C20.2461 26.9082 20.9258 25.9004 21.793 25.0449C22.6602 24.1895 23.6738 23.5098 24.834 23.0059C25.9941 22.502 27.2363 22.25 28.5605 22.25C29.8379 22.25 31.0566 22.4902 32.2168 22.9707C33.377 23.4512 34.4141 24.1426 35.3281 25.0449L36.998 26.7324L38.668 25.0449C39.5703 24.1426 40.6016 23.4512 41.7617 22.9707C42.9219 22.4902 44.1465 22.25 45.4355 22.25ZM43.748 38H52.7129L52.4668 38.2812C52.3848 38.375 52.2969 38.4746 52.2031 38.5801L36.998 53.7676L21.793 38.5801C21.6992 38.4863 21.6113 38.3926 21.5293 38.2988C21.4473 38.2051 21.3652 38.1055 21.2832 38H25.748L29.123 34.7656L36.998 42.6406L42.623 37.0156L43.748 38Z" fill="#664DAC"/>
</svg>
