<svg width="30" height="30" viewBox="0 0 30 30" fill="none" xmlns="http://www.w3.org/2000/svg">
<path d="M12.4453 27.5C11.941 27.5 11.5156 27.1245 11.453 26.624L11.1368 24.0943C11.0911 23.7284 10.8431 23.4254 10.5181 23.2512C10.4431 23.211 10.3696 23.169 10.2975 23.125C10.217 23.0759 10.1371 23.0257 10.0577 22.9743C9.76448 22.7845 9.39715 22.7389 9.07513 22.8742L6.68667 23.8777C6.22266 24.0727 5.68606 23.8924 5.43388 23.4568L2.88025 19.046C2.62738 18.6092 2.73962 18.0525 3.14197 17.7478L5.31922 16.099C5.52721 15.9415 5.625 15.6834 5.625 15.4225V14.5788C5.625 14.3171 5.52683 14.0582 5.31823 13.9003L3.14197 12.2522C2.73962 11.9475 2.62738 11.3908 2.88025 10.954L5.43388 6.54318C5.68606 6.10761 6.22266 5.92733 6.68667 6.12229L9.07408 7.1254C9.39667 7.26094 9.76433 7.21423 10.0604 7.02779C10.1432 6.97565 10.2273 6.92472 10.3125 6.875C10.3878 6.83106 10.4632 6.78901 10.5385 6.74885C10.8552 6.58003 11.09 6.28024 11.1345 5.92416L11.453 3.37597C11.5156 2.87554 11.941 2.5 12.4453 2.5H17.5547C18.059 2.5 18.4844 2.87554 18.547 3.37597L18.8632 5.90569C18.9089 6.27159 19.1568 6.57472 19.482 6.74853C19.5573 6.78879 19.6312 6.83094 19.7038 6.875C19.7835 6.92343 19.8625 6.97301 19.9409 7.02374C20.2352 7.21413 20.6038 7.26074 20.927 7.12496L23.3133 6.12229C23.7773 5.92733 24.3139 6.10761 24.5661 6.54318L27.1197 10.954C27.3726 11.3908 27.2604 11.9475 26.858 12.2522L24.6818 13.9003C24.4732 14.0582 24.375 14.3171 24.375 14.5788V15.4212C24.375 15.6795 24.4482 15.9465 24.6541 16.1024L26.8268 17.7478C27.2291 18.0525 27.3414 18.6092 27.0885 19.046L24.5362 23.4545C24.2835 23.8911 23.7451 24.071 23.2806 23.8742L20.9271 22.8769C20.6039 22.74 20.2349 22.7863 19.9379 22.9733C19.8556 23.025 19.7722 23.0756 19.6875 23.125C19.6122 23.1689 19.5368 23.211 19.4615 23.2512C19.1448 23.42 18.91 23.7198 18.8655 24.0758L18.547 26.624C18.4844 27.1245 18.059 27.5 17.5547 27.5H12.4453ZM15 20C15.3542 20 15.6513 19.88 15.8913 19.64C16.1313 19.4 16.2508 19.1033 16.25 18.75C16.25 18.3958 16.13 18.0992 15.89 17.86C15.65 17.6208 15.3533 17.5008 15 17.5C14.6458 17.5 14.3492 17.62 14.11 17.86C13.8708 18.1 13.7508 18.3967 13.75 18.75C13.75 19.1042 13.87 19.4013 14.11 19.6413C14.35 19.8813 14.6467 20.0008 15 20ZM13.75 15.25C13.75 15.8023 14.1977 16.25 14.75 16.25H15.25C15.8023 16.25 16.25 15.8023 16.25 15.25V11C16.25 10.4477 15.8023 10 15.25 10H14.75C14.1977 10 13.75 10.4477 13.75 11V15.25Z" fill="#FB2B2B"/>
</svg>
