<svg width="28" height="20" viewBox="0 0 28 20" fill="none" xmlns="http://www.w3.org/2000/svg">
<path d="M0.25 18.75V15C0.25 14.2917 0.494792 13.6979 0.984375 13.2188C1.47396 12.7396 2.0625 12.5 2.75 12.5H6.84375C7.26042 12.5 7.65625 12.6042 8.03125 12.8125C8.40625 13.0208 8.70833 13.3021 8.9375 13.6563C9.54167 14.4688 10.2865 15.1042 11.1719 15.5625C12.0573 16.0208 13 16.25 14 16.25C15.0208 16.25 15.974 16.0208 16.8594 15.5625C17.7448 15.1042 18.4792 14.4688 19.0625 13.6563C19.3333 13.3021 19.651 13.0208 20.0156 12.8125C20.3802 12.6042 20.7604 12.5 21.1563 12.5H25.25C25.9583 12.5 26.5521 12.7396 27.0313 13.2188C27.5104 13.6979 27.75 14.2917 27.75 15V18.75C27.75 19.1042 27.6302 19.401 27.3906 19.6406C27.151 19.8802 26.8542 20 26.5 20H20.25C19.8958 20 19.599 19.8802 19.3594 19.6406C19.1198 19.401 19 19.1042 19 18.75V17.1563C18.2708 17.6771 17.4844 18.0729 16.6406 18.3438C15.7969 18.6146 14.9167 18.75 14 18.75C13.1042 18.75 12.2292 18.6094 11.375 18.3281C10.5208 18.0469 9.72917 17.6458 9 17.125V18.75C9 19.1042 8.88021 19.401 8.64063 19.6406C8.40104 19.8802 8.10417 20 7.75 20H1.5C1.14583 20 0.848958 19.8802 0.609375 19.6406C0.369792 19.401 0.25 19.1042 0.25 18.75ZM14 15C13.2083 15 12.4583 14.8177 11.75 14.4531C11.0417 14.0885 10.4479 13.5833 9.96875 12.9375C9.61458 12.4167 9.17188 12.0052 8.64063 11.7031C8.10938 11.401 7.53125 11.25 6.90625 11.25C7.36458 10.4792 8.33333 9.86979 9.8125 9.42188C11.2917 8.97396 12.6875 8.75 14 8.75C15.3125 8.75 16.7083 8.97396 18.1875 9.42188C19.6667 9.86979 20.6354 10.4792 21.0938 11.25C20.4896 11.25 19.9167 11.401 19.375 11.7031C18.8333 12.0052 18.3854 12.4167 18.0313 12.9375C17.5729 13.6042 16.9896 14.1146 16.2813 14.4688C15.5729 14.8229 14.8125 15 14 15ZM4 11.25C2.95833 11.25 2.07292 10.8854 1.34375 10.1563C0.614583 9.42708 0.25 8.54167 0.25 7.5C0.25 6.4375 0.614583 5.54688 1.34375 4.82813C2.07292 4.10938 2.95833 3.75 4 3.75C5.0625 3.75 5.95313 4.10938 6.67188 4.82813C7.39063 5.54688 7.75 6.4375 7.75 7.5C7.75 8.54167 7.39063 9.42708 6.67188 10.1563C5.95313 10.8854 5.0625 11.25 4 11.25ZM24 11.25C22.9583 11.25 22.0729 10.8854 21.3438 10.1563C20.6146 9.42708 20.25 8.54167 20.25 7.5C20.25 6.4375 20.6146 5.54688 21.3438 4.82813C22.0729 4.10938 22.9583 3.75 24 3.75C25.0625 3.75 25.9531 4.10938 26.6719 4.82813C27.3906 5.54688 27.75 6.4375 27.75 7.5C27.75 8.54167 27.3906 9.42708 26.6719 10.1563C25.9531 10.8854 25.0625 11.25 24 11.25ZM14 7.5C12.9583 7.5 12.0729 7.13542 11.3438 6.40625C10.6146 5.67708 10.25 4.79167 10.25 3.75C10.25 2.6875 10.6146 1.79688 11.3438 1.07813C12.0729 0.359375 12.9583 0 14 0C15.0625 0 15.9531 0.359375 16.6719 1.07813C17.3906 1.79688 17.75 2.6875 17.75 3.75C17.75 4.79167 17.3906 5.67708 16.6719 6.40625C15.9531 7.13542 15.0625 7.5 14 7.5Z" fill="#FB2B2B"/>
</svg>
