<svg width="32" height="32" viewBox="0 0 32 32" fill="none" xmlns="http://www.w3.org/2000/svg">
<path d="M0 17.3333C0 7.7604 7.7604 0 17.3333 0H20.8C26.9856 0 32 5.01441 32 11.2V17.6C32 25.5529 25.5529 32 17.6 32H14.6667C6.56649 32 0 25.4335 0 17.3333Z" fill="#E68F40"/>
<path d="M11.5 16.0375C11.5 16.25 11.5156 16.4562 11.5469 16.6562C11.5781 16.8562 11.625 17.0562 11.6875 17.2562C11.75 17.4687 11.7562 17.6844 11.7062 17.9031C11.6562 18.1219 11.55 18.3125 11.3875 18.475C11.25 18.6125 11.0844 18.675 10.8906 18.6625C10.6969 18.65 10.5625 18.5562 10.4875 18.3812C10.325 18.0062 10.2031 17.6219 10.1219 17.2281C10.0406 16.8343 10 16.4375 10 16.0375C10 14.3625 10.5812 12.9375 11.7437 11.7625C12.9062 10.5875 14.325 9.99998 16 9.99998H16.1312L15.4562 9.32498C15.3187 9.18748 15.25 9.01248 15.25 8.79998C15.25 8.58748 15.3187 8.41248 15.4562 8.27498C15.5937 8.13748 15.7687 8.06873 15.9812 8.06873C16.1937 8.06873 16.3687 8.13748 16.5062 8.27498L18.4562 10.225C18.6062 10.375 18.6812 10.55 18.6812 10.75C18.6812 10.95 18.6062 11.125 18.4562 11.275L16.5062 13.225C16.3687 13.3625 16.1937 13.4312 15.9812 13.4312C15.7687 13.4312 15.5937 13.3625 15.4562 13.225C15.3187 13.0875 15.25 12.9125 15.25 12.7C15.25 12.4875 15.3187 12.3125 15.4562 12.175L16.1312 11.5H16C14.75 11.5 13.6875 11.9406 12.8125 12.8219C11.9375 13.7031 11.5 14.775 11.5 16.0375ZM20.5 15.9625C20.5 15.75 20.4844 15.5437 20.4531 15.3437C20.4219 15.1437 20.375 14.9437 20.3125 14.7437C20.25 14.5312 20.2437 14.3156 20.2937 14.0969C20.3437 13.8781 20.45 13.6875 20.6125 13.525C20.75 13.3875 20.9156 13.325 21.1094 13.3375C21.3031 13.35 21.4375 13.4437 21.5125 13.6187C21.675 13.9937 21.7969 14.3781 21.8781 14.7719C21.9594 15.1656 22 15.5625 22 15.9625C22 17.6375 21.4187 19.0625 20.2562 20.2375C19.0937 21.4125 17.675 22 16 22H15.8687L16.5437 22.675C16.6812 22.8125 16.75 22.9875 16.75 23.2C16.75 23.4125 16.6812 23.5875 16.5437 23.725C16.4062 23.8625 16.2312 23.9312 16.0187 23.9312C15.8062 23.9312 15.6312 23.8625 15.4937 23.725L13.5437 21.775C13.3937 21.625 13.3187 21.45 13.3187 21.25C13.3187 21.05 13.3937 20.875 13.5437 20.725L15.4937 18.775C15.6312 18.6375 15.8062 18.5687 16.0187 18.5687C16.2312 18.5687 16.4062 18.6375 16.5437 18.775C16.6812 18.9125 16.75 19.0875 16.75 19.3C16.75 19.5125 16.6812 19.6875 16.5437 19.825L15.8687 20.5H16C17.25 20.5 18.3125 20.0594 19.1875 19.1781C20.0625 18.2969 20.5 17.225 20.5 15.9625Z" fill="white"/>
</svg>
