<svg width="30" height="30" viewBox="0 0 30 30" fill="none" xmlns="http://www.w3.org/2000/svg">
<g clip-path="url(#clip0_658_217)">
<path d="M20 3.75C20.9565 3.74995 21.8769 4.11541 22.5728 4.7716C23.2688 5.4278 23.6876 6.32513 23.7438 7.28L23.75 7.5V20H24.6875C25.4963 20 26.1625 20.615 26.2425 21.4025L26.25 21.5625V23.75C26.2501 24.7065 25.8846 25.6269 25.2284 26.3228C24.5722 27.0188 23.6749 27.4376 22.72 27.4938L22.5 27.5H10C9.04349 27.5001 8.12311 27.1346 7.42717 26.4784C6.73124 25.8222 6.31237 24.9249 6.25625 23.97L6.25 23.75V11.25H4.0625C3.67568 11.2502 3.30254 11.1069 3.01529 10.8478C2.72805 10.5887 2.54711 10.2323 2.5075 9.8475L2.5 9.6875V7.5C2.49995 6.54349 2.86541 5.62311 3.5216 4.92717C4.1778 4.23124 5.07513 3.81237 6.03 3.75625L6.25 3.75H20ZM23.75 22.5H12.5V23.75C12.5 24.1875 12.425 24.6088 12.2875 25H22.5C22.8315 25 23.1495 24.8683 23.3839 24.6339C23.6183 24.3995 23.75 24.0815 23.75 23.75V22.5ZM15 15H12.5C12.1814 15.0004 11.875 15.1223 11.6433 15.3411C11.4116 15.5598 11.2722 15.8587 11.2535 16.1767C11.2349 16.4948 11.3383 16.808 11.5428 17.0523C11.7473 17.2966 12.0374 17.4536 12.3538 17.4913L12.5 17.5H15C15.3186 17.4996 15.625 17.3777 15.8567 17.1589C16.0884 16.9402 16.2278 16.6413 16.2465 16.3233C16.2651 16.0052 16.1617 15.692 15.9572 15.4477C15.7527 15.2034 15.4626 15.0464 15.1463 15.0088L15 15ZM17.5 10H12.5C12.1685 10 11.8505 10.1317 11.6161 10.3661C11.3817 10.6005 11.25 10.9185 11.25 11.25C11.25 11.5815 11.3817 11.8995 11.6161 12.1339C11.8505 12.3683 12.1685 12.5 12.5 12.5H17.5C17.8315 12.5 18.1495 12.3683 18.3839 12.1339C18.6183 11.8995 18.75 11.5815 18.75 11.25C18.75 10.9185 18.6183 10.6005 18.3839 10.3661C18.1495 10.1317 17.8315 10 17.5 10ZM6.25 6.25C5.91848 6.25 5.60054 6.3817 5.36612 6.61612C5.1317 6.85054 5 7.16848 5 7.5V8.75H6.25V6.25Z" fill="#4DAC4D"/>
</g>
<defs>
<clipPath id="clip0_658_217">
<rect width="30" height="30" fill="white"/>
</clipPath>
</defs>
</svg>
