<svg width="30" height="30" viewBox="0 0 30 30" fill="none" xmlns="http://www.w3.org/2000/svg">
<path fill-rule="evenodd" clip-rule="evenodd" d="M11.513 3.01849C11.7443 2.99994 12.0174 2.99997 12.2978 3L17.702 3C17.9824 2.99997 18.2555 2.99994 18.4868 3.01849C18.7408 3.03887 19.0405 3.08694 19.3421 3.23781C19.7602 3.44699 20.1001 3.78076 20.3132 4.19129C20.4668 4.48739 20.5158 4.78165 20.5366 5.03102C20.5408 5.08225 20.5441 5.13557 20.5467 5.1906C20.9858 5.20451 21.3619 5.24012 21.7058 5.3306C23.2395 5.73409 24.4375 6.91029 24.8485 8.41614C25.0008 8.97431 25.0004 9.61866 24.9999 10.4864L24.9999 20.7178C24.9999 21.596 24.9999 22.3207 24.9508 22.9111C24.8998 23.5243 24.7902 24.088 24.5155 24.6174C24.0894 25.4385 23.4095 26.106 22.5732 26.5244C22.034 26.7942 21.4598 26.9017 20.8353 26.9518C20.234 27 19.4958 27 18.6014 27H11.3986C10.5042 27 9.76602 27 9.1647 26.9518C8.54015 26.9017 7.96605 26.7942 7.42679 26.5244C6.59052 26.106 5.91062 25.4385 5.48452 24.6174C5.20975 24.088 5.10024 23.5243 5.04921 22.9111C5.00008 22.3207 5.00009 21.596 5.00011 20.7178L5.00005 10.4863C4.99957 9.61866 4.99922 8.97431 5.15155 8.41614C5.56251 6.91029 6.76048 5.73409 8.29421 5.3306C8.63809 5.24013 9.01408 5.20452 9.45311 5.1906C9.45567 5.13557 9.45897 5.08225 9.46323 5.03102C9.48398 4.78165 9.53295 4.48739 9.68661 4.19129C9.89966 3.78076 10.2396 3.44699 10.6577 3.23781C10.9593 3.08694 11.259 3.03887 11.513 3.01849ZM11.7877 5.77745C11.6666 6.01081 11.6666 6.31629 11.6666 6.92726V7.36362H18.3332V6.92726C18.3332 6.31629 18.3332 6.01081 18.2121 5.77745C18.1056 5.57219 17.9356 5.4053 17.7265 5.30071C17.4888 5.18181 17.1777 5.18181 16.5554 5.18181H13.4444C12.8221 5.18181 12.5109 5.18181 12.2733 5.30071C12.0642 5.4053 11.8942 5.57219 11.7877 5.77745ZM16.111 13.909C16.111 13.6078 16.3597 13.3636 16.6665 13.3636C16.9734 13.3636 17.2221 13.6078 17.2221 13.909V18.8181C17.2221 20.0231 16.2272 20.9999 14.9999 20.9999C13.7726 20.9999 12.7777 20.0231 12.7777 18.8181V14.4545C12.7777 13.852 12.2802 13.3636 11.6666 13.3636C11.053 13.3636 10.5555 13.852 10.5555 14.4545V18.8181C10.5555 21.2281 12.5453 23.1817 14.9999 23.1817C17.4545 23.1817 19.4443 21.2281 19.4443 18.8181V13.909C19.4443 12.4028 18.2006 11.1818 16.6665 11.1818C15.1324 11.1818 13.8888 12.4028 13.8888 13.909V18.8181C13.8888 19.4206 14.3862 19.909 14.9999 19.909C15.6135 19.909 16.111 19.4206 16.111 18.8181V13.909Z" fill="#FB2B2B"/>
</svg>
