<svg width="30" height="30" viewBox="0 0 30 30" fill="none" xmlns="http://www.w3.org/2000/svg">
<path d="M3.40623 26.25C3.17706 26.25 2.96873 26.1927 2.78123 26.0781C2.59373 25.9635 2.4479 25.8125 2.34373 25.625C2.23956 25.4375 2.18227 25.2344 2.17186 25.0156C2.16144 24.7969 2.21873 24.5833 2.34373 24.375L13.9062 4.375C14.0312 4.16667 14.1927 4.01042 14.3906 3.90625C14.5885 3.80208 14.7916 3.75 15 3.75C15.2083 3.75 15.4114 3.80208 15.6094 3.90625C15.8073 4.01042 15.9687 4.16667 16.0937 4.375L27.6562 24.375C27.7812 24.5833 27.8385 24.7969 27.8281 25.0156C27.8177 25.2344 27.7604 25.4375 27.6562 25.625C27.5521 25.8125 27.4062 25.9635 27.2187 26.0781C27.0312 26.1927 26.8229 26.25 26.5937 26.25H3.40623ZM15 22.5C15.3541 22.5 15.651 22.3802 15.8906 22.1406C16.1302 21.901 16.25 21.6042 16.25 21.25C16.25 20.8958 16.1302 20.599 15.8906 20.3594C15.651 20.1198 15.3541 20 15 20C14.6458 20 14.3489 20.1198 14.1094 20.3594C13.8698 20.599 13.75 20.8958 13.75 21.25C13.75 21.6042 13.8698 21.901 14.1094 22.1406C14.3489 22.3802 14.6458 22.5 15 22.5ZM15 18.75C15.3541 18.75 15.651 18.6302 15.8906 18.3906C16.1302 18.151 16.25 17.8542 16.25 17.5V13.75C16.25 13.3958 16.1302 13.099 15.8906 12.8594C15.651 12.6198 15.3541 12.5 15 12.5C14.6458 12.5 14.3489 12.6198 14.1094 12.8594C13.8698 13.099 13.75 13.3958 13.75 13.75V17.5C13.75 17.8542 13.8698 18.151 14.1094 18.3906C14.3489 18.6302 14.6458 18.75 15 18.75Z" fill="#FB2B2B"/>
</svg>
