<svg width="30" height="30" viewBox="0 0 30 30" fill="none" xmlns="http://www.w3.org/2000/svg">
<g clip-path="url(#clip0_660_296)">
<path d="M20.5002 5.47388C22.1593 6.43182 23.5395 7.80646 24.504 9.46171C25.4686 11.117 25.9842 12.9954 25.9996 14.9112C26.0151 16.8269 25.53 18.7134 24.5923 20.384C23.6546 22.0547 22.2968 23.4514 20.6534 24.436C19.0099 25.4206 17.1379 25.959 15.2224 25.9977C13.307 26.0365 11.4147 25.5744 9.73278 24.657C8.05086 23.7397 6.63769 22.3991 5.63315 20.7677C4.62862 19.1364 4.06755 17.2711 4.0055 15.3563L4 14.9999L4.0055 14.6435C4.0671 12.7438 4.61991 10.8924 5.61002 9.26997C6.60014 7.64751 7.99377 6.30928 9.65505 5.38575C11.3163 4.46223 13.1886 3.98492 15.0892 4.00036C16.9899 4.01581 18.8541 4.52348 20.5002 5.47388ZM15.0001 16.3199C14.3417 16.3198 13.6898 16.4511 13.0828 16.7061C12.4757 16.9611 11.9256 17.3347 11.4647 17.8049C11.3612 17.9075 11.2791 18.0297 11.2232 18.1643C11.1673 18.299 11.1387 18.4434 11.1391 18.5891C11.1395 18.7349 11.1689 18.8791 11.2255 19.0135C11.2821 19.1478 11.3649 19.2695 11.469 19.3716C11.5731 19.4736 11.6965 19.554 11.8319 19.6079C11.9673 19.6619 12.1121 19.6884 12.2578 19.6859C12.4036 19.6835 12.5474 19.652 12.6809 19.5935C12.8144 19.5349 12.935 19.4504 13.0355 19.3449C13.2916 19.0835 13.5972 18.8758 13.9346 18.734C14.2719 18.5922 14.6342 18.5192 15.0001 18.5192C15.3661 18.5192 15.7283 18.5922 16.0657 18.734C16.403 18.8758 16.7087 19.0835 16.9648 19.3449C17.17 19.5483 17.4471 19.6629 17.7361 19.6637C18.0252 19.6645 18.3029 19.5515 18.5093 19.3491C18.7156 19.1468 18.8341 18.8714 18.839 18.5824C18.8439 18.2934 18.7349 18.0141 18.5356 17.8049C18.0747 17.3347 17.5246 16.9611 16.9175 16.7061C16.3104 16.4511 15.6586 16.3198 15.0001 16.3199ZM11.7111 11.6999L11.5714 11.7076C11.304 11.7394 11.0576 11.8681 10.8788 12.0694C10.7001 12.2708 10.6013 12.5306 10.6013 12.7999C10.6013 13.0691 10.7001 13.329 10.8788 13.5303C11.0576 13.7316 11.304 13.8604 11.5714 13.8922L11.7001 13.8999L11.8398 13.8922C12.1072 13.8604 12.3536 13.7316 12.5324 13.5303C12.7111 13.329 12.8099 13.0691 12.8099 12.7999C12.8099 12.5306 12.7111 12.2708 12.5324 12.0694C12.3536 11.8681 12.1072 11.7394 11.8398 11.7076L11.7111 11.6999ZM18.3112 11.6999L18.1715 11.7076C17.9041 11.7394 17.6577 11.8681 17.4789 12.0694C17.3001 12.2708 17.2014 12.5306 17.2014 12.7999C17.2014 13.0691 17.3001 13.329 17.4789 13.5303C17.6577 13.7316 17.9041 13.8604 18.1715 13.8922L18.3002 13.8999L18.4399 13.8922C18.7072 13.8604 18.9536 13.7316 19.1324 13.5303C19.3112 13.329 19.41 13.0691 19.41 12.7999C19.41 12.5306 19.3112 12.2708 19.1324 12.0694C18.9536 11.8681 18.7072 11.7394 18.4399 11.7076L18.3112 11.6999Z" fill="#FB2B2B"/>
</g>
<defs>
<clipPath id="clip0_660_296">
<rect width="30" height="30" fill="white"/>
</clipPath>
</defs>
</svg>
