<svg width="30" height="30" viewBox="0 0 30 30" fill="none" xmlns="http://www.w3.org/2000/svg">
<g clip-path="url(#clip0_655_170)">
<path fill-rule="evenodd" clip-rule="evenodd" d="M16.25 5C16.5562 5.00004 16.8517 5.11244 17.0805 5.31589C17.3093 5.51934 17.4554 5.79969 17.4913 6.10375L17.5 6.25C17.5004 6.5686 17.6224 6.87504 17.8411 7.10671C18.0598 7.33838 18.3587 7.47779 18.6767 7.49646C18.9948 7.51514 19.308 7.41166 19.5523 7.20717C19.7966 7.00268 19.9536 6.71262 19.9913 6.39625L20 6.25C20 5.91848 20.1317 5.60054 20.3661 5.36612C20.6005 5.1317 20.9185 5 21.25 5H23.75C24.7446 5 25.6984 5.39509 26.4017 6.09835C27.1049 6.80161 27.5 7.75544 27.5 8.75V21.25C27.5 22.2446 27.1049 23.1984 26.4017 23.9016C25.6984 24.6049 24.7446 25 23.75 25H21.25C20.9438 25 20.6483 24.8876 20.4195 24.6841C20.1907 24.4807 20.0446 24.2003 20.0088 23.8962L20 23.75C19.9996 23.4314 19.8777 23.125 19.6589 22.8933C19.4402 22.6616 19.1413 22.5222 18.8233 22.5035C18.5052 22.4849 18.192 22.5883 17.9477 22.7928C17.7034 22.9973 17.5464 23.2874 17.5088 23.6037L17.5 23.75C17.5 24.0815 17.3683 24.3995 17.1339 24.6339C16.8995 24.8683 16.5815 25 16.25 25H6.25C5.25544 25 4.30161 24.6049 3.59835 23.9016C2.89509 23.1984 2.5 22.2446 2.5 21.25V8.75C2.5 7.75544 2.89509 6.80161 3.59835 6.09835C4.30161 5.39509 5.25544 5 6.25 5H16.25ZM18.75 16.25C18.4185 16.25 18.1005 16.3817 17.8661 16.6161C17.6317 16.8505 17.5 17.1685 17.5 17.5V18.75C17.5 19.0815 17.6317 19.3995 17.8661 19.6339C18.1005 19.8683 18.4185 20 18.75 20C19.0815 20 19.3995 19.8683 19.6339 19.6339C19.8683 19.3995 20 19.0815 20 18.75V17.5C20 17.1685 19.8683 16.8505 19.6339 16.6161C19.3995 16.3817 19.0815 16.25 18.75 16.25ZM18.75 10C18.4438 10 18.1483 10.1124 17.9195 10.3159C17.6907 10.5193 17.5446 10.7997 17.5088 11.1037L17.5 11.25V12.5C17.5004 12.8186 17.6224 13.125 17.8411 13.3567C18.0598 13.5884 18.3587 13.7278 18.6767 13.7465C18.9948 13.7651 19.308 13.6617 19.5523 13.4572C19.7966 13.2527 19.9536 12.9626 19.9913 12.6462L20 12.5V11.25C20 10.9185 19.8683 10.6005 19.6339 10.3661C19.3995 10.1317 19.0815 10 18.75 10Z" fill="#4DAC4D"/>
</g>
<defs>
<clipPath id="clip0_655_170">
<rect width="30" height="30" fill="white"/>
</clipPath>
</defs>
</svg>
