<svg width="30" height="30" viewBox="0 0 30 30" fill="none" xmlns="http://www.w3.org/2000/svg">
<g clip-path="url(#clip0_660_318)">
<path d="M14.5 15C17.8141 15 20.5 12.3141 20.5 9C20.5 5.68594 17.8141 3 14.5 3C11.1859 3 8.5 5.68594 8.5 9C8.5 12.3141 11.1859 15 14.5 15ZM18.7 16.5H17.9172C16.8766 16.9781 15.7188 17.25 14.5 17.25C13.2812 17.25 12.1281 16.9781 11.0828 16.5H10.3C6.82187 16.5 4 19.3219 4 22.8V24.75C4 25.9922 5.00781 27 6.25 27H22.75C23.9922 27 25 25.9922 25 24.75V22.8C25 19.3219 22.1781 16.5 18.7 16.5Z" fill="#4DAC4D"/>
</g>
<defs>
<clipPath id="clip0_660_318">
<rect width="21" height="24" fill="white" transform="translate(4 3)"/>
</clipPath>
</defs>
</svg>
