<svg width="75" height="75" viewBox="0 0 75 75" fill="none" xmlns="http://www.w3.org/2000/svg">
<path d="M0 40.625C0 18.1884 18.1884 0 40.625 0H48.75C63.2475 0 75 11.7525 75 26.25V41.25C75 59.8896 59.8896 75 41.25 75H34.375C15.3902 75 0 59.6098 0 40.625Z" fill="#FFF6E8"/>
<path d="M40.375 28.8125H32.625L29.7551 24.5076C29.3252 23.8598 29.7854 23 30.5604 23H42.4396C43.2146 23 43.6748 23.8598 43.2449 24.5076L40.375 28.8125ZM32.625 30.75H40.375C40.6051 30.9014 40.8654 31.0709 41.1621 31.2586C44.5951 33.4564 52 38.1912 52 48.1875C52 51.3965 49.3965 54 46.1875 54H26.8125C23.6035 54 21 51.3965 21 48.1875C21 38.1912 28.4049 33.4564 31.8379 31.2586C32.1285 31.0709 32.3949 30.9014 32.625 30.75ZM37.7109 36.0781C37.7109 35.4121 37.166 34.8672 36.5 34.8672C35.834 34.8672 35.2891 35.4121 35.2891 36.0781V36.9258C34.8289 37.0287 34.3688 37.1922 33.9449 37.4404C33.1033 37.943 32.3768 38.8209 32.3828 40.0984C32.3889 41.3275 33.1094 42.1025 33.8783 42.5627C34.5443 42.9623 35.3738 43.2166 36.0338 43.4104L36.1367 43.4406C36.8996 43.6707 37.4566 43.8523 37.832 44.0885C38.1408 44.2822 38.1832 44.4154 38.1893 44.585C38.1953 44.8877 38.0803 45.0693 37.832 45.2207C37.5293 45.4084 37.051 45.5234 36.5363 45.5053C35.8643 45.4811 35.2346 45.2691 34.4111 44.9906C34.2719 44.9422 34.1266 44.8937 33.9752 44.8453C33.3395 44.6334 32.6553 44.9785 32.4434 45.6082C32.2314 46.2379 32.5766 46.9281 33.2063 47.14C33.3213 47.1764 33.4484 47.2188 33.5756 47.2672C34.0781 47.4428 34.6594 47.6426 35.283 47.7758V48.6719C35.283 49.3379 35.8279 49.8828 36.4939 49.8828C37.16 49.8828 37.7049 49.3379 37.7049 48.6719V47.8363C38.1893 47.7334 38.6736 47.5639 39.1096 47.2914C39.9754 46.7525 40.6293 45.8322 40.6111 44.5668C40.593 43.3377 39.9027 42.5445 39.1217 42.048C38.4254 41.6121 37.5535 41.3457 36.8754 41.1398L36.833 41.1277C36.058 40.8916 35.507 40.7221 35.1195 40.492C34.8047 40.3043 34.7986 40.1953 34.7986 40.0863C34.7986 39.8623 34.8834 39.6928 35.174 39.5232C35.501 39.3295 35.9975 39.2145 36.4758 39.2205C37.057 39.2266 37.6988 39.3537 38.3648 39.5354C39.0127 39.7049 39.6727 39.3234 39.8482 38.6756C40.0238 38.0277 39.6363 37.3678 38.9885 37.1922C38.5949 37.0893 38.159 36.9863 37.7109 36.9076V36.0781Z" fill="#E29E37"/>
</svg>
