<svg width="30" height="30" viewBox="0 0 30 30" fill="none" xmlns="http://www.w3.org/2000/svg">
<path fill-rule="evenodd" clip-rule="evenodd" d="M24.916 19.419C24.9189 19.6987 24.8329 19.972 24.6703 20.1995C24.6487 20.23 24.6305 20.2627 24.6161 20.2971C24.1896 21.1066 22.5888 22.3388 21.3746 23.1844C21.6167 22.2521 21.7396 21.4679 21.7468 21.4173C21.7588 21.3405 21.7541 21.2619 21.7328 21.1871C21.7116 21.1122 21.6745 21.0429 21.624 20.9837C21.5727 20.9246 21.5094 20.8769 21.4385 20.8439C21.3675 20.8109 21.2903 20.7933 21.212 20.7922H14.7725C14.4079 20.7925 14.0581 20.648 13.7999 20.3905C13.5418 20.133 13.3964 19.7836 13.3957 19.419V13.9371C13.3962 13.5721 13.5414 13.2222 13.7995 12.9641C14.0576 12.706 14.4075 12.5608 14.7725 12.5603H23.5392C23.9042 12.5608 24.2541 12.706 24.5122 12.9641C24.7703 13.2222 24.9155 13.5721 24.916 13.9371V19.419ZM21.1144 17.3968V17.3986L21.8422 19.2152C21.8701 19.2816 21.8845 19.3528 21.8846 19.4248C21.8847 19.4968 21.8704 19.568 21.8426 19.6345C21.8149 19.7009 21.7741 19.7611 21.7229 19.8116C21.6716 19.8621 21.6107 19.9019 21.5439 19.9286C21.477 19.9553 21.4056 19.9685 21.3336 19.9673C21.2616 19.9661 21.1906 19.9506 21.1247 19.9216C21.0588 19.8927 20.9993 19.8509 20.9497 19.7988C20.9001 19.7466 20.8614 19.685 20.8358 19.6178L20.2493 18.1517H18.0924L17.5059 19.6178C17.4803 19.685 17.4416 19.7466 17.392 19.7988C17.3424 19.8509 17.2829 19.8927 17.217 19.9216C17.1511 19.9506 17.0801 19.9661 17.0081 19.9673C16.9361 19.9685 16.8647 19.9553 16.7978 19.9286C16.731 19.9019 16.6701 19.8621 16.6188 19.8116C16.5675 19.7611 16.5268 19.7009 16.4991 19.6345C16.4713 19.568 16.457 19.4968 16.4571 19.4248C16.4572 19.3528 16.4716 19.2816 16.4995 19.2152L17.2258 17.3997V17.3979L18.6669 13.7947L18.6698 13.789C18.679 13.7689 18.6892 13.7494 18.7005 13.7304C18.7074 13.7185 18.7128 13.7055 18.7204 13.6943C18.7315 13.6784 18.7436 13.6632 18.7565 13.6487C18.7667 13.6365 18.7739 13.6249 18.7862 13.6126C18.7985 13.6003 18.8126 13.5906 18.8263 13.5794C18.84 13.5682 18.8552 13.5544 18.8675 13.5461C18.8798 13.5378 18.8939 13.5317 18.9072 13.5244C18.9248 13.5138 18.943 13.5043 18.9618 13.4959L18.9679 13.4926C18.9806 13.4876 18.9936 13.4858 19.0062 13.4814C19.0254 13.4748 19.045 13.4692 19.0648 13.4648C19.081 13.4616 19.0941 13.4608 19.1139 13.459C19.1338 13.4572 19.1512 13.4547 19.1699 13.4547C19.1872 13.4551 19.2045 13.4564 19.2216 13.4587C19.2395 13.4599 19.2574 13.4621 19.2751 13.4652C19.2939 13.4694 19.3125 13.4747 19.3308 13.4811C19.3441 13.485 19.3575 13.4872 19.3709 13.4926L19.377 13.4959C19.3959 13.5043 19.4142 13.5139 19.4319 13.5244C19.4449 13.5317 19.459 13.5378 19.4713 13.5461C19.4862 13.5573 19.5005 13.5694 19.514 13.5823C19.5274 13.5922 19.5403 13.6028 19.5526 13.6141C19.5636 13.6255 19.574 13.6376 19.5837 13.6502C19.5966 13.6641 19.6086 13.6787 19.6198 13.6939C19.6274 13.7048 19.6329 13.7178 19.6397 13.7301C19.6511 13.7486 19.6613 13.7679 19.6701 13.7879L19.673 13.7937L21.1144 17.3968Z" fill="#4DAC4D"/>
<path fill-rule="evenodd" clip-rule="evenodd" d="M17.6887 11.4762H23.5392C24.1916 11.477 24.8171 11.7365 25.2785 12.1978C25.7398 12.6592 25.9993 13.2847 26.0001 13.9371V19.419C26.0013 19.9056 25.8565 20.3814 25.5845 20.785C24.7172 22.4545 20.7169 24.9226 20.6736 24.9479C20.5883 24.9988 20.491 25.0262 20.3917 25.0274C20.3028 25.028 20.2152 25.0066 20.1365 24.9652C20.0579 24.9237 19.9908 24.8635 19.941 24.7898C19.8913 24.7161 19.8606 24.6313 19.8516 24.5429C19.8426 24.4544 19.8556 24.3652 19.8894 24.283C20.1796 23.5007 20.4044 22.6957 20.5616 21.8763H14.7725C14.1204 21.8764 13.495 21.6176 13.0336 21.1569C12.5721 20.6961 12.3125 20.0711 12.3116 19.419V15.3717H9.43878C9.59594 16.1911 9.82076 16.9961 10.1109 17.7784C10.1448 17.8606 10.1577 17.9499 10.1487 18.0383C10.1397 18.1267 10.109 18.2116 10.0593 18.2852C10.0096 18.3589 9.94241 18.4192 9.86379 18.4606C9.78516 18.5021 9.6975 18.5234 9.60862 18.5228C9.5093 18.5216 9.41206 18.4942 9.32675 18.4433C9.28339 18.418 5.28309 15.9499 4.41582 14.2804C4.14381 13.8769 3.99906 13.4011 4.00025 12.9145V7.43257C4.00102 6.78013 4.26053 6.15464 4.72187 5.6933C5.18321 5.23196 5.80871 4.97244 6.46114 4.97168H15.2278C15.8803 4.97244 16.5058 5.23196 16.9671 5.6933C17.4284 6.15464 17.6879 6.78013 17.6887 7.43257V11.4762ZM8.62571 13.4131C9.42945 13.4373 10.224 13.2371 10.9204 12.835C11.3673 13.1077 11.8654 13.286 12.3839 13.3589C12.4739 12.9755 12.6577 12.6204 12.9187 12.3254C12.5357 12.313 12.1583 12.2297 11.8057 12.0797C12.3777 11.357 12.7257 10.4827 12.8067 9.56461H13.0994C13.2432 9.56461 13.381 9.5075 13.4827 9.40585C13.5843 9.3042 13.6414 9.16633 13.6414 9.02257C13.6414 8.87881 13.5843 8.74094 13.4827 8.63928C13.381 8.53763 13.2432 8.48052 13.0994 8.48052H11.401V7.53014C11.401 7.38638 11.3439 7.2485 11.2422 7.14685C11.1406 7.0452 11.0027 6.98809 10.8589 6.98809C10.7152 6.98809 10.5773 7.0452 10.4757 7.14685C10.374 7.2485 10.3169 7.38638 10.3169 7.53014V8.48052H8.61487C8.47111 8.48052 8.33324 8.53763 8.23158 8.63928C8.12993 8.74094 8.07282 8.87881 8.07282 9.02257C8.07282 9.16633 8.12993 9.3042 8.23158 9.40585C8.33324 9.5075 8.47111 9.56461 8.61487 9.56461H11.7154C11.6393 10.2562 11.363 10.9105 10.9204 11.4473C10.5993 11.0961 10.3512 10.6846 10.1904 10.2368C10.1648 10.1703 10.1263 10.1096 10.0772 10.058C10.0281 10.0064 9.96935 9.96503 9.90425 9.93617C9.83916 9.90731 9.76901 9.89156 9.69783 9.88981C9.62664 9.88806 9.5558 9.90035 9.48937 9.92598C9.42293 9.9516 9.36219 9.99006 9.31062 10.0392C9.25905 10.0883 9.21765 10.147 9.18879 10.2121C9.15993 10.2772 9.14418 10.3474 9.14243 10.4186C9.14068 10.4898 9.15297 10.5606 9.1786 10.627C9.37432 11.1554 9.66044 11.6457 10.0242 12.0761C9.57983 12.2538 9.10415 12.3398 8.62571 12.329H8.61487C8.47111 12.329 8.33324 12.3862 8.23158 12.4878C8.12993 12.5895 8.07282 12.7273 8.07282 12.8711C8.07282 13.0149 8.12993 13.1527 8.23158 13.2544C8.33324 13.356 8.47111 13.4131 8.61487 13.4131H8.62571ZM24.6703 20.1995C24.8329 19.972 24.9189 19.6987 24.916 19.419V13.9371C24.9155 13.5721 24.7703 13.2222 24.5122 12.9641C24.2541 12.706 23.9042 12.5608 23.5392 12.5603H14.7725C14.4075 12.5608 14.0576 12.706 13.7995 12.9641C13.5414 13.2222 13.3962 13.5721 13.3957 13.9371V19.419C13.3964 19.7836 13.5418 20.133 13.7999 20.3905C14.0581 20.648 14.4079 20.7925 14.7725 20.7922H21.212C21.2903 20.7933 21.3675 20.8109 21.4385 20.8439C21.5094 20.8769 21.5727 20.9246 21.624 20.9837C21.6745 21.0429 21.7116 21.1122 21.7328 21.1871C21.7541 21.2619 21.7588 21.3405 21.7468 21.4173C21.7396 21.4679 21.6167 22.2521 21.3746 23.1844C22.5888 22.3388 24.1896 21.1066 24.6161 20.2971C24.6305 20.2627 24.6487 20.23 24.6703 20.1995Z" fill="#4DAC4D"/>
<path d="M18.5242 17.0665L19.1692 15.4545L19.8139 17.0665H18.5242Z" fill="#4DAC4D"/>
</svg>
