<svg width="30" height="30" viewBox="0 0 30 30" fill="none" xmlns="http://www.w3.org/2000/svg">
<path d="M15 4C21.0753 4 26 8.9247 26 15C26 21.0753 21.0753 26 15 26C8.9247 26 4 21.0753 4 15C4 8.9247 8.9247 4 15 4ZM15 16.6423C14.1212 16.6413 13.2511 16.8163 12.441 17.157C11.6309 17.4976 10.8973 17.9969 10.2832 18.6256C10.2056 18.7026 10.144 18.7942 10.1021 18.8952C10.0601 18.9962 10.0387 19.1045 10.039 19.2138C10.0393 19.3231 10.0613 19.4313 10.1038 19.532C10.1463 19.6328 10.2084 19.7241 10.2864 19.8006C10.3645 19.8772 10.457 19.9374 10.5586 19.9779C10.6601 20.0184 10.7687 20.0383 10.8781 20.0364C10.9874 20.0345 11.0952 20.011 11.1954 19.967C11.2955 19.9231 11.3859 19.8598 11.4613 19.7806C11.9218 19.3086 12.4721 18.9338 13.08 18.6781C13.6878 18.4225 14.3406 18.2913 15 18.2923C16.3475 18.2923 17.607 18.8313 18.5321 19.774C18.6076 19.8532 18.698 19.9165 18.7982 19.9604C18.8984 20.0043 19.0063 20.0278 19.1157 20.0296C19.225 20.0314 19.3337 20.0114 19.4352 19.9709C19.5368 19.9303 19.6293 19.8699 19.7073 19.7933C19.7854 19.7166 19.8474 19.6252 19.8897 19.5244C19.9321 19.4236 19.954 19.3153 19.9542 19.206C19.9544 19.0966 19.9328 18.9883 19.8907 18.8873C19.8486 18.7864 19.7869 18.6948 19.7091 18.6179C19.0953 17.9915 18.3626 17.4941 17.5539 17.1548C16.7453 16.8156 15.877 16.6413 15 16.6423ZM10.8409 9.126L10.7397 9.0556C10.5687 8.95565 10.3675 8.92054 10.1727 8.9567C9.97801 8.99286 9.80279 9.09786 9.67908 9.25253C9.55537 9.4072 9.49143 9.60121 9.49895 9.79913C9.50646 9.99705 9.58492 10.1857 9.72 10.3305L9.8091 10.4141L11.1918 11.5185C10.9596 11.6109 10.757 11.7648 10.6057 11.9636C10.4544 12.1625 10.3601 12.3989 10.3331 12.6473C10.306 12.8957 10.3472 13.1468 10.4521 13.3736C10.5571 13.6004 10.7218 13.7943 10.9287 13.9344C11.1356 14.0746 11.3768 14.1558 11.6263 14.1692C11.8758 14.1826 12.1243 14.1277 12.345 14.0105C12.5657 13.8933 12.7502 13.7181 12.8789 13.5039C13.0075 13.2896 13.0753 13.0444 13.075 12.7945C13.2358 12.795 13.3931 12.7485 13.5278 12.6607C13.6624 12.5728 13.7684 12.4475 13.8327 12.3002C13.897 12.1529 13.9168 11.99 13.8897 11.8315C13.8626 11.6731 13.7897 11.526 13.68 11.4085L13.5898 11.326L10.8409 9.126ZM20.3196 9.2547C20.1961 9.10019 20.0212 8.99519 19.8267 8.95885C19.6323 8.9225 19.4313 8.95723 19.2603 9.0567L19.1591 9.126L16.4113 11.326L16.3211 11.4085C16.2192 11.5187 16.1493 11.6545 16.1189 11.8014C16.0885 11.9484 16.0988 12.1008 16.1485 12.2424C16.1983 12.3839 16.2858 12.5092 16.4015 12.6047C16.5171 12.7003 16.6567 12.7625 16.8051 12.7846L16.9261 12.7934C16.9257 13.0375 16.9904 13.2773 17.1133 13.4882C17.2363 13.6991 17.4132 13.8734 17.6259 13.9933C17.8385 14.1131 18.0792 14.1743 18.3233 14.1703C18.5674 14.1664 18.806 14.0975 19.0147 13.9708C19.2233 13.8441 19.3945 13.6642 19.5106 13.4495C19.6267 13.2347 19.6836 12.993 19.6753 12.749C19.6671 12.505 19.594 12.2676 19.4636 12.0613C19.3333 11.8549 19.1504 11.6869 18.9336 11.5746L18.8093 11.5185L20.1909 10.4141L20.28 10.3305C20.4142 10.1855 20.4918 9.99716 20.4989 9.79975C20.506 9.60233 20.4419 9.40893 20.3185 9.2547" fill="#FB2B2B"/>
</svg>
