<svg width="75" height="75" viewBox="0 0 75 75" fill="none" xmlns="http://www.w3.org/2000/svg">
<path d="M0 40.625C0 18.1884 18.1884 0 40.625 0H48.75C63.2475 0 75 11.7525 75 26.25V41.25C75 59.8896 59.8896 75 41.25 75H34.375C15.3902 75 0 59.6098 0 40.625Z" fill="#EDFFED"/>
<path d="M26.5076 48.5745L21.9143 46.0355C21.5775 45.8508 21.3864 45.5818 21.3411 45.2285C21.2958 44.8752 21.395 44.5749 21.6387 44.3274L22.1899 43.7735C22.3124 43.6504 22.4582 43.5654 22.6272 43.5187C22.7962 43.4719 22.9567 43.4645 23.1086 43.4965L27.1506 44.0505L34.3161 36.849L21.8225 30.0168C21.3631 29.7706 21.0955 29.3859 21.0196 28.8627C20.9436 28.3396 21.0888 27.8933 21.455 27.524L21.9143 27.0624C22.1287 26.8469 22.3663 26.7085 22.6272 26.6469C22.8881 26.5853 23.1557 26.5853 23.4301 26.6469L40.1035 30.9401L47.3149 23.7848C47.8355 23.2616 48.4865 23 49.2679 23C50.0494 23 50.6998 23.2616 51.2191 23.7848C51.7397 24.308 52 24.9622 52 25.7476C52 26.533 51.7397 27.1867 51.2191 27.7087L44.0537 34.9101L48.3254 51.5751C48.3867 51.8828 48.3787 52.1832 48.3015 52.4762C48.2244 52.7692 48.0792 53.0227 47.8661 53.2369L47.6364 53.4678C47.2077 53.8986 46.7098 54.0679 46.1427 53.9756C45.5756 53.8832 45.1549 53.5755 44.8805 53.0523L38.1744 40.7267L31.0089 47.9282L31.5601 51.8982C31.5907 52.1136 31.5754 52.3137 31.5142 52.4983C31.4529 52.683 31.3458 52.8523 31.1927 53.0061L30.963 53.2369C30.6568 53.5447 30.2893 53.6752 29.8606 53.6284C29.4319 53.5816 29.1104 53.3588 28.896 52.96L26.5076 48.5745Z" fill="#4DAC4D"/>
</svg>
