<svg width="30" height="30" viewBox="0 0 30 30" fill="none" xmlns="http://www.w3.org/2000/svg">
<path d="M6.6 13.8571C7.92375 13.8571 9 12.8321 9 11.5714C9 10.3107 7.92375 9.28571 6.6 9.28571C5.27625 9.28571 4.2 10.3107 4.2 11.5714C4.2 12.8321 5.27625 13.8571 6.6 13.8571ZM23.4 13.8571C24.7238 13.8571 25.8 12.8321 25.8 11.5714C25.8 10.3107 24.7238 9.28571 23.4 9.28571C22.0763 9.28571 21 10.3107 21 11.5714C21 12.8321 22.0763 13.8571 23.4 13.8571ZM24.6 15H22.2C21.54 15 20.9438 15.2536 20.5088 15.6643C22.02 16.4536 23.0925 17.8786 23.325 19.5714H25.8C26.4638 19.5714 27 19.0607 27 18.4286V17.2857C27 16.025 25.9238 15 24.6 15ZM15 15C17.3213 15 19.2 13.2107 19.2 11C19.2 8.78929 17.3213 7 15 7C12.6788 7 10.8 8.78929 10.8 11C10.8 13.2107 12.6788 15 15 15ZM17.88 16.1429H17.5688C16.7888 16.5 15.9225 16.7143 15 16.7143C14.0775 16.7143 13.215 16.5 12.4313 16.1429H12.12C9.735 16.1429 7.8 17.9857 7.8 20.2571V21.2857C7.8 22.2321 8.60625 23 9.6 23H20.4C21.3938 23 22.2 22.2321 22.2 21.2857V20.2571C22.2 17.9857 20.265 16.1429 17.88 16.1429ZM9.49125 15.6643C9.05625 15.2536 8.46 15 7.8 15H5.4C4.07625 15 3 16.025 3 17.2857V18.4286C3 19.0607 3.53625 19.5714 4.2 19.5714H6.67125C6.9075 17.8786 7.98 16.4536 9.49125 15.6643Z" fill="#4DAC4D"/>
</svg>
