<svg width="30" height="30" viewBox="0 0 30 30" fill="none" xmlns="http://www.w3.org/2000/svg">
<path d="M6.53766 18.1971C6.53856 18.5603 6.67943 18.9083 6.92946 19.1652C7.1795 19.422 7.51836 19.5667 7.87197 19.5676H9.02495C9.17332 20.1595 9.39646 20.729 9.68868 21.2614L8.8881 22.0837C8.63988 22.3422 8.50071 22.6906 8.50071 23.0536C8.50071 23.4167 8.63988 23.7651 8.8881 24.0235L9.44577 24.5963C9.69738 24.8513 10.0366 24.9942 10.3901 24.9942C10.7435 24.9942 11.0827 24.8513 11.3343 24.5963L12.1041 23.7986C12.6294 24.1223 13.1959 24.3695 13.7874 24.5331V25.6295C13.7883 25.9927 13.9292 26.3407 14.1792 26.5976C14.4293 26.8544 14.7681 26.9991 15.1217 27H15.9086C16.2622 26.9991 16.6011 26.8544 16.8511 26.5976C17.1012 26.3407 17.242 25.9927 17.2429 25.6295V24.5401C17.8324 24.3737 18.3966 24.1241 18.9194 23.7986L19.6858 24.5893C19.9368 24.844 20.2754 24.9869 20.6283 24.9869C20.9812 24.9869 21.3199 24.844 21.5709 24.5893L22.1286 24.0165C22.3784 23.759 22.5187 23.4102 22.5187 23.0466C22.5187 22.683 22.3784 22.3342 22.1286 22.0767L21.3417 21.2614C21.6423 20.7307 21.8725 20.1611 22.0259 19.5676H23.1755C23.5291 19.5667 23.868 19.422 24.118 19.1652C24.368 18.9083 24.5089 18.5603 24.5098 18.1971V17.3888C24.5089 17.0256 24.368 16.6776 24.118 16.4208C23.868 16.164 23.5291 16.0193 23.1755 16.0183H21.9951C21.8519 15.4218 21.6322 14.8475 21.3417 14.3105L22.1286 13.5022C22.3782 13.2453 22.5184 12.8971 22.5184 12.5341C22.5184 12.1711 22.3782 11.8229 22.1286 11.5659L21.5709 10.9931C21.3207 10.7367 20.9817 10.5927 20.6283 10.5927C20.2749 10.5927 19.9359 10.7367 19.6858 10.9931L18.916 11.7803C18.3922 11.456 17.8267 11.2088 17.2361 11.0458V9.94943C17.2352 9.58623 17.0943 9.23817 16.8443 8.98135C16.5942 8.72453 16.2554 8.57984 15.9018 8.57892H15.1149C14.7613 8.57984 14.4224 8.72453 14.1724 8.98135C13.9223 9.23817 13.7815 9.58623 13.7806 9.94943V11.0458C13.1914 11.2101 12.6273 11.4572 12.1041 11.7803L11.3378 10.9931C11.087 10.7365 10.7475 10.5924 10.3935 10.5924C10.0395 10.5924 9.69993 10.7365 9.44919 10.9931L8.89152 11.5659C8.64351 11.8238 8.50444 12.1716 8.50444 12.5341C8.50444 12.8965 8.64351 13.2444 8.89152 13.5022L9.68526 14.3105C9.39369 14.8478 9.17171 15.4219 9.02495 16.0183H7.87197C7.51836 16.0193 7.1795 16.164 6.92946 16.4208C6.67943 16.6776 6.53856 17.0256 6.53766 17.3888V18.1971ZM15.5254 13.2141C16.4051 13.2141 17.265 13.482 17.9964 13.984C18.7279 14.4859 19.2979 15.1994 19.6346 16.0342C19.9712 16.8689 20.0593 17.7875 19.8877 18.6737C19.7161 19.5599 19.2925 20.3739 18.6704 21.0128C18.0484 21.6517 17.2559 22.0868 16.3931 22.263C15.5304 22.4393 14.6361 22.3488 13.8234 22.0031C13.0107 21.6573 12.316 21.0717 11.8273 20.3205C11.3386 19.5692 11.0777 18.686 11.0777 17.7824C11.0777 16.5708 11.5463 15.4088 12.3804 14.5521C13.2145 13.6954 14.3458 13.2141 15.5254 13.2141ZM15.067 6.5372V4.47089C15.067 4.346 15.1153 4.22623 15.2013 4.13792C15.2872 4.04961 15.4038 4 15.5254 4C15.647 4 15.7636 4.04961 15.8496 4.13792C15.9356 4.22623 15.9839 4.346 15.9839 4.47089V6.54423C15.9839 6.66912 15.9356 6.78889 15.8496 6.8772C15.7636 6.96551 15.647 7.01513 15.5254 7.01513C15.4038 7.01513 15.2872 6.96551 15.2013 6.8772C15.1153 6.78889 15.067 6.66912 15.067 6.54423V6.5372ZM13.0895 17.1569C13.0658 17.139 13.0482 17.1138 13.0392 17.085C13.0301 17.0562 13.0302 17.0253 13.0393 16.9965C13.0484 16.9677 13.066 16.9426 13.0898 16.9247C13.1135 16.9069 13.1421 16.8971 13.1716 16.8969H14.7556C14.7857 16.8973 14.815 16.8875 14.8392 16.8691C14.8633 16.8507 14.8808 16.8246 14.8891 16.795L15.3749 15.2487C15.384 15.2198 15.4019 15.1945 15.4258 15.1767C15.4498 15.1588 15.4787 15.1491 15.5083 15.1491C15.538 15.1491 15.5668 15.1588 15.5908 15.1767C15.6148 15.1945 15.6326 15.2198 15.6418 15.2487L16.1276 16.795C16.1358 16.8246 16.1534 16.8507 16.1775 16.8691C16.2016 16.8875 16.231 16.8973 16.261 16.8969H17.8451C17.8746 16.8968 17.9033 16.9062 17.9273 16.9239C17.9512 16.9416 17.9692 16.9665 17.9785 16.9953C17.9883 17.0243 17.9886 17.0558 17.9793 17.085C17.9701 17.1142 17.9518 17.1394 17.9272 17.1569L16.6442 18.1092C16.6196 18.1267 16.6013 18.152 16.5921 18.1812C16.5828 18.2104 16.5831 18.2419 16.5929 18.2709L17.0856 19.8171C17.0954 19.8461 17.0957 19.8776 17.0864 19.9068C17.0771 19.936 17.0588 19.9613 17.0342 19.9788C17.0108 19.9976 16.9819 20.0078 16.9521 20.0078C16.9224 20.0078 16.8935 19.9976 16.87 19.9788L15.5904 19.0194C15.567 19.0006 15.5381 18.9904 15.5083 18.9904C15.4786 18.9904 15.4497 19.0006 15.4262 19.0194L14.1569 19.9788C14.1335 19.9976 14.1046 20.0078 14.0748 20.0078C14.045 20.0078 14.0161 19.9976 13.9927 19.9788C13.9681 19.9613 13.9498 19.936 13.9405 19.9068C13.9313 19.8776 13.9316 19.8461 13.9414 19.8171L14.434 18.2709C14.4423 18.2418 14.4418 18.2108 14.4326 18.182C14.4235 18.1531 14.4061 18.1278 14.3827 18.1092L13.0895 17.1569ZM8.7273 6.45638C8.67005 6.34849 8.65612 6.2219 8.68849 6.10361C8.72086 5.98532 8.79696 5.88471 8.90055 5.82326C9.00413 5.76181 9.127 5.74437 9.24293 5.77468C9.35886 5.80499 9.45866 5.88064 9.52104 5.98549L10.5303 7.78121C10.5899 7.88997 10.6053 8.01845 10.5733 8.13882C10.5413 8.25919 10.4644 8.36175 10.3593 8.42429C10.2539 8.4853 10.1293 8.50106 10.0127 8.46815C9.89606 8.43524 9.79682 8.35632 9.73658 8.24859L8.7273 6.45638ZM4.05379 10.7963C4.08357 10.7429 4.12333 10.6961 4.17079 10.6585C4.21824 10.621 4.27245 10.5934 4.3303 10.5774C4.38816 10.5614 4.44852 10.5573 4.50792 10.5653C4.56733 10.5733 4.6246 10.5933 4.67646 10.6241L6.42475 11.6608C6.52998 11.7233 6.60675 11.8261 6.63819 11.9467C6.66963 12.0673 6.65315 12.1958 6.5924 12.3039C6.56261 12.3573 6.52285 12.4041 6.4754 12.4417C6.42794 12.4793 6.37374 12.5068 6.31588 12.5228C6.25803 12.5388 6.19766 12.5429 6.13826 12.5349C6.07886 12.5269 6.02158 12.5069 5.96972 12.4761L4.23512 11.4289C4.13029 11.3688 4.05257 11.2689 4.01867 11.1506C3.98476 11.0324 3.99737 10.9052 4.05379 10.7963ZM20.4761 7.79175L21.5025 5.99603C21.5648 5.89118 21.6646 5.81553 21.7806 5.78522C21.8965 5.75492 22.0194 5.77235 22.123 5.8338C22.2265 5.89526 22.3026 5.99586 22.335 6.11415C22.3674 6.23244 22.3535 6.35904 22.2962 6.46692L21.2698 8.25913C21.2423 8.31703 21.2034 8.3685 21.1557 8.41036C21.108 8.45223 21.0524 8.48358 20.9925 8.50249C20.9325 8.5214 20.8693 8.52746 20.807 8.5203C20.7446 8.51313 20.6844 8.4929 20.6299 8.46085C20.5755 8.42879 20.528 8.3856 20.4905 8.33395C20.453 8.2823 20.4262 8.22329 20.4118 8.16056C20.3973 8.09784 20.3956 8.03274 20.4067 7.9693C20.4177 7.90586 20.4414 7.84543 20.4761 7.79175ZM24.4208 12.2934C24.3613 12.1846 24.3458 12.0561 24.3779 11.9357C24.4099 11.8154 24.4868 11.7128 24.5919 11.6503L26.3402 10.6136C26.4447 10.5611 26.5648 10.5514 26.6761 10.5865C26.7873 10.6215 26.8814 10.6988 26.9393 10.8025C26.9972 10.9061 27.0145 11.0286 26.9877 11.1449C26.961 11.2612 26.8922 11.3627 26.7952 11.4289L25.0469 12.4655C24.9417 12.528 24.8166 12.5449 24.6992 12.5126C24.5818 12.4803 24.4817 12.4014 24.4208 12.2934Z" fill="#4DAC4D"/>
</svg>
