<svg width="75" height="75" viewBox="0 0 75 75" fill="none" xmlns="http://www.w3.org/2000/svg">
<path d="M0 40.625C0 18.1884 18.1884 0 40.625 0H48.75C63.2475 0 75 11.7525 75 26.25V41.25C75 59.8896 59.8896 75 41.25 75H34.375C15.3902 75 0 59.6098 0 40.625Z" fill="#ECFFF9"/>
<path d="M37 40.8571C34.9372 40.8571 32.9589 40.0293 31.5003 38.5558C30.0417 37.0823 29.2222 35.0838 29.2222 33H32.3333C32.3333 34.2503 32.825 35.4494 33.7002 36.3335C34.5753 37.2176 35.7623 37.7143 37 37.7143C38.2377 37.7143 39.4247 37.2176 40.2998 36.3335C41.175 35.4494 41.6667 34.2503 41.6667 33H44.7778C44.7778 35.0838 43.9583 37.0823 42.4997 38.5558C41.0411 40.0293 39.0628 40.8571 37 40.8571ZM37 25.1429C38.2377 25.1429 39.4247 25.6395 40.2998 26.5236C41.175 27.4077 41.6667 28.6068 41.6667 29.8571H32.3333C32.3333 28.6068 32.825 27.4077 33.7002 26.5236C34.5753 25.6395 35.7623 25.1429 37 25.1429ZM47.8889 29.8571H44.7778C44.7778 28.8253 44.5766 27.8036 44.1857 26.8503C43.7949 25.8971 43.222 25.0309 42.4997 24.3013C41.7775 23.5717 40.9201 22.9929 39.9764 22.5981C39.0328 22.2032 38.0214 22 37 22C34.9372 22 32.9589 22.8278 31.5003 24.3013C30.0417 25.7748 29.2222 27.7733 29.2222 29.8571H26.1111C24.3844 29.8571 23 31.2557 23 33V51.8571C23 52.6907 23.3278 53.4901 23.9112 54.0795C24.4947 54.6689 25.286 55 26.1111 55H47.8889C48.714 55 49.5053 54.6689 50.0888 54.0795C50.6722 53.4901 51 52.6907 51 51.8571V33C51 32.1665 50.6722 31.3671 50.0888 30.7777C49.5053 30.1883 48.714 29.8571 47.8889 29.8571Z" fill="#4DAC8F"/>
</svg>
