<svg width="30" height="30" viewBox="0 0 30 30" fill="none" xmlns="http://www.w3.org/2000/svg">
<path d="M15 16.875L17.6562 18.9062C17.7812 19.0104 17.9062 19.0156 18.0312 18.9219C18.1562 18.8281 18.1979 18.7083 18.1562 18.5625L17.125 15.25L19.9062 13.0625C20.0104 12.9583 20.0417 12.8385 20 12.7031C19.9583 12.5677 19.8646 12.5 19.7188 12.5H16.375L15.3125 9.15625C15.2708 9.01042 15.1667 8.9375 15 8.9375C14.8333 8.9375 14.7292 9.01042 14.6875 9.15625L13.625 12.5H10.2812C10.1354 12.5 10.0365 12.5677 9.98438 12.7031C9.93229 12.8385 9.95833 12.9583 10.0625 13.0625L12.8125 15.25L11.7812 18.5938C11.7396 18.7396 11.7812 18.8594 11.9062 18.9531C12.0312 19.0469 12.1562 19.0417 12.2812 18.9375L15 16.875ZM15 27.375C14.8542 27.375 14.7188 27.3646 14.5938 27.3438C14.4688 27.3229 14.3438 27.2917 14.2188 27.25C11.4062 26.3125 9.16667 24.5781 7.5 22.0469C5.83333 19.5156 5 16.7917 5 13.875V7.96875C5 7.44792 5.15104 6.97917 5.45312 6.5625C5.75521 6.14583 6.14583 5.84375 6.625 5.65625L14.125 2.84375C14.4167 2.73958 14.7083 2.6875 15 2.6875C15.2917 2.6875 15.5833 2.73958 15.875 2.84375L23.375 5.65625C23.8542 5.84375 24.2448 6.14583 24.5469 6.5625C24.849 6.97917 25 7.44792 25 7.96875V13.875C25 16.7917 24.1667 19.5156 22.5 22.0469C20.8333 24.5781 18.5938 26.3125 15.7812 27.25C15.6562 27.2917 15.5312 27.3229 15.4062 27.3438C15.2812 27.3646 15.1458 27.375 15 27.375Z" fill="#4DAC4D"/>
</svg>
