<svg width="26" height="29" viewBox="0 0 26 29" fill="none" xmlns="http://www.w3.org/2000/svg">
<path fill-rule="evenodd" clip-rule="evenodd" d="M12.9999 22.984C11.4778 22.984 10.2418 24.2199 10.2418 25.742C10.2418 27.2642 11.4778 28.5001 12.9999 28.5001C14.5221 28.5001 15.758 27.2642 15.758 25.742C15.758 24.2199 14.5221 22.984 12.9999 22.984ZM21.2741 11.9517H20.8144C19.546 11.9517 18.5161 12.9817 18.5161 14.2501V18.8468C18.5161 20.1153 19.546 21.1452 20.8144 21.1452H21.1188C20.9569 21.7205 20.6272 22.4777 19.9548 23.1504C19.3821 23.7228 18.5709 24.2202 17.4324 24.5202C17.5394 24.9094 17.5967 25.3191 17.5967 25.742C17.5967 25.9599 17.5814 26.1744 17.552 26.3844C19.2696 26.0004 20.4443 25.2612 21.2548 24.4503C22.3918 23.3137 22.8331 22.0018 23.0044 21.1452H23.5725C24.8409 21.1452 25.8709 20.1153 25.8709 18.8468V14.2501C25.8709 12.9817 24.8409 11.9517 23.5725 11.9517H23.1128V11.0323C23.1128 8.28741 22.0396 6.17504 20.2788 4.54992C20.1479 5.21063 19.8559 5.81557 19.4452 6.32305C20.5849 7.5504 21.2741 9.08787 21.2741 11.0323V11.9517ZM2.88698 11.9517H2.4273C1.15889 11.9517 0.128906 12.9817 0.128906 14.2501V18.8468C0.128906 20.1153 1.15889 21.1452 2.4273 21.1452H5.18537C6.45378 21.1452 7.48377 20.1153 7.48377 18.8468V14.2501C7.48377 12.9817 6.45378 11.9517 5.18537 11.9517H4.72569V11.0323C4.72569 9.094 5.40908 7.53936 6.54142 6.29823C6.13752 5.78554 5.85099 5.17416 5.72197 4.50487C3.9614 6.14593 2.88698 8.28864 2.88698 11.0323V11.9517ZM18.5164 3.71085C18.4918 2.66371 17.9828 1.81667 17.1511 1.19151C16.115 0.412199 14.5233 -0.00335063 12.9325 2.03478e-05C11.3356 0.00369778 9.75703 0.430892 8.75309 1.21265C7.93793 1.84732 7.45986 2.70171 7.48468 3.75406C7.5141 5.01634 8.52019 6.03101 9.78277 6.03101C9.90842 6.03101 10.0325 6.00526 10.1478 5.95531C12.0888 5.11563 13.9827 5.06476 15.823 5.94152C15.9465 6.00036 16.0816 6.03101 16.2183 6.03101C17.4928 6.03101 18.5464 4.98508 18.5164 3.71085Z" fill="#4DAC4D"/>
</svg>
