<svg width="30" height="30" viewBox="0 0 30 30" fill="none" xmlns="http://www.w3.org/2000/svg">
<path fill-rule="evenodd" clip-rule="evenodd" d="M6.89348 5.44616C6.97316 5.36749 7.03637 5.27411 7.07949 5.17133C7.12262 5.06855 7.14482 4.95839 7.14482 4.84714C7.14482 4.73589 7.12262 4.62573 7.07949 4.52295C7.03637 4.42017 6.97316 4.32679 6.89348 4.24812C6.8138 4.16946 6.7192 4.10706 6.61509 4.06448C6.51097 4.02191 6.39939 4 6.2867 4C6.17401 4 6.06242 4.02191 5.95831 4.06448C5.8542 4.10706 5.7596 4.16946 5.67992 4.24812L2.25179 7.63241C2.17197 7.711 2.10865 7.80437 2.06545 7.90716C2.02224 8.00994 2 8.12014 2 8.23143C2 8.34271 2.02224 8.45291 2.06545 8.5557C2.10865 8.65849 2.17197 8.75185 2.25179 8.83045L5.67992 12.2147C5.7596 12.2934 5.8542 12.3558 5.95831 12.3984C6.06242 12.4409 6.17401 12.4629 6.2867 12.4629C6.39939 12.4629 6.51097 12.4409 6.61509 12.3984C6.7192 12.3558 6.8138 12.2934 6.89348 12.2147C6.97316 12.1361 7.03637 12.0427 7.07949 11.9399C7.12262 11.8371 7.14482 11.727 7.14482 11.6157C7.14482 11.5045 7.12262 11.3943 7.07949 11.2915C7.03637 11.1887 6.97316 11.0954 6.89348 11.0167L4.92744 9.0775H17.4281C19.0192 9.0775 20.5452 9.70148 21.6702 10.8122C22.7953 11.9228 23.4274 13.4293 23.4274 15C23.4274 15.2244 23.5177 15.4396 23.6784 15.5983C23.8391 15.7569 24.0571 15.8461 24.2844 15.8461C24.5117 15.8461 24.7297 15.7569 24.8904 15.5983C25.0511 15.4396 25.1414 15.2244 25.1414 15C25.1414 12.9805 24.3288 11.0437 22.8823 9.61563C21.4357 8.18761 19.4738 7.38536 17.4281 7.38536H4.92744L6.89348 5.44616ZM4.57263 15C4.57263 14.7756 4.48234 14.5604 4.32161 14.4017C4.16089 14.2431 3.9429 14.1539 3.7156 14.1539C3.4883 14.1539 3.27031 14.2431 3.10958 14.4017C2.94886 14.5604 2.85857 14.7756 2.85857 15C2.85857 17.0195 3.67121 18.9563 5.11774 20.3844C6.56426 21.8124 8.52617 22.6146 10.5719 22.6146H23.0726L21.1065 24.5538C20.9456 24.7127 20.8552 24.9282 20.8552 25.1529C20.8552 25.3775 20.9456 25.593 21.1065 25.7519C21.2674 25.9107 21.4857 26 21.7133 26C21.9409 26 22.1592 25.9107 22.3201 25.7519L25.7482 22.3676C25.828 22.289 25.8913 22.1956 25.9346 22.0928C25.9778 21.9901 26 21.8799 26 21.7686C26 21.6573 25.9778 21.5471 25.9346 21.4443C25.8913 21.3415 25.828 21.2481 25.7482 21.1696L22.3201 17.7853C22.1592 17.6264 21.9409 17.5371 21.7133 17.5371C21.4857 17.5371 21.2674 17.6264 21.1065 17.7853C20.9456 17.9441 20.8552 18.1596 20.8552 18.3843C20.8552 18.609 20.9456 18.8244 21.1065 18.9833L23.0726 20.9225H10.5719C8.98077 20.9225 7.45484 20.2985 6.32977 19.1878C5.20469 18.0772 4.57263 16.5707 4.57263 15Z" fill="#4DAC4D" stroke="#4DAC4D"/>
</svg>
