<svg width="32" height="32" viewBox="0 0 32 32" fill="none" xmlns="http://www.w3.org/2000/svg">
<path d="M0 17.3333C0 7.7604 7.7604 0 17.3333 0H20.8C26.9856 0 32 5.01441 32 11.2V17.6C32 25.5529 25.5529 32 17.6 32H14.6667C6.56649 32 0 25.4335 0 17.3333Z" fill="#F35D93"/>
<path d="M9.02496 20.2188C8.87496 20.0688 8.80308 19.8906 8.80933 19.6844C8.81558 19.4781 8.88746 19.3063 9.02496 19.1688L12.9812 15.1563C13.2687 14.8688 13.625 14.725 14.05 14.725C14.475 14.725 14.8312 14.8688 15.1187 15.1563L17.05 17.1063L20.95 13.2438H19.75C19.5375 13.2438 19.3593 13.1719 19.2156 13.0281C19.0718 12.8844 19 12.7063 19 12.4938C19 12.2813 19.0718 12.1031 19.2156 11.9594C19.3593 11.8156 19.5375 11.7438 19.75 11.7438H22.75C22.9625 11.7438 23.1406 11.8156 23.2843 11.9594C23.4281 12.1031 23.5 12.2813 23.5 12.4938V15.4938C23.5 15.7063 23.4281 15.8844 23.2843 16.0281C23.1406 16.1719 22.9625 16.2438 22.75 16.2438C22.5375 16.2438 22.3593 16.1719 22.2156 16.0281C22.0718 15.8844 22 15.7063 22 15.4938V14.2938L18.1187 18.175C17.8312 18.4625 17.475 18.6063 17.05 18.6063C16.625 18.6063 16.2687 18.4625 15.9812 18.175L14.05 16.2438L10.075 20.2188C9.93746 20.3563 9.76246 20.425 9.54996 20.425C9.33746 20.425 9.16246 20.3563 9.02496 20.2188Z" fill="white"/>
</svg>
