<svg width="75" height="75" viewBox="0 0 75 75" fill="none" xmlns="http://www.w3.org/2000/svg">
<path d="M0 40.625C0 18.1884 18.1884 0 40.625 0H48.75C63.2475 0 75 11.7525 75 26.25V41.25C75 59.8896 59.8896 75 41.25 75H34.375C15.3902 75 0 59.6098 0 40.625Z" fill="#F1F6FF"/>
<path d="M38.6 47.4737V50.7368H45V54H29.0001V50.7368H35.4V47.4737H22.5873C22.377 47.4724 22.1691 47.4288 21.9754 47.3454C21.7818 47.262 21.6062 47.1403 21.4587 46.9875C21.3112 46.8347 21.1948 46.6537 21.1161 46.4549C21.0374 46.2561 20.998 46.0434 21.0001 45.8291V24.6446C21.0001 23.7358 21.7281 23 22.5873 23H51.4128C52.2896 23 53 23.7326 53 24.643V45.8291C53 46.7378 52.272 47.4737 51.4128 47.4737H38.6Z" fill="#3E65B2"/>
</svg>
