<svg width="26" height="26" viewBox="0 0 26 26" fill="none" xmlns="http://www.w3.org/2000/svg">
<path d="M25.5 13C25.5 6.09625 19.9038 0.5 13 0.5C6.09626 0.5 0.500011 6.09625 0.500011 13C0.497414 14.9974 0.97545 16.9662 1.89376 18.74L0.55876 23.5187C0.484296 23.7856 0.482108 24.0674 0.552419 24.3353C0.622731 24.6033 0.763015 24.8477 0.958897 25.0436C1.15478 25.2395 1.39922 25.3798 1.66717 25.4501C1.93511 25.5204 2.21694 25.5182 2.48376 25.4437L7.26626 24.11C9.03854 25.026 11.005 25.5028 13 25.5C19.9038 25.5 25.5 19.9037 25.5 13ZM9.60001 8.275L13 11.675L16.4 8.275C16.4858 8.18289 16.5893 8.10901 16.7043 8.05777C16.8193 8.00653 16.9435 7.97898 17.0694 7.97676C17.1952 7.97454 17.3203 7.99769 17.437 8.04485C17.5537 8.092 17.6598 8.16218 17.7488 8.2512C17.8378 8.34023 17.908 8.44627 17.9552 8.563C18.0023 8.67974 18.0255 8.80477 18.0232 8.93065C18.021 9.05653 17.9935 9.18067 17.9422 9.29567C17.891 9.41067 17.8171 9.51417 17.725 9.6L14.325 13L17.725 16.4C17.8171 16.4858 17.891 16.5893 17.9422 16.7043C17.9935 16.8193 18.021 16.9435 18.0232 17.0693C18.0255 17.1952 18.0023 17.3203 17.9552 17.437C17.908 17.5537 17.8378 17.6598 17.7488 17.7488C17.6598 17.8378 17.5537 17.908 17.437 17.9552C17.3203 18.0023 17.1952 18.0255 17.0694 18.0232C16.9435 18.021 16.8193 17.9935 16.7043 17.9422C16.5893 17.891 16.4858 17.8171 16.4 17.725L13 14.325L9.60001 17.725C9.42229 17.8906 9.18723 17.9808 8.94436 17.9765C8.70148 17.9722 8.46975 17.8738 8.29798 17.702C8.12622 17.5303 8.02783 17.2985 8.02354 17.0557C8.01926 16.8128 8.10941 16.5777 8.27501 16.4L11.675 13L8.27501 9.6C8.10941 9.42228 8.01926 9.18722 8.02354 8.94435C8.02783 8.70147 8.12622 8.46974 8.29798 8.29797C8.46975 8.12621 8.70148 8.02782 8.94436 8.02353C9.18723 8.01924 9.42229 8.1094 9.60001 8.275Z" fill="#FB2B2B"/>
</svg>
