<svg width="30" height="30" viewBox="0 0 30 30" fill="none" xmlns="http://www.w3.org/2000/svg">
<path d="M15 5.00016V2.76266C15 2.20016 14.325 1.92516 13.9375 2.32516L10.4375 5.81266C10.1875 6.06266 10.1875 6.45016 10.4375 6.70016L13.925 10.1877C14.325 10.5752 15 10.3002 15 9.73766V7.50016C19.1375 7.50016 22.5 10.8627 22.5 15.0002C22.5 15.9877 22.3125 16.9502 21.95 17.8127C21.7625 18.2627 21.9 18.7752 22.2375 19.1127C22.875 19.7502 23.95 19.5252 24.2875 18.6877C24.75 17.5502 25 16.3002 25 15.0002C25 9.47516 20.525 5.00016 15 5.00016ZM15 22.5002C10.8625 22.5002 7.5 19.1377 7.5 15.0002C7.5 14.0127 7.6875 13.0502 8.05 12.1877C8.2375 11.7377 8.1 11.2252 7.7625 10.8877C7.125 10.2502 6.05 10.4752 5.7125 11.3127C5.25 12.4502 5 13.7002 5 15.0002C5 20.5252 9.475 25.0002 15 25.0002V27.2377C15 27.8002 15.675 28.0752 16.0625 27.6752L19.55 24.1877C19.8 23.9377 19.8 23.5502 19.55 23.3002L16.0625 19.8127C15.9744 19.7263 15.8627 19.6679 15.7414 19.6449C15.6202 19.6219 15.4949 19.6354 15.3812 19.6835C15.2676 19.7316 15.1708 19.8123 15.1029 19.9154C15.0351 20.0184 14.9993 20.1393 15 20.2627V22.5002Z" fill="#FB2B2B"/>
</svg>
