<svg width="30" height="30" viewBox="0 0 30 30" fill="none" xmlns="http://www.w3.org/2000/svg">
<g clip-path="url(#clip0_660_340)">
<path d="M15.0006 0.601563C11.1815 0.601563 7.51877 2.1187 4.81825 4.81922C2.11772 7.51975 0.600586 11.1824 0.600586 15.0016C0.600684 16.8926 0.973249 18.7651 1.69701 20.5121C2.42077 22.2592 3.48155 23.8466 4.81878 25.1837C6.15601 26.5208 7.74351 27.5814 9.49064 28.305C11.2378 29.0285 13.1103 29.4009 15.0013 29.4008C16.8924 29.4007 18.7649 29.0282 20.5119 28.3044C22.259 27.5806 23.8464 26.5199 25.1835 25.1826C26.5205 23.8454 27.5812 22.2579 28.3047 20.5108C29.0283 18.7636 29.4007 16.8911 29.4006 15.0001C29.4006 7.04856 22.9521 0.601563 15.0006 0.601563ZM15.0006 26.4001C13.5035 26.4001 12.0211 26.1052 10.638 25.5323C9.25488 24.9594 7.99816 24.1197 6.93957 23.0611C5.88098 22.0025 5.04126 20.7458 4.46836 19.3627C3.89546 17.9795 3.60059 16.4971 3.60059 15.0001C3.60059 13.503 3.89546 12.0206 4.46836 10.6375C5.04126 9.25436 5.88098 7.99763 6.93957 6.93904C7.99816 5.88046 9.25488 5.04074 10.638 4.46784C12.0211 3.89493 13.5035 3.60006 15.0006 3.60006L15.0006 15.0016L25.1886 9.90756C25.9851 11.4875 26.4002 13.2322 26.4006 15.0016C26.4002 18.0248 25.1989 20.924 23.0611 23.0616C20.9232 25.1992 18.0238 26.4001 15.0006 26.4001Z" fill="#FB2B2B"/>
</g>
<defs>
<clipPath id="clip0_660_340">
<rect width="30" height="30" fill="white"/>
</clipPath>
</defs>
</svg>
