<svg width="30" height="30" viewBox="0 0 30 30" fill="none" xmlns="http://www.w3.org/2000/svg">
<path d="M7.25 25C6.69771 25 6.25 24.5523 6.25 24V23.5C6.25 22.9477 6.69771 22.5 7.25 22.5H7.50624C7.94772 22.5 8.33696 22.2105 8.46397 21.7877L10.7187 14.2813C10.8854 13.7396 11.1929 13.3075 11.6412 12.985C12.0896 12.6625 12.5842 12.5008 13.125 12.5H16.875C17.4167 12.5 17.9117 12.6617 18.36 12.985C18.8083 13.3083 19.1154 13.7404 19.2812 14.2813L21.536 21.7877C21.663 22.2105 22.0523 22.5 22.4938 22.5H22.75C23.3023 22.5 23.75 22.9477 23.75 23.5V24C23.75 24.5523 23.3023 25 22.75 25H7.25ZM14.75 10C14.1977 10 13.75 9.55229 13.75 9V4.75C13.75 4.19772 14.1977 3.75 14.75 3.75H15.25C15.8023 3.75 16.25 4.19772 16.25 4.75V9C16.25 9.55229 15.8023 10 15.25 10H14.75ZM21.8946 12.3816C21.5045 12.7745 20.8694 12.7756 20.4779 12.3841L20.1159 12.0221C19.7244 11.6306 19.7255 10.9955 20.1184 10.6054L23.1367 7.60837C23.5276 7.2202 24.1588 7.22131 24.5484 7.61086L24.8891 7.95164C25.2787 8.34119 25.2798 8.97243 24.8916 9.36335L21.8946 12.3816ZM23.5 18.75C22.9477 18.75 22.5 18.3023 22.5 17.75V17.25C22.5 16.6977 22.9477 16.25 23.5 16.25H27.75C28.3023 16.25 28.75 16.6977 28.75 17.25V17.75C28.75 18.3023 28.3023 18.75 27.75 18.75H23.5ZM9.52211 12.3841C9.13061 12.7756 8.49552 12.7745 8.1054 12.3816L5.10837 9.36335C4.7202 8.97243 4.72131 8.34119 5.11086 7.95164L5.45164 7.61086C5.84119 7.22131 6.47242 7.2202 6.86335 7.60837L9.88164 10.6054C10.2745 10.9955 10.2756 11.6306 9.88414 12.0221L9.52211 12.3841ZM2.25 18.75C1.69772 18.75 1.25 18.3023 1.25 17.75V17.25C1.25 16.6977 1.69772 16.25 2.25 16.25H6.5C7.05228 16.25 7.5 16.6977 7.5 17.25V17.75C7.5 18.3023 7.05228 18.75 6.5 18.75H2.25Z" fill="#4DAC4D"/>
</svg>
