<svg width="30" height="30" viewBox="0 0 30 30" fill="none" xmlns="http://www.w3.org/2000/svg">
<path fill-rule="evenodd" clip-rule="evenodd" d="M1.57897 20.626C1.57897 16.1674 5.11465 12.501 9.53949 12.501C13.9643 12.501 17.5 16.1674 17.5 20.626C17.5 25.0846 13.9643 28.751 9.53949 28.751C8.62993 28.751 7.75372 28.5948 6.93684 28.3065C6.80183 28.2588 6.71808 28.2293 6.65666 28.209C6.64551 28.2053 6.63639 28.2024 6.62909 28.2001L6.6223 28.2008C6.57942 28.2056 6.52098 28.2134 6.41266 28.2282L2.66916 28.7395C2.26409 28.7948 1.85757 28.6485 1.5806 28.3478C1.30362 28.0471 1.1912 27.63 1.27956 27.2308L2.04374 23.7787C2.0703 23.6588 2.08451 23.594 2.09363 23.5464C2.09415 23.5437 2.09506 23.5389 2.09506 23.5389C2.09278 23.531 2.08991 23.5212 2.08631 23.5093C2.06573 23.4411 2.03546 23.3482 1.98625 23.1975C1.72164 22.3875 1.57897 21.5224 1.57897 20.626Z" fill="#FB2B2B"/>
<path d="M6.43442 10.4667C7.4064 10.1644 8.44244 10.001 9.52235 10.001C15.4141 10.001 20.0002 14.8643 20.0002 20.626C20.0002 21.643 19.8573 22.6321 19.5895 23.5714C20.267 23.4497 20.9241 23.2679 21.5547 23.0317C21.6437 22.9984 21.7325 22.9643 21.8223 22.9336C21.8949 22.942 21.9671 22.9533 22.0393 22.9639L26.0555 23.5526C26.2451 23.5805 26.4602 23.6121 26.6478 23.6227C26.8554 23.6346 27.1782 23.6333 27.5202 23.4862C27.9474 23.3025 28.291 22.9667 28.4845 22.5439C28.6394 22.2053 28.6481 21.8827 28.6411 21.6749C28.6348 21.487 28.6081 21.2712 28.5847 21.081L28.0772 16.9587C28.064 16.8515 28.0571 16.7952 28.0532 16.7539C28.0751 16.6636 28.1164 16.5762 28.1494 16.4896C28.6229 15.2484 28.8816 13.9033 28.8816 12.501C28.8816 6.28006 23.8076 1.25098 17.5658 1.25098C12.0211 1.25098 7.39787 5.21952 6.43442 10.4667Z" fill="#FB2B2B"/>
</svg>
