<svg width="30" height="30" viewBox="0 0 30 30" fill="none" xmlns="http://www.w3.org/2000/svg">
<path d="M19.1493 5.6C19.1493 5.03995 19.1493 4.75992 19.0427 4.54601C18.9488 4.35785 18.7991 4.20487 18.615 4.10899C18.4056 4 18.1316 4 17.5835 4H11.3989C10.7151 3.99999 10.1473 3.99998 9.68018 4.03632C9.19245 4.07425 8.74285 4.15561 8.30879 4.35658C7.63002 4.67085 7.05314 5.17657 6.64594 5.81429C6.38555 6.2221 6.23849 6.66379 6.12763 7.1506C6.02145 7.61685 5.93513 8.19025 5.83116 8.88089L5.30699 12.3623C5.16922 13.2773 5.05627 14.0274 5.01632 14.6396C4.9751 15.2712 5.00206 15.8606 5.21293 16.4255C5.53672 17.2929 6.14571 18.0183 6.93551 18.4772C7.44988 18.776 8.01586 18.8929 8.63308 18.9473C9.23132 19 9.97401 19 10.88 19H11.7117C12.0019 19 12.1607 19.0008 12.2748 19.0103L12.2877 19.0115L12.2888 19.0246C12.2981 19.1412 12.2989 19.3035 12.2989 19.6V22.5342C12.2989 24.4483 13.8175 26 15.6907 26C16.3954 26 17.0339 25.576 17.3201 24.918L20.6091 17.3563C20.6889 17.1729 20.7306 17.0783 20.7647 17.0116L20.7678 17.0058L20.7743 17.0053C20.8477 17.0005 20.9492 17 21.1457 17H21.9274C22.4433 17 22.8883 17 23.2549 16.9694C23.6418 16.9371 24.0266 16.8658 24.3969 16.673C24.9494 16.3854 25.3985 15.9265 25.68 15.362C25.8687 14.9836 25.9385 14.5904 25.9701 14.195C26 13.8205 26 13.3657 26 12.8386V8.16144C26 7.6343 26 7.17954 25.9701 6.80497C25.9385 6.40963 25.8687 6.01641 25.68 5.63803C25.3985 5.07354 24.9494 4.6146 24.3969 4.32698C24.0266 4.13419 23.6418 4.06287 23.2549 4.03057C22.8883 3.99997 22.4433 3.99998 21.9274 4C21.4741 4 21.1066 4.3755 21.1066 4.8387V13C21.1066 13.5523 20.6685 14 20.128 14C19.5875 14 19.1493 13.5523 19.1493 13V5.6Z" fill="#FB2B2B"/>
</svg>
