<svg width="32" height="32" viewBox="0 0 32 32" fill="none" xmlns="http://www.w3.org/2000/svg">
<path d="M0 17.3333C0 7.7604 7.7604 0 17.3333 0H20.8C26.9856 0 32 5.01441 32 11.2V17.6C32 25.5529 25.5529 32 17.6 32H14.6667C6.56649 32 0 25.4335 0 17.3333Z" fill="#417EC6"/>
<path d="M16 17.125L17.5938 18.3438C17.6688 18.4063 17.7438 18.4094 17.8188 18.3532C17.8938 18.2969 17.9188 18.225 17.8938 18.1376L17.275 16.15L18.9438 14.8375C19.0063 14.775 19.025 14.7032 19 14.6219C18.975 14.5407 18.9188 14.5 18.8313 14.5H16.825L16.1875 12.4938C16.1625 12.4063 16.1 12.3625 16 12.3625C15.9 12.3625 15.8375 12.4063 15.8125 12.4938L15.175 14.5H13.1688C13.0813 14.5 13.0219 14.5407 12.9906 14.6219C12.9594 14.7032 12.975 14.775 13.0375 14.8375L14.6875 16.15L14.0688 18.1563C14.0438 18.2438 14.0688 18.3157 14.1438 18.3719C14.2188 18.4282 14.2938 18.425 14.3688 18.3625L16 17.125ZM16 23.4251C15.9125 23.4251 15.8313 23.4188 15.7563 23.4063C15.6813 23.3938 15.6063 23.3751 15.5313 23.3501C13.8438 22.7876 12.5 21.7469 11.5 20.2282C10.5 18.7094 10 17.0751 10 15.325V11.7813C10 11.4688 10.0906 11.1875 10.2719 10.9375C10.4531 10.6875 10.6875 10.5063 10.975 10.3938L15.475 8.7063C15.65 8.6438 15.825 8.61255 16 8.61255C16.175 8.61255 16.35 8.6438 16.525 8.7063L21.025 10.3938C21.3125 10.5063 21.5469 10.6875 21.7281 10.9375C21.9094 11.1875 22 11.4688 22 11.7813V15.325C22 17.0751 21.5 18.7094 20.5 20.2282C19.5 21.7469 18.1563 22.7876 16.4688 23.3501C16.3938 23.3751 16.3188 23.3938 16.2438 23.4063C16.1688 23.4188 16.0875 23.4251 16 23.4251Z" fill="white"/>
</svg>
