<svg width="30" height="30" viewBox="0 0 30 30" fill="none" xmlns="http://www.w3.org/2000/svg">
<g clip-path="url(#clip0_633_1472)">
<path fill-rule="evenodd" clip-rule="evenodd" d="M11.0513 6.52958C11.2349 7.68582 11.5073 8.78135 11.8631 9.4717C12.1426 10.0152 12.6904 10.7056 13.4414 11.4581C13.9567 11.9733 14.5031 12.4548 15 12.8642C15.497 12.4548 16.0447 11.9733 16.5586 11.4581C17.3097 10.7056 17.8574 10.0152 18.137 9.4717C18.4927 8.78135 18.7638 7.68582 18.9487 6.52958H11.0513ZM10.1167 3.70605C8.92521 3.70605 7.97368 4.69005 8.11203 5.87453C8.2885 7.39358 8.64568 9.38982 9.35297 10.7649C10.3017 12.6072 12.4843 14.4962 13.8424 15.555C14.5271 16.0915 15.473 16.0915 16.1577 15.555C17.5172 14.4962 19.6998 12.6072 20.6471 10.7649C21.3544 9.39123 21.7116 7.39358 21.8894 5.87453C22.0264 4.68864 21.0749 3.70605 19.8833 3.70605H10.1167Z" fill="#FB2B2B"/>
<path fill-rule="evenodd" clip-rule="evenodd" d="M18.9489 23.4702C18.7654 22.314 18.4929 21.2185 18.1372 20.5281C17.8576 19.9846 17.3099 19.2928 16.5588 18.5418C16.0618 18.0487 15.5417 17.5795 15.0002 17.1356C14.5033 17.545 13.9555 18.0265 13.4416 18.5418C12.6906 19.2928 12.1428 19.9846 11.8633 20.5281C11.5075 21.2185 11.2364 22.314 11.0515 23.4702H18.9489ZM19.8835 26.2938C21.075 26.2938 22.0266 25.3098 21.8882 24.1267C21.7117 22.6062 21.3546 20.6086 20.6473 19.2349C19.6986 17.3926 17.516 15.5036 16.1579 14.4448C15.8279 14.1851 15.4201 14.0439 15.0002 14.0439C14.5803 14.0439 14.1726 14.1851 13.8426 14.4448C12.483 15.5036 10.3019 17.3926 9.35315 19.2349C8.64586 20.6086 8.28868 22.6062 8.1108 24.1267C7.97386 25.3098 8.92539 26.2938 10.1169 26.2938H19.8835Z" fill="#FB2B2B"/>
<path d="M10.7649 23.1176C10.7649 23.1176 13.5884 21 15.0002 21C16.412 21 19.2355 23.1176 19.2355 23.1176V23.8235H10.7649V23.1176Z" fill="#FB2B2B"/>
<path fill-rule="evenodd" clip-rule="evenodd" d="M6.52954 4.41176C6.52954 4.03734 6.67828 3.67825 6.94304 3.4135C7.20779 3.14874 7.56688 3 7.94131 3H22.059C22.4334 3 22.7925 3.14874 23.0572 3.4135C23.322 3.67825 23.4707 4.03734 23.4707 4.41176C23.4707 4.78619 23.322 5.14528 23.0572 5.41003C22.7925 5.67479 22.4334 5.82353 22.059 5.82353H7.94131C7.56688 5.82353 7.20779 5.67479 6.94304 5.41003C6.67828 5.14528 6.52954 4.78619 6.52954 4.41176ZM6.52954 25.5882C6.52954 25.2138 6.67828 24.8547 6.94304 24.59C7.20779 24.3252 7.56688 24.1765 7.94131 24.1765H22.059C22.4334 24.1765 22.7925 24.3252 23.0572 24.59C23.322 24.8547 23.4707 25.2138 23.4707 25.5882C23.4707 25.9627 23.322 26.3217 23.0572 26.5865C22.7925 26.8513 22.4334 27 22.059 27H7.94131C7.56688 27 7.20779 26.8513 6.94304 26.5865C6.67828 26.3217 6.52954 25.9627 6.52954 25.5882Z" fill="#FB2B2B"/>
</g>
<defs>
<clipPath id="clip0_633_1472">
<rect width="30" height="30" fill="white"/>
</clipPath>
</defs>
</svg>
