<svg width="30" height="30" viewBox="0 0 30 30" fill="none" xmlns="http://www.w3.org/2000/svg">
<g clip-path="url(#clip0_660_247)">
<path fill-rule="evenodd" clip-rule="evenodd" d="M11.0513 6.52958C11.2349 7.68582 11.5073 8.78135 11.8631 9.4717C12.1426 10.0152 12.6904 10.7056 13.4414 11.4581C13.9567 11.9733 14.5031 12.4548 15 12.8642C15.497 12.4548 16.0447 11.9733 16.5586 11.4581C17.3097 10.7056 17.8574 10.0152 18.137 9.4717C18.4927 8.78135 18.7638 7.68582 18.9487 6.52958H11.0513ZM10.1167 3.70605C8.92521 3.70605 7.97368 4.69005 8.11203 5.87453C8.2885 7.39358 8.64568 9.38982 9.35297 10.7649C10.3017 12.6072 12.4843 14.4962 13.8424 15.555C14.5271 16.0915 15.473 16.0915 16.1577 15.555C17.5172 14.4962 19.6998 12.6072 20.6471 10.7649C21.3544 9.39123 21.7116 7.39358 21.8894 5.87453C22.0264 4.68864 21.0749 3.70605 19.8833 3.70605H10.1167Z" fill="#FB2B2B"/>
<path fill-rule="evenodd" clip-rule="evenodd" d="M18.9484 23.4702C18.7649 22.314 18.4924 21.2185 18.1367 20.5281C17.8571 19.9846 17.3094 19.2928 16.5583 18.5418C16.0613 18.0487 15.5412 17.5795 14.9997 17.1356C14.5028 17.545 13.955 18.0265 13.4411 18.5418C12.6901 19.2928 12.1423 19.9846 11.8628 20.5281C11.507 21.2185 11.236 22.314 11.051 23.4702H18.9484ZM19.883 26.2938C21.0745 26.2938 22.0261 25.3098 21.8877 24.1267C21.7113 22.6062 21.3541 20.6086 20.6468 19.2349C19.6981 17.3926 17.5155 15.5036 16.1574 14.4448C15.8274 14.1851 15.4196 14.0439 14.9997 14.0439C14.5798 14.0439 14.1721 14.1851 13.8421 14.4448C12.4825 15.5036 10.3014 17.3926 9.35266 19.2349C8.64537 20.6086 8.28819 22.6062 8.11031 24.1267C7.97337 25.3098 8.9249 26.2938 10.1164 26.2938H19.883Z" fill="#FB2B2B"/>
<path d="M10.7646 23.1176C10.7646 23.1176 13.5882 21 14.9999 21C16.4117 21 19.2352 23.1176 19.2352 23.1176V23.8235H10.7646V23.1176Z" fill="#FB2B2B"/>
<path fill-rule="evenodd" clip-rule="evenodd" d="M6.5293 4.41176C6.5293 4.03734 6.67804 3.67825 6.94279 3.4135C7.20755 3.14874 7.56664 3 7.94106 3H22.0587C22.4331 3 22.7922 3.14874 23.057 3.4135C23.3217 3.67825 23.4705 4.03734 23.4705 4.41176C23.4705 4.78619 23.3217 5.14528 23.057 5.41003C22.7922 5.67479 22.4331 5.82353 22.0587 5.82353H7.94106C7.56664 5.82353 7.20755 5.67479 6.94279 5.41003C6.67804 5.14528 6.5293 4.78619 6.5293 4.41176ZM6.5293 25.5882C6.5293 25.2138 6.67804 24.8547 6.94279 24.59C7.20755 24.3252 7.56664 24.1765 7.94106 24.1765H22.0587C22.4331 24.1765 22.7922 24.3252 23.057 24.59C23.3217 24.8547 23.4705 25.2138 23.4705 25.5882C23.4705 25.9627 23.3217 26.3217 23.057 26.5865C22.7922 26.8513 22.4331 27 22.0587 27H7.94106C7.56664 27 7.20755 26.8513 6.94279 26.5865C6.67804 26.3217 6.5293 25.9627 6.5293 25.5882Z" fill="#FB2B2B"/>
</g>
<defs>
<clipPath id="clip0_660_247">
<rect width="30" height="30" fill="white"/>
</clipPath>
</defs>
</svg>
