<svg width="30" height="30" viewBox="0 0 30 30" fill="none" xmlns="http://www.w3.org/2000/svg">
<path d="M23.1715 24.4971L26.524 27.8515C26.7 28.0275 26.9388 28.1264 27.1877 28.1264C27.4367 28.1264 27.6754 28.0275 27.8515 27.8515C28.0275 27.6754 28.1264 27.4367 28.1264 27.1877C28.1264 26.9388 28.0275 26.7 27.8515 26.524L3.47646 2.14896C3.38929 2.06179 3.28581 1.99265 3.17193 1.94548C3.05804 1.8983 2.93598 1.87402 2.81271 1.87402C2.68944 1.87402 2.56738 1.8983 2.45349 1.94548C2.3396 1.99265 2.23612 2.06179 2.14896 2.14896C2.06179 2.23612 1.99265 2.3396 1.94548 2.45349C1.8983 2.56738 1.87402 2.68944 1.87402 2.81271C1.87402 2.93598 1.8983 3.05804 1.94548 3.17193C1.99265 3.28581 2.06179 3.38929 2.14896 3.47646L8.67771 10.0052L4.26021 10.6465C3.94846 10.6914 3.65553 10.8227 3.41454 11.0255C3.17355 11.2283 2.99413 11.4945 2.89658 11.794C2.79903 12.0935 2.78724 12.4143 2.86255 12.7202C2.93786 13.026 3.09725 13.3046 3.32271 13.5246L7.93896 18.0246L6.84958 24.3752C6.79664 24.6855 6.83152 25.0044 6.9503 25.2959C7.06908 25.5874 7.26702 25.8398 7.52174 26.0247C7.77647 26.2096 8.07783 26.3196 8.39177 26.3422C8.70572 26.3648 9.01973 26.2992 9.29833 26.1527L15.0002 23.1565L20.704 26.1565C20.9735 26.2984 21.2764 26.3647 21.5805 26.3483C21.8847 26.332 22.1788 26.2337 22.4316 26.0637C22.6843 25.8938 22.8864 25.6586 23.0164 25.3831C23.1463 25.1076 23.1992 24.8021 23.1696 24.499M22.0633 18.0246L22.0765 18.1033L11.6477 7.66896L13.489 3.93771C13.6283 3.65541 13.8439 3.41773 14.1113 3.25154C14.3787 3.08535 14.6873 2.99727 15.0021 2.99727C15.3169 2.99727 15.6255 3.08535 15.8929 3.25154C16.1603 3.41773 16.3758 3.65541 16.5152 3.93771L19.3671 9.71833L25.744 10.6446C26.0557 10.6895 26.3486 10.8209 26.5896 11.0237C26.8306 11.2265 27.01 11.4927 27.1076 11.7922C27.2051 12.0916 27.2169 12.4124 27.1416 12.7183C27.0663 13.0241 26.9069 13.3028 26.6815 13.5227L22.0633 18.0246Z" fill="#FB2B2B"/>
</svg>
