<svg width="30" height="30" viewBox="0 0 30 30" fill="none" xmlns="http://www.w3.org/2000/svg">
<path d="M13.8661 9.22737C13.5037 9.22725 13.1523 9.10263 12.8708 8.87438C12.5893 8.64612 12.3948 8.32809 12.3198 7.97353C10.7147 8.55428 9.34366 9.64444 8.41621 11.0775C7.48876 12.5106 7.05583 14.2079 7.18354 15.9101C7.31124 17.6123 7.99256 19.226 9.12345 20.5047C10.2543 21.7833 11.7727 22.6567 13.4465 22.9915C15.1204 23.3262 16.8578 23.104 18.3935 22.3586C19.9292 21.6132 21.1787 20.3857 21.9513 18.8635C22.7238 17.3413 22.977 15.6081 22.672 13.9285C22.367 12.249 21.5208 10.7154 20.2624 9.56196C19.9734 9.29927 19.793 8.93802 19.7567 8.54916C19.7204 8.16029 19.8308 7.77191 20.0662 7.46027C19.0556 6.80773 17.9284 6.35665 16.7466 6.13184C16.7103 6.39752 16.6066 6.6495 16.4454 6.86379L15.1255 8.60233C14.9776 8.79614 14.7871 8.95332 14.5687 9.0617C14.3503 9.17009 14.1099 9.22677 13.8661 9.22737ZM9.17501 15.9138C9.0499 15.9108 8.93093 15.8589 8.84352 15.7694C8.7561 15.6798 8.70717 15.5596 8.70717 15.4344C8.70717 15.3093 8.7561 15.1891 8.84352 15.0995C8.93093 15.01 9.0499 14.9581 9.17501 14.9551H10.0765C10.2017 14.9581 10.3206 15.01 10.408 15.0995C10.4954 15.1891 10.5444 15.3093 10.5444 15.4344C10.5444 15.5596 10.4954 15.6798 10.408 15.7694C10.3206 15.8589 10.2017 15.9108 10.0765 15.9138H9.17501ZM11.6374 19.4016L10.9999 20.0388C10.9555 20.084 10.9026 20.12 10.8442 20.1446C10.7859 20.1693 10.7232 20.1821 10.6598 20.1824C10.5965 20.1826 10.5337 20.1704 10.4751 20.1462C10.4165 20.1221 10.3633 20.0866 10.3185 20.0418C10.2737 19.9969 10.2383 19.9437 10.2142 19.8851C10.1901 19.8265 10.1779 19.7637 10.1782 19.7003C10.1786 19.637 10.1915 19.5743 10.2162 19.516C10.2409 19.4576 10.2769 19.4047 10.3221 19.3604L10.9597 18.7232C11.0499 18.6347 11.1714 18.5855 11.2978 18.5861C11.4242 18.5868 11.5452 18.6373 11.6345 18.7267C11.7238 18.8161 11.7743 18.9372 11.7748 19.0636C11.7754 19.1899 11.726 19.3114 11.6374 19.4016ZM11.839 12.2495C11.749 12.3393 11.627 12.3897 11.4998 12.3896C11.3727 12.3896 11.2508 12.339 11.1608 12.2491L10.5237 11.6116C10.4784 11.5672 10.4425 11.5143 10.4178 11.4559C10.3932 11.3975 10.3804 11.3349 10.3801 11.2715C10.3798 11.2081 10.3921 11.1454 10.4162 11.0868C10.4404 11.0282 10.4759 10.975 10.5207 10.9302C10.5655 10.8854 10.6188 10.85 10.6774 10.8259C10.736 10.8018 10.7988 10.7896 10.8621 10.7899C10.9255 10.7903 10.9882 10.8031 11.0465 10.8278C11.1049 10.8525 11.1577 10.8885 11.2021 10.9338L11.8393 11.5713C11.9291 11.6613 11.9796 11.7833 11.9795 11.9105C11.9794 12.0376 11.9289 12.1596 11.839 12.2495ZM15.4704 21.5359C15.4719 21.5999 15.4607 21.6635 15.4373 21.723C15.4139 21.7825 15.3788 21.8367 15.3342 21.8825C15.2895 21.9283 15.2361 21.9646 15.1772 21.9895C15.1182 22.0143 15.0549 22.0271 14.991 22.0271C14.927 22.0271 14.8637 22.0143 14.8048 21.9895C14.7459 21.9646 14.6925 21.9283 14.6478 21.8825C14.6032 21.8367 14.5681 21.7825 14.5447 21.723C14.5213 21.6635 14.5101 21.5999 14.5116 21.5359V20.6344C14.5101 20.5705 14.5213 20.5069 14.5447 20.4473C14.5681 20.3878 14.6032 20.3336 14.6478 20.2878C14.6925 20.242 14.7459 20.2057 14.8048 20.1808C14.8637 20.156 14.927 20.1432 14.991 20.1432C15.0549 20.1432 15.1182 20.156 15.1772 20.1808C15.2361 20.2057 15.2895 20.242 15.3342 20.2878C15.3788 20.3336 15.4139 20.3878 15.4373 20.4473C15.4607 20.5069 15.4719 20.5705 15.4704 20.6344V21.5359ZM20.9197 14.9551C21.0448 14.9581 21.1638 15.01 21.2512 15.0995C21.3386 15.1891 21.3875 15.3093 21.3875 15.4344C21.3875 15.5596 21.3386 15.6798 21.2512 15.7694C21.1638 15.8589 21.0448 15.9108 20.9197 15.9138H20.0182C19.9543 15.9154 19.8907 15.9041 19.8312 15.8807C19.7716 15.8573 19.7174 15.8223 19.6716 15.7776C19.6259 15.7329 19.5895 15.6796 19.5647 15.6206C19.5398 15.5617 19.527 15.4984 19.527 15.4344C19.527 15.3705 19.5398 15.3072 19.5647 15.2482C19.5895 15.1893 19.6259 15.1359 19.6716 15.0913C19.7174 15.0466 19.7716 15.0115 19.8312 14.9882C19.8907 14.9648 19.9543 14.9535 20.0182 14.9551H20.9197ZM18.3539 11.3285L18.9915 10.6913C19.0358 10.6461 19.0887 10.6102 19.1471 10.5855C19.2055 10.5609 19.2682 10.5481 19.3315 10.5478C19.3949 10.5475 19.4577 10.5598 19.5162 10.5839C19.5748 10.6081 19.628 10.6436 19.6728 10.6884C19.7176 10.7332 19.7531 10.7865 19.7771 10.8451C19.8012 10.9037 19.8134 10.9665 19.8131 11.0298C19.8128 11.0932 19.7999 11.1558 19.7752 11.2142C19.7505 11.2725 19.7145 11.3254 19.6692 11.3698L19.0317 12.0069C18.9873 12.0522 18.9344 12.0881 18.876 12.1128C18.8177 12.1374 18.755 12.1502 18.6916 12.1505C18.6283 12.1508 18.5655 12.1385 18.5069 12.1144C18.4483 12.0902 18.3951 12.0547 18.3503 12.0099C18.3055 11.9651 18.2701 11.9118 18.246 11.8532C18.2219 11.7946 18.2097 11.7318 18.21 11.6685C18.2104 11.6051 18.2233 11.5424 18.248 11.4841C18.2726 11.4257 18.3087 11.3729 18.3539 11.3285ZM18.1909 18.6007C18.281 18.5111 18.403 18.4608 18.5301 18.4608C18.6572 18.4608 18.7792 18.5111 18.8693 18.6007L19.5068 19.2382C19.5948 19.3286 19.6436 19.45 19.6427 19.5761C19.6419 19.7022 19.5914 19.8229 19.5022 19.9121C19.4131 20.0012 19.2924 20.0517 19.1663 20.0526C19.0402 20.0534 18.9188 20.0046 18.8284 19.9167L18.1909 19.2791C18.1011 19.189 18.0507 19.067 18.0507 18.9399C18.0507 18.8127 18.1011 18.6908 18.1909 18.6007ZM15.4704 11.0306V14.6696L16.5637 13.6207C16.6087 13.5752 16.6624 13.5391 16.7216 13.5147C16.7808 13.4903 16.8442 13.4779 16.9082 13.4784C16.9722 13.4789 17.0355 13.4922 17.0943 13.5175C17.1531 13.5428 17.2062 13.5797 17.2506 13.6258C17.2949 13.672 17.3295 13.7266 17.3524 13.7864C17.3753 13.8462 17.386 13.9099 17.3839 13.9739C17.3817 14.0379 17.3668 14.1008 17.34 14.1589C17.3131 14.217 17.2749 14.2692 17.2276 14.3123L15.3231 16.1403C15.2553 16.2055 15.1699 16.2492 15.0774 16.2662C14.9849 16.2832 14.8895 16.2725 14.803 16.2357C14.7166 16.1988 14.6428 16.1373 14.591 16.0589C14.5392 15.9805 14.5117 15.8885 14.5117 15.7945V11.0306C14.5148 10.9055 14.5666 10.7865 14.6562 10.6991C14.7457 10.6117 14.8659 10.5627 14.9911 10.5627C15.1162 10.5627 15.2364 10.6117 15.326 10.6991C15.4156 10.7865 15.4673 10.9055 15.4704 11.0306Z" fill="#4DAC4D"/>
<path d="M21.7506 7.93837C21.6291 7.82697 21.4683 7.7684 21.3036 7.77555C21.1389 7.78271 20.9837 7.855 20.8723 7.97652C20.7609 8.09804 20.7024 8.25884 20.7095 8.42355C20.7167 8.58825 20.789 8.74337 20.9105 8.85478C22.3832 10.2052 23.3508 12.0178 23.6533 13.9929C23.9559 15.9679 23.5751 17.9871 22.5742 19.7164C21.5732 21.4457 20.0119 22.7815 18.1485 23.5028C16.2852 24.2242 14.2314 24.2879 12.327 23.6834C10.4225 23.0789 8.78141 21.8425 7.67516 20.1785C6.56892 18.5146 6.06378 16.5229 6.2433 14.5329C6.42283 12.5429 7.27626 10.6738 8.66243 9.23471C10.0486 7.79564 11.8845 6.87285 13.8664 6.61896L13.3716 7.27064C13.2719 7.40192 13.2284 7.56743 13.2507 7.73078C13.273 7.89412 13.3593 8.04191 13.4906 8.14163C13.6218 8.24136 13.7874 8.28485 13.9507 8.26253C14.114 8.24022 14.2618 8.15394 14.3616 8.02266L15.6819 6.2838C15.774 6.16243 15.8184 6.01147 15.8066 5.85957C15.7947 5.70766 15.7275 5.56539 15.6177 5.45975L14.0435 3.94693C13.9246 3.83267 13.7652 3.77031 13.6004 3.77356C13.4356 3.77681 13.2788 3.84541 13.1645 3.96427C13.0503 4.08312 12.9879 4.2425 12.9911 4.40734C12.9944 4.57218 13.063 4.72897 13.1818 4.84323L13.7417 5.38132C11.4755 5.66343 9.37355 6.71119 7.78412 8.35107C6.1947 9.99095 5.21311 12.1246 5.00193 14.3985C4.79076 16.6725 5.36266 18.9504 6.62293 20.8549C7.88321 22.7594 9.75622 24.1763 11.9318 24.8709C14.1073 25.5655 16.4549 25.4961 18.5856 24.6743C20.7164 23.8524 22.5024 22.3274 23.6481 20.3518C24.7937 18.3762 25.2301 16.0685 24.885 13.811C24.5399 11.5535 23.4341 9.48154 21.7506 7.93837Z" fill="#4DAC4D"/>
</svg>
