<svg width="30" height="30" viewBox="0 0 30 30" fill="none" xmlns="http://www.w3.org/2000/svg">
<path d="M14 14.5C14 14.1022 14.158 13.7206 14.4393 13.4393C14.7206 13.158 15.1022 13 15.5 13C15.8978 13 16.2794 13.158 16.5607 13.4393C16.842 13.7206 17 14.1022 17 14.5C17 14.8978 16.842 15.2794 16.5607 15.5607C16.2794 15.842 15.8978 16 15.5 16C15.1022 16 14.7206 15.842 14.4393 15.5607C14.158 15.2794 14 14.8978 14 14.5Z" fill="#FB2B2B"/>
<path fill-rule="evenodd" clip-rule="evenodd" d="M15.5 9C14.0413 9 12.6424 9.57946 11.6109 10.6109C10.5795 11.6424 10 13.0413 10 14.5C10 15.9587 10.5795 17.3576 11.6109 18.3891C12.6424 19.4205 14.0413 20 15.5 20C16.9587 20 18.3576 19.4205 19.3891 18.3891C20.4205 17.3576 21 15.9587 21 14.5C21 13.0413 20.4205 11.6424 19.3891 10.6109C18.3576 9.57946 16.9587 9 15.5 9ZM15.5 12.1429C14.8748 12.1429 14.2753 12.3912 13.8332 12.8332C13.3912 13.2753 13.1429 13.8748 13.1429 14.5C13.1429 15.1252 13.3912 15.7247 13.8332 16.1668C14.2753 16.6088 14.8748 16.8571 15.5 16.8571C16.1252 16.8571 16.7247 16.6088 17.1668 16.1668C17.6088 15.7247 17.8571 15.1252 17.8571 14.5C17.8571 13.8748 17.6088 13.2753 17.1668 12.8332C16.7247 12.3912 16.1252 12.1429 15.5 12.1429Z" fill="#FB2B2B"/>
<path fill-rule="evenodd" clip-rule="evenodd" d="M15.5 3C12.45 3 9.52494 4.2116 7.36827 6.36827C5.2116 8.52494 4 11.45 4 14.5C4 17.55 5.2116 20.4751 7.36827 22.6317C9.52494 24.7884 12.45 26 15.5 26C18.55 26 21.4751 24.7884 23.6317 22.6317C25.7884 20.4751 27 17.55 27 14.5C27 11.45 25.7884 8.52494 23.6317 6.36827C21.4751 4.2116 18.55 3 15.5 3ZM8.6 14.5C8.6 12.67 9.32696 10.915 10.621 9.62096C11.915 8.32696 13.67 7.6 15.5 7.6C17.33 7.6 19.085 8.32696 20.379 9.62096C21.673 10.915 22.4 12.67 22.4 14.5C22.4 16.33 21.673 18.085 20.379 19.379C19.085 20.673 17.33 21.4 15.5 21.4C13.67 21.4 11.915 20.673 10.621 19.379C9.32696 18.085 8.6 16.33 8.6 14.5Z" fill="#FB2B2B"/>
</svg>
