<svg width="30" height="30" viewBox="0 0 30 30" fill="none" xmlns="http://www.w3.org/2000/svg">
<path fill-rule="evenodd" clip-rule="evenodd" d="M15 27.5C21.9038 27.5 27.5 21.9038 27.5 15C27.5 8.09625 21.9038 2.5 15 2.5C8.09625 2.5 2.5 8.09625 2.5 15C2.5 21.9038 8.09625 27.5 15 27.5ZM15 11.25C15.663 11.25 16.2989 10.9866 16.7678 10.5178C17.2366 10.0489 17.5 9.41304 17.5 8.75C17.5 8.08696 17.2366 7.45107 16.7678 6.98223C16.2989 6.51339 15.663 6.25 15 6.25C14.337 6.25 13.7011 6.51339 13.2322 6.98223C12.7634 7.45107 12.5 8.08696 12.5 8.75C12.5 9.41304 12.7634 10.0489 13.2322 10.5178C13.7011 10.9866 14.337 11.25 15 11.25ZM7.86625 11.6375C7.6392 11.5494 7.38675 11.5531 7.16237 11.6478C6.93799 11.7425 6.75928 11.9209 6.66409 12.145C6.56889 12.3692 6.56467 12.6217 6.65234 12.8489C6.74 13.0761 6.91265 13.2603 7.13375 13.3625L7.13625 13.3638L7.13875 13.365L7.15125 13.37L7.19125 13.3875C7.42764 13.4861 7.66603 13.5799 7.90625 13.6688C8.38125 13.85 9.04875 14.0913 9.815 14.3313C11.05 14.7213 12.61 15.1313 14.0625 15.2663V16.8163C14.0625 17.3538 13.9075 17.8825 13.6163 18.3363L10.4613 23.2425C10.3946 23.3461 10.349 23.4618 10.3271 23.583C10.3051 23.7042 10.3073 23.8285 10.3334 23.9489C10.3595 24.0692 10.4091 24.1833 10.4793 24.2845C10.5495 24.3857 10.6389 24.4721 10.7425 24.5388C10.8461 24.6054 10.9618 24.651 11.083 24.6729C11.2042 24.6949 11.3285 24.6927 11.4489 24.6666C11.5692 24.6405 11.6833 24.5909 11.7845 24.5207C11.8857 24.4505 11.9721 24.3611 12.0388 24.2575L15.0013 19.65L17.9613 24.2575C18.0279 24.3611 18.1143 24.4505 18.2155 24.5207C18.3167 24.5909 18.4308 24.6405 18.5511 24.6666C18.6715 24.6927 18.7958 24.6949 18.917 24.6729C19.0382 24.651 19.1539 24.6054 19.2575 24.5388C19.3611 24.4721 19.4505 24.3857 19.5207 24.2845C19.5909 24.1833 19.6405 24.0692 19.6666 23.9489C19.6927 23.8285 19.6949 23.7042 19.6729 23.583C19.651 23.4618 19.6054 23.3461 19.5388 23.2425L16.3838 18.3363C16.0922 17.8825 15.9373 17.3544 15.9375 16.815V15.2663C17.39 15.1313 18.95 14.7213 20.1863 14.3313C21.0726 14.0516 21.9475 13.7368 22.8088 13.3875L22.85 13.37L22.8625 13.365L22.865 13.3638C23.0899 13.2641 23.2666 13.08 23.357 12.8513C23.4474 12.6226 23.4443 12.3675 23.3484 12.141C23.2524 11.9145 23.0713 11.7348 22.8441 11.6406C22.6169 11.5464 22.3618 11.5453 22.1338 11.6375L22.125 11.6413L22.0913 11.655L21.9538 11.7113C21.1877 12.0176 20.4105 12.2953 19.6238 12.5438C18.1513 13.0063 16.3888 13.4375 15 13.4375C13.6113 13.4375 11.85 13.0063 10.3775 12.5438C9.54362 12.2801 8.72048 11.9836 7.91 11.655L7.875 11.6413L7.86625 11.6375Z" fill="#FB2B2B"/>
</svg>
