<svg width="30" height="30" viewBox="0 0 30 30" fill="none" xmlns="http://www.w3.org/2000/svg">
<path d="M8.74025 18.128C8.40873 18.128 8.09078 18.2596 7.85636 18.4941C7.62194 18.7285 7.49025 19.0464 7.49025 19.378V21.6055C5.87909 19.7835 4.98991 17.4351 4.99025 15.003C4.9897 14.6353 5.01141 14.268 5.05525 13.903C5.0791 13.7381 5.06974 13.5701 5.02774 13.4088C4.98573 13.2476 4.91192 13.0964 4.81064 12.9641C4.70936 12.8319 4.58265 12.7211 4.43797 12.6385C4.2933 12.5559 4.13356 12.503 3.96816 12.4831C3.80276 12.4631 3.63503 12.4763 3.47483 12.5221C3.31463 12.5678 3.1652 12.6452 3.03531 12.7495C2.90542 12.8538 2.7977 12.9831 2.71847 13.1296C2.63925 13.2762 2.59013 13.4371 2.574 13.603C2.51754 14.0675 2.48957 14.535 2.49025 15.003C2.49195 17.9857 3.56401 20.8688 5.5115 23.128H3.74025C3.40873 23.128 3.09078 23.2596 2.85636 23.4941C2.62194 23.7285 2.49025 24.0464 2.49025 24.378C2.49025 24.7095 2.62194 25.0274 2.85636 25.2618C3.09078 25.4963 3.40873 25.628 3.74025 25.628H8.74025C8.93573 25.6254 9.12778 25.5762 9.30042 25.4845C9.47305 25.3927 9.62127 25.2611 9.73275 25.1005C9.7465 25.0817 9.76525 25.0667 9.779 25.0467C9.78775 25.0342 9.78775 25.0192 9.79525 25.0067C9.85478 24.9062 9.89941 24.7975 9.92775 24.6842C9.9465 24.6204 9.95988 24.5552 9.96775 24.4892C9.9715 24.4517 9.99025 24.418 9.99025 24.378V19.378C9.99025 19.0464 9.85855 18.7285 9.62413 18.4941C9.38971 18.2596 9.07177 18.128 8.74025 18.128ZM10.6152 7.50295H8.3865C10.2089 5.89172 12.5577 5.00254 14.9902 5.00295C15.3579 5.00215 15.7253 5.02427 16.0902 5.0692C16.4196 5.10898 16.7513 5.0163 17.0123 4.81153C17.2733 4.60677 17.4423 4.30669 17.4821 3.97733C17.5219 3.64796 17.4292 3.31628 17.2245 3.05525C17.0197 2.79423 16.7196 2.62523 16.3902 2.58545C15.9257 2.52958 15.4582 2.50203 14.9902 2.50295C12.0075 2.50466 9.12444 3.57672 6.86525 5.5242V3.75295C6.86525 3.42143 6.73355 3.10349 6.49913 2.86907C6.26471 2.63465 5.94677 2.50295 5.61525 2.50295C5.28373 2.50295 4.96578 2.63465 4.73136 2.86907C4.49694 3.10349 4.36525 3.42143 4.36525 3.75295V8.75295C4.37296 8.83568 4.3893 8.91737 4.414 8.9967C4.44413 9.15094 4.504 9.29783 4.59025 9.4292L4.60525 9.45045C4.6877 9.57037 4.791 9.67453 4.91025 9.75795C4.924 9.76795 4.9315 9.78295 4.94525 9.79295C4.96275 9.80545 4.98275 9.8092 5.0015 9.8192C5.07266 9.8619 5.14806 9.89709 5.2265 9.9242C5.33176 9.96091 5.4415 9.98319 5.55275 9.99045C5.57525 9.99045 5.59275 10.003 5.61525 10.003H10.6152C10.9468 10.003 11.2647 9.87126 11.4991 9.63684C11.7336 9.40242 11.8652 9.08447 11.8652 8.75295C11.8652 8.42143 11.7336 8.10349 11.4991 7.86907C11.2647 7.63465 10.9468 7.50295 10.6152 7.50295ZM25.5652 21.008C25.535 20.8541 25.4752 20.7077 25.389 20.5767L25.3752 20.5555C25.2924 20.4354 25.1887 20.3313 25.069 20.248C25.0552 20.238 25.049 20.223 25.034 20.213C25.0215 20.2042 25.0052 20.2042 24.9915 20.1955C24.8329 20.107 24.659 20.0494 24.479 20.0255C24.439 20.0217 24.4052 20.003 24.3652 20.003H19.3652C19.0337 20.003 18.7158 20.1346 18.4814 20.3691C18.2469 20.6035 18.1152 20.9214 18.1152 21.253C18.1152 21.5845 18.2469 21.9024 18.4814 22.1368C18.7158 22.3713 19.0337 22.503 19.3652 22.503H21.5927C19.7707 24.114 17.4224 25.0032 14.9902 25.003C14.6225 25.0033 14.2552 24.9808 13.8902 24.9355C13.5609 24.8957 13.2292 24.9884 12.9682 25.1931C12.7071 25.3979 12.5382 25.698 12.4984 26.0273C12.4586 26.3567 12.5513 26.6884 12.756 26.9494C12.9608 27.2104 13.2609 27.3794 13.5902 27.4192C14.0548 27.4751 14.5223 27.503 14.9902 27.503C17.973 27.5012 20.856 26.4292 23.1152 24.4817V26.253C23.1152 26.5845 23.2469 26.9024 23.4814 27.1368C23.7158 27.3713 24.0337 27.503 24.3652 27.503C24.6968 27.503 25.0147 27.3713 25.2491 27.1368C25.4835 26.9024 25.6152 26.5845 25.6152 26.253V21.253C25.6071 21.1702 25.5904 21.0872 25.5652 21.008ZM26.2402 6.87795C26.5718 6.87795 26.8897 6.74626 27.1241 6.51184C27.3585 6.27742 27.4902 5.95947 27.4902 5.62795C27.4902 5.29643 27.3585 4.97849 27.1241 4.74407C26.8897 4.50965 26.5718 4.37795 26.2402 4.37795H21.2402C21.1588 4.38591 21.0784 4.40224 21.0002 4.4267L20.9915 4.42795C20.8399 4.4586 20.6957 4.518 20.5665 4.60295L20.5415 4.6192C20.422 4.70179 20.3183 4.80508 20.2352 4.9242C20.2252 4.9367 20.2102 4.9442 20.2002 4.95795C20.1915 4.97045 20.1915 4.9867 20.1827 5.00045C20.0937 5.16011 20.0359 5.33535 20.0127 5.5167C20.009 5.5542 19.9902 5.58795 19.9902 5.62795V10.628C19.9902 10.9595 20.1219 11.2774 20.3564 11.5118C20.5908 11.7463 20.9087 11.878 21.2402 11.878C21.5718 11.878 21.8897 11.7463 22.1241 11.5118C22.3585 11.2774 22.4902 10.9595 22.4902 10.628V8.3992C24.1014 10.2217 24.9905 12.5704 24.9902 15.003C24.9904 15.3706 24.9683 15.738 24.924 16.103C24.8845 16.4319 24.977 16.7631 25.1814 17.0239C25.3857 17.2848 25.6851 17.4539 26.014 17.4942C26.0646 17.5001 26.1155 17.5031 26.1665 17.503C26.4717 17.5024 26.7661 17.3903 26.9943 17.1876C27.2224 16.985 27.3686 16.7059 27.4052 16.403C27.4621 15.9385 27.4905 15.4709 27.4902 15.003C27.4885 12.0202 26.4165 9.13715 24.469 6.87795H26.2402Z" fill="#4DAC4D"/>
</svg>
