<svg width="30" height="30" viewBox="0 0 30 30" fill="none" xmlns="http://www.w3.org/2000/svg">
<path d="M6 6C6 5.20435 6.31607 4.44129 6.87868 3.87868C7.44129 3.31607 8.20435 3 9 3H15.879C16.6746 3.00017 17.4375 3.31635 18 3.879L23.121 9C23.6836 9.56248 23.9998 10.3254 24 11.121V24C24 24.7956 23.6839 25.5587 23.1213 26.1213C22.5587 26.6839 21.7956 27 21 27H18.708C20.2407 25.2854 21.0589 23.0491 20.9946 20.7501C20.9302 18.4512 19.9882 16.2642 18.362 14.638C16.7358 13.0118 14.5488 12.0698 12.2499 12.0054C9.95094 11.9411 7.71462 12.7593 6 14.292V6Z" fill="#FB2B2B"/>
<path fill-rule="evenodd" clip-rule="evenodd" d="M12.0001 15C10.9421 14.9998 9.90282 15.2795 8.98773 15.8105C8.07265 16.3415 7.31424 17.1051 6.78942 18.0237C6.26461 18.9424 5.99203 19.9835 5.99935 21.0415C6.00666 22.0994 6.29359 23.1367 6.83106 24.048L4.93956 25.938C4.80019 26.0773 4.68962 26.2426 4.61416 26.4246C4.5387 26.6066 4.49983 26.8017 4.49976 26.9987C4.49969 27.1957 4.53842 27.3909 4.61376 27.5729C4.68909 27.755 4.79954 27.9204 4.93881 28.0597C5.07808 28.1991 5.24343 28.3097 5.42543 28.3851C5.60743 28.4606 5.80251 28.4995 5.99953 28.4996C6.19655 28.4996 6.39166 28.4609 6.57371 28.3856C6.75576 28.3102 6.92119 28.1998 7.06056 28.0605L8.95206 26.169C9.74683 26.6374 10.6389 26.9163 11.559 26.9839C12.479 27.0515 13.4023 26.906 14.257 26.5588C15.1117 26.2115 15.8748 25.6719 16.487 24.9817C17.0992 24.2916 17.5441 23.4696 17.7869 22.5796C18.0298 21.6896 18.0642 20.7556 17.8874 19.8502C17.7106 18.9447 17.3274 18.0923 16.7676 17.359C16.2077 16.6257 15.4864 16.0314 14.6595 15.6223C13.8327 15.2132 12.9226 15.0002 12.0001 15ZM9.00006 21C9.00006 20.2044 9.31613 19.4413 9.87874 18.8787C10.4413 18.3161 11.2044 18 12.0001 18C12.7957 18 13.5588 18.3161 14.1214 18.8787C14.684 19.4413 15.0001 20.2044 15.0001 21C15.0001 21.7956 14.684 22.5587 14.1214 23.1213C13.5588 23.6839 12.7957 24 12.0001 24C11.2044 24 10.4413 23.6839 9.87874 23.1213C9.31613 22.5587 9.00006 21.7956 9.00006 21Z" fill="#FB2B2B"/>
</svg>
