<svg width="56" height="56" viewBox="0 0 56 56" fill="none" xmlns="http://www.w3.org/2000/svg">
<g filter="url(#filter0_d_508_922)">
<rect x="8" y="4" width="40" height="40" rx="5" fill="#F5F8FF" shape-rendering="crispEdges"/>
<path d="M26.95 24.7001L25.5 23.2751C25.3166 23.0918 25.0875 23.0001 24.8125 23.0001C24.5375 23.0001 24.3 23.1001 24.1 23.3001C23.9166 23.4835 23.825 23.7168 23.825 24.0001C23.825 24.2835 23.9166 24.5168 24.1 24.7001L26.25 26.8501C26.45 27.0501 26.6833 27.1501 26.95 27.1501C27.2166 27.1501 27.45 27.0501 27.65 26.8501L31.9 22.6001C32.0999 22.4001 32.1958 22.1668 32.1875 21.9001C32.1791 21.6335 32.0833 21.4001 31.9 21.2001C31.7 21.0001 31.4625 20.896 31.1875 20.8876C30.9125 20.8793 30.675 20.9751 30.475 21.1751L26.95 24.7001ZM24.15 33.7501L22.7 31.3001L19.95 30.7001C19.7 30.6501 19.5 30.521 19.35 30.3126C19.2 30.1043 19.1416 29.8751 19.175 29.6251L19.45 26.8001L17.575 24.6501C17.4083 24.4668 17.325 24.2501 17.325 24.0001C17.325 23.7501 17.4083 23.5335 17.575 23.3501L19.45 21.2001L19.175 18.3751C19.1416 18.1251 19.2 17.896 19.35 17.6876C19.5 17.4793 19.7 17.3501 19.95 17.3001L22.7 16.7001L24.15 14.2501C24.2833 14.0335 24.4666 13.8876 24.7 13.8126C24.9333 13.7376 25.1666 13.7501 25.4 13.8501L28 14.9501L30.6 13.8501C30.8333 13.7501 31.0666 13.7376 31.3 13.8126C31.5333 13.8876 31.7166 14.0335 31.8499 14.2501L33.3 16.7001L36.0499 17.3001C36.2999 17.3501 36.5 17.4793 36.65 17.6876C36.7999 17.896 36.8583 18.1251 36.8249 18.3751L36.5499 21.2001L38.4249 23.3501C38.5916 23.5335 38.6749 23.7501 38.6749 24.0001C38.6749 24.2501 38.5916 24.4668 38.4249 24.6501L36.5499 26.8001L36.8249 29.6251C36.8583 29.8751 36.7999 30.1043 36.65 30.3126C36.5 30.521 36.2999 30.6501 36.0499 30.7001L33.3 31.3001L31.8499 33.7501C31.7166 33.9668 31.5333 34.1126 31.3 34.1876C31.0666 34.2626 30.8333 34.2501 30.6 34.1501L28 33.0501L25.4 34.1501C25.1666 34.2501 24.9333 34.2626 24.7 34.1876C24.4666 34.1126 24.2833 33.9668 24.15 33.7501Z" fill="#4DAC4D"/>
</g>
<defs>
<filter id="filter0_d_508_922" x="0" y="0" width="56" height="56" filterUnits="userSpaceOnUse" color-interpolation-filters="sRGB">
<feFlood flood-opacity="0" result="BackgroundImageFix"/>
<feColorMatrix in="SourceAlpha" type="matrix" values="0 0 0 0 0 0 0 0 0 0 0 0 0 0 0 0 0 0 127 0" result="hardAlpha"/>
<feOffset dy="4"/>
<feGaussianBlur stdDeviation="4"/>
<feComposite in2="hardAlpha" operator="out"/>
<feColorMatrix type="matrix" values="0 0 0 0 0.0156863 0 0 0 0 0.4 0 0 0 0 0.784314 0 0 0 0.16 0"/>
<feBlend mode="normal" in2="BackgroundImageFix" result="effect1_dropShadow_508_922"/>
<feBlend mode="normal" in="SourceGraphic" in2="effect1_dropShadow_508_922" result="shape"/>
</filter>
</defs>
</svg>
