<svg width="30" height="30" viewBox="0 0 30 30" fill="none" xmlns="http://www.w3.org/2000/svg">
<path d="M6.58316 8.33355C6.50088 8.46068 6.42992 8.59443 6.37104 8.73335C5.89476 8.2585 5.57281 7.65719 5.44553 7.00478C5.31825 6.35236 5.39129 5.67783 5.6555 5.06569C5.91972 4.45356 6.36336 3.93103 6.93085 3.56358C7.49834 3.19613 8.16445 3.00008 8.84572 3C9.527 2.99992 10.1932 3.19581 10.7607 3.56314C11.3283 3.93046 11.7721 4.45288 12.0364 5.06495C12.3008 5.67703 12.374 6.35154 12.2469 7.00399C12.1198 7.65644 11.798 8.25781 11.3218 8.73278C11.0683 8.1325 10.5901 7.64862 9.98427 7.37917C10.1848 7.1642 10.317 6.89706 10.3648 6.61022C10.4125 6.32339 10.3737 6.02922 10.2531 5.76347C10.1325 5.49772 9.93536 5.27184 9.68554 5.11329C9.43573 4.95475 9.14404 4.87036 8.84595 4.8704C8.54786 4.87044 8.25619 4.95489 8.00642 5.1135C7.75665 5.2721 7.55952 5.49803 7.43901 5.7638C7.31849 6.02958 7.27979 6.32377 7.32759 6.61059C7.37539 6.89741 7.50764 7.16452 7.70827 7.37944C7.24833 7.58754 6.85825 7.91833 6.58316 8.33355ZM7.22957 8.73959C7.13001 8.89157 7.05371 9.05688 7.00308 9.23031C7.55406 9.57205 8.19359 9.75352 8.84664 9.75343C9.49969 9.75334 10.1392 9.57171 10.6901 9.22983C10.5874 8.88451 10.385 8.5753 10.1068 8.33917C9.82874 8.10304 9.48676 7.94997 9.12178 7.89826C8.7568 7.84656 8.38427 7.8984 8.04872 8.0476C7.71316 8.1968 7.42878 8.43703 7.22957 8.73959ZM9.61538 6.37911C9.61538 6.2308 9.57027 6.08582 9.48575 5.96251C9.40122 5.8392 9.28108 5.74309 9.14053 5.68633C8.99997 5.62958 8.8453 5.61473 8.69608 5.64366C8.54687 5.6726 8.4098 5.74401 8.30223 5.84888C8.19465 5.95375 8.12138 6.08736 8.0917 6.23282C8.06202 6.37827 8.07726 6.52904 8.13548 6.66606C8.1937 6.80308 8.29229 6.92019 8.41879 7.00258C8.54529 7.08498 8.69401 7.12896 8.84615 7.12896C9.0501 7.12873 9.24562 7.04965 9.38982 6.90908C9.53403 6.7685 9.61515 6.57791 9.61538 6.37911ZM6.53846 13.1278V15.0024H11.1538V13.1278C11.1539 13.0785 11.1439 13.0298 11.1246 12.9843C11.1053 12.9388 11.0769 12.8974 11.0412 12.8626C11.0055 12.8278 10.9631 12.8002 10.9164 12.7814C10.8698 12.7625 10.8197 12.7528 10.7692 12.7528H6.92308C6.87256 12.7528 6.82255 12.7625 6.77588 12.7814C6.72921 12.8002 6.6868 12.8278 6.65108 12.8626C6.61537 12.8974 6.58704 12.9388 6.56771 12.9843C6.54839 13.0298 6.53845 13.0785 6.53846 13.1278ZM23.0769 12.7528H19.2308C19.1803 12.7528 19.1302 12.7625 19.0836 12.7814C19.0369 12.8002 18.9945 12.8278 18.9588 12.8626C18.9231 12.8974 18.8947 12.9388 18.8754 12.9843C18.8561 13.0298 18.8461 13.0785 18.8462 13.1278V15.0024H23.4615V13.1278C23.4616 13.0785 23.4516 13.0298 23.4323 12.9843C23.413 12.9388 23.3846 12.8974 23.3489 12.8626C23.3132 12.8278 23.2708 12.8002 23.2241 12.7814C23.1775 12.7625 23.1274 12.7528 23.0769 12.7528ZM18.8462 18.7612C18.8449 19.6903 18.4904 20.5859 17.851 21.2749C17.2116 21.9639 16.3328 22.3974 15.3846 22.4914V27C17.5589 26.9012 19.6108 25.9904 21.1146 24.4564C22.6185 22.9224 23.4589 20.883 23.4615 18.7612V15.7522H18.8462V18.7612ZM11.1538 18.7612V15.7522H6.53846V18.7612C6.54111 20.883 7.38151 22.9224 8.88536 24.4564C10.3892 25.9904 12.4411 26.9012 14.6154 27V22.4914C13.6672 22.3974 12.7884 21.9639 12.149 21.2749C11.5096 20.5859 11.1551 19.6903 11.1538 18.7612ZM5.38462 9.75343C5.3341 9.75342 5.28408 9.76311 5.23741 9.78195C5.19074 9.80078 5.14834 9.8284 5.11262 9.86322C5.0769 9.89804 5.04857 9.93937 5.02925 9.98487C5.00993 10.0304 4.99999 10.0791 5 10.1284V12.3779C5 12.4773 5.04052 12.5727 5.11265 12.643C5.18478 12.7133 5.28261 12.7528 5.38462 12.7528C5.48662 12.7528 5.58445 12.7133 5.65658 12.643C5.72871 12.5727 5.76923 12.4773 5.76923 12.3779V10.1284C5.76924 10.0791 5.7593 10.0304 5.73998 9.98487C5.72066 9.93937 5.69233 9.89804 5.65661 9.86322C5.62089 9.8284 5.57849 9.80078 5.53182 9.78195C5.48515 9.76311 5.43513 9.75342 5.38462 9.75343ZM24.6154 10.5033C24.5649 10.5033 24.5149 10.513 24.4682 10.5318C24.4215 10.5506 24.3791 10.5783 24.3434 10.6131C24.3077 10.6479 24.2793 10.6892 24.26 10.7347C24.2407 10.7802 24.2308 10.829 24.2308 10.8782V13.1278C24.2308 13.2272 24.2713 13.3226 24.3434 13.3929C24.4156 13.4632 24.5134 13.5027 24.6154 13.5027C24.7174 13.5027 24.8152 13.4632 24.8874 13.3929C24.9595 13.3226 25 13.2272 25 13.1278V10.8782C25 10.829 24.9901 10.7802 24.9708 10.7347C24.9514 10.6892 24.9231 10.6479 24.8874 10.6131C24.8517 10.5783 24.8093 10.5506 24.7626 10.5318C24.7159 10.513 24.6659 10.5033 24.6154 10.5033ZM11.9231 9.37851V11.6281C11.9231 11.7275 11.9636 11.8229 12.0357 11.8932C12.1079 11.9635 12.2057 12.003 12.3077 12.003C12.4097 12.003 12.5075 11.9635 12.5797 11.8932C12.6518 11.8229 12.6923 11.7275 12.6923 11.6281V9.37851C12.6923 9.27907 12.6518 9.18371 12.5797 9.1134C12.5075 9.04308 12.4097 9.00358 12.3077 9.00358C12.2057 9.00358 12.1079 9.04308 12.0357 9.1134C11.9636 9.18371 11.9231 9.27907 11.9231 9.37851ZM17.6923 12.7528C17.7428 12.7528 17.7928 12.7432 17.8395 12.7243C17.8862 12.7055 17.9286 12.6779 17.9643 12.6431C18 12.6082 18.0283 12.5669 18.0477 12.5214C18.067 12.4759 18.0769 12.4272 18.0769 12.3779V10.1284C18.0769 10.0289 18.0364 9.93356 17.9643 9.86325C17.8921 9.79293 17.7943 9.75343 17.6923 9.75343C17.5903 9.75343 17.4925 9.79293 17.4203 9.86325C17.3482 9.93356 17.3077 10.0289 17.3077 10.1284V12.3779C17.3077 12.4272 17.3176 12.4759 17.3369 12.5214C17.3563 12.5669 17.3846 12.6082 17.4203 12.6431C17.456 12.6779 17.4984 12.7055 17.5451 12.7243C17.5918 12.7432 17.6418 12.7528 17.6923 12.7528ZM21.1538 3.75463C20.4728 3.75397 19.8067 3.94935 19.2392 4.31627C18.6716 4.68319 18.2278 5.20531 17.9634 5.81714C17.6991 6.42897 17.626 7.10327 17.7532 7.75546C17.8805 8.40765 18.2024 9.00869 18.6787 9.4832C18.9313 8.88235 19.4096 8.3981 20.016 8.12929C19.8153 7.91437 19.6831 7.64725 19.6353 7.36042C19.5874 7.07359 19.6261 6.77939 19.7467 6.5136C19.8672 6.24781 20.0643 6.02188 20.3141 5.86327C20.5639 5.70465 20.8555 5.62019 21.1536 5.62016C21.4518 5.62012 21.7434 5.70451 21.9933 5.86306C22.2431 6.02162 22.4403 6.2475 22.5609 6.51326C22.6814 6.77903 22.7202 7.07321 22.6725 7.36005C22.6247 7.6469 22.4925 7.91405 22.292 8.12902C22.8978 8.39847 23.376 8.88235 23.6295 9.48263C24.1057 9.00806 24.4275 8.40702 24.5546 7.75487C24.6817 7.10273 24.6085 6.42851 24.3441 5.81677C24.0797 5.20503 23.6359 4.683 23.0684 4.31615C22.5008 3.9493 21.8348 3.75396 21.1538 3.75463ZM19.5373 9.48945C19.4377 9.64142 19.3614 9.80673 19.3108 9.98017C19.8618 10.3219 20.5013 10.5034 21.1543 10.5033C21.8074 10.5032 22.4469 10.3216 22.9977 9.97968C22.8951 9.63436 22.6926 9.32515 22.4145 9.08902C22.1364 8.85289 21.7945 8.69982 21.4295 8.64812C21.0645 8.59641 20.692 8.64826 20.3564 8.79746C20.0209 8.94665 19.7365 9.18689 19.5373 9.48945ZM21.9231 7.12896C21.9231 6.98065 21.878 6.83567 21.7934 6.71236C21.7089 6.58905 21.5888 6.49294 21.4482 6.43619C21.3077 6.37943 21.153 6.36458 21.0038 6.39351C20.8546 6.42245 20.7175 6.49386 20.6099 6.59873C20.5023 6.7036 20.4291 6.83721 20.3994 6.98267C20.3697 7.12813 20.3849 7.27889 20.4432 7.41591C20.5014 7.55293 20.6 7.67004 20.7265 7.75243C20.853 7.83483 21.0017 7.87881 21.1538 7.87881C21.3578 7.87858 21.5533 7.79951 21.6975 7.65893C21.8417 7.51836 21.9228 7.32776 21.9231 7.12896Z" fill="#FB2B2B"/>
</svg>
