<svg width="30" height="30" viewBox="0 0 30 30" fill="none" xmlns="http://www.w3.org/2000/svg">
<path d="M13.8666 9.22737C13.5042 9.22725 13.1528 9.10263 12.8713 8.87438C12.5898 8.64612 12.3953 8.32809 12.3203 7.97353C10.7151 8.55428 9.34415 9.64444 8.4167 11.0775C7.48925 12.5106 7.05632 14.2079 7.18403 15.9101C7.31173 17.6123 7.99305 19.226 9.12394 20.5047C10.2548 21.7833 11.7731 22.6567 13.447 22.9915C15.1209 23.3262 16.8583 23.104 18.394 22.3586C19.9297 21.6132 21.1792 20.3857 21.9518 18.8635C22.7243 17.3413 22.9774 15.6081 22.6725 13.9285C22.3675 12.249 21.5213 10.7154 20.2629 9.56196C19.9739 9.29927 19.7935 8.93802 19.7572 8.54916C19.7209 8.16029 19.8313 7.77191 20.0667 7.46027C19.0561 6.80773 17.9289 6.35665 16.7471 6.13184C16.7108 6.39752 16.6071 6.6495 16.4459 6.86379L15.126 8.60233C14.9781 8.79614 14.7876 8.95332 14.5692 9.0617C14.3508 9.17009 14.1104 9.22677 13.8666 9.22737ZM9.1755 15.9138C9.05039 15.9108 8.93142 15.8589 8.844 15.7694C8.75659 15.6798 8.70766 15.5596 8.70766 15.4344C8.70766 15.3093 8.75659 15.1891 8.844 15.0995C8.93142 15.01 9.05039 14.9581 9.1755 14.9551H10.077C10.2021 14.9581 10.3211 15.01 10.4085 15.0995C10.4959 15.1891 10.5449 15.3093 10.5449 15.4344C10.5449 15.5596 10.4959 15.6798 10.4085 15.7694C10.3211 15.8589 10.2021 15.9108 10.077 15.9138H9.1755ZM11.6379 19.4016L11.0004 20.0388C10.956 20.084 10.9031 20.12 10.8447 20.1446C10.7864 20.1693 10.7237 20.1821 10.6603 20.1824C10.597 20.1826 10.5342 20.1704 10.4756 20.1462C10.417 20.1221 10.3638 20.0866 10.319 20.0418C10.2742 19.9969 10.2388 19.9437 10.2147 19.8851C10.1906 19.8265 10.1784 19.7637 10.1787 19.7003C10.1791 19.637 10.192 19.5743 10.2166 19.516C10.2413 19.4576 10.2774 19.4047 10.3226 19.3604L10.9601 18.7232C11.0504 18.6347 11.1719 18.5855 11.2983 18.5861C11.4247 18.5868 11.5457 18.6373 11.635 18.7267C11.7243 18.8161 11.7747 18.9372 11.7753 19.0636C11.7758 19.1899 11.7265 19.3114 11.6379 19.4016ZM11.8395 12.2495C11.7495 12.3393 11.6275 12.3897 11.5003 12.3896C11.3732 12.3896 11.2512 12.339 11.1613 12.2491L10.5241 11.6116C10.4789 11.5672 10.443 11.5143 10.4183 11.4559C10.3937 11.3975 10.3809 11.3349 10.3806 11.2715C10.3803 11.2081 10.3926 11.1454 10.4167 11.0868C10.4409 11.0282 10.4764 10.975 10.5212 10.9302C10.566 10.8854 10.6193 10.85 10.6779 10.8259C10.7365 10.8018 10.7993 10.7896 10.8626 10.7899C10.926 10.7903 10.9887 10.8031 11.047 10.8278C11.1053 10.8525 11.1582 10.8885 11.2026 10.9338L11.8398 11.5713C11.9296 11.6613 11.98 11.7833 11.98 11.9105C11.9799 12.0376 11.9294 12.1596 11.8395 12.2495ZM15.4708 21.5359C15.4724 21.5999 15.4612 21.6635 15.4378 21.723C15.4144 21.7825 15.3793 21.8367 15.3346 21.8825C15.29 21.9283 15.2366 21.9646 15.1777 21.9895C15.1187 22.0143 15.0554 22.0271 14.9915 22.0271C14.9275 22.0271 14.8642 22.0143 14.8053 21.9895C14.7463 21.9646 14.693 21.9283 14.6483 21.8825C14.6036 21.8367 14.5686 21.7825 14.5452 21.723C14.5218 21.6635 14.5105 21.5999 14.5121 21.5359V20.6344C14.5105 20.5705 14.5218 20.5069 14.5452 20.4473C14.5686 20.3878 14.6036 20.3336 14.6483 20.2878C14.693 20.242 14.7463 20.2057 14.8053 20.1808C14.8642 20.156 14.9275 20.1432 14.9915 20.1432C15.0554 20.1432 15.1187 20.156 15.1777 20.1808C15.2366 20.2057 15.29 20.242 15.3346 20.2878C15.3793 20.3336 15.4144 20.3878 15.4378 20.4473C15.4612 20.5069 15.4724 20.5705 15.4708 20.6344V21.5359ZM20.9202 14.9551C21.0453 14.9581 21.1643 15.01 21.2517 15.0995C21.3391 15.1891 21.388 15.3093 21.388 15.4344C21.388 15.5596 21.3391 15.6798 21.2517 15.7694C21.1643 15.8589 21.0453 15.9108 20.9202 15.9138H20.0187C19.9548 15.9154 19.8912 15.9041 19.8316 15.8807C19.7721 15.8573 19.7179 15.8223 19.6721 15.7776C19.6263 15.7329 19.59 15.6796 19.5651 15.6206C19.5403 15.5617 19.5275 15.4984 19.5275 15.4344C19.5275 15.3705 19.5403 15.3072 19.5651 15.2482C19.59 15.1893 19.6263 15.1359 19.6721 15.0913C19.7179 15.0466 19.7721 15.0115 19.8316 14.9882C19.8912 14.9648 19.9548 14.9535 20.0187 14.9551H20.9202ZM18.3544 11.3285L18.9919 10.6913C19.0363 10.6461 19.0892 10.6102 19.1476 10.5855C19.206 10.5609 19.2687 10.5481 19.332 10.5478C19.3954 10.5475 19.4582 10.5598 19.5167 10.5839C19.5753 10.6081 19.6285 10.6436 19.6733 10.6884C19.7181 10.7332 19.7535 10.7865 19.7776 10.8451C19.8017 10.9037 19.8139 10.9665 19.8136 11.0298C19.8133 11.0932 19.8004 11.1558 19.7757 11.2142C19.751 11.2725 19.715 11.3254 19.6697 11.3698L19.0322 12.0069C18.9878 12.0522 18.9349 12.0881 18.8765 12.1128C18.8181 12.1374 18.7555 12.1502 18.6921 12.1505C18.6287 12.1508 18.566 12.1385 18.5074 12.1144C18.4488 12.0902 18.3956 12.0547 18.3508 12.0099C18.306 11.9651 18.2706 11.9118 18.2465 11.8532C18.2224 11.7946 18.2102 11.7318 18.2105 11.6685C18.2109 11.6051 18.2237 11.5424 18.2484 11.4841C18.2731 11.4257 18.3091 11.3729 18.3544 11.3285ZM18.1914 18.6007C18.2815 18.5111 18.4035 18.4608 18.5306 18.4608C18.6577 18.4608 18.7796 18.5111 18.8698 18.6007L19.5073 19.2382C19.5953 19.3286 19.6441 19.45 19.6432 19.5761C19.6424 19.7022 19.5919 19.8229 19.5027 19.9121C19.4136 20.0012 19.2929 20.0517 19.1668 20.0526C19.0407 20.0534 18.9193 20.0046 18.8289 19.9167L18.1914 19.2791C18.1016 19.189 18.0512 19.067 18.0512 18.9399C18.0512 18.8127 18.1016 18.6908 18.1914 18.6007ZM15.4708 11.0306V14.6696L16.5642 13.6207C16.6092 13.5752 16.6629 13.5391 16.7221 13.5147C16.7812 13.4903 16.8447 13.4779 16.9087 13.4784C16.9727 13.4789 17.036 13.4922 17.0948 13.5175C17.1536 13.5428 17.2067 13.5797 17.251 13.6258C17.2954 13.672 17.33 13.7266 17.3529 13.7864C17.3758 13.8462 17.3865 13.9099 17.3844 13.9739C17.3822 14.0379 17.3673 14.1008 17.3405 14.1589C17.3136 14.217 17.2754 14.2692 17.2281 14.3123L15.3235 16.1403C15.2558 16.2055 15.1703 16.2492 15.0779 16.2662C14.9854 16.2832 14.89 16.2725 14.8035 16.2357C14.7171 16.1988 14.6433 16.1373 14.5915 16.0589C14.5397 15.9805 14.5121 15.8885 14.5122 15.7945V11.0306C14.5153 10.9055 14.5671 10.7865 14.6567 10.6991C14.7462 10.6117 14.8664 10.5627 14.9916 10.5627C15.1167 10.5627 15.2369 10.6117 15.3265 10.6991C15.4161 10.7865 15.4678 10.9055 15.4708 11.0306Z" fill="#4DAC4D"/>
<path d="M21.7506 7.93837C21.6291 7.82697 21.4683 7.7684 21.3036 7.77555C21.1389 7.78271 20.9837 7.855 20.8723 7.97652C20.7609 8.09804 20.7024 8.25884 20.7095 8.42355C20.7167 8.58825 20.789 8.74337 20.9105 8.85478C22.3832 10.2052 23.3508 12.0178 23.6533 13.9929C23.9559 15.9679 23.5751 17.9871 22.5742 19.7164C21.5732 21.4457 20.0119 22.7815 18.1485 23.5028C16.2852 24.2242 14.2314 24.2879 12.327 23.6834C10.4225 23.0789 8.78141 21.8425 7.67516 20.1785C6.56892 18.5146 6.06378 16.5229 6.2433 14.5329C6.42283 12.5429 7.27626 10.6738 8.66243 9.23471C10.0486 7.79564 11.8845 6.87285 13.8664 6.61896L13.3716 7.27064C13.2719 7.40192 13.2284 7.56743 13.2507 7.73078C13.273 7.89412 13.3593 8.04191 13.4906 8.14163C13.6218 8.24136 13.7874 8.28485 13.9507 8.26253C14.114 8.24022 14.2618 8.15394 14.3616 8.02266L15.6819 6.2838C15.774 6.16243 15.8184 6.01147 15.8066 5.85957C15.7947 5.70766 15.7275 5.56539 15.6177 5.45975L14.0435 3.94693C13.9246 3.83267 13.7652 3.77031 13.6004 3.77356C13.4356 3.77681 13.2788 3.84541 13.1645 3.96427C13.0503 4.08312 12.9879 4.2425 12.9911 4.40734C12.9944 4.57218 13.063 4.72897 13.1818 4.84323L13.7417 5.38132C11.4755 5.66343 9.37355 6.71119 7.78412 8.35107C6.1947 9.99095 5.21311 12.1246 5.00193 14.3985C4.79076 16.6725 5.36266 18.9504 6.62293 20.8549C7.88321 22.7594 9.75622 24.1763 11.9318 24.8709C14.1073 25.5655 16.4549 25.4961 18.5856 24.6743C20.7164 23.8524 22.5024 22.3274 23.6481 20.3518C24.7937 18.3762 25.2301 16.0685 24.885 13.811C24.5399 11.5535 23.4341 9.48154 21.7506 7.93837Z" fill="#4DAC4D"/>
</svg>
