<svg width="30" height="30" viewBox="0 0 30 30" fill="none" xmlns="http://www.w3.org/2000/svg">
<path d="M19.025 7.5375L22.1875 5.1125L18.2 5L16.875 1.25L15.55 5L11.5625 5.1125L14.725 7.5375L13.5875 11.3625L16.875 9.1L20.1625 11.3625L19.025 7.5375Z" fill="#4DAC4D"/>
<path d="M17.0125 6.5625L19.0625 5L16.4875 4.9375L15.625 2.5L14.7625 4.9375L12.1875 5L14.2375 6.5625L13.5 9.0375L15.625 7.575L17.75 9.0375L17.0125 6.5625Z" fill="#4DAC4D"/>
<path d="M24.5125 15.3125L26.5625 13.75L23.9875 13.6875L23.125 11.25L22.2625 13.6875L19.6875 13.75L21.7375 15.3125L21 17.7875L23.125 16.325L25.25 17.7875L24.5125 15.3125Z" fill="#4DAC4D"/>
<path d="M26.035 12.1637L28.38 10.365L25.4225 10.2813L24.44 7.5L23.4575 10.2813L20.5 10.365L22.845 12.1637L22.0013 15L24.44 13.3225L26.8788 15L26.035 12.1637Z" fill="#4DAC4D"/>
<path d="M8.75 7.4998C8.75 15.0998 14.9 21.2498 22.5 21.2498C23.1625 21.2498 23.8125 21.1998 24.45 21.1123C22.4375 24.1998 18.9625 26.2498 15 26.2498C8.7875 26.2498 3.75 21.2123 3.75 14.9998C3.75 11.0373 5.8 7.5623 8.8875 5.5498C8.8 6.1873 8.75 6.8373 8.75 7.4998Z" fill="#4DAC4D" stroke="#4DAC4D" stroke-width="2" stroke-linecap="round" stroke-linejoin="round"/>
</svg>
