<svg width="30" height="30" viewBox="0 0 30 30" fill="none" xmlns="http://www.w3.org/2000/svg">
<path d="M16.25 4.35C16.25 4.01863 16.5186 3.75 16.85 3.75H20.65C20.9814 3.75 21.25 4.01863 21.25 4.35V5.65C21.25 5.98137 20.9814 6.25 20.65 6.25H16.85C16.5186 6.25 16.25 5.98137 16.25 5.65V4.35ZM3.75 10.6C3.75 10.2686 4.01863 10 4.35 10H8.15C8.48137 10 8.75 10.2686 8.75 10.6V11.9C8.75 12.2314 8.48137 12.5 8.15 12.5H4.35C4.01863 12.5 3.75 12.2314 3.75 11.9V10.6ZM3.75 20.6C3.75 20.2686 4.01863 20 4.35 20H8.15C8.48137 20 8.75 20.2686 8.75 20.6V21.9C8.75 22.2314 8.48137 22.5 8.15 22.5H4.35C4.01863 22.5 3.75 22.2314 3.75 21.9V20.6ZM2.5 15.6C2.5 15.2686 2.76863 15 3.1 15H6.8875C7.21887 15 7.4875 15.2686 7.4875 15.6V16.9C7.4875 17.2314 7.21887 17.5 6.8875 17.5H3.1C2.76863 17.5 2.5 17.2314 2.5 16.9V15.6ZM26.7098 8.80801C26.9439 8.57368 26.9439 8.19388 26.7096 7.95962L25.7905 7.04051C25.5562 6.8062 25.1763 6.8062 24.942 7.04051L23.5648 8.41765C23.3697 8.61284 23.0675 8.64767 22.8238 8.5179C21.5719 7.85109 20.1732 7.50042 18.75 7.5C13.9262 7.5 10 11.4262 10 16.25C10 21.0737 13.9262 25 18.75 25C23.5737 25 27.5 21.0737 27.5 16.25C27.4989 14.2506 26.8101 12.3186 25.5591 10.7737C25.3562 10.5232 25.3614 10.1572 25.5892 9.92925L26.7098 8.80801ZM20 16.9C20 17.2314 19.7314 17.5 19.4 17.5H18.1C17.7686 17.5 17.5 17.2314 17.5 16.9V11.7975C17.5 11.4661 17.7686 11.1975 18.1 11.1975H19.4C19.7314 11.1975 20 11.4661 20 11.7975V16.9Z" fill="#4DAC4D"/>
</svg>
