<svg width="56" height="56" viewBox="0 0 56 56" fill="none" xmlns="http://www.w3.org/2000/svg">
<g filter="url(#filter0_d_508_899)">
<rect x="8" y="4" width="40" height="40" rx="5" fill="#F5F8FF" shape-rendering="crispEdges"/>
<path d="M28 25.4999L30.125 27.1249C30.225 27.2082 30.325 27.2124 30.425 27.1374C30.525 27.0624 30.5583 26.9666 30.525 26.8499L29.7 24.1999L31.925 22.4499C32.0083 22.3666 32.0333 22.2707 32 22.1624C31.9667 22.0541 31.8917 21.9999 31.775 21.9999H29.1L28.25 19.3249C28.2167 19.2082 28.1333 19.1499 28 19.1499C27.8667 19.1499 27.7833 19.2082 27.75 19.3249L26.9 21.9999H24.225C24.1083 21.9999 24.0292 22.0541 23.9875 22.1624C23.9458 22.2707 23.9667 22.3666 24.05 22.4499L26.25 24.1999L25.425 26.8749C25.3917 26.9916 25.425 27.0874 25.525 27.1624C25.625 27.2374 25.725 27.2332 25.825 27.1499L28 25.4999ZM28 33.8999C27.8833 33.8999 27.775 33.8916 27.675 33.8749C27.575 33.8582 27.475 33.8332 27.375 33.7999C25.125 33.0499 23.3333 31.6624 22 29.6374C20.6667 27.6124 20 25.4332 20 23.0999V18.3749C20 17.9582 20.1208 17.5832 20.3625 17.2499C20.6042 16.9166 20.9167 16.6749 21.3 16.5249L27.3 14.2749C27.5333 14.1916 27.7667 14.1499 28 14.1499C28.2333 14.1499 28.4667 14.1916 28.7 14.2749L34.7 16.5249C35.0833 16.6749 35.3958 16.9166 35.6375 17.2499C35.8792 17.5832 36 17.9582 36 18.3749V23.0999C36 25.4332 35.3333 27.6124 34 29.6374C32.6667 31.6624 30.875 33.0499 28.625 33.7999C28.525 33.8332 28.425 33.8582 28.325 33.8749C28.225 33.8916 28.1167 33.8999 28 33.8999Z" fill="#4DAC4D"/>
</g>
<defs>
<filter id="filter0_d_508_899" x="0" y="0" width="56" height="56" filterUnits="userSpaceOnUse" color-interpolation-filters="sRGB">
<feFlood flood-opacity="0" result="BackgroundImageFix"/>
<feColorMatrix in="SourceAlpha" type="matrix" values="0 0 0 0 0 0 0 0 0 0 0 0 0 0 0 0 0 0 127 0" result="hardAlpha"/>
<feOffset dy="4"/>
<feGaussianBlur stdDeviation="4"/>
<feComposite in2="hardAlpha" operator="out"/>
<feColorMatrix type="matrix" values="0 0 0 0 0.0156863 0 0 0 0 0.4 0 0 0 0 0.784314 0 0 0 0.16 0"/>
<feBlend mode="normal" in2="BackgroundImageFix" result="effect1_dropShadow_508_899"/>
<feBlend mode="normal" in="SourceGraphic" in2="effect1_dropShadow_508_899" result="shape"/>
</filter>
</defs>
</svg>
