<svg width="30" height="30" viewBox="0 0 30 30" fill="none" xmlns="http://www.w3.org/2000/svg">
<path d="M5.36034 17.2039H13.432C13.6301 17.2039 13.7923 17.3661 13.7923 17.5644V25.6395C13.7923 25.8378 13.6301 26 13.432 26H5.36034C5.16215 26 5 25.8378 5 25.6395V17.5599C5 17.3616 5.16215 17.2039 5.36034 17.2039ZM14.558 7.48855C12.7113 7.98873 11.7384 8.6917 11.2339 9.44424C10.824 10.0526 10.7159 10.7105 10.6889 11.3098H11.878C12.1437 11.3098 12.3419 11.6027 12.1753 11.8731L9.70244 16.154C9.56731 16.3838 9.21598 16.4063 9.06734 16.1314L7.83768 14L6.60351 11.8505C6.46388 11.6072 6.64405 11.3098 6.91431 11.3098H8.12145C8.20703 9.65603 8.58989 8.543 9.53128 7.8175C10.5087 7.06046 12.0537 6.77657 14.4814 6.77657C14.6796 6.77657 14.8418 6.93879 14.8418 7.13706C14.8418 7.3083 14.7202 7.4525 14.558 7.48855ZM15.6661 24.5445C17.5128 24.0443 18.4857 23.3368 18.9902 22.5888C19.4001 21.9805 19.5082 21.3226 19.5352 20.7232H18.3461C18.0803 20.7232 17.8822 20.4303 18.0488 20.16L20.5216 15.8791C20.6613 15.6403 21.0081 15.6403 21.1477 15.8836L23.6296 20.1825C23.7692 20.4258 23.589 20.7232 23.3188 20.7232H22.1116C22.0261 22.377 21.6432 23.4855 20.7018 24.2155C19.7244 24.9726 18.1794 25.2565 15.7516 25.2565C15.5535 25.2565 15.3913 25.0943 15.3913 24.896C15.3778 24.7247 15.5039 24.5805 15.6661 24.5445ZM16.9092 6.38903C18.7605 4.53699 21.7603 4.53699 23.6116 6.38903C25.4628 8.24108 25.4628 11.2422 23.6116 13.0943C21.7603 14.9463 18.7605 14.9463 16.9092 13.0943C15.058 11.2422 15.058 8.24108 16.9092 6.38903Z" fill="#FB2B2B"/>
</svg>
