<svg width="75" height="75" viewBox="0 0 75 75" fill="none" xmlns="http://www.w3.org/2000/svg">
<path d="M0 40.625C0 18.1884 18.1884 0 40.625 0H48.75C63.2475 0 75 11.7525 75 26.25V41.25C75 59.8896 59.8896 75 41.25 75H34.375C15.3902 75 0 59.6098 0 40.625Z" fill="#FFF0FB"/>
<path d="M54.9205 31.2744L51.9692 54H42.001L39.0618 31.1609H51.2312L53.6365 23L55 23.4037L52.6922 31.2574L54.9205 31.2744ZM37.6525 44.4223C37.6525 44.4223 38.0252 41.4753 32.8563 41.4753H24.6242C19.4627 41.4753 19.828 44.4223 19.828 44.4223H37.6525ZM19.828 51.053C19.828 51.053 19.4627 54 24.6242 54H32.857C38.026 54 37.6532 51.053 37.6532 51.053H19.828ZM36.8792 49.5795C37.7253 49.5795 38.4085 48.7588 38.4085 47.7384C38.4085 46.7121 37.7253 45.8958 36.8792 45.8958H20.53C19.6877 45.8958 19 46.7121 19 47.7384C19 48.7588 19.6877 49.5795 20.53 49.5795H36.8792Z" fill="#CD4BA9"/>
</svg>
