<svg width="75" height="75" viewBox="0 0 75 75" fill="none" xmlns="http://www.w3.org/2000/svg">
<path d="M0 40.625C0 18.1884 18.1884 0 40.625 0H48.75C63.2475 0 75 11.7525 75 26.25V41.25C75 59.8896 59.8896 75 41.25 75H34.375C15.3902 75 0 59.6098 0 40.625Z" fill="#EEF9FF"/>
<path d="M37 22C28.1776 22 21 29.1776 21 38V44.6288C21 46.2672 22.4352 47.6 24.2 47.6H25.8C26.2243 47.6 26.6313 47.4314 26.9314 47.1314C27.2314 46.8313 27.4 46.4243 27.4 46V37.7712C27.4 37.3469 27.2314 36.9399 26.9314 36.6398C26.6313 36.3398 26.2243 36.1712 25.8 36.1712H24.3472C25.2368 29.9792 30.5648 25.2 37 25.2C43.4352 25.2 48.7632 29.9792 49.6528 36.1712H48.2C47.7757 36.1712 47.3687 36.3398 47.0686 36.6398C46.7686 36.9399 46.6 37.3469 46.6 37.7712V47.6C46.6 49.3648 45.1648 50.8 43.4 50.8H40.2V49.2H33.8V54H43.4C46.9296 54 49.8 51.1296 49.8 47.6C51.5648 47.6 53 46.2672 53 44.6288V38C53 29.1776 45.8224 22 37 22Z" fill="#1B99E0"/>
</svg>
