<svg width="38" height="38" viewBox="0 0 38 38" fill="none" xmlns="http://www.w3.org/2000/svg">
<circle cx="19" cy="19" r="18.5" fill="white" stroke="#535675"/>
<path fill-rule="evenodd" clip-rule="evenodd" d="M17.0459 16.6968H19.8685V18.1028C20.2751 17.2942 21.3178 16.5676 22.8842 16.5676C25.887 16.5676 26.5998 18.1773 26.5998 21.1306V26.6004H23.5598V21.8032C23.5598 20.1214 23.1532 19.1729 22.1181 19.1729C20.6825 19.1729 20.0859 20.1951 20.0859 21.8025V26.6004H17.0459V16.6968ZM11.8331 26.4712H14.8731V16.5676H11.8331V26.4712ZM15.3085 13.3384C15.3087 13.5932 15.2581 13.8455 15.1599 14.0806C15.0616 14.3157 14.9176 14.5289 14.7363 14.7079C14.3687 15.0732 13.8712 15.2776 13.3531 15.2764C12.8358 15.276 12.3395 15.0721 11.9714 14.7087C11.7907 14.5291 11.6472 14.3156 11.5491 14.0805C11.451 13.8453 11.4003 13.5932 11.3999 13.3384C11.3999 12.8239 11.6051 12.3314 11.9722 11.9681C12.3399 11.6042 12.8365 11.4002 13.3538 11.4004C13.8721 11.4004 14.3692 11.6048 14.7363 11.9681C15.1026 12.3314 15.3085 12.8239 15.3085 13.3384Z" fill="#0466C8"/>
</svg>
