<svg width="38" height="38" viewBox="0 0 38 38" fill="none" xmlns="http://www.w3.org/2000/svg">
<circle cx="19" cy="19" r="18.5" fill="white" stroke="#535675"/>
<path d="M18.9978 15.1008C16.8399 15.1008 15.0984 16.8424 15.0984 19.0004C15.0984 21.1583 16.8399 22.8999 18.9978 22.8999C21.1557 22.8999 22.8973 21.1583 22.8973 19.0004C22.8973 16.8424 21.1557 15.1008 18.9978 15.1008ZM18.9978 21.5348C17.6023 21.5348 16.4635 20.3959 16.4635 19.0004C16.4635 17.6048 17.6023 16.466 18.9978 16.466C20.3933 16.466 21.5322 17.6048 21.5322 19.0004C21.5322 20.3959 20.3933 21.5348 18.9978 21.5348ZM23.057 14.0323C22.5531 14.0323 22.1463 14.4392 22.1463 14.943C22.1463 15.4469 22.5531 15.8538 23.057 15.8538C23.5608 15.8538 23.9677 15.4488 23.9677 14.943C23.9678 14.8234 23.9444 14.7049 23.8986 14.5943C23.8529 14.4838 23.7859 14.3833 23.7013 14.2987C23.6167 14.2141 23.5162 14.1471 23.4057 14.1013C23.2951 14.0556 23.1766 14.0322 23.057 14.0323ZM26.599 19.0004C26.599 17.9509 26.6085 16.9109 26.5496 15.8633C26.4906 14.6464 26.213 13.5665 25.3233 12.6767C24.4316 11.785 23.3536 11.5093 22.1368 11.4504C21.0873 11.3914 20.0473 11.401 18.9997 11.401C17.9502 11.401 16.9102 11.3914 15.8627 11.4504C14.6459 11.5093 13.566 11.7869 12.6762 12.6767C11.7845 13.5684 11.5088 14.6464 11.4499 15.8633C11.3909 16.9128 11.4004 17.9528 11.4004 19.0004C11.4004 20.048 11.3909 21.0899 11.4499 22.1375C11.5088 23.3543 11.7864 24.4342 12.6762 25.324C13.5679 26.2157 14.6459 26.4914 15.8627 26.5504C16.9121 26.6093 17.9521 26.5998 18.9997 26.5998C20.0492 26.5998 21.0892 26.6093 22.1368 26.5504C23.3536 26.4914 24.4335 26.2138 25.3233 25.324C26.2149 24.4323 26.4906 23.3543 26.5496 22.1375C26.6104 21.0899 26.599 20.0499 26.599 19.0004ZM24.9259 23.4836C24.7871 23.8296 24.6198 24.0882 24.3517 24.3544C24.0836 24.6225 23.827 24.7898 23.4809 24.9286C22.4809 25.3259 20.1062 25.2366 18.9978 25.2366C17.8894 25.2366 15.5128 25.3259 14.5128 24.9305C14.1667 24.7917 13.9082 24.6244 13.642 24.3563C13.3739 24.0882 13.2066 23.8315 13.0678 23.4855C12.6724 22.4835 12.7617 20.1088 12.7617 19.0004C12.7617 17.8919 12.6724 15.5153 13.0678 14.5153C13.2066 14.1692 13.3739 13.9106 13.642 13.6445C13.9101 13.3783 14.1667 13.2091 14.5128 13.0703C15.5128 12.6748 17.8894 12.7642 18.9978 12.7642C20.1062 12.7642 22.4828 12.6748 23.4829 13.0703C23.8289 13.2091 24.0874 13.3764 24.3536 13.6445C24.6217 13.9125 24.789 14.1692 24.9278 14.5153C25.3233 15.5153 25.2339 17.8919 25.2339 19.0004C25.2339 20.1088 25.3233 22.4835 24.9259 23.4836Z" fill="#0466C8"/>
</svg>
