<svg width="30" height="30" viewBox="0 0 30 30" fill="none" xmlns="http://www.w3.org/2000/svg">
<path fill-rule="evenodd" clip-rule="evenodd" d="M15.0003 22.984C13.4782 22.984 12.2422 24.2199 12.2422 25.742C12.2422 27.2642 13.4782 28.5001 15.0003 28.5001C16.5225 28.5001 17.7584 27.2642 17.7584 25.742C17.7584 24.2199 16.5225 22.984 15.0003 22.984ZM23.2745 11.9517H22.8148C21.5464 11.9517 20.5165 12.9817 20.5165 14.2501V18.8468C20.5165 20.1153 21.5464 21.1452 22.8148 21.1452H23.1192C22.9573 21.7205 22.6276 22.4777 21.9552 23.1504C21.3825 23.7228 20.5713 24.2202 19.4328 24.5202C19.5398 24.9094 19.5971 25.3191 19.5971 25.742C19.5971 25.9599 19.5818 26.1744 19.5524 26.3844C21.27 26.0004 22.4447 25.2612 23.2552 24.4503C24.3922 23.3137 24.8334 22.0018 25.0048 21.1452H25.5729C26.8413 21.1452 27.8713 20.1153 27.8713 18.8468V14.2501C27.8713 12.9817 26.8413 11.9517 25.5729 11.9517H25.1132V11.0323C25.1132 8.28741 24.04 6.17504 22.2792 4.54992C22.1483 5.21063 21.8563 5.81557 21.4456 6.32305C22.5853 7.5504 23.2745 9.08787 23.2745 11.0323V11.9517ZM4.88738 11.9517H4.4277C3.15929 11.9517 2.1293 12.9817 2.1293 14.2501V18.8468C2.1293 20.1153 3.15929 21.1452 4.4277 21.1452H7.18577C8.45418 21.1452 9.48416 20.1153 9.48416 18.8468V14.2501C9.48416 12.9817 8.45418 11.9517 7.18577 11.9517H6.72609V11.0323C6.72609 9.094 7.40948 7.53936 8.54182 6.29823C8.13792 5.78554 7.85138 5.17416 7.72237 4.50487C5.9618 6.14593 4.88738 8.28864 4.88738 11.0323V11.9517ZM20.5168 3.71085C20.4922 2.66371 19.9832 1.81667 19.1515 1.19151C18.1154 0.412199 16.5237 -0.00335063 14.9329 2.03478e-05C13.336 0.00369778 11.7574 0.430892 10.7535 1.21265C9.93832 1.84732 9.46026 2.70171 9.48508 3.75406C9.5145 5.01634 10.5206 6.03101 11.7832 6.03101C11.9088 6.03101 12.0329 6.00526 12.1482 5.95531C14.0892 5.11563 15.9831 5.06476 17.8233 5.94152C17.9468 6.00036 18.082 6.03101 18.2187 6.03101C19.4932 6.03101 20.5468 4.98508 20.5168 3.71085Z" fill="#FB2B2B"/>
</svg>
