<svg width="30" height="30" viewBox="0 0 30 30" fill="none" xmlns="http://www.w3.org/2000/svg">
<path fill-rule="evenodd" clip-rule="evenodd" d="M15 23.743C13.5808 23.743 12.4286 24.8953 12.4286 26.3144C12.4286 27.7336 13.5808 28.8859 15 28.8859C16.4191 28.8859 17.5714 27.7336 17.5714 26.3144C17.5714 24.8953 16.4191 23.743 15 23.743ZM22.7143 13.4573H22.2857C21.1031 13.4573 20.1428 14.4176 20.1428 15.6002V19.8859C20.1428 21.0684 21.1031 22.0287 22.2857 22.0287H22.5694C22.4185 22.565 22.1111 23.271 21.4843 23.8982C20.9503 24.4319 20.194 24.8956 19.1325 25.1753C19.2323 25.5382 19.2857 25.9202 19.2857 26.3144C19.2857 26.5176 19.2714 26.7176 19.244 26.9133C20.8454 26.5553 21.9405 25.8662 22.6963 25.1102C23.7563 24.0504 24.1677 22.8273 24.3274 22.0287H24.8571C26.0397 22.0287 27 21.0684 27 19.8859V15.6002C27 14.4176 26.0397 13.4573 24.8571 13.4573H24.4285V12.6002C24.4285 10.041 23.428 8.07161 21.7863 6.55647C21.6643 7.17247 21.392 7.73646 21.0091 8.20961C22.0717 9.35389 22.7143 10.7873 22.7143 12.6002V13.4573ZM5.57143 13.4573H5.14285C3.96028 13.4573 3 14.4176 3 15.6002V19.8859C3 21.0684 3.96028 22.0287 5.14285 22.0287H7.71428C8.89685 22.0287 9.85713 21.0684 9.85713 19.8859V15.6002C9.85713 14.4176 8.89685 13.4573 7.71428 13.4573H7.28571V12.6002C7.28571 10.793 7.92285 9.34361 8.97856 8.18646C8.60199 7.70846 8.33485 7.13847 8.21456 6.51447C6.57314 8.04446 5.57143 10.0422 5.57143 12.6002V13.4573ZM20.1431 5.77418C20.1203 4.7979 19.6457 4.00818 18.8703 3.42533C17.9043 2.69876 16.4203 2.31133 14.9371 2.31447C13.4483 2.3179 11.9766 2.71619 11.0406 3.44504C10.2806 4.03676 9.83485 4.83333 9.85799 5.81447C9.88542 6.99132 10.8234 7.93732 12.0006 7.93732C12.1177 7.93732 12.2334 7.91332 12.3408 7.86675C14.1506 7.08389 15.9163 7.03647 17.632 7.85389C17.7471 7.90875 17.8731 7.93732 18.0006 7.93732C19.1888 7.93732 20.1711 6.96218 20.1431 5.77418Z" fill="#FF0000"/>
</svg>
