<svg width="75" height="75" viewBox="0 0 75 75" fill="none" xmlns="http://www.w3.org/2000/svg">
<path d="M0 40.625C0 18.1884 18.1884 0 40.625 0H48.75C63.2475 0 75 11.7525 75 26.25V41.25C75 59.8896 59.8896 75 41.25 75H34.375C15.3902 75 0 59.6098 0 40.625Z" fill="#FFF0FB"/>
<path d="M25.4535 34.6337C25.4535 28.3948 30.5111 23.3372 36.75 23.3372C42.9889 23.3372 48.0465 28.3948 48.0465 34.6337V37.75C48.0465 39.2559 49.2673 40.4767 50.7733 40.4767C52.2792 40.4767 53.5 39.2559 53.5 37.75V34.6337C53.5 33.1278 52.2792 31.907 50.7733 31.907C50.5504 31.907 50.3337 31.9337 50.1265 31.9842C48.8932 25.7227 43.3732 21 36.75 21C30.1269 21 24.6068 25.7227 23.3736 31.9842C23.1662 31.9337 22.9496 31.907 22.7267 31.907C21.2208 31.907 20 33.1278 20 34.6337V37.75C20 39.2559 21.2208 40.4767 22.7267 40.4767C24.2327 40.4767 25.4535 39.2559 25.4535 37.75V34.6337Z" fill="#CD4BA9"/>
<path d="M38.3079 49.0466C39.8138 49.0466 41.0346 50.2674 41.0346 51.7734C41.0346 53.2793 39.8138 54.5001 38.3079 54.5001H35.1916C33.6856 54.5001 32.4648 53.2793 32.4648 51.7734C32.4648 50.2674 33.6856 49.0466 35.1916 49.0466H38.3079Z" fill="#CD4BA9"/>
<path fill-rule="evenodd" clip-rule="evenodd" d="M26.2344 34.6337C26.2344 28.825 30.9432 24.1162 36.7518 24.1162C42.5604 24.1162 47.2693 28.825 47.2693 34.6337C47.2693 40.4422 42.5604 45.1511 36.7518 45.1511C30.9432 45.1511 26.2344 40.4422 26.2344 34.6337ZM33.9051 36.9455C33.4608 36.4774 32.7211 36.4581 32.253 36.9023C31.7849 37.3465 31.7655 38.0862 32.2098 38.5544C33.3368 39.7419 34.9615 40.4767 36.7518 40.4767C38.5421 40.4767 40.1668 39.7419 41.2938 38.5544C41.7382 38.0862 41.7189 37.3465 41.2506 36.9023C40.7826 36.4581 40.0429 36.4774 39.5985 36.9455C38.9105 37.6706 37.8975 38.1395 36.7518 38.1395C35.6061 38.1395 34.5932 37.6706 33.9051 36.9455Z" fill="#CD4BA9"/>
<path d="M50.7731 42.8139C50.1997 42.8139 49.6484 42.7186 49.1345 42.543C48.1879 45.7153 45.885 48.3029 42.8987 49.6328C43.2024 50.283 43.3719 51.0083 43.3719 51.7732C43.3719 51.8398 43.3706 51.906 43.368 51.9719C47.3481 50.3801 50.4025 46.9665 51.5004 42.762C51.2628 42.7962 51.02 42.8139 50.7731 42.8139Z" fill="#CD4BA9"/>
</svg>
