<svg width="45" height="45" viewBox="0 0 45 45" fill="none" xmlns="http://www.w3.org/2000/svg">
<g filter="url(#filter0_d_207_1532)">
<path d="M22.4749 36.9476C13.3743 36.9476 5.99672 29.5721 5.99672 20.4738C5.99672 11.3756 13.3743 4 22.4749 4C31.5755 4 38.9531 11.3756 38.9531 20.4738C38.9531 29.5721 31.5755 36.9476 22.4749 36.9476Z" fill="white"/>
</g>
<path d="M18.7089 19.4195L25.2064 13.2905C25.2692 13.2276 25.3481 13.1769 25.4373 13.1422C25.5266 13.1074 25.6241 13.0894 25.7228 13.0894C25.8215 13.0894 25.919 13.1074 26.0083 13.1422C26.0976 13.1769 26.1764 13.2276 26.2392 13.2905C26.3774 13.4269 26.4531 13.599 26.4531 13.7768C26.4531 13.9547 26.3774 14.1268 26.2392 14.2632L20.257 19.9059L26.2387 25.5486C26.3764 25.6852 26.4518 25.8574 26.4518 26.0351C26.4518 26.2129 26.3764 26.3851 26.2387 26.5217C26.1759 26.5846 26.097 26.6353 26.0078 26.6701C25.9185 26.7048 25.821 26.7229 25.7223 26.7229C25.6236 26.7229 25.5261 26.7048 25.4368 26.6701C25.3475 26.6353 25.2687 26.5846 25.2059 26.5217L18.7083 20.3918C18.5723 20.2547 18.498 20.0828 18.4981 19.9056C18.4982 19.7283 18.5727 19.5566 18.7089 19.4195Z" fill="#313131"/>
<defs>
<filter id="filter0_d_207_1532" x="-0.0032959" y="0" width="44.9564" height="44.9478" filterUnits="userSpaceOnUse" color-interpolation-filters="sRGB">
<feFlood flood-opacity="0" result="BackgroundImageFix"/>
<feColorMatrix in="SourceAlpha" type="matrix" values="0 0 0 0 0 0 0 0 0 0 0 0 0 0 0 0 0 0 127 0" result="hardAlpha"/>
<feOffset dy="2"/>
<feGaussianBlur stdDeviation="3"/>
<feColorMatrix type="matrix" values="0 0 0 0 0 0 0 0 0 0 0 0 0 0 0 0 0 0 0.102 0"/>
<feBlend mode="normal" in2="BackgroundImageFix" result="effect1_dropShadow_207_1532"/>
<feBlend mode="normal" in="SourceGraphic" in2="effect1_dropShadow_207_1532" result="shape"/>
</filter>
</defs>
</svg>
