<svg width="208" height="20" viewBox="0 0 208 20" fill="none" xmlns="http://www.w3.org/2000/svg">
<path d="M207.494 5.05848C207.974 5.33143 208.142 5.94191 207.869 6.42204L203.421 14.2461C203.148 14.7262 202.538 14.8941 202.058 14.6212C201.578 14.3482 201.41 13.7378 201.683 13.2576L205.636 6.30294L198.682 2.34919C198.202 2.07624 198.034 1.46576 198.307 0.985636C198.58 0.505514 199.19 0.337566 199.67 0.610516L207.494 5.05848ZM102.5 18.9279L102.477 19.9277L102.5 18.9279ZM1 5.92782C1.20805 4.9497 1.20804 4.9497 1.20804 4.9497C1.20805 4.9497 1.20806 4.9497 1.20808 4.94971C1.20812 4.94971 1.20818 4.94973 1.20827 4.94975C1.20846 4.94979 1.20875 4.94985 1.20916 4.94993C1.20996 4.95011 1.21121 4.95037 1.21288 4.95073C1.21624 4.95144 1.22133 4.95252 1.22815 4.95396C1.24179 4.95685 1.26233 4.9612 1.28968 4.96697C1.34439 4.97851 1.42634 4.99575 1.53479 5.01844C1.75169 5.06382 2.07457 5.13097 2.49747 5.21788C3.34325 5.3917 4.58905 5.64451 6.18702 5.96005L5.79958 7.92217C4.19625 7.60557 2.94539 7.35174 2.09486 7.17694C1.66959 7.08954 1.34439 7.02191 1.12525 6.97606C1.01568 6.95314 0.93262 6.93566 0.876821 6.92389C0.848922 6.918 0.827838 6.91354 0.813663 6.91054C0.806575 6.90904 0.801214 6.9079 0.797592 6.90713C0.795781 6.90675 0.794405 6.90646 0.793465 6.90626C0.792995 6.90616 0.792634 6.90608 0.792382 6.90603C0.792256 6.906 0.792157 6.90598 0.792086 6.90596C0.792051 6.90596 0.792018 6.90595 0.792 6.90595C0.791974 6.90594 0.791954 6.90594 1 5.92782ZM16.2473 7.86806C19.2584 8.41768 22.6418 9.01706 26.3226 9.64075L25.9885 11.6126C22.2986 10.9874 18.9069 10.3866 15.8881 9.83556L16.2473 7.86806ZM36.4267 11.2869C39.6731 11.7944 43.063 12.3034 46.5602 12.8016L46.2781 14.7816C42.7713 14.282 39.3725 13.7717 36.1178 13.2629L36.4267 11.2869ZM56.6907 14.1695C60.0265 14.5943 63.4226 15.0005 66.852 15.379L66.6326 17.367C63.1913 16.9871 59.784 16.5796 56.4381 16.1535L56.6907 14.1695ZM77.0285 16.4053C80.4286 16.7141 83.8347 16.9875 87.2211 17.2168L87.086 19.2122C83.6829 18.9818 80.2615 18.7072 76.8475 18.3971L77.0285 16.4053ZM97.4235 17.7688C99.1367 17.8364 100.838 17.8899 102.523 17.9282L102.477 19.9277C100.78 19.8892 99.0684 19.8353 97.3446 19.7672L97.4235 17.7688ZM102.523 17.9282C104.279 17.9681 106.033 17.9909 107.785 17.9978L107.777 19.9978C106.013 19.9908 104.246 19.9678 102.477 19.9277L102.523 17.9282ZM118.312 17.8541C121.854 17.7458 125.366 17.5799 128.834 17.3658L128.957 19.3619C125.47 19.5773 121.937 19.7442 118.373 19.8532L118.312 17.8541ZM139.338 16.5653C142.904 16.2434 146.401 15.8779 149.811 15.4799L150.042 17.4665C146.617 17.8663 143.102 18.2336 139.518 18.5572L139.338 16.5653ZM160.271 14.1272C163.886 13.615 167.362 13.0765 170.673 12.5279L171 14.501C167.674 15.052 164.182 15.5929 160.552 16.1074L160.271 14.1272ZM181.056 10.6842C184.858 9.96364 188.327 9.25624 191.399 8.59796L191.818 10.5536C188.731 11.215 185.247 11.9255 181.428 12.6493L181.056 10.6842ZM201.647 6.25989C203.292 5.85919 204.566 5.53454 205.428 5.31036C205.858 5.19827 206.186 5.11129 206.406 5.05249C206.516 5.02309 206.598 5.00073 206.654 4.98579C206.681 4.97832 206.702 4.97271 206.715 4.969C206.722 4.96715 206.727 4.96577 206.73 4.96487C206.732 4.96443 206.733 4.9641 206.734 4.96389C206.734 4.96379 206.734 4.96372 206.735 4.96367C206.735 4.96365 206.735 4.96364 206.735 4.96363C206.735 4.96363 206.735 4.96363 206.735 4.96363C206.735 4.96363 206.735 4.96364 207 5.92782C207.265 6.892 207.265 6.89201 207.265 6.89202C207.265 6.89202 207.265 6.89204 207.265 6.89205C207.265 6.89207 207.265 6.8921 207.265 6.89214C207.264 6.89222 207.264 6.89233 207.264 6.89247C207.262 6.89275 207.261 6.89315 207.259 6.89368C207.255 6.89472 207.25 6.89625 207.242 6.89825C207.228 6.90225 207.206 6.90816 207.178 6.91593C207.12 6.93146 207.035 6.95442 206.923 6.98442C206.699 7.04443 206.367 7.13263 205.931 7.24595C205.06 7.4726 203.775 7.79979 202.12 8.20306L201.647 6.25989Z" fill="#CBD4DD"/>
</svg>
