<svg width="208" height="21" viewBox="0 0 208 21" fill="none" xmlns="http://www.w3.org/2000/svg">
<path d="M207.494 15.8695C207.974 15.5965 208.142 14.9861 207.869 14.5059L203.421 6.6819C203.148 6.20178 202.538 6.03383 202.058 6.30678C201.578 6.57973 201.41 7.19022 201.683 7.67034L205.636 14.625L198.682 18.5788C198.202 18.8517 198.034 19.4622 198.307 19.9423C198.58 20.4225 199.19 20.5904 199.67 20.3175L207.494 15.8695ZM102.5 2.00004L102.477 1.0003L102.5 2.00004ZM1 15.0002C1.20805 15.9783 1.20804 15.9783 1.20804 15.9783C1.20805 15.9783 1.20806 15.9783 1.20808 15.9783C1.20812 15.9783 1.20818 15.9783 1.20827 15.9782C1.20846 15.9782 1.20875 15.9781 1.20916 15.978C1.20996 15.9779 1.21121 15.9776 1.21288 15.9773C1.21624 15.9765 1.22133 15.9755 1.22815 15.974C1.24179 15.9711 1.26233 15.9668 1.28968 15.961C1.34439 15.9495 1.42634 15.9322 1.53479 15.9095C1.75169 15.8642 2.07457 15.797 2.49747 15.7101C3.34325 15.5363 4.58905 15.2835 6.18702 14.9679L5.79958 13.0058C4.19625 13.3224 2.94539 13.5762 2.09486 13.751C1.66959 13.8384 1.34439 13.9061 1.12525 13.9519C1.01568 13.9748 0.93262 13.9923 0.876821 14.0041C0.848922 14.01 0.827838 14.0144 0.813663 14.0174C0.806575 14.0189 0.801214 14.0201 0.797592 14.0208C0.795781 14.0212 0.794405 14.0215 0.793465 14.0217C0.792995 14.0218 0.792634 14.0219 0.792382 14.022C0.792256 14.022 0.792157 14.022 0.792086 14.022C0.792051 14.022 0.792018 14.022 0.792 14.022C0.791974 14.022 0.791954 14.022 1 15.0002ZM16.2473 13.0599C19.2584 12.5103 22.6418 11.9109 26.3226 11.2872L25.9885 9.31533C22.2986 9.94055 18.9069 10.5414 15.8881 11.0924L16.2473 13.0599ZM36.4267 9.64107C39.6731 9.13357 43.063 8.62458 46.5602 8.12638L46.2781 6.14637C42.7713 6.64594 39.3725 7.15628 36.1178 7.66507L36.4267 9.64107ZM56.6907 6.75849C60.0265 6.3337 63.4226 5.92745 66.852 5.54896L66.6326 3.56103C63.1913 3.94084 59.784 4.34843 56.4381 4.77451L56.6907 6.75849ZM77.0285 4.5227C80.4286 4.21387 83.8347 3.94046 87.2211 3.71116L87.086 1.71573C83.6829 1.94616 80.2615 2.22081 76.8475 2.5309L77.0285 4.5227ZM97.4235 3.15919C99.1367 3.09157 100.838 3.03804 102.523 2.99978L102.477 1.0003C100.78 1.03882 99.0684 1.09271 97.3446 1.16075L97.4235 3.15919ZM102.523 2.99978C104.279 2.95991 106.033 2.93709 107.785 2.93021L107.777 0.930227C106.013 0.93715 104.246 0.960137 102.477 1.0003L102.523 2.99978ZM118.312 3.07386C121.854 3.18218 125.366 3.34807 128.834 3.56223L128.957 1.56603C125.47 1.35068 121.937 1.18378 118.373 1.07479L118.312 3.07386ZM139.338 4.36266C142.904 4.68458 146.401 5.0501 149.811 5.44804L150.042 3.46152C146.617 3.06168 143.102 2.69434 139.518 2.37076L139.338 4.36266ZM160.271 6.8008C163.886 7.31298 167.362 7.85144 170.673 8.40007L171 6.42697C167.674 5.87594 164.182 5.33509 160.552 4.82058L160.271 6.8008ZM181.056 10.2437C184.858 10.9643 188.327 11.6717 191.399 12.33L191.818 10.3744C188.731 9.71303 185.247 9.00245 181.428 8.27871L181.056 10.2437ZM201.647 14.6681C203.292 15.0688 204.566 15.3934 205.428 15.6176C205.858 15.7297 206.186 15.8167 206.406 15.8755C206.516 15.9049 206.598 15.9273 206.654 15.9422C206.681 15.9497 206.702 15.9553 206.715 15.959C206.722 15.9608 206.727 15.9622 206.73 15.9631C206.732 15.9636 206.733 15.9639 206.734 15.9641C206.734 15.9642 206.734 15.9643 206.735 15.9643C206.735 15.9643 206.735 15.9643 206.735 15.9643C206.735 15.9643 206.735 15.9643 206.735 15.9643C206.735 15.9643 206.735 15.9643 207 15.0002C207.265 14.036 207.265 14.036 207.265 14.036C207.265 14.036 207.265 14.0359 207.265 14.0359C207.265 14.0359 207.265 14.0359 207.265 14.0358C207.264 14.0358 207.264 14.0356 207.264 14.0355C207.262 14.0352 207.261 14.0348 207.259 14.0343C207.255 14.0333 207.25 14.0317 207.242 14.0297C207.228 14.0257 207.206 14.0198 207.178 14.0121C207.12 13.9965 207.035 13.9736 206.923 13.9436C206.699 13.8835 206.367 13.7954 205.931 13.682C205.06 13.4554 203.775 13.1282 202.12 12.7249L201.647 14.6681Z" fill="#CBD4DD"/>
</svg>
