<svg width="52" height="36" viewBox="0 0 52 36" fill="none" xmlns="http://www.w3.org/2000/svg">
<path d="M47.9298 1.10156H4.07018C2.37456 1.10156 1 2.47613 1 4.17174V32.2419C1 33.9375 2.37456 35.3121 4.07018 35.3121H47.9298C49.6254 35.3121 51 33.9375 51 32.2419V4.17174C51 2.47613 49.6254 1.10156 47.9298 1.10156Z" fill="white" stroke="#F3F3F3" stroke-width="0.877192"/>
<path d="M11.6621 12.6487C11.132 12.2842 10.4404 12.1016 9.58707 12.1016H6.28361C6.02202 12.1016 5.87751 12.2324 5.85005 12.4938L4.50806 20.9191C4.49411 21.0018 4.51481 21.0775 4.56997 21.1463C4.62481 21.2152 4.69379 21.2495 4.77639 21.2495H6.34552C6.62073 21.2495 6.772 21.119 6.79977 20.8572L7.17135 18.5858C7.18492 18.4758 7.23333 18.3863 7.31593 18.3173C7.39848 18.2485 7.50172 18.2035 7.62561 18.1829C7.74949 18.1624 7.8663 18.1521 7.97661 18.1521C8.08661 18.1521 8.21731 18.1591 8.36896 18.1728C8.52023 18.1865 8.61666 18.1932 8.65799 18.1932C9.84165 18.1932 10.7707 17.8597 11.4453 17.1918C12.1195 16.5242 12.457 15.5985 12.457 14.4143C12.457 13.6022 12.1919 13.0137 11.6621 12.6487ZM9.95878 15.1785C9.88974 15.6604 9.71102 15.9768 9.42198 16.1283C9.13288 16.28 8.71997 16.3554 8.18323 16.3554L7.50185 16.3761L7.85292 14.1665C7.88031 14.0152 7.96974 13.9394 8.12126 13.9394H8.51367C9.06397 13.9394 9.46338 14.0188 9.71114 14.1768C9.95878 14.3353 10.0414 14.6692 9.95878 15.1785Z" fill="#003087"/>
<path d="M46.5253 12.1016H44.9976C44.8458 12.1016 44.7564 12.1773 44.7292 12.3288L43.387 20.9191L43.3663 20.9604C43.3663 21.0296 43.3939 21.0947 43.4491 21.1566C43.5038 21.2185 43.5729 21.2495 43.6554 21.2495H45.0183C45.2794 21.2495 45.424 21.119 45.4519 20.8572L46.7939 12.4112V12.3906C46.7938 12.1979 46.7041 12.1016 46.5253 12.1016Z" fill="#009CDE"/>
<path d="M28.0651 15.4238C28.0651 15.3552 28.0374 15.2897 27.9827 15.2278C27.9275 15.1659 27.8655 15.1348 27.7969 15.1348H26.207C26.0553 15.1348 25.9315 15.2039 25.8354 15.3412L23.6469 18.5628L22.7384 15.4653C22.6693 15.2452 22.5181 15.1348 22.2842 15.1348H20.7355C20.6665 15.1348 20.6046 15.1658 20.5499 15.2278C20.4947 15.2897 20.4673 15.3552 20.4673 15.4238C20.4673 15.4516 20.6015 15.8575 20.8699 16.6422C21.1382 17.4271 21.4272 18.2738 21.737 19.1824C22.0467 20.0909 22.2083 20.573 22.2221 20.6277C21.0934 22.1697 20.5292 22.9957 20.5292 23.1057C20.5292 23.2848 20.6186 23.3742 20.7976 23.3742H22.3874C22.5388 23.3742 22.6626 23.3055 22.7591 23.1678L28.024 15.5684C28.0514 15.5411 28.0651 15.4931 28.0651 15.4238Z" fill="#003087"/>
<path d="M42.8705 15.1348H41.3012C41.1084 15.1348 40.9917 15.362 40.9504 15.8163C40.5922 15.2659 39.9388 14.9902 38.9889 14.9902C37.9978 14.9902 37.1545 15.362 36.4597 16.1054C35.7645 16.8488 35.4171 17.7232 35.4171 18.728C35.4171 19.5404 35.6544 20.1874 36.1292 20.6691C36.6041 21.1512 37.2407 21.3918 38.0393 21.3918C38.4383 21.3918 38.8443 21.3091 39.2573 21.144C39.6702 20.9788 39.9934 20.7587 40.2278 20.4832C40.2278 20.4971 40.2138 20.5589 40.1865 20.669C40.1587 20.7793 40.1451 20.8621 40.1451 20.9168C40.1451 21.1373 40.2344 21.2472 40.4136 21.2472H41.8383C42.0995 21.2472 42.2511 21.1166 42.2923 20.8549L43.1389 15.4652C43.1525 15.3826 43.1318 15.307 43.0769 15.238C43.0217 15.1693 42.9531 15.1348 42.8705 15.1348ZM40.1761 19.2029C39.8251 19.5471 39.4019 19.7191 38.9064 19.7191C38.507 19.7191 38.1838 19.6092 37.936 19.3888C37.6881 19.1689 37.5643 18.866 37.5643 18.4802C37.5643 17.9711 37.7363 17.5406 38.0805 17.1896C38.4242 16.8385 38.8513 16.663 39.3606 16.663C39.7456 16.663 40.0657 16.7766 40.3206 17.0036C40.5751 17.2309 40.7027 17.5441 40.7027 17.9434C40.7026 18.439 40.5271 18.8589 40.1761 19.2029Z" fill="#009CDE"/>
<path d="M19.4136 15.1348H17.8444C17.6514 15.1348 17.5346 15.362 17.4933 15.8163C17.1216 15.2659 16.4678 14.9902 15.5318 14.9902C14.5408 14.9902 13.6976 15.362 13.0026 16.1054C12.3074 16.8488 11.96 17.7232 11.96 18.728C11.96 19.5404 12.1974 20.1874 12.6723 20.6691C13.1472 21.1512 13.7837 21.3918 14.5821 21.3918C14.9673 21.3918 15.3667 21.3091 15.7796 21.144C16.1925 20.9788 16.5229 20.7587 16.7706 20.4832C16.7154 20.6484 16.688 20.793 16.688 20.9168C16.688 21.1373 16.7775 21.2472 16.9564 21.2472H18.381C18.6424 21.2472 18.794 21.1166 18.8353 20.8549L19.6818 15.4652C19.6953 15.3826 19.6748 15.307 19.6199 15.238C19.5648 15.1693 19.496 15.1348 19.4136 15.1348ZM16.7191 19.2132C16.368 19.5508 15.9377 19.7191 15.4287 19.7191C15.0293 19.7191 14.7093 19.6092 14.4686 19.3888C14.2276 19.1689 14.1072 18.866 14.1072 18.4802C14.1072 17.9711 14.2792 17.5406 14.6234 17.1896C14.9673 16.8385 15.3941 16.663 15.9035 16.663C16.2887 16.663 16.6088 16.7766 16.8637 17.0036C17.1181 17.2309 17.2456 17.5441 17.2456 17.9434C17.2456 18.4528 17.0701 18.8762 16.7191 19.2132Z" fill="#003087"/>
<path d="M35.1172 12.6487C34.5872 12.2842 33.8956 12.1016 33.0422 12.1016H29.7594C29.4839 12.1016 29.3325 12.2324 29.3051 12.4938L27.9631 20.9191C27.9492 21.0018 27.9698 21.0775 28.0251 21.1463C28.0797 21.2152 28.1489 21.2495 28.2315 21.2495H29.9244C30.0896 21.2495 30.1996 21.1601 30.2548 20.9811L30.6265 18.5858C30.6401 18.4758 30.6883 18.3863 30.771 18.3173C30.8536 18.2485 30.9567 18.2035 31.0808 18.1829C31.2046 18.1624 31.3214 18.1521 31.4318 18.1521C31.5418 18.1521 31.6725 18.1591 31.8239 18.1728C31.9753 18.1865 32.0719 18.1932 32.113 18.1932C33.2968 18.1932 34.2258 17.8597 34.9003 17.1918C35.5748 16.5242 35.912 15.5985 35.912 14.4143C35.9121 13.6022 35.647 13.0137 35.1172 12.6487ZM33.0009 16.0457C32.698 16.2522 32.2438 16.3554 31.6383 16.3554L30.9775 16.376L31.3286 14.1664C31.3558 14.0151 31.4453 13.9394 31.5969 13.9394H31.9684C32.2712 13.9394 32.512 13.9531 32.6913 13.9806C32.8699 14.0083 33.0422 14.0941 33.2074 14.2387C33.3727 14.3832 33.4551 14.5933 33.4551 14.8685C33.4551 15.4468 33.3036 15.8391 33.0009 16.0457Z" fill="#009CDE"/>
</svg>
