<svg width="52" height="32" viewBox="0 0 52 32" fill="none" xmlns="http://www.w3.org/2000/svg">
<path d="M0.999878 31.7741H51V27.2148H0.999878V31.7741Z" fill="#F1AD2B" stroke="#007E78" stroke-width="0.0543969"/>
<path d="M0.999878 4.6609H51V0.101562H0.999878V4.6609Z" fill="#182E66" stroke="#007E78" stroke-width="0.0543969"/>
<path d="M25.5703 9.68593L22.9348 22.218H19.747L22.3829 9.68593H25.5703ZM38.9811 17.7784L40.6594 13.0719L41.6246 17.7784H38.9811ZM42.5395 22.218H45.487L42.9117 9.68593H40.1928C39.5799 9.68593 39.0634 10.0472 38.8349 10.6046L34.0516 22.218H37.3995L38.064 20.3466H42.1532L42.5395 22.218ZM34.2178 18.1267C34.2317 14.8195 29.7226 14.6361 29.7526 13.1582C29.7623 12.7092 30.1833 12.2309 31.1043 12.1088C31.5607 12.0489 32.8202 12.0004 34.2482 12.6694L34.8066 10.0108C34.0395 9.72874 33.0526 9.45703 31.8249 9.45703C28.6736 9.45703 26.4566 11.1595 26.4389 13.5993C26.4189 15.4037 28.0227 16.4097 29.2284 17.0107C30.4714 17.6246 30.8882 18.0187 30.8822 18.5674C30.8734 19.4081 29.8905 19.7805 28.9758 19.7944C27.3722 19.8201 26.4428 19.3537 25.7019 19.0024L25.1234 21.75C25.8692 22.0969 27.244 22.3995 28.667 22.4148C32.0171 22.4148 34.208 20.7324 34.2178 18.1267L34.2178 18.1267ZM21.0155 9.68593L15.8506 22.218H12.4814L9.93953 12.2164C9.78553 11.6017 9.65123 11.3753 9.1826 11.1157C8.41609 10.692 7.15049 10.2959 6.03796 10.0498L6.11314 9.68593H11.5374C12.2286 9.68593 12.8499 10.1534 13.008 10.9631L14.3506 18.2154L17.6667 9.68593H21.0155H21.0155Z" fill="#182E66" stroke="#007E78" stroke-width="0.0543969"/>
</svg>
