<svg width="40" height="32" viewBox="0 0 40 32" fill="none" xmlns="http://www.w3.org/2000/svg">
<g clip-path="url(#clip0_622_596)">
<path d="M7.27153 31.6002V29.5422C7.27153 28.7531 6.79122 28.2387 5.96794 28.2387C5.55638 28.2387 5.11044 28.3759 4.80169 28.8219C4.56169 28.4445 4.21872 28.2387 3.70419 28.2387C3.36106 28.2387 3.01825 28.3416 2.74372 28.7189V28.3073H2.02341V31.6002H2.74372V29.7822C2.74372 29.1992 3.05247 28.9247 3.53278 28.9247C4.01278 28.9247 4.25309 29.2334 4.25309 29.7822V31.6002H4.97341V29.7822C4.97341 29.1992 5.31622 28.9247 5.76216 28.9247C6.24247 28.9247 6.48247 29.2334 6.48247 29.7822V31.6002H7.27153ZM17.9389 28.3073H16.7728V27.3127H16.0525V28.3073H15.4008V28.9589H16.0523V30.4683C16.0523 31.223 16.3611 31.6687 17.1843 31.6687C17.4931 31.6687 17.8359 31.5659 18.0762 31.4288L17.8703 30.8113C17.6645 30.9484 17.4245 30.9828 17.2529 30.9828C16.91 30.9828 16.7728 30.777 16.7728 30.4339V28.9589H17.9389V28.3073ZM24.0445 28.2386C23.6329 28.2386 23.3586 28.4445 23.187 28.7189V28.3073H22.4667V31.6002H23.187V29.748C23.187 29.1992 23.427 28.8905 23.8729 28.8905C24.0101 28.8905 24.1817 28.9248 24.3189 28.9591L24.5247 28.2731C24.3875 28.2388 24.1817 28.2387 24.0445 28.2387V28.2386ZM14.8176 28.5817C14.4745 28.3416 13.9943 28.2387 13.4798 28.2387C12.6567 28.2387 12.1079 28.6503 12.1079 29.302C12.1079 29.8509 12.5195 30.1595 13.2398 30.2625L13.5828 30.2969C13.9601 30.3653 14.1659 30.4683 14.1659 30.6398C14.1659 30.8798 13.8915 31.0514 13.4112 31.0514C12.9311 31.0514 12.5537 30.8798 12.3136 30.7084L11.9706 31.2572C12.3479 31.5316 12.8625 31.6687 13.3768 31.6687C14.3373 31.6687 14.8862 31.223 14.8862 30.6055C14.8862 30.0223 14.4403 29.7136 13.7542 29.6108L13.4112 29.5764C13.1025 29.542 12.8625 29.4736 12.8625 29.2678C12.8625 29.0277 13.1025 28.8905 13.4798 28.8905C13.8915 28.8905 14.3031 29.0619 14.5089 29.1648L14.8176 28.5817ZM33.9575 28.2387C33.5458 28.2387 33.2714 28.4445 33.0998 28.7189V28.3073H32.3795V31.6002H33.0998V29.748C33.0998 29.1992 33.34 28.8905 33.7858 28.8905C33.9231 28.8905 34.0947 28.9248 34.2318 28.9591L34.4376 28.2731C34.3004 28.2388 34.0947 28.2387 33.9575 28.2387ZM24.7648 29.9537C24.7648 30.9484 25.4508 31.6687 26.5142 31.6687C26.9943 31.6687 27.3373 31.5659 27.6803 31.2916L27.3373 30.7084C27.0629 30.9142 26.7886 31.017 26.4798 31.017C25.8967 31.017 25.4851 30.6055 25.4851 29.9537C25.4851 29.3364 25.8967 28.9247 26.4798 28.8905C26.7886 28.8905 27.0629 28.9933 27.3373 29.1992L27.6803 28.6161C27.3373 28.3416 26.9943 28.2387 26.5142 28.2387C25.4508 28.2387 24.7648 28.9591 24.7648 29.9537ZM31.4192 29.9537V28.3073H30.6989V28.7189C30.4587 28.4103 30.1158 28.2387 29.6698 28.2387C28.7437 28.2387 28.0234 28.9591 28.0234 29.9537C28.0234 30.9484 28.7437 31.6687 29.6698 31.6687C30.15 31.6687 30.4931 31.4973 30.6989 31.1886V31.6002H31.4192V29.9537ZM28.7779 29.9537C28.7779 29.3706 29.1553 28.8905 29.7726 28.8905C30.3558 28.8905 30.7675 29.3364 30.7675 29.9537C30.7675 30.5369 30.3558 31.017 29.7726 31.017C29.1553 30.9827 28.7779 30.5369 28.7779 29.9537ZM20.1686 28.2387C19.2081 28.2387 18.522 28.9247 18.522 29.9537C18.522 30.9828 19.2079 31.6687 20.2028 31.6687C20.6829 31.6687 21.1633 31.5316 21.5406 31.223L21.1975 30.7084C20.9231 30.9142 20.5801 31.0514 20.2372 31.0514C19.7912 31.0514 19.3453 30.8456 19.2423 30.2623H21.6778V29.9881C21.7122 28.9247 21.0948 28.2387 20.1686 28.2387ZM20.1686 28.8561C20.6143 28.8561 20.9233 29.1306 20.9917 29.6452H19.2767C19.3453 29.1992 19.654 28.8561 20.1686 28.8561ZM38.0392 29.9537V27.0039H37.3189V28.7189C37.0787 28.4103 36.7358 28.2387 36.2898 28.2387C35.3637 28.2387 34.6434 28.9591 34.6434 29.9537C34.6434 30.9484 35.3637 31.6687 36.2898 31.6687C36.7701 31.6687 37.1131 31.4973 37.3189 31.1886V31.6002H38.0392V29.9537ZM35.3981 29.9537C35.3981 29.3706 35.7753 28.8905 36.3928 28.8905C36.9759 28.8905 37.3875 29.3364 37.3875 29.9537C37.3875 30.5369 36.9759 31.017 36.3928 31.017C35.7753 30.9827 35.3981 30.5369 35.3981 29.9537ZM11.3189 29.9537V28.3073H10.5986V28.7189C10.3584 28.4103 10.0154 28.2387 9.5695 28.2387C8.64341 28.2387 7.92309 28.9591 7.92309 29.9537C7.92309 30.9484 8.64341 31.6687 9.5695 31.6687C10.0498 31.6687 10.3928 31.4973 10.5986 31.1886V31.6002H11.3189V29.9537ZM8.64341 29.9537C8.64341 29.3706 9.02075 28.8905 9.6381 28.8905C10.2212 28.8905 10.6329 29.3364 10.6329 29.9537C10.6329 30.5369 10.2212 31.017 9.6381 31.017C9.02075 30.9827 8.64341 30.5369 8.64341 29.9537Z" fill="white"/>
<path d="M14.5781 3.30078H25.3828V22.715H14.5781V3.30078Z" fill="#FF5F00"/>
<path d="M15.2639 13.0084C15.2639 9.06391 17.1161 5.56516 19.9629 3.30125C17.8708 1.65484 15.2297 0.660156 12.3484 0.660156C5.52231 0.660156 -3.05176e-05 6.1825 -3.05176e-05 13.0084C-3.05176e-05 19.8342 5.52231 25.3567 12.3483 25.3567C15.2295 25.3567 17.8706 24.362 19.9629 22.7155C17.1161 20.4859 15.2639 16.953 15.2639 13.0084Z" fill="#EB001B"/>
<path d="M39.959 13.0084C39.959 19.8342 34.4367 25.3567 27.6107 25.3567C24.7295 25.3567 22.0884 24.362 19.9961 22.7155C22.8773 20.4517 24.6953 16.953 24.6953 13.0084C24.6953 9.06391 22.8429 5.56516 19.9961 3.30125C22.0883 1.65484 24.7295 0.660156 27.6107 0.660156C34.4367 0.660156 39.959 6.21688 39.959 13.0084Z" fill="#F79E1B"/>
</g>
<defs>
<clipPath id="clip0_622_596">
<rect width="40" height="31.0938" fill="white" transform="translate(-3.05176e-05 0.660156)"/>
</clipPath>
</defs>
</svg>
