<svg width="50" height="31" viewBox="0 0 50 31" fill="none" xmlns="http://www.w3.org/2000/svg">
<path d="M50 15.2073C50 23.4685 43.304 30.1658 35.0432 30.1658C26.7831 30.1658 20.0864 23.469 20.0864 15.2073C20.0864 6.94544 26.7829 0.248047 35.0432 0.248047C43.3043 0.248047 50 6.94536 50 15.2073Z" fill="#D9222A"/>
<path d="M23.4889 24.706C23.0747 24.2036 22.694 23.6743 22.3493 23.1218H27.6503C27.9693 22.6117 28.2571 22.0825 28.5122 21.5374H21.4878C21.2466 21.0222 21.0353 20.4936 20.8547 19.9541H29.1445C29.6434 18.4621 29.9136 16.8665 29.9136 15.2072C29.9136 14.12 29.7976 13.0602 29.5779 12.0394H20.4229C20.5383 11.5038 20.6831 10.975 20.8569 10.4554H29.1437C28.9628 9.91605 28.7515 9.3873 28.511 8.87171H21.4898C21.745 8.32695 22.0328 7.79803 22.3512 7.28761H27.6488C27.3035 6.7361 26.923 6.20743 26.5096 5.70501H23.4909C23.955 5.14142 24.4595 4.61225 25.0002 4.12167C22.3457 1.71464 18.822 0.248047 14.9568 0.248047C6.69623 0.24813 0 6.94544 0 15.2073C0 23.4685 6.69656 30.1658 14.9576 30.1658C18.8233 30.1658 22.3466 28.6995 25.0011 26.2929C25.5427 25.8015 26.0477 25.2712 26.5122 24.7064H23.4899" fill="#0097D0"/>
<path d="M48.0058 23.5432C48.0058 23.2765 48.2222 23.0602 48.4892 23.0602C48.7558 23.0603 48.9719 23.2765 48.9718 23.5432C48.9718 23.8102 48.7558 24.0265 48.4892 24.0265C48.2223 24.0266 48.0058 23.8102 48.0058 23.5432ZM48.4892 23.9105C48.6917 23.9106 48.856 23.7465 48.8562 23.5441V23.5432C48.8562 23.3409 48.6922 23.1768 48.4899 23.1768H48.4892C48.2867 23.1763 48.1222 23.3403 48.1217 23.5428V23.5432C48.1217 23.746 48.286 23.9104 48.4887 23.9105H48.4892ZM48.4236 23.7553H48.3249V23.331H48.504C48.5412 23.331 48.5793 23.3313 48.6123 23.3525C48.6471 23.3761 48.6662 23.4171 48.6662 23.4584C48.6662 23.5069 48.638 23.551 48.5928 23.568L48.6707 23.7552H48.5611L48.4965 23.5878H48.4236V23.7553ZM48.4236 23.5154H48.4784C48.4989 23.5154 48.5205 23.5168 48.5389 23.5069C48.5548 23.4956 48.5642 23.4772 48.564 23.4576C48.5632 23.4403 48.5543 23.4245 48.54 23.4148C48.5223 23.4044 48.4949 23.4064 48.4764 23.4064H48.4236V23.5154ZM24.7867 19.2483C24.1474 19.4177 23.5293 19.5004 22.8758 19.4991C20.7911 19.4971 19.7053 18.5476 19.7053 16.7324C19.7053 14.6108 21.0876 13.0504 22.9638 13.0504C24.4985 13.0504 25.4784 13.9254 25.4784 15.2959C25.4784 15.7508 25.412 16.1935 25.2496 16.8206H21.5422C21.4103 17.7067 22.0579 18.0961 23.16 18.0961C23.8204 18.0961 24.4177 17.9772 25.0787 17.7117L24.7867 19.2483ZM23.7898 15.569C23.7898 15.4351 23.9961 14.4829 22.9232 14.4621C22.3308 14.4621 21.9058 14.8558 21.7339 15.569H23.7898ZM26.0426 15.1532C26.0426 15.9369 26.484 16.4782 27.4867 16.8812C28.2533 17.1954 28.3741 17.2861 28.3741 17.5664C28.3741 17.955 28.0353 18.1335 27.2831 18.1285C26.7183 18.1244 26.203 18.056 25.5945 17.8871L25.3254 19.3166C25.866 19.442 26.6245 19.4833 27.2962 19.499C29.2982 19.499 30.2226 18.8434 30.2226 17.4267C30.2226 16.5753 29.8372 16.0739 28.8865 15.7006C28.0917 15.3832 27.9984 15.3141 27.9984 15.027C27.9984 14.6895 28.3132 14.5187 28.9274 14.5187C29.2993 14.5187 29.809 14.5531 30.2924 14.611L30.564 13.1742C30.0713 13.1054 29.3236 13.0506 28.8911 13.0506C26.7704 13.0507 26.0364 14.0056 26.0426 15.1532ZM18.689 19.3966H17.1339L17.171 18.7449C16.6967 19.2591 16.065 19.4983 15.2078 19.4983C14.1932 19.4983 13.498 18.8046 13.498 17.807C13.498 16.2908 14.7063 15.4161 16.7838 15.4161C16.9974 15.4161 17.2689 15.432 17.5477 15.4629C17.6053 15.2601 17.621 15.173 17.621 15.0623C17.621 14.6473 17.2942 14.4945 16.4199 14.4945C15.5581 14.498 14.9765 14.6254 14.4369 14.7706L14.7026 13.3789C15.6355 13.1417 16.2467 13.0505 16.938 13.0505C18.5467 13.0505 19.3963 13.681 19.3963 14.8668C19.4102 15.1831 19.2998 15.8179 19.2446 16.0957C19.1814 16.5 18.7356 18.8435 18.689 19.3966ZM17.3241 16.6306C17.127 16.6104 17.0411 16.6046 16.9064 16.6046C15.8456 16.6046 15.3078 16.9202 15.3078 17.5435C15.3078 17.9345 15.5702 18.1797 15.9793 18.1797C16.7415 18.1796 17.2918 17.542 17.3241 16.6306ZM33.5001 19.2982C32.9897 19.4382 32.5921 19.4989 32.1618 19.4989C31.2089 19.4989 30.6888 19.0121 30.6888 18.1447C30.6591 17.9066 30.8918 16.8064 30.9443 16.5C30.9972 16.1924 31.8225 11.709 31.8225 11.709H33.6735L33.3934 13.1923H34.3428L34.0847 14.7066H33.1313C33.1313 14.7066 32.6081 17.334 32.6081 17.5345C32.6081 17.8531 32.8011 17.9917 33.2442 17.9917C33.4564 17.9917 33.62 17.972 33.7466 17.934L33.5001 19.2982ZM41.7707 13.0503C40.4141 13.0503 39.354 13.6087 38.7383 14.5413L39.2727 13.1583C38.288 12.7969 37.6531 13.3125 37.0789 14.0458C37.0789 14.0458 36.9827 14.1677 36.8872 14.2792V13.1917H35.149C34.9136 15.1108 34.4974 17.0566 34.1716 18.9789L34.0932 19.3973H35.963C36.1401 18.4216 36.286 17.6295 36.4311 16.9983C36.8285 15.266 37.4967 14.7365 38.5002 14.9705C38.2687 15.4688 38.1415 16.0449 38.1415 16.6834C38.1415 18.2317 38.9825 19.4991 41.0706 19.4991C43.1779 19.4991 44.7037 18.3733 44.7037 15.8066C44.7037 14.2583 43.687 13.0503 41.7707 13.0503ZM41.2266 17.9934C40.5661 18.0038 40.1658 17.4497 40.1658 16.6208C40.1658 15.6382 40.7503 14.5281 41.6887 14.5281C42.4459 14.5281 42.7053 15.1284 42.7053 15.768C42.7054 17.1664 42.1324 17.9934 41.2266 17.9934ZM12.6272 19.3973H10.7653L11.8719 13.5678L9.3243 19.3973H7.62711L7.31661 13.6014L6.2066 19.3973H4.51733L5.95626 11.8142H8.86571L9.10838 16.0414L10.9515 11.8142H14.0949L12.6272 19.3973Z" fill="black"/>
<path d="M44.8458 18.4471C44.8459 18.1805 45.0621 17.9643 45.3288 17.9642C45.5958 17.9642 45.8118 18.1808 45.8118 18.4471C45.8168 18.7138 45.6045 18.9342 45.3378 18.9391C45.071 18.9442 44.8507 18.7319 44.8458 18.4651C44.8456 18.4591 44.8456 18.4531 44.8458 18.4471ZM45.3288 18.8148C45.5317 18.8146 45.6961 18.65 45.6961 18.4471C45.6961 18.2443 45.5314 18.0803 45.3288 18.0803C45.1259 18.0803 44.9614 18.2445 44.9614 18.4471C44.9614 18.65 45.1258 18.8146 45.3288 18.8148ZM45.2634 18.6593H45.1644V18.2357H45.3436C45.381 18.2357 45.4193 18.2357 45.4523 18.2565C45.4863 18.2798 45.5061 18.3206 45.5061 18.3624C45.5061 18.4106 45.478 18.4553 45.4325 18.4721L45.5103 18.6593H45.4007L45.3364 18.4918H45.2635V18.6593H45.2634ZM45.2634 18.4187H45.3183C45.3384 18.4187 45.3603 18.4201 45.3787 18.4106C45.3945 18.3993 45.4038 18.3811 45.4033 18.3616C45.4029 18.3444 45.3942 18.3285 45.3798 18.3189C45.3621 18.3081 45.3347 18.3108 45.3162 18.3108H45.2634V18.4187ZM25.2541 18.7815C24.6152 18.9509 23.9967 19.0338 23.3436 19.0325C21.2589 19.0304 20.1731 18.0808 20.1731 16.2651C20.1731 14.1443 21.5547 12.5835 23.4311 12.5835C24.9662 12.5835 25.9458 13.4582 25.9458 14.8287C25.9458 15.2843 25.8791 15.7263 25.7174 16.3538H22.0101C21.8781 17.2396 22.5251 17.6295 23.6275 17.6295C24.2879 17.6295 24.8847 17.5107 25.5465 17.2448L25.2541 18.7815ZM24.2572 15.1023C24.2572 14.9686 24.4632 14.0162 23.3906 13.9957C22.7983 13.9957 22.3736 14.3898 22.2014 15.1023H24.2572ZM26.5103 14.686C26.5103 15.47 26.9509 16.011 27.9541 16.4148C28.7211 16.7288 28.8414 16.8196 28.8414 17.0992C28.8414 17.4881 28.5027 17.6667 27.7509 17.6617C27.1856 17.6578 26.6703 17.5892 26.0623 17.4204L25.7925 18.8493C26.3334 18.9756 27.0923 19.0169 27.7636 19.0325C29.7657 19.0325 30.6904 18.3766 30.6904 16.9599C30.6904 16.1085 30.3046 15.6069 29.3536 15.2339C28.5588 14.9165 28.4658 14.8474 28.4658 14.5603C28.4658 14.2228 28.781 14.052 29.3946 14.052C29.7672 14.052 30.2765 14.0867 30.7603 14.1447L31.0311 12.7075C30.5384 12.6388 29.7912 12.5839 29.359 12.5839C27.2374 12.5839 26.5038 13.5384 26.5103 14.686ZM19.1568 18.9302H17.6013L17.6388 18.2785C17.1641 18.7917 16.5325 19.0313 15.6755 19.0313C14.6609 19.0313 13.9654 18.3374 13.9654 17.3407C13.9654 15.8236 15.1733 14.9493 17.2512 14.9493C17.4648 14.9493 17.7358 14.9653 18.0154 14.9962C18.073 14.7935 18.0883 14.7066 18.0883 14.5956C18.0883 14.1803 17.7619 14.0278 16.8877 14.0278C16.0258 14.0313 15.4442 14.159 14.9046 14.3039L15.17 12.9125C16.1032 12.675 16.7141 12.5837 17.4058 12.5837C19.0144 12.5837 19.8637 13.2143 19.8637 14.3997C19.8776 14.7164 19.7672 15.3508 19.7124 15.6292C19.6488 16.0332 19.203 18.3766 19.1568 18.9302ZM17.7912 16.1636C17.5947 16.1433 17.5085 16.1376 17.3734 16.1376C16.3133 16.1376 15.7751 16.4533 15.7751 17.0767C15.7751 17.4678 16.0379 17.7127 16.4463 17.7127C17.2093 17.7127 17.7595 17.0749 17.7912 16.1636ZM33.9672 18.8318C33.4572 18.9715 33.0592 19.0325 32.6292 19.0325C31.6764 19.0325 31.1566 18.5453 31.1566 17.678C31.1265 17.4402 31.3596 16.3397 31.4119 16.0332C31.4647 15.7256 32.29 11.2422 32.29 11.2422H34.1407L33.8612 12.7255H34.8107L34.5526 14.2398H33.5992C33.5992 14.2398 33.0757 16.8673 33.0757 17.0676C33.0757 17.3863 33.269 17.5242 33.7117 17.5242C33.9236 17.5242 34.0875 17.5051 34.2142 17.4666L33.9672 18.8318ZM43.1731 15.3012C43.1731 16.6992 42.5997 17.527 41.6935 17.527C41.0334 17.5363 40.633 16.9832 40.633 16.1541C40.633 15.1714 41.2171 14.0613 42.1556 14.0613C42.9133 14.0613 43.1731 14.6624 43.1731 15.3012ZM45.1713 15.3401C45.1713 13.7919 44.154 12.5835 42.2385 12.5835C40.0343 12.5835 38.6092 14.0523 38.6092 16.2166C38.6092 17.7647 39.4495 19.0325 41.5383 19.0325C43.6457 19.0325 45.1713 17.9065 45.1713 15.3401ZM35.6163 12.7249C35.3812 14.644 34.9649 16.5895 34.6394 18.5124L34.5606 18.9308H36.4302C37.1042 15.2176 37.3302 14.1597 38.742 14.5323L39.421 12.775C38.4365 12.4136 37.8023 12.9295 37.2286 13.6632C37.2804 13.333 37.3779 13.0146 37.3544 12.725L35.6163 12.7249ZM13.0944 18.9308H11.2329L12.3391 13.1009L9.79118 18.9308H8.09434L7.78383 13.1345L6.67382 18.9308H4.98456L6.42315 11.3474H9.33326L9.4871 16.0419L11.535 11.3474H14.5621L13.0944 18.9308Z" fill="white"/>
</svg>
