<svg width="55" height="35" viewBox="0 0 55 35" fill="none" xmlns="http://www.w3.org/2000/svg">
<path fill-rule="evenodd" clip-rule="evenodd" d="M2.2 0C0.984973 0 0 0.984972 0 2.2V32.2131C0 33.4281 0.984972 34.4131 2.2 34.4131H52.8C54.015 34.4131 55 33.4281 55 32.2131V2.2C55 0.984974 54.015 0 52.8 0H2.2Z" fill="#1D5B99"/>
<path fill-rule="evenodd" clip-rule="evenodd" d="M52.1574 0.642578C53.3724 0.642578 54.3574 1.62755 54.3574 2.84258V31.5707C54.3574 32.7858 53.3724 33.7707 52.1574 33.7707H2.84355C1.62852 33.7707 0.643555 32.7858 0.643555 31.5707V2.84257C0.643555 1.62755 1.62853 0.642578 2.84355 0.642578H52.1574Z" fill="white"/>
<path fill-rule="evenodd" clip-rule="evenodd" d="M50.4466 32.3278C51.6616 32.3278 52.6466 31.3428 52.6466 30.1278V4.45C52.6466 3.23497 51.6616 2.25 50.4466 2.25H4.44707C3.23204 2.25 2.24707 3.23497 2.24707 4.45V30.1278C2.24707 31.3428 3.23204 32.3278 4.44707 32.3278H50.4466Z" fill="#1D5B99"/>
<path fill-rule="evenodd" clip-rule="evenodd" d="M16.041 20.2445C16.041 20.3278 16.1251 20.3845 16.2018 20.3519C21.2811 18.1965 28.2795 16.2671 37.4282 17.8672C38.1534 17.9941 38.8392 17.4635 38.8697 16.7279C38.8957 16.1014 38.4307 15.5599 37.8057 15.5092C27.9514 14.7112 20.8132 17.8627 16.1056 20.1406C16.0656 20.1599 16.041 20.2001 16.041 20.2445Z" fill="#E7A83A"/>
<path fill-rule="evenodd" clip-rule="evenodd" d="M6.39213 24.4717C6.39184 23.2564 7.3769 22.2711 8.59213 22.2711H10.6686C11.0875 22.2711 11.4272 22.6108 11.4272 23.0297C11.4272 23.4487 11.0875 23.7884 10.6686 23.7884H8.9884C8.60564 23.7884 8.29377 24.0956 8.28807 24.4783C8.28225 24.8692 8.59749 25.1892 8.9884 25.1892H10.6684C11.0699 25.1892 11.3954 25.5147 11.3954 25.9162C11.3954 26.3177 11.0699 26.6432 10.6684 26.6432H8.97291C8.5839 26.6432 8.26942 26.9602 8.27253 27.3492C8.27559 27.7338 8.58826 28.044 8.97291 28.044H10.6055C11.0244 28.044 11.364 28.3836 11.364 28.8025C11.364 29.2213 11.0244 29.5609 10.6055 29.5609H8.59283C7.37801 29.5609 6.39313 28.5763 6.39283 27.3615L6.39213 24.4717ZM12.6926 22.5769C12.6922 22.0704 13.1027 21.6597 13.6091 21.6597C14.115 21.6597 14.5252 22.0695 14.5256 22.5754L14.5305 28.6437C14.531 29.1501 14.1205 29.5609 13.6141 29.5609C13.1082 29.5609 12.698 29.1511 12.6976 28.6452L12.6926 22.5769ZM20.5642 28.4969C20.7184 28.7653 20.6609 29.1115 20.3905 29.2624C19.8077 29.5877 19.0803 29.7505 18.4177 29.7505C16.4901 29.7505 15.6155 28.3812 15.6155 27.0221C15.6155 25.4208 16.8164 24.0623 18.4703 24.0623C19.7478 24.0623 20.4706 24.6339 20.8297 25.5141C21.2132 26.4541 20.302 27.3173 19.2869 27.3173C18.2717 27.3173 17.6504 28.3949 18.6652 28.4224C18.6843 28.423 18.7037 28.4232 18.7234 28.4232C19.0898 28.4232 19.3636 28.3616 19.6232 28.2462C19.9644 28.0945 20.3782 28.173 20.5642 28.4969ZM18.5851 26.2428C19.0804 26.2428 19.5442 25.7654 19.19 25.4193C19.0505 25.2829 18.8583 25.1995 18.6076 25.1995C18.4172 25.1995 18.2416 25.2552 18.0875 25.3488C17.5978 25.6461 18.0123 26.2428 18.5851 26.2428ZM26.3667 28.6072C26.5473 28.9421 26.4348 29.3615 26.077 29.4912C25.6393 29.65 25.1412 29.7505 24.7388 29.7505C23.0535 29.7505 21.842 28.7813 21.842 27.033C21.842 25.2421 23.0429 24.0623 24.855 24.0623C25.2473 24.0623 25.6882 24.1394 26.0646 24.2608C26.417 24.3745 26.5329 24.7767 26.3696 25.109C26.1994 25.4555 25.7918 25.5829 25.4094 25.5302C25.3406 25.5207 25.2715 25.5155 25.2025 25.5155C24.2861 25.5155 23.6749 26.0638 23.6749 26.9377C23.6749 27.6968 24.265 28.2968 25.0446 28.2968C25.1592 28.2968 25.2739 28.2796 25.3867 28.2513C25.7647 28.1564 26.1818 28.2641 26.3667 28.6072ZM27.3524 24.6583C27.3596 24.4317 27.5453 24.2517 27.7721 24.2517C28.0045 24.2517 28.1927 24.0628 28.192 23.8303L28.1902 23.3259C28.1886 22.8426 28.5799 22.4499 29.0633 22.4499C29.5535 22.4499 29.9476 22.8533 29.9361 23.3433L29.9325 23.4989C29.9229 23.9117 30.2549 24.2517 30.668 24.2517H30.7416C31.1144 24.2517 31.4142 24.5587 31.4052 24.9315C31.3965 25.2917 31.1019 25.5793 30.7416 25.5793H30.6456C30.2247 25.5793 29.8829 25.9205 29.869 26.3412C29.8533 26.815 29.8306 27.2523 29.8306 27.5492C29.8306 28.0125 29.9467 28.2336 30.3577 28.2336C30.7307 28.2336 31.141 28.3204 31.2553 28.6755L31.2777 28.7452C31.3681 29.0261 31.2559 29.3378 30.985 29.4551C30.5521 29.6425 30.0775 29.7508 29.6198 29.7508C28.1343 29.7508 28.0608 28.8133 28.0608 27.5913C28.0608 27.0593 28.0955 26.5279 28.1084 25.968C28.1133 25.7533 27.9391 25.5793 27.7244 25.5793C27.5049 25.5793 27.329 25.3977 27.3359 25.1783L27.3524 24.6583ZM32.3519 25.1647C32.3559 24.6593 32.7667 24.2517 33.2721 24.2517H33.8183C34.0249 24.2517 34.1923 24.4192 34.1923 24.6258V24.9867C34.1923 24.994 34.1982 24.9998 34.2055 24.9998C34.2101 24.9998 34.2144 24.9974 34.2168 24.9935C34.4902 24.5427 34.8483 24.1041 35.5617 24.1041C35.9038 24.1041 36.1275 24.4279 36.0821 24.767L36.0081 25.3206C35.9618 25.6668 35.6158 25.8738 35.2665 25.8738C34.6556 25.8738 34.1815 26.3901 34.1815 26.4956L34.1593 28.6532C34.1542 29.1562 33.745 29.5612 33.242 29.5612C32.7325 29.5612 32.3206 29.1461 32.3246 28.6366L32.3519 25.1647ZM39.4831 24.062C41.4422 24.062 42.4537 25.3053 42.4537 26.906C42.4537 28.5073 41.4422 29.7505 39.4831 29.7505C37.5234 29.7505 36.5118 28.5073 36.5118 26.906C36.5115 25.3053 37.5234 24.062 39.4831 24.062ZM39.4831 28.3597C40.3571 28.3597 40.6205 27.6013 40.6205 26.906C40.6205 26.2107 40.3571 25.4529 39.4831 25.4529C38.6085 25.4529 38.3451 26.2107 38.3451 26.906C38.3451 27.6013 38.6085 28.3597 39.4831 28.3597ZM43.4427 25.1643C43.4468 24.6591 43.8575 24.2517 44.3627 24.2517H45.1107C45.2057 24.2517 45.2827 24.3287 45.2827 24.4237C45.2827 24.5758 45.4712 24.6585 45.594 24.5687C45.9902 24.2792 46.4918 24.0623 47.0001 24.0623C48.1273 24.0623 48.7381 24.6835 48.7381 26.1375C48.7381 26.9413 48.7325 27.7912 48.7254 28.6533C48.7212 29.156 48.3123 29.5612 47.8096 29.5612C47.3001 29.5612 46.8887 29.1455 46.8934 28.636C46.9001 27.9133 46.9055 27.1778 46.9055 26.4112C46.9055 25.9794 46.7893 25.6425 46.2417 25.6425C46.1923 25.6425 46.1393 25.6496 46.0843 25.6624C45.5021 25.7985 45.2818 26.4648 45.2801 27.0626L45.2756 28.6335C45.2742 29.1463 44.8581 29.5612 44.3453 29.5612C43.8285 29.5612 43.4108 29.1401 43.4149 28.6234L43.4427 25.1643ZM22.8026 13.3148C22.1391 13.3148 21.6639 12.6741 21.8565 12.0391L23.5732 6.38085C23.6996 5.96418 24.0838 5.67929 24.5192 5.67929C25.1827 5.67929 25.6578 6.31993 25.4652 6.95483L23.7487 12.6131C23.6223 13.0298 23.2381 13.3148 22.8026 13.3148ZM21.0901 5.68105C20.7536 5.68105 20.4428 5.86096 20.2752 6.15274L18.6873 8.91775C18.2177 9.76004 17.9414 10.188 17.8074 10.7182C17.8057 10.725 17.7995 10.7298 17.7925 10.7298C17.7838 10.7298 17.7769 10.7226 17.7773 10.7139C17.8077 10.0378 17.7144 9.21364 17.7057 8.74578L17.6229 7.50989C17.554 6.48067 16.6991 5.68105 15.6676 5.68105H14.1085C14.0586 5.68105 14.0158 5.71693 14.0072 5.76614C13.9961 5.82912 14.0449 5.88665 14.1087 5.88977C14.9283 5.92974 15.4165 6.37831 15.5558 7.25383L16.0896 12.0264C16.1717 12.76 16.7919 13.3148 17.5301 13.3148C18.052 13.3148 18.5336 13.0342 18.791 12.5803L21.9074 7.08417C22.2626 6.45777 21.8101 5.68105 21.0901 5.68105ZM37.1836 13.3149C36.8651 13.3148 36.6025 13.0651 36.5866 12.747C36.5708 12.429 36.3084 12.1793 35.9901 12.1791L34.6058 12.1781C34.2234 12.1778 33.8745 12.4022 33.7135 12.7491C33.5541 13.0927 33.2085 13.3151 32.8297 13.3151C32.0951 13.3151 31.6254 12.5321 31.9713 11.884L34.7607 6.65683C35.0769 6.06416 35.6941 5.69399 36.3658 5.69399C37.3072 5.69399 38.0931 6.41204 38.1779 7.34957L38.616 12.1948C38.6704 12.7965 38.1965 13.315 37.5924 13.3149L37.1836 13.3149ZM36.3784 8.81104C36.3552 8.25388 36.3362 7.50051 36.3728 7.03499C36.3736 7.02513 36.3658 7.01689 36.3559 7.01689C36.3486 7.01689 36.3423 7.02107 36.34 7.02797C36.2076 7.4181 35.6753 8.53946 35.44 9.09414L35.1225 9.78521C34.9116 10.2443 35.247 10.7675 35.7522 10.7675C36.1495 10.7675 36.4654 10.4341 36.4442 10.0374L36.3784 8.81104ZM28.0211 13.5323C27.0763 13.5323 26.3371 13.338 25.7458 13.0889C25.2692 12.8882 25.1392 12.2961 25.4224 11.8635C25.6842 11.4638 26.1973 11.3591 26.6255 11.571C27.0056 11.7591 27.4484 11.901 28.1158 11.901C28.4771 11.901 28.8237 11.8076 29.0207 11.466C29.3085 10.9691 28.9545 10.7022 28.1478 10.2451L27.7495 9.98578C26.5527 9.16822 26.0347 8.39212 26.598 7.03629C26.959 6.16935 27.9091 5.51172 29.4778 5.51172C30.1761 5.51172 30.8466 5.70682 31.393 5.96815C31.8369 6.18053 31.8968 6.74987 31.5775 7.12441C31.2743 7.48011 30.7532 7.50834 30.3377 7.29437C30.0369 7.13951 29.7453 7.06157 29.4308 7.06157C28.9951 7.06157 28.6638 7.22973 28.5494 7.45668C28.3342 7.88354 28.6188 8.1734 29.2476 8.56439L29.7218 8.86601C31.1743 9.78176 31.5201 10.7425 31.1567 11.6409C30.5299 13.1866 29.3041 13.5323 28.0211 13.5323Z" fill="white"/>
</svg>
