<svg width="52" height="36" viewBox="0 0 52 36" fill="none" xmlns="http://www.w3.org/2000/svg">
<path d="M47.9297 1.10156H4.07005C2.37444 1.10156 0.999878 2.47613 0.999878 4.17174V32.2419C0.999878 33.9375 2.37444 35.3121 4.07005 35.3121H47.9297C49.6253 35.3121 50.9999 33.9375 50.9999 32.2419V4.17174C50.9999 2.47613 49.6253 1.10156 47.9297 1.10156Z" fill="#006FCF" stroke="#F3F3F3" stroke-width="0.877192"/>
<path fill-rule="evenodd" clip-rule="evenodd" d="M10.9685 26.0085V18.7853H19.1471L20.0246 19.855L20.9311 18.7853H50.6176V25.5104C50.6176 25.5104 49.8413 26.0013 48.9434 26.0085H32.5053L31.516 24.8699V26.0085H28.2741V24.0648C28.2741 24.0648 27.8312 24.3361 26.8738 24.3361H25.7703V26.0085H20.8617L19.9855 24.9159L19.0958 26.0085H10.9685ZM1.43933 13.3412L3.27946 9.32031H6.46179L7.50609 11.5726V9.32031H11.462L12.0837 10.9482L12.6863 9.32031H30.4443V10.1387C30.4443 10.1387 31.3778 9.32031 32.912 9.32031L38.6739 9.33919L39.7001 11.562V9.32031H43.0106L43.9218 10.5971V9.32031H47.2627V16.5436H43.9218L43.0486 15.2626V16.5436H38.1848L37.6956 15.4049H36.388L35.9069 16.5436H32.6084C31.2882 16.5436 30.4443 15.7419 30.4443 15.7419V16.5436H25.471L24.4839 15.4049V16.5436H5.99035L5.50155 15.4049H4.19815L3.7128 16.5436H1.43933V13.3412ZM1.44882 15.6193L3.93076 10.2108H5.81238L8.29195 15.6193H6.64049L6.18492 14.5363H3.52265L3.06469 15.6193H1.44882ZM5.66053 13.3621L4.84903 11.4695L4.03516 13.3621H5.66053ZM8.4628 15.6184V10.2098L10.7591 10.2179L12.0946 13.7049L13.3982 10.2098H15.6761V15.6184H14.2335V11.6332L12.7042 15.6184H11.439L9.90547 11.6332V15.6184H8.4628ZM16.6632 15.6184V10.2098H21.3708V11.4197H18.121V12.3448H21.2949V13.4834H18.121V14.4442H21.3708V15.6184H16.6632ZM22.206 15.6193V10.2108H25.4164C26.4801 10.2108 27.4333 10.8273 27.4333 11.9655C27.4333 12.9384 26.6297 13.5651 25.8506 13.6267L27.7489 15.6193H25.9859L24.2561 13.6979H23.6486V15.6193H22.206ZM25.2978 11.4206H23.6486V12.5592H25.3192C25.6083 12.5592 25.9811 12.3492 25.9811 11.9899C25.9811 11.7106 25.6934 11.4206 25.2978 11.4206ZM29.4952 15.6184H28.0222V10.2098H29.4952V15.6184ZM32.988 15.6184H32.67C31.1316 15.6184 30.1976 14.4825 30.1976 12.9364C30.1976 11.3521 31.1212 10.2098 33.0639 10.2098H34.6585V11.4909H33.0056C32.217 11.4909 31.6592 12.0677 31.6592 12.9497C31.6592 13.9972 32.297 14.4371 33.2157 14.4371H33.5954L32.988 15.6184ZM33.6452 15.6193L36.1271 10.2108H38.0088L40.4884 15.6193H38.8369L38.3813 14.5363H35.7191L35.2611 15.6193H33.6452ZM37.857 13.3621L37.0455 11.4695L36.2316 13.3621H37.857ZM40.6569 15.6184V10.2098H42.491L44.8329 13.608V10.2098H46.2756V15.6184H44.5007L42.0995 12.1313V15.6184H40.6569ZM11.9556 25.0834V19.6748H16.6632V20.8847H13.4134V21.8098H16.5872V22.9484H13.4134V23.9092H16.6632V25.0834H11.9556ZM35.0229 25.0834V19.6748H39.7305V20.8847H36.4807V21.8098H39.6394V22.9484H36.4807V23.9092H39.7305V25.0834H35.0229ZM16.8459 25.0834L19.138 22.4125L16.7913 19.6748H18.6089L20.0064 21.3672L21.4087 19.6748H23.1551L20.8392 22.3791L23.1356 25.0834H21.3184L19.9613 23.4177L18.6373 25.0834H16.8459ZM23.307 25.0843V19.6758H26.4936C27.8012 19.6758 28.5651 20.4656 28.5651 21.4949C28.5651 22.7375 27.5912 23.3763 26.3062 23.3763H24.7876V25.0843H23.307ZM26.3869 20.8989H24.7876V22.1443H26.3821C26.8035 22.1443 27.0987 21.8825 27.0987 21.5216C27.0987 21.1374 26.802 20.8989 26.3869 20.8989ZM29.1915 25.0834V19.6748H32.4019C33.4656 19.6748 34.4188 20.2913 34.4188 21.4295C34.4188 22.4025 33.6152 23.0291 32.8361 23.0908L34.7343 25.0834H32.9713L31.2416 23.1619H30.6342V25.0834H29.1915ZM32.2833 20.8847H30.6342V22.0232H32.3046C32.5938 22.0232 32.9666 21.8133 32.9666 21.454C32.9666 21.1747 32.6789 20.8847 32.2833 20.8847ZM40.3987 25.0834V23.9092H43.2859C43.7131 23.9092 43.8981 23.6928 43.8981 23.4555C43.8981 23.2282 43.7137 22.9982 43.2859 22.9982H41.9812C40.8471 22.9982 40.2155 22.3506 40.2155 21.3783C40.2155 20.5111 40.7939 19.6748 42.4792 19.6748H45.2885L44.6811 20.8918H42.2513C41.7869 20.8918 41.6439 21.1202 41.6439 21.3383C41.6439 21.5625 41.8206 21.8098 42.1755 21.8098H43.5421C44.8063 21.8098 45.3549 22.4819 45.3549 23.3621C45.3549 24.3083 44.7437 25.0834 43.4734 25.0834H40.3987ZM45.4821 25.0834V23.9092H48.3693C48.7966 23.9092 48.9815 23.6928 48.9815 23.4555C48.9815 23.2282 48.7971 22.9982 48.3693 22.9982H47.0647C45.9306 22.9982 45.299 22.3506 45.299 21.3783C45.299 20.5111 45.8774 19.6748 47.5627 19.6748H50.372L49.7646 20.8918H47.3349C46.8704 20.8918 46.7274 21.1202 46.7274 21.3383C46.7274 21.5625 46.9041 21.8098 47.2589 21.8098H48.6256C49.8899 21.8098 50.4385 22.4819 50.4385 23.3621C50.4385 24.3083 49.8271 25.0834 48.5568 25.0834H45.4821Z" fill="white"/>
</svg>
