<svg width="52" height="36" viewBox="0 0 52 36" fill="none" xmlns="http://www.w3.org/2000/svg">
<path d="M47.9298 1.10156H4.07014C2.37453 1.10156 0.999969 2.47613 0.999969 4.17174V32.2419C0.999969 33.9375 2.37453 35.3121 4.07014 35.3121H47.9298C49.6254 35.3121 51 33.9375 51 32.2419V4.17174C51 2.47613 49.6254 1.10156 47.9298 1.10156Z" fill="white" stroke="#F3F3F3" stroke-width="0.877192"/>
<path fill-rule="evenodd" clip-rule="evenodd" d="M43.2363 11.8217V24.5541H46.7391V11.1992L43.2363 11.8217Z" fill="#862165"/>
<path fill-rule="evenodd" clip-rule="evenodd" d="M38.125 11.8217L41.6255 11.1992V24.5541H38.125V11.8217Z" fill="#862165"/>
<path fill-rule="evenodd" clip-rule="evenodd" d="M33.1377 24.5532V14.7852H36.6399V24.5532H33.1377Z" fill="#862165"/>
<path fill-rule="evenodd" clip-rule="evenodd" d="M33.1621 12.1339C33.1621 11.1866 33.9355 10.418 34.888 10.418C35.842 10.418 36.6149 11.1866 36.6149 12.1339C36.6149 13.082 35.842 13.8488 34.888 13.8488C33.9355 13.8488 33.1621 13.082 33.1621 12.1339Z" fill="#862165"/>
<path fill-rule="evenodd" clip-rule="evenodd" d="M31.161 14.6419C27.9252 14.7456 26.2812 16.189 26.2812 19.0581V24.5532H29.8126V20.0713C29.8126 18.3541 30.0392 17.618 32.0903 17.5477V14.6927C31.7454 14.6196 31.161 14.6419 31.161 14.6419Z" fill="#862165"/>
<path fill-rule="evenodd" clip-rule="evenodd" d="M21.6597 14.7749C21.5822 14.97 21.0225 16.5444 19.6651 18.1757V11.1992L16.0508 11.9097V24.5541H19.6651V20.6451C20.7117 22.2056 21.2289 24.5541 21.2289 24.5541H25.5573C25.1293 22.7852 23.2565 19.5244 23.2565 19.5244C24.938 17.4054 25.6757 15.1489 25.7935 14.7749H21.6597Z" fill="#862165"/>
<path fill-rule="evenodd" clip-rule="evenodd" d="M9.99015 16.1676C9.5476 16.1392 8.52225 16.0729 8.52225 15.1561C8.52225 14.0498 9.99743 14.0498 10.551 14.0498C11.5247 14.0498 12.7844 14.3352 13.6852 14.6033C13.6852 14.6033 14.1867 14.7794 14.6136 14.9589L14.6534 14.97V11.9398L14.6001 11.9237C13.5366 11.5542 12.3021 11.1992 10.012 11.1992C6.06387 11.1992 4.66501 13.4836 4.66501 15.4425C4.66501 16.5706 5.15186 19.2279 9.67208 19.5339C10.0563 19.5573 11.0737 19.6158 11.0737 20.5632C11.0737 21.3457 10.2408 21.8061 8.84028 21.8061C7.30568 21.8061 5.81596 21.4182 4.9118 21.0486V24.1685C6.26579 24.5224 7.79253 24.6974 9.58182 24.6974C13.4407 24.6974 15.1705 22.5355 15.1705 20.3921C15.1705 17.9628 13.236 16.3839 9.99015 16.1676Z" fill="#862165"/>
</svg>
