<svg width="30" height="30" viewBox="0 0 30 30" fill="none" xmlns="http://www.w3.org/2000/svg">
<path d="M13.655 8.37211C13.2206 8.37198 12.7995 8.2226 12.4621 7.949C12.1247 7.6754 11.8915 7.29418 11.8016 6.86918C9.87754 7.56531 8.23418 8.87205 7.12248 10.5898C6.01078 12.3076 5.49185 14.342 5.64492 16.3824C5.798 18.4228 6.61467 20.3571 7.97022 21.8898C9.32578 23.4224 11.1457 24.4694 13.1521 24.8706C15.1585 25.2719 17.2411 25.0054 19.0819 24.112C20.9226 23.2185 22.4204 21.7472 23.3464 19.9226C24.2725 18.098 24.5759 16.0205 24.2103 14.0072C23.8448 11.994 22.8304 10.1558 21.3221 8.77318C20.9756 8.4583 20.7594 8.02529 20.7159 7.55917C20.6724 7.09305 20.8047 6.62751 21.0869 6.25396C19.8755 5.47179 18.5244 4.9311 17.1078 4.66162C17.0643 4.98009 16.94 5.28212 16.7468 5.53898L15.1646 7.6229C14.9873 7.85522 14.759 8.04362 14.4972 8.17354C14.2354 8.30345 13.9473 8.3714 13.655 8.37211ZM8.03203 16.3869C7.88206 16.3832 7.73945 16.3211 7.63467 16.2137C7.5299 16.1064 7.47124 15.9623 7.47124 15.8123C7.47124 15.6623 7.5299 15.5182 7.63467 15.4108C7.73945 15.3035 7.88206 15.2413 8.03203 15.2377H9.11265C9.26262 15.2413 9.40522 15.3035 9.51 15.4108C9.61478 15.5182 9.67343 15.6623 9.67343 15.8123C9.67343 15.9623 9.61478 16.1064 9.51 16.2137C9.40522 16.3211 9.26262 16.3832 9.11265 16.3869H8.03203ZM10.9836 20.5676L10.2194 21.3314C10.1662 21.3856 10.1028 21.4287 10.0329 21.4582C9.96289 21.4877 9.88776 21.5031 9.81182 21.5034C9.73587 21.5038 9.66062 21.489 9.5904 21.4601C9.52018 21.4312 9.45638 21.3886 9.40271 21.3349C9.34903 21.2812 9.30654 21.2173 9.27768 21.1471C9.24881 21.0768 9.23416 21.0016 9.23456 20.9256C9.23496 20.8497 9.25041 20.7746 9.28001 20.7046C9.30961 20.6347 9.35278 20.5713 9.40702 20.5182L10.1712 19.7544C10.2794 19.6483 10.4251 19.5893 10.5766 19.5901C10.728 19.5909 10.8731 19.6515 10.9801 19.7586C11.0872 19.8658 11.1476 20.0109 11.1483 20.1624C11.1489 20.3138 11.0898 20.4595 10.9836 20.5676ZM11.2252 11.9946C11.1173 12.1023 10.9711 12.1627 10.8187 12.1626C10.6663 12.1625 10.5201 12.1019 10.4124 11.9942L9.64859 11.23C9.5944 11.1768 9.5513 11.1133 9.52176 11.0434C9.49223 10.9734 9.47685 10.8983 9.47652 10.8223C9.47619 10.7464 9.49092 10.6711 9.51984 10.6009C9.54877 10.5307 9.59133 10.4669 9.64505 10.4132C9.69878 10.3596 9.76261 10.3171 9.83286 10.2882C9.90311 10.2593 9.97838 10.2447 10.0543 10.2451C10.1303 10.2455 10.2054 10.2609 10.2753 10.2905C10.3453 10.3201 10.4086 10.3633 10.4618 10.4175L11.2256 11.1817C11.3333 11.2896 11.3937 11.4358 11.3937 11.5882C11.3936 11.7407 11.333 11.8868 11.2252 11.9946ZM15.578 23.1259C15.5799 23.2025 15.5664 23.2788 15.5384 23.3501C15.5103 23.4215 15.4683 23.4865 15.4148 23.5413C15.3612 23.5962 15.2972 23.6398 15.2266 23.6696C15.1559 23.6993 15.0801 23.7147 15.0034 23.7147C14.9267 23.7147 14.8509 23.6993 14.7802 23.6696C14.7096 23.6398 14.6456 23.5962 14.5921 23.5413C14.5385 23.4865 14.4965 23.4215 14.4685 23.3501C14.4404 23.2788 14.4269 23.2025 14.4288 23.1259V22.0453C14.4269 21.9686 14.4404 21.8924 14.4685 21.8211C14.4965 21.7497 14.5385 21.6847 14.5921 21.6298C14.6456 21.575 14.7096 21.5314 14.7802 21.5016C14.8509 21.4718 14.9267 21.4565 15.0034 21.4565C15.0801 21.4565 15.1559 21.4718 15.2266 21.5016C15.2972 21.5314 15.3612 21.575 15.4148 21.6298C15.4683 21.6847 15.5103 21.7497 15.5384 21.8211C15.5664 21.8924 15.5799 21.9686 15.578 22.0453V23.1259ZM22.1099 15.2377C22.2599 15.2413 22.4025 15.3035 22.5073 15.4108C22.6121 15.5182 22.6707 15.6623 22.6707 15.8123C22.6707 15.9623 22.6121 16.1064 22.5073 16.2137C22.4025 16.3211 22.2599 16.3832 22.1099 16.3869H21.0293C20.9527 16.3888 20.8765 16.3753 20.8051 16.3472C20.7338 16.3192 20.6688 16.2772 20.6139 16.2236C20.559 16.1701 20.5154 16.1061 20.4857 16.0355C20.4559 15.9648 20.4406 15.889 20.4406 15.8123C20.4406 15.7356 20.4559 15.6598 20.4857 15.5891C20.5154 15.5185 20.559 15.4545 20.6139 15.4009C20.6688 15.3474 20.7338 15.3054 20.8051 15.2773C20.8765 15.2493 20.9527 15.2358 21.0293 15.2377H22.1099ZM19.0344 10.8907L19.7986 10.1269C19.8518 10.0727 19.9152 10.0296 19.9852 10.0001C20.0552 9.97055 20.1303 9.95518 20.2062 9.95485C20.2822 9.95452 20.3574 9.96924 20.4277 9.99817C20.4979 10.0271 20.5617 10.0697 20.6153 10.1234C20.669 10.1771 20.7115 10.2409 20.7404 10.3112C20.7692 10.3814 20.7839 10.4567 20.7835 10.5326C20.7831 10.6086 20.7676 10.6837 20.738 10.7536C20.7084 10.8236 20.6653 10.887 20.611 10.9401L19.8468 11.7039C19.7936 11.7581 19.7302 11.8012 19.6602 11.8307C19.5903 11.8603 19.5152 11.8756 19.4392 11.876C19.3633 11.8763 19.288 11.8616 19.2178 11.8326C19.1476 11.8037 19.0838 11.7612 19.0301 11.7074C18.9764 11.6537 18.9339 11.5899 18.9051 11.5196C18.8762 11.4494 18.8616 11.3741 18.862 11.2982C18.8624 11.2222 18.8778 11.1471 18.9074 11.0772C18.937 11.0072 18.9802 10.9438 19.0344 10.8907ZM18.839 19.6076C18.947 19.5001 19.0932 19.4398 19.2456 19.4398C19.398 19.4398 19.5441 19.5001 19.6522 19.6076L20.4164 20.3717C20.5218 20.4801 20.5803 20.6256 20.5793 20.7767C20.5783 20.9279 20.5177 21.0725 20.4109 21.1794C20.304 21.2863 20.1593 21.3468 20.0082 21.3479C19.857 21.3489 19.7115 21.2904 19.6032 21.1849L18.839 20.4207C18.7314 20.3128 18.671 20.1666 18.671 20.0141C18.671 19.8617 18.7314 19.7155 18.839 19.6076ZM15.578 10.5336V14.8955L16.8886 13.6382C16.9425 13.5836 17.0069 13.5405 17.0778 13.5112C17.1487 13.4819 17.2248 13.4671 17.3015 13.4677C17.3783 13.4682 17.4541 13.4842 17.5246 13.5145C17.595 13.5449 17.6587 13.589 17.7119 13.6444C17.765 13.6998 17.8065 13.7652 17.834 13.8368C17.8614 13.9085 17.8742 13.9849 17.8717 14.0616C17.8691 14.1383 17.8512 14.2137 17.819 14.2834C17.7869 14.353 17.7411 14.4155 17.6844 14.4672L15.4014 16.6584C15.3202 16.7365 15.2178 16.789 15.107 16.8093C14.9961 16.8296 14.8818 16.8169 14.7781 16.7727C14.6745 16.7285 14.5861 16.6548 14.524 16.5608C14.4619 16.4668 14.4289 16.3566 14.4289 16.2439V10.5336C14.4326 10.3836 14.4947 10.241 14.6021 10.1362C14.7094 10.0314 14.8535 9.97278 15.0035 9.97278C15.1536 9.97278 15.2976 10.0314 15.405 10.1362C15.5123 10.241 15.5744 10.3836 15.578 10.5336Z" fill="#FB2B2B"/>
<path d="M23.1055 6.8273C22.9598 6.69377 22.7671 6.62356 22.5696 6.63214C22.3722 6.64072 22.1863 6.72737 22.0527 6.87303C21.9192 7.0187 21.849 7.21144 21.8576 7.40887C21.8661 7.60629 21.9528 7.79223 22.0985 7.92576C23.8637 9.54442 25.0236 11.7172 25.3862 14.0846C25.7488 16.452 25.2925 18.8723 24.0926 20.9451C22.8928 23.018 21.0213 24.6191 18.7878 25.4838C16.5543 26.3485 14.0925 26.4248 11.8097 25.7002C9.52692 24.9757 7.55982 23.4936 6.23381 21.4991C4.90779 19.5046 4.3023 17.1173 4.51749 14.7319C4.73268 12.3466 5.75565 10.1061 7.4172 8.38118C9.07876 6.65622 11.2793 5.5501 13.655 5.24578L13.0619 6.02692C12.9424 6.18428 12.8902 6.38267 12.917 6.57847C12.9437 6.77426 13.0471 6.95141 13.2045 7.07094C13.3619 7.19048 13.5603 7.24261 13.756 7.21587C13.9518 7.18912 14.129 7.08569 14.2485 6.92834L15.8312 4.84403C15.9416 4.69855 15.9948 4.5176 15.9806 4.33552C15.9664 4.15344 15.8859 3.9829 15.7543 3.85627L13.8673 2.04292C13.7248 1.90596 13.5337 1.83121 13.3362 1.83511C13.1386 1.839 12.9506 1.92123 12.8137 2.0637C12.6767 2.20617 12.602 2.39721 12.6059 2.59479C12.6098 2.79238 12.692 2.98032 12.8345 3.11728L13.5055 3.76226C10.7891 4.10042 8.2696 5.35633 6.36441 7.32198C4.45923 9.28764 3.28263 11.8451 3.02951 14.5708C2.77638 17.2965 3.4619 20.0269 4.97254 22.3098C6.48318 24.5927 8.72829 26.2911 11.336 27.1237C13.9438 27.9563 16.7577 27.8731 19.3117 26.888C21.8658 25.9029 24.0067 24.0749 25.3799 21.7068C26.7531 19.3387 27.2762 16.5726 26.8626 13.8666C26.4489 11.1606 25.1234 8.67704 23.1055 6.8273Z" fill="#FB2B2B"/>
</svg>
