<svg width="21" height="20" viewBox="0 0 21 20" fill="none" xmlns="http://www.w3.org/2000/svg">
<path fill-rule="evenodd" clip-rule="evenodd" d="M6.81462 3C5.46256 3 4.23991 3.32727 3.35248 4.12532C2.45663 4.93096 2.00067 6.12734 2.00067 7.66216V13.3378C2.00067 14.8727 2.45663 16.0691 3.35248 16.8747C4.23991 17.6728 5.46256 18 6.81462 18H15.1867C16.5388 18 17.7615 17.6728 18.6488 16.8747C19.5447 16.0691 20.0007 14.8727 20.0007 13.3378V7.66216C20.0007 6.12734 19.5447 4.93096 18.6488 4.12532C17.7615 3.32727 16.5388 3 15.1867 3H6.81462ZM17.0524 7.55051C17.3268 7.34517 17.3774 6.96326 17.1653 6.69751C16.9533 6.43175 16.559 6.38278 16.2846 6.58814L11.6405 10.0635C11.2636 10.3455 10.7376 10.3455 10.3607 10.0635L5.71671 6.58814C5.4423 6.38278 5.04796 6.43175 4.83592 6.69751C4.62388 6.96326 4.67444 7.34517 4.94885 7.55051L9.5929 11.0259C10.4221 11.6463 11.5792 11.6463 12.4084 11.0259L17.0524 7.55051Z" fill="white"/>
</svg>
