<svg width="30" height="30" viewBox="0 0 30 30" fill="none" xmlns="http://www.w3.org/2000/svg">
<path fill-rule="evenodd" clip-rule="evenodd" d="M1.57884 20.6255C1.57884 16.1669 5.11453 12.5005 9.53937 12.5005C13.9642 12.5005 17.4999 16.1669 17.4999 20.6255C17.4999 25.0841 13.9642 28.7505 9.53937 28.7505C8.62981 28.7505 7.7536 28.5943 6.93672 28.306C6.80171 28.2583 6.71796 28.2288 6.65653 28.2085C6.64539 28.2048 6.63627 28.2019 6.62897 28.1996L6.62218 28.2003C6.5793 28.2051 6.52086 28.2129 6.41254 28.2277L2.66904 28.739C2.26397 28.7943 1.85745 28.6481 1.58047 28.3473C1.3035 28.0466 1.19108 27.6295 1.27944 27.2303L2.04362 23.7782C2.07017 23.6583 2.08438 23.5935 2.09351 23.5459C2.09403 23.5432 2.09493 23.5384 2.09493 23.5384C2.09266 23.5305 2.08979 23.5207 2.08619 23.5088C2.06561 23.4406 2.03533 23.3477 1.98613 23.1971C1.72152 22.3871 1.57884 21.5219 1.57884 20.6255Z" fill="#FB2B2B"/>
<path d="M6.4343 10.4662C7.40627 10.1639 8.44232 10.0005 9.52223 10.0005C15.414 10.0005 20 14.8638 20 20.6255C20 21.6425 19.8571 22.6316 19.5894 23.5709C20.2669 23.4492 20.924 23.2674 21.5546 23.0312C21.6436 22.9979 21.7323 22.9639 21.8222 22.9331C21.8947 22.9415 21.967 22.9528 22.0392 22.9634L26.0554 23.5521C26.2449 23.58 26.4601 23.6116 26.6477 23.6222C26.8553 23.6341 27.1781 23.6328 27.5201 23.4857C27.9472 23.302 28.2909 22.9662 28.4844 22.5434C28.6393 22.2049 28.648 21.8822 28.641 21.6744C28.6347 21.4865 28.608 21.2707 28.5845 21.0805L28.077 16.9582C28.0638 16.851 28.057 16.7947 28.0531 16.7534C28.075 16.6631 28.1163 16.5757 28.1493 16.4891C28.6228 15.2479 28.8815 13.9028 28.8815 12.5005C28.8815 6.27957 23.8075 1.25049 17.5657 1.25049C12.0209 1.25049 7.39775 5.21903 6.4343 10.4662Z" fill="#FB2B2B"/>
</svg>
