<svg width="76" height="75" viewBox="0 0 76 75" fill="none" xmlns="http://www.w3.org/2000/svg">
<path d="M0.75 40.625C0.75 18.1884 18.9384 0 41.375 0H49.5C63.9975 0 75.75 11.7525 75.75 26.25V41.25C75.75 59.8896 60.6396 75 42 75H35.125C16.1402 75 0.75 59.6098 0.75 40.625Z" fill="#EEF9FF"/>
<path d="M51.4554 27.4982C51.4554 25.1049 49.4834 23.1429 47.0638 23.1429H45.1198V23.8526C45.1198 26.1763 43.2315 28.0548 40.8958 28.0548H34.5459C32.2239 28.0548 30.3219 26.1763 30.3219 23.8526V23.1429H28.3776C25.972 23.1429 24 25.1049 24 27.4982V50.0681C24 52.4614 25.972 54.4095 28.3776 54.4095H47.0638C49.4834 54.4095 51.4554 52.4614 51.4554 50.0681V27.4982ZM34.2802 31.3387H41.1755C41.9448 31.3387 42.5741 31.9649 42.5741 32.7302C42.5741 33.4955 41.9448 34.1217 41.1755 34.1217H34.2802C33.5109 34.1217 32.8816 33.4955 32.8816 32.7302C32.8816 31.9649 33.5109 31.3387 34.2802 31.3387ZM31.6926 37.016H43.7491C44.5321 37.016 45.1478 37.656 45.1478 38.4075C45.1478 39.1728 44.5321 39.7989 43.7491 39.7989H31.6926C30.9233 39.7989 30.2939 39.1728 30.2939 38.4075C30.2939 37.656 30.9233 37.016 31.6926 37.016ZM45.1614 47.4103C45.1614 48.8018 44.0148 49.9428 42.6021 49.9428H32.8536C31.4409 49.9428 30.2939 48.8018 30.2939 47.4103V45.1283C30.2939 43.7368 31.4409 42.5819 32.8536 42.5819H42.6021C44.0148 42.5819 45.1614 43.7368 45.1614 45.1283V47.4103Z" fill="#1B99E0"/>
<path d="M40.8938 25.2719C41.6771 25.2719 42.3204 24.6317 42.3204 23.8386C42.3204 23.6985 42.3204 22.2792 42.3204 22.4193C42.3204 21.6401 41.6771 21 40.8938 21H34.5438C33.7605 21 33.1172 21.6401 33.1172 22.4193C33.1172 22.5594 33.1172 23.9787 33.1172 23.8386C33.1172 24.6317 33.7605 25.2719 34.5438 25.2719H40.8938Z" fill="#1B99E0"/>
</svg>
