<svg width="21" height="22" viewBox="0 0 21 22" fill="none" xmlns="http://www.w3.org/2000/svg">
<path fill-rule="evenodd" clip-rule="evenodd" d="M13.0701 13.7566L13.0736 13.7572C13.0812 13.7578 13.0881 13.759 13.0957 13.7603L13.1177 13.7639L14.2316 12.5944C14.5973 12.2104 15.0935 11.994 15.6107 11.994C16.1285 11.994 16.6242 12.2104 16.9904 12.5944L18.4439 14.1204C18.8095 14.5044 19.015 15.0255 19.015 15.5691C19.015 16.1121 18.8095 16.6332 18.4439 17.0172L16.9904 18.5438C16.2283 19.3441 14.9978 19.5854 13.5188 19.2325C11.5691 18.7669 9.13994 17.2676 6.96328 14.9822C4.78661 12.6967 3.35873 10.1468 2.91585 8.09965C2.57919 6.54615 2.80961 5.25473 3.57174 4.45451L5.02518 2.92783C5.39086 2.54388 5.88713 2.32812 6.40489 2.32812C6.92206 2.32812 7.41834 2.54388 7.78402 2.92783L9.23804 4.45451C9.60371 4.83847 9.80918 5.35955 9.80918 5.90257C9.80918 6.4462 9.60371 6.96728 9.23804 7.35124L8.15027 8.49274C8.13402 8.50981 8.12648 8.53418 8.12939 8.55795C8.13055 8.56953 8.1317 8.58111 8.13286 8.59208C8.24256 9.51906 8.9211 10.7355 9.96474 11.8313C11.0165 12.9357 12.1849 13.6506 13.0701 13.7566Z" fill="white"/>
</svg>
