<svg width="436" height="436" viewBox="0 0 436 436" fill="none" xmlns="http://www.w3.org/2000/svg">
<path d="M218 0C256.267 4.56329e-07 293.86 10.073 327 29.2065C360.14 48.3399 387.66 75.8598 406.794 109L285.966 178.76C279.078 166.83 269.17 156.922 257.24 150.034C245.31 143.146 231.776 139.52 218 139.52V0Z" fill="#5FC05F"/>
<path d="M218 403.823C168.717 403.823 121.452 384.245 86.6035 349.397C51.755 314.548 32.1772 267.283 32.1772 218C32.1772 168.717 51.755 121.452 86.6035 86.6035C121.452 51.755 168.717 32.1772 218 32.1772V80.6985C181.585 80.6985 146.662 95.1642 120.913 120.913C95.1642 146.662 80.6985 181.585 80.6985 218C80.6985 254.415 95.1642 289.338 120.913 315.087C146.662 340.836 181.585 355.302 218 355.302L218 403.823Z" fill="#F0F0F0"/>
<path d="M224.436 140.775C214.294 140.775 204.252 142.772 194.883 146.653C185.513 150.534 177 156.223 169.829 163.394C162.658 170.565 156.97 179.078 153.089 188.447C149.208 197.817 147.21 207.859 147.21 218C147.21 228.141 149.208 238.183 153.089 247.553C156.97 256.922 162.658 265.435 169.829 272.606C177 279.777 185.513 285.466 194.883 289.347C204.252 293.228 214.294 295.225 224.436 295.225L224.436 218V140.775Z" fill="#F0F0F0"/>
<path d="M406.807 109.022C425.936 142.165 436.005 179.759 436 218.026C435.995 256.293 425.918 293.885 406.781 327.022L285.961 257.248C292.85 245.318 296.478 231.785 296.48 218.009C296.482 204.233 292.857 190.699 285.97 178.768L406.807 109.022Z" fill="#329D32"/>
<path d="M407.1 326.467C388.06 359.661 360.618 387.259 327.532 406.485C294.446 425.712 256.882 435.891 218.615 435.999L218.221 296.48C231.997 296.441 245.521 292.776 257.432 285.855C269.343 278.933 279.222 268.998 286.076 257.048L407.1 326.467Z" fill="#1A811A"/>
<path fill-rule="evenodd" clip-rule="evenodd" d="M296.71 77.3335H309.957C311.187 77.3335 312.248 77.3334 313.122 77.4048C314.044 77.4802 314.962 77.6466 315.845 78.0965C317.162 78.7676 318.233 79.8384 318.904 81.1556C319.353 82.0385 319.52 82.956 319.595 83.8784C319.667 84.7524 319.667 85.8136 319.667 87.0436V93.5415C319.667 94.565 319.667 95.4481 319.617 96.1791C319.564 96.9487 319.449 97.7184 319.134 98.479C318.423 100.194 317.061 101.557 315.345 102.267C314.585 102.582 313.815 102.698 313.045 102.75C312.923 102.759 312.797 102.766 312.667 102.771V105.333C312.667 106.202 312.184 106.999 311.414 107.401C310.644 107.804 309.715 107.745 309.001 107.249L303.923 103.719C303.141 103.175 302.983 103.076 302.833 103.008C302.661 102.93 302.479 102.873 302.293 102.839C302.132 102.809 301.945 102.8 300.993 102.8H296.71C295.48 102.8 294.419 102.8 293.545 102.729C292.622 102.653 291.705 102.487 290.822 102.037C289.505 101.366 288.434 100.295 287.763 98.9781C287.313 98.0952 287.147 97.1777 287.071 96.2552C287 95.3812 287 94.3201 287 93.0901V87.0436C287 85.8135 287 84.7524 287.071 83.8784C287.147 82.956 287.313 82.0385 287.763 81.1556C288.434 79.8384 289.505 78.7676 290.822 78.0965C291.705 77.6466 292.622 77.4802 293.545 77.4048C294.419 77.3334 295.48 77.3335 296.71 77.3335Z" fill="white"/>
<path d="M299.23 56.3335H281.77C279.892 56.3335 278.342 56.3334 277.079 56.4366C275.768 56.5438 274.562 56.7738 273.429 57.3508C271.673 58.2456 270.245 59.6734 269.351 61.4296C268.774 62.562 268.544 63.7677 268.436 65.0792C268.333 66.342 268.333 67.8922 268.333 69.7705L268.333 80.8821C268.333 81.9126 268.333 82.6762 268.432 83.3529C269.03 87.433 272.234 90.6373 276.314 91.235C276.481 91.2594 276.585 91.322 276.63 91.3594L276.63 95.0408C276.63 95.677 276.629 96.3009 276.674 96.8027C276.713 97.2484 276.816 98.1716 277.472 98.9367C278.204 99.7896 279.3 100.24 280.419 100.147C281.424 100.063 282.146 99.4789 282.487 99.1895C282.584 99.1071 282.685 99.0171 282.788 98.9213C282.572 98.0796 282.474 97.2991 282.42 96.6353C282.333 95.5653 282.333 94.3291 282.333 93.189V86.9449C282.333 85.8047 282.333 84.5685 282.42 83.4985C282.519 82.2874 282.764 80.6874 283.605 79.037C284.723 76.8418 286.508 75.057 288.703 73.9385C290.354 73.0976 291.954 72.8527 293.165 72.7537C294.235 72.6663 295.471 72.6666 296.611 72.6669H310.055C310.909 72.6667 311.816 72.6664 312.667 72.703V69.7704C312.667 67.8922 312.667 66.342 312.564 65.0792C312.456 63.7677 312.226 62.562 311.649 61.4296C310.755 59.6734 309.327 58.2456 307.571 57.3508C306.438 56.7738 305.232 56.5438 303.921 56.4366C302.658 56.3334 301.108 56.3335 299.23 56.3335Z" fill="white"/>
<path fill-rule="evenodd" clip-rule="evenodd" d="M370 232.903C367.159 232.903 364.852 235.21 364.852 238.052C364.852 240.893 367.159 243.2 370 243.2C372.842 243.2 375.149 240.893 375.149 238.052C375.149 235.21 372.842 232.903 370 232.903ZM385.446 212.31H384.588C382.22 212.31 380.297 214.232 380.297 216.6V225.181C380.297 227.548 382.22 229.471 384.588 229.471H385.156C384.854 230.545 384.238 231.958 382.983 233.214C381.914 234.283 380.4 235.211 378.275 235.771C378.474 236.498 378.581 237.262 378.581 238.052C378.581 238.459 378.553 238.859 378.498 239.251C381.704 238.534 383.897 237.154 385.41 235.641C387.532 233.519 388.356 231.07 388.675 229.471H389.736C392.104 229.471 394.026 227.548 394.026 225.181V216.6C394.026 214.232 392.104 212.31 389.736 212.31H388.878V210.594C388.878 205.47 386.875 201.527 383.588 198.493C383.343 199.727 382.798 200.856 382.032 201.803C384.159 204.094 385.446 206.964 385.446 210.594V212.31ZM351.123 212.31H350.265C347.897 212.31 345.975 214.232 345.975 216.6V225.181C345.975 227.548 347.897 229.471 350.265 229.471H355.413C357.781 229.471 359.704 227.548 359.704 225.181V216.6C359.704 214.232 357.781 212.31 355.413 212.31H354.555V210.594C354.555 206.975 355.831 204.073 357.945 201.757C357.191 200.8 356.656 199.658 356.415 198.409C353.129 201.472 351.123 205.472 351.123 210.594V212.31ZM380.298 196.927C380.252 194.972 379.302 193.391 377.749 192.224C375.815 190.769 372.844 189.994 369.875 190C366.894 190.007 363.947 190.804 362.073 192.264C360.551 193.448 359.659 195.043 359.705 197.008C359.76 199.364 361.638 201.258 363.995 201.258C364.23 201.258 364.461 201.21 364.676 201.117C368.3 199.549 371.835 199.454 375.27 201.091C375.501 201.201 375.753 201.258 376.008 201.258C378.387 201.258 380.354 199.305 380.298 196.927Z" fill="white"/>
<path fill-rule="evenodd" clip-rule="evenodd" d="M290.333 323.54C290.775 323.476 291.225 323.476 291.668 323.54C292.178 323.613 292.652 323.793 293.029 323.935L293.13 323.973L305.946 328.779C307.387 329.317 308.653 329.79 309.628 330.649C310.481 331.4 311.138 332.348 311.542 333.411C312.005 334.625 312.003 335.977 312 337.515L312 349C312 355.595 308.413 361.094 304.536 365.133C300.632 369.2 296.166 372.072 293.805 373.45L293.709 373.506C293.278 373.759 292.719 374.087 291.979 374.246C291.373 374.376 290.627 374.376 290.022 374.246C289.282 374.087 288.722 373.759 288.291 373.506L288.196 373.45C285.834 372.072 281.368 369.2 277.465 365.133C273.587 361.094 270 355.595 270 349L270 337.515C269.998 335.977 269.996 334.625 270.458 333.411C270.862 332.348 271.519 331.4 272.372 330.649C273.347 329.79 274.613 329.317 276.054 328.779L288.87 323.973L288.971 323.935C289.348 323.793 289.823 323.613 290.333 323.54ZM300.817 343.65C301.728 342.739 301.728 341.261 300.817 340.35C299.905 339.439 298.428 339.439 297.517 340.35L288.667 349.2L285.65 346.183C284.739 345.272 283.261 345.272 282.35 346.183C281.439 347.095 281.439 348.572 282.35 349.483L287.017 354.15C287.928 355.061 289.405 355.061 290.317 354.15L300.817 343.65Z" fill="white"/>
</svg>
