<svg width="44" height="32" viewBox="0 0 44 32" fill="none" xmlns="http://www.w3.org/2000/svg">
<path opacity="0.19" d="M43.5425 8.76086C43.5425 8.75688 43.5431 8.7529 43.5431 8.74893C43.5431 3.91697 38.9015 0 33.1756 0C27.4497 0 22.8082 3.9169 22.8082 8.74893C22.8082 13.581 27.4502 17.4979 33.1757 17.4979C34.3524 17.4979 35.4789 17.3247 36.5329 17.0197C34.2004 28.3116 23.7658 35.5938 33.4385 29.6004C44.1642 22.9545 43.5546 9.01587 43.5425 8.76086Z" fill="#A6A6A6"/>
<path opacity="0.19" d="M10.3675 17.4978C11.5443 17.4978 12.6707 17.3247 13.7252 17.0197C11.3921 28.3116 0.95753 35.5937 10.6304 29.6003C21.3561 22.9545 20.7465 9.01587 20.7344 8.76086C20.7344 8.75688 20.7349 8.7529 20.7349 8.74893C20.7349 3.91697 16.0934 0 10.3675 0C4.64159 0 6.10352e-05 3.9169 6.10352e-05 8.74893C6.10352e-05 13.581 4.6421 17.4978 10.3675 17.4978Z" fill="#A6A6A6"/>
</svg>
