<svg width="44" height="32" viewBox="0 0 44 32" fill="none" xmlns="http://www.w3.org/2000/svg">
<path opacity="0.19" d="M0.0122612 23.2391C0.0122612 23.2431 0.0117443 23.2471 0.0117443 23.2511C0.0117439 28.083 4.65336 32 10.3792 32C16.1051 32 20.7466 28.0831 20.7466 23.2511C20.7466 18.419 16.1046 14.5021 10.3791 14.5021C9.20238 14.5021 8.07595 14.6753 7.02195 14.9803C9.35446 3.68836 19.7891 -3.59376 10.1163 2.39958C-0.609421 9.04552 0.00025828 22.9841 0.0122612 23.2391Z" fill="#A6A6A6"/>
<path opacity="0.19" d="M33.1873 14.5022C32.0105 14.5022 30.8841 14.6753 29.8296 14.9803C32.1627 3.68843 42.5973 -3.59369 32.9244 2.39965C22.1987 9.04552 22.8083 22.9841 22.8204 23.2391C22.8204 23.2431 22.8199 23.2471 22.8199 23.2511C22.8199 28.083 27.4614 32 33.1873 32C38.9132 32 43.5547 28.0831 43.5547 23.2511C43.5547 18.419 38.9127 14.5022 33.1873 14.5022Z" fill="#A6A6A6"/>
</svg>
