<svg width="30" height="30" viewBox="0 0 30 30" fill="none" xmlns="http://www.w3.org/2000/svg">
<path d="M3.63751 28.8407C3.44374 28.8376 3.2551 28.7779 3.09482 28.669C2.93455 28.56 2.80964 28.4066 2.73549 28.2275C2.66133 28.0485 2.64117 27.8516 2.67747 27.6613C2.71378 27.4709 2.80498 27.2953 2.93983 27.1561L7.11167 22.9843C7.20327 22.8926 7.31204 22.8199 7.43176 22.7703C7.55148 22.7206 7.6798 22.6951 7.80939 22.6951H18.946L24.8487 16.7915H24.017C23.7578 16.7877 23.5105 16.682 23.3285 16.4974C23.1465 16.3127 23.0445 16.0639 23.0445 15.8046C23.0445 15.5454 23.1465 15.2965 23.3285 15.1119C23.5105 14.9272 23.7578 14.8216 24.0171 14.8178H27.2329C27.3625 14.8178 27.4909 14.8433 27.6106 14.8929C27.7303 14.9424 27.8391 15.0151 27.9308 15.1068C28.0224 15.1984 28.0951 15.3072 28.1447 15.427C28.1943 15.5467 28.2198 15.675 28.2197 15.8046V19.02C28.216 19.2793 28.1103 19.5266 27.9257 19.7086C27.741 19.8906 27.4922 19.9926 27.2329 19.9926C26.9736 19.9926 26.7248 19.8906 26.5401 19.7086C26.3555 19.5266 26.2499 19.2793 26.2461 19.02V18.186L20.0523 24.3798C19.9607 24.4715 19.852 24.5442 19.7322 24.5938C19.6125 24.6434 19.4842 24.6689 19.3546 24.6689H8.21801L4.33523 28.5516C4.24372 28.6434 4.13496 28.7162 4.01523 28.7658C3.89549 28.8154 3.76712 28.8409 3.63751 28.8407ZM20.2148 10.4009C20.2148 12.852 19.2412 15.2027 17.508 16.9358C15.7748 18.669 13.4242 19.6426 10.9731 19.6426C-1.28577 19.1558 -1.28228 1.64416 10.9732 1.15918C13.4242 1.15921 15.7749 2.1329 17.508 3.86607C19.2412 5.59923 20.2148 7.94989 20.2148 10.4009ZM10.1252 8.58794C10.117 8.47401 10.133 8.35964 10.1722 8.25236C10.2114 8.14509 10.273 8.04735 10.3528 7.96561C10.4325 7.88387 10.5288 7.81999 10.6351 7.77817C10.7413 7.73635 10.8553 7.71755 10.9694 7.72302H12.8216C13.0834 7.72302 13.3344 7.61905 13.5194 7.43398C13.7045 7.24891 13.8085 6.99791 13.8085 6.73618C13.8085 6.47445 13.7045 6.22345 13.5194 6.03838C13.3344 5.85331 13.0834 5.74934 12.8216 5.74934H11.9562V5.16386C11.9525 4.90463 11.8468 4.65729 11.6622 4.47531C11.4775 4.29333 11.2287 4.19132 10.9694 4.19132C10.7101 4.19132 10.4613 4.29333 10.2766 4.47531C10.092 4.65729 9.98634 4.90463 9.98256 5.16386V5.9184C9.36532 6.15445 8.84938 6.59781 8.52313 7.1725C8.19688 7.74719 8.08064 8.41746 8.19433 9.06844C8.30801 9.71943 8.64454 10.3106 9.14625 10.7407C9.64797 11.1708 10.2836 11.4131 10.9444 11.426C11.0603 11.4181 11.1766 11.435 11.2855 11.4757C11.3943 11.5163 11.4933 11.5798 11.5757 11.6617C11.6581 11.7437 11.722 11.8423 11.7632 11.951C11.8044 12.0597 11.8219 12.1759 11.8146 12.2919C11.8227 12.4059 11.8066 12.5203 11.7673 12.6276C11.728 12.7349 11.6664 12.8327 11.5865 12.9144C11.5066 12.9962 11.4103 13.06 11.304 13.1018C11.1976 13.1436 11.0836 13.1623 10.9694 13.1568H9.11811C8.85888 13.1606 8.61155 13.2662 8.42957 13.4509C8.24758 13.6355 8.14557 13.8844 8.14557 14.1436C8.14557 14.4029 8.24758 14.6518 8.42957 14.8364C8.61155 15.0211 8.85888 15.1267 9.11811 15.1305H9.98251V15.7159C9.9862 15.9752 10.0918 16.2227 10.2765 16.4047C10.4611 16.5868 10.71 16.6888 10.9694 16.6888C11.2287 16.6888 11.4776 16.5868 11.6622 16.4047C11.8469 16.2227 11.9525 15.9752 11.9562 15.7159V14.9609C12.5736 14.725 13.0898 14.2816 13.4161 13.7067C13.7425 13.1319 13.8587 12.4615 13.7449 11.8103C13.6311 11.1592 13.2943 10.5679 12.7923 10.1379C12.2903 9.70789 11.6543 9.46588 10.9934 9.45337C10.8777 9.46116 10.7615 9.44414 10.6528 9.40344C10.5442 9.36274 10.4454 9.29931 10.3632 9.21738C10.281 9.13545 10.2173 9.03692 10.1762 8.92837C10.1352 8.81982 10.1178 8.70376 10.1252 8.58794Z" fill="#FB2B2B"/>
</svg>
