<svg width="30" height="30" viewBox="0 0 30 30" fill="none" xmlns="http://www.w3.org/2000/svg">
<path d="M15 3.75C11.9573 3.75 9.49074 6.19644 9.49074 9.21429C9.49074 12.2321 11.9573 14.6786 15 14.6786C18.0427 14.6786 20.5093 12.2321 20.5093 9.21429C20.5093 6.19644 18.0427 3.75 15 3.75Z" fill="#FB2B2B"/>
<path d="M18.2512 17.1096C16.0974 16.7686 13.9026 16.7686 11.7488 17.1096L11.5179 17.1461C8.48309 17.6265 6.25 20.2229 6.25 23.271C6.25 24.9163 7.5947 26.25 9.25348 26.25H20.7465C22.4053 26.25 23.75 24.9163 23.75 23.271C23.75 20.2229 21.5169 17.6265 18.4821 17.1461L18.2512 17.1096Z" fill="#FB2B2B"/>
</svg>
