<svg width="68" height="68" viewBox="0 0 68 68" fill="none" xmlns="http://www.w3.org/2000/svg">
<path d="M68 34C68 52.7777 52.7777 68 34 68C15.2223 68 0 52.7777 0 34C0 15.2223 15.2223 0 34 0C52.7777 0 68 15.2223 68 34ZM4.87401 34C4.87401 50.0858 17.9142 63.126 34 63.126C50.0858 63.126 63.126 50.0858 63.126 34C63.126 17.9142 50.0858 4.87401 34 4.87401C17.9142 4.87401 4.87401 17.9142 4.87401 34Z" fill="#D9D9D9"/>
<path d="M19.6193 41.1989C18.9233 41.1941 18.2438 41.0734 17.581 40.8366C16.9181 40.5952 16.3215 40.2045 15.7912 39.6648C15.2609 39.1203 14.8395 38.3982 14.527 37.4986C14.2145 36.5942 14.0606 35.4744 14.0653 34.1392C14.0653 32.8939 14.1979 31.7836 14.4631 30.8082C14.7282 29.8329 15.1094 29.009 15.6065 28.3366C16.1037 27.6596 16.7027 27.1435 17.4034 26.7884C18.1089 26.4332 18.8973 26.2557 19.7685 26.2557C20.6823 26.2557 21.492 26.4356 22.1974 26.7955C22.9077 27.1553 23.4806 27.6477 23.9162 28.2727C24.3518 28.893 24.6217 29.5938 24.7259 30.375H22.1335C22.0009 29.8163 21.7287 29.3712 21.3168 29.0398C20.9096 28.7036 20.3935 28.5355 19.7685 28.5355C18.7599 28.5355 17.9834 28.9735 17.4389 29.8494C16.8991 30.7254 16.6269 31.928 16.6222 33.4574H16.7216C16.9536 33.0407 17.2543 32.6832 17.6236 32.3849C17.9929 32.0866 18.4096 31.857 18.8736 31.696C19.3423 31.5303 19.8371 31.4474 20.358 31.4474C21.2102 31.4474 21.9749 31.651 22.652 32.0582C23.3338 32.4654 23.8736 33.0265 24.2713 33.7415C24.669 34.4517 24.8655 35.2661 24.8608 36.1847C24.8655 37.1411 24.6477 38.0005 24.2074 38.7628C23.767 39.5204 23.1539 40.117 22.3679 40.5526C21.5819 40.9882 20.6657 41.2036 19.6193 41.1989ZM19.6051 39.0682C20.1212 39.0682 20.5829 38.9427 20.9901 38.6918C21.3973 38.4408 21.7192 38.1023 21.956 37.6761C22.1927 37.25 22.3087 36.7718 22.304 36.2415C22.3087 35.7206 22.1951 35.2495 21.9631 34.8281C21.7358 34.4067 21.4209 34.0729 21.0185 33.8267C20.616 33.5805 20.1567 33.4574 19.6406 33.4574C19.2571 33.4574 18.8996 33.5308 18.5682 33.6776C18.2367 33.8243 17.9479 34.0279 17.7017 34.2884C17.4555 34.544 17.2614 34.8423 17.1193 35.1832C16.982 35.5194 16.911 35.8793 16.9062 36.2628C16.911 36.7694 17.0294 37.2358 17.2614 37.6619C17.4934 38.0881 17.813 38.429 18.2202 38.6847C18.6274 38.9403 19.089 39.0682 19.6051 39.0682ZM33.1776 26.4545V41H30.5426V29.0185H30.4574L27.0554 31.1918V28.777L30.6705 26.4545H33.1776ZM44.6477 38.2727V37.5057C44.6477 36.9422 44.7661 36.4238 45.0028 35.9503C45.2443 35.4768 45.5947 35.0956 46.054 34.8068C46.5133 34.518 47.0696 34.3736 47.723 34.3736C48.3954 34.3736 48.9588 34.518 49.4134 34.8068C49.8679 35.0909 50.2112 35.4697 50.4432 35.9432C50.6799 36.4167 50.7983 36.9375 50.7983 37.5057V38.2727C50.7983 38.8362 50.6799 39.3546 50.4432 39.8281C50.2064 40.3016 49.8584 40.6828 49.3991 40.9716C48.9446 41.2604 48.3859 41.4048 47.723 41.4048C47.0601 41.4048 46.4991 41.2604 46.0398 40.9716C45.5805 40.6828 45.2325 40.3016 44.9957 39.8281C44.7637 39.3546 44.6477 38.8362 44.6477 38.2727ZM46.5014 37.5057V38.2727C46.5014 38.6468 46.5914 38.9901 46.7713 39.3026C46.9512 39.6151 47.2685 39.7713 47.723 39.7713C48.1823 39.7713 48.4972 39.6174 48.6676 39.3097C48.8428 38.9972 48.9304 38.6515 48.9304 38.2727V37.5057C48.9304 37.1269 48.8475 36.7812 48.6818 36.4688C48.5161 36.1515 48.1965 35.9929 47.723 35.9929C47.2779 35.9929 46.9631 36.1515 46.7784 36.4688C46.5938 36.7812 46.5014 37.1269 46.5014 37.5057ZM37.2543 29.9489V29.1818C37.2543 28.6136 37.375 28.0928 37.6165 27.6193C37.858 27.1458 38.2083 26.767 38.6676 26.483C39.1269 26.1941 39.6832 26.0497 40.3366 26.0497C41.0043 26.0497 41.5653 26.1941 42.0199 26.483C42.4792 26.767 42.8248 27.1458 43.0568 27.6193C43.2888 28.0928 43.4048 28.6136 43.4048 29.1818V29.9489C43.4048 30.517 43.2865 31.0379 43.0497 31.5114C42.8177 31.9801 42.4721 32.3565 42.0128 32.6406C41.5535 32.9247 40.9948 33.0668 40.3366 33.0668C39.669 33.0668 39.1056 32.9247 38.6463 32.6406C38.1918 32.3565 37.8461 31.9777 37.6094 31.5043C37.3726 31.0308 37.2543 30.5123 37.2543 29.9489ZM39.1222 29.1818V29.9489C39.1222 30.3277 39.2098 30.6733 39.3849 30.9858C39.5649 31.2936 39.8821 31.4474 40.3366 31.4474C40.7912 31.4474 41.1037 31.2936 41.2741 30.9858C41.4493 30.6733 41.5369 30.3277 41.5369 29.9489V29.1818C41.5369 28.803 41.4541 28.4574 41.2884 28.1449C41.1226 27.8277 40.8054 27.669 40.3366 27.669C39.8868 27.669 39.572 27.8277 39.392 28.1449C39.2121 28.4621 39.1222 28.8078 39.1222 29.1818ZM38.0639 41L48.0639 26.4545H49.8395L39.8395 41H38.0639Z" fill="#0466C8"/>
<path d="M34 2.43701C34 1.09109 35.0925 -0.0090896 36.435 0.0872982C41.0479 0.418504 45.5539 1.68815 49.6731 3.82794C54.5147 6.34294 58.68 9.98613 61.8171 14.4498C64.9542 18.9135 66.9711 24.0666 67.6974 29.4739C68.4237 34.8811 67.838 40.3838 65.9899 45.5171C64.1419 50.6504 61.0856 55.2635 57.0792 58.967C53.0729 62.6704 48.2342 65.3553 42.9717 66.795C37.7092 68.2346 32.1776 68.3867 26.844 67.2384C22.3061 66.2614 18.0249 64.3675 14.2594 61.6823C13.1636 60.9009 13.0231 59.3568 13.881 58.3197C14.7389 57.2827 16.2698 57.1468 17.375 57.9151C20.5308 60.1089 24.0967 61.6612 27.8698 62.4736C32.4388 63.4572 37.1775 63.327 41.6856 62.0937C46.1936 60.8604 50.3387 58.5604 53.7707 55.3879C57.2028 52.2153 59.8209 48.2635 61.4041 43.8661C62.9872 39.4687 63.4889 34.7548 62.8668 30.1227C62.2446 25.4906 60.5168 21.0762 57.8294 17.2524C55.142 13.4286 51.5739 10.3077 47.4263 8.15321C44.0013 6.37406 40.2643 5.29712 36.4342 4.97591C35.093 4.86342 34 3.78293 34 2.43701Z" fill="#0466C8"/>
</svg>
