<svg width="76" height="75" viewBox="0 0 76 75" fill="none" xmlns="http://www.w3.org/2000/svg">
<path d="M0.25 40.625C0.25 18.1884 18.4384 0 40.875 0H49C63.4975 0 75.25 11.7525 75.25 26.25V41.25C75.25 59.8896 60.1396 75 41.5 75H34.625C15.6402 75 0.25 59.6098 0.25 40.625Z" fill="#F8F6FF"/>
<path d="M33.0373 55H47.6007C50.2922 55 52.4739 52.8183 52.4739 50.1267V25.8733C52.4739 23.1959 50.2922 21 47.6007 21H33.0373C30.544 21 28.4899 22.8843 28.2066 25.2925H31.1105C31.3516 24.4424 32.1166 23.8333 33.0373 23.8333H47.6007C48.7341 23.8333 49.6548 24.74 49.6548 25.8733V46.2875C49.6548 47.4209 48.7341 48.3417 47.6007 48.3417H33.0373C31.9181 48.3417 31.0116 47.4209 31.0116 46.2875V44.9982C30.9232 44.8806 29.7583 43.0262 29.68 42.9016H28.1641V50.1267C28.1641 52.8183 30.3458 55 33.0373 55Z" fill="#664DAC"/>
<path d="M25.5075 40.0616H31.2593L33.1857 43.1642C33.3134 43.3765 33.5399 43.49 33.7948 43.49C34.0359 43.49 34.2624 43.3765 34.3901 43.1642L36.3307 40.0616H37.8892C39.2633 40.0616 40.3967 38.9424 40.3967 37.5682V30.6124C40.3967 29.2382 39.2633 28.119 37.8892 28.119H25.5075C24.1192 28.119 23 29.2382 23 30.6124V37.5682C23 38.9424 24.1192 40.0616 25.5075 40.0616Z" fill="#664DAC"/>
</svg>
