<svg width="112" height="16" viewBox="0 0 112 16" fill="none" xmlns="http://www.w3.org/2000/svg">
<path d="M14.6314 6.11934C14.5895 5.99592 14.5124 5.88747 14.4095 5.80738C14.3067 5.72729 14.1827 5.67908 14.0527 5.66868L10.2521 5.36668L8.60739 1.72601C8.55502 1.60875 8.46982 1.50916 8.36209 1.43925C8.25436 1.36934 8.1287 1.3321 8.00028 1.33203C7.87185 1.33196 7.74615 1.36906 7.63834 1.43885C7.53054 1.50864 7.44523 1.60814 7.39273 1.72534L5.74806 5.36668L1.94739 5.66868C1.8197 5.67879 1.69762 5.72548 1.59576 5.80316C1.49391 5.88084 1.41659 5.98622 1.37306 6.1067C1.32952 6.22717 1.32162 6.35763 1.35029 6.48248C1.37896 6.60733 1.44299 6.72127 1.53473 6.81068L4.34339 9.54868L3.35006 13.85C3.3199 13.9802 3.32957 14.1165 3.37781 14.2411C3.42605 14.3657 3.51064 14.473 3.62059 14.549C3.73055 14.6249 3.86081 14.6661 3.99445 14.6671C4.12809 14.6681 4.25896 14.629 4.37006 14.5547L8.00006 12.1347L11.6301 14.5547C11.7436 14.6301 11.8775 14.6689 12.0138 14.6659C12.1501 14.6629 12.2822 14.6183 12.3923 14.538C12.5025 14.4577 12.5854 14.3456 12.6299 14.2167C12.6744 14.0879 12.6784 13.9485 12.6414 13.8173L11.4221 9.55068L14.4461 6.82934C14.6441 6.65068 14.7167 6.37201 14.6314 6.11934Z" fill="#E9C33B"/>
<path d="M38.6314 6.11934C38.5895 5.99592 38.5124 5.88747 38.4095 5.80738C38.3067 5.72729 38.1827 5.67908 38.0527 5.66868L34.2521 5.36668L32.6074 1.72601C32.555 1.60875 32.4698 1.50916 32.3621 1.43925C32.2544 1.36934 32.1287 1.3321 32.0003 1.33203C31.8719 1.33196 31.7462 1.36906 31.6383 1.43885C31.5305 1.50864 31.4452 1.60814 31.3927 1.72534L29.7481 5.36668L25.9474 5.66868C25.8197 5.67879 25.6976 5.72548 25.5958 5.80316C25.4939 5.88084 25.4166 5.98622 25.3731 6.1067C25.3295 6.22717 25.3216 6.35763 25.3503 6.48248C25.379 6.60733 25.443 6.72127 25.5347 6.81068L28.3434 9.54868L27.3501 13.85C27.3199 13.9802 27.3296 14.1165 27.3778 14.2411C27.426 14.3657 27.5106 14.473 27.6206 14.549C27.7306 14.6249 27.8608 14.6661 27.9945 14.6671C28.1281 14.6681 28.259 14.629 28.3701 14.5547L32.0001 12.1347L35.6301 14.5547C35.7436 14.6301 35.8775 14.6689 36.0138 14.6659C36.1501 14.6629 36.2822 14.6183 36.3923 14.538C36.5025 14.4577 36.5854 14.3456 36.6299 14.2167C36.6744 14.0879 36.6784 13.9485 36.6414 13.8173L35.4221 9.55068L38.4461 6.82934C38.6441 6.65068 38.7167 6.37201 38.6314 6.11934Z" fill="#E9C33B"/>
<path d="M62.6314 6.11934C62.5895 5.99592 62.5124 5.88747 62.4095 5.80738C62.3067 5.72729 62.1827 5.67908 62.0527 5.66868L58.2521 5.36668L56.6074 1.72601C56.555 1.60875 56.4698 1.50916 56.3621 1.43925C56.2544 1.36934 56.1287 1.3321 56.0003 1.33203C55.8719 1.33196 55.7461 1.36906 55.6383 1.43885C55.5305 1.50864 55.4452 1.60814 55.3927 1.72534L53.7481 5.36668L49.9474 5.66868C49.8197 5.67879 49.6976 5.72548 49.5958 5.80316C49.4939 5.88084 49.4166 5.98622 49.3731 6.1067C49.3295 6.22717 49.3216 6.35763 49.3503 6.48248C49.379 6.60733 49.443 6.72127 49.5347 6.81068L52.3434 9.54868L51.3501 13.85C51.3199 13.9802 51.3296 14.1165 51.3778 14.2411C51.426 14.3657 51.5106 14.473 51.6206 14.549C51.7306 14.6249 51.8608 14.6661 51.9944 14.6671C52.1281 14.6681 52.259 14.629 52.3701 14.5547L56.0001 12.1347L59.6301 14.5547C59.7436 14.6301 59.8775 14.6689 60.0138 14.6659C60.1501 14.6629 60.2822 14.6183 60.3923 14.538C60.5025 14.4577 60.5854 14.3456 60.6299 14.2167C60.6744 14.0879 60.6784 13.9485 60.6414 13.8173L59.4221 9.55068L62.4461 6.82934C62.6441 6.65068 62.7167 6.37201 62.6314 6.11934Z" fill="#E9C33B"/>
<path d="M86.6314 6.11934C86.5895 5.99592 86.5124 5.88747 86.4095 5.80738C86.3067 5.72729 86.1827 5.67908 86.0527 5.66868L82.2521 5.36668L80.6074 1.72601C80.555 1.60875 80.4698 1.50916 80.3621 1.43925C80.2544 1.36934 80.1287 1.3321 80.0003 1.33203C79.8719 1.33196 79.7461 1.36906 79.6383 1.43885C79.5305 1.50864 79.4452 1.60814 79.3927 1.72534L77.7481 5.36668L73.9474 5.66868C73.8197 5.67879 73.6976 5.72548 73.5958 5.80316C73.4939 5.88084 73.4166 5.98622 73.3731 6.1067C73.3295 6.22717 73.3216 6.35763 73.3503 6.48248C73.379 6.60733 73.443 6.72127 73.5347 6.81068L76.3434 9.54868L75.3501 13.85C75.3199 13.9802 75.3296 14.1165 75.3778 14.2411C75.426 14.3657 75.5106 14.473 75.6206 14.549C75.7306 14.6249 75.8608 14.6661 75.9944 14.6671C76.1281 14.6681 76.259 14.629 76.3701 14.5547L80.0001 12.1347L83.6301 14.5547C83.7436 14.6301 83.8775 14.6689 84.0138 14.6659C84.1501 14.6629 84.2822 14.6183 84.3923 14.538C84.5025 14.4577 84.5854 14.3456 84.6299 14.2167C84.6744 14.0879 84.6784 13.9485 84.6414 13.8173L83.4221 9.55068L86.4461 6.82934C86.6441 6.65068 86.7167 6.37201 86.6314 6.11934Z" fill="#E9C33B"/>
<path d="M110.631 6.11934C110.589 5.99592 110.512 5.88747 110.41 5.80738C110.307 5.72729 110.183 5.67908 110.053 5.66868L106.252 5.36668L104.607 1.72601C104.555 1.60875 104.47 1.50916 104.362 1.43925C104.254 1.36934 104.129 1.3321 104 1.33203C103.872 1.33196 103.746 1.36906 103.638 1.43885C103.531 1.50864 103.445 1.60814 103.393 1.72534L101.748 5.36668L97.9474 5.66868C97.8197 5.67879 97.6976 5.72548 97.5958 5.80316C97.4939 5.88084 97.4166 5.98622 97.3731 6.1067C97.3295 6.22717 97.3216 6.35763 97.3503 6.48248C97.379 6.60733 97.443 6.72127 97.5347 6.81068L100.343 9.54868L99.3501 13.85C99.3199 13.9802 99.3296 14.1165 99.3778 14.2411C99.426 14.3657 99.5106 14.473 99.6206 14.549C99.7306 14.6249 99.8608 14.6661 99.9944 14.6671C100.128 14.6681 100.259 14.629 100.37 14.5547L104 12.1347L107.63 14.5547C107.744 14.6301 107.878 14.6689 108.014 14.6659C108.15 14.6629 108.282 14.6183 108.392 14.538C108.502 14.4577 108.585 14.3456 108.63 14.2167C108.674 14.0879 108.678 13.9485 108.641 13.8173L107.422 9.55068L110.446 6.82934C110.644 6.65068 110.717 6.37201 110.631 6.11934Z" fill="#E9C33B"/>
</svg>
