<svg width="180" height="15" viewBox="0 0 180 15" fill="none" xmlns="http://www.w3.org/2000/svg">
<path d="M3.01501 14H0.942339L5.59954 1.05842H7.85547L12.5127 14H10.44L6.78122 3.40913H6.68011L3.01501 14ZM3.36257 8.93206H10.0861V10.575H3.36257V8.93206ZM14.3816 14V1.05842H18.9945C20.0014 1.05842 20.8355 1.24167 21.4969 1.60818C22.1583 1.97469 22.6533 2.47601 22.9819 3.11214C23.3105 3.74405 23.4748 4.456 23.4748 5.248C23.4748 6.04421 23.3084 6.76038 22.9756 7.39651C22.647 8.02842 22.1499 8.52974 21.4843 8.90046C20.8229 9.26697 19.9908 9.45023 18.9882 9.45023H15.816V7.79461H18.8113C19.4474 7.79461 19.9635 7.68508 20.3595 7.46602C20.7555 7.24274 21.0461 6.93942 21.2315 6.55606C21.4169 6.1727 21.5095 5.73668 21.5095 5.248C21.5095 4.75932 21.4169 4.32541 21.2315 3.94626C21.0461 3.56711 20.7533 3.27011 20.3531 3.05526C19.9571 2.84041 19.4348 2.73299 18.786 2.73299H16.3342V14H14.3816ZM25.7639 14V1.05842H33.8777V2.73931H27.7165V6.68245H33.4543V8.35701H27.7165V12.3191H33.9535V14H25.7639ZM37.8445 1.05842L40.9409 6.12004H41.042L44.1383 1.05842H46.4006L42.369 7.52921L46.4259 14H44.151L41.042 9.00789H40.9409L37.8319 14H35.557L39.6834 7.52921L35.5822 1.05842H37.8445Z" fill="#0466C8"/>
<path d="M59.0863 5.26696H57.1147C57.0389 4.84568 56.8977 4.47496 56.6913 4.15479C56.4849 3.83462 56.2321 3.5629 55.933 3.33962C55.6339 3.11635 55.299 2.94784 54.9283 2.83409C54.5618 2.72035 54.1721 2.66348 53.7592 2.66348C53.0136 2.66348 52.3458 2.85094 51.7561 3.22588C51.1705 3.60082 50.7071 4.15058 50.3658 4.87517C50.0288 5.59977 49.8603 6.48445 49.8603 7.52921C49.8603 8.5824 50.0288 9.47129 50.3658 10.1959C50.7071 10.9205 51.1726 11.4681 51.7624 11.8389C52.3522 12.2096 53.0157 12.3949 53.7529 12.3949C54.1615 12.3949 54.5491 12.3402 54.9156 12.2306C55.2863 12.1169 55.6213 11.9505 55.9204 11.7314C56.2195 11.5124 56.4722 11.2449 56.6787 10.9289C56.8893 10.6087 57.0346 10.2422 57.1147 9.82937L59.0863 9.83569C58.9809 10.4718 58.7766 11.0574 58.4733 11.5924C58.1742 12.1232 57.7887 12.5824 57.3169 12.97C56.8493 13.3533 56.3143 13.6503 55.7118 13.861C55.1094 14.0716 54.4522 14.1769 53.7403 14.1769C52.6197 14.1769 51.6213 13.9115 50.745 13.3807C49.8687 12.8457 49.1779 12.0811 48.6723 11.0869C48.171 10.0927 47.9203 8.90678 47.9203 7.52921C47.9203 6.14742 48.1731 4.96153 48.6786 3.97154C49.1842 2.97733 49.8751 2.21482 50.7513 1.68401C51.6276 1.14899 52.6239 0.881481 53.7403 0.881481C54.4269 0.881481 55.0673 0.980481 55.6613 1.17848C56.2595 1.37227 56.7966 1.65873 57.2727 2.03788C57.7487 2.41282 58.1426 2.87201 58.4543 3.41545C58.7661 3.95469 58.9767 4.57185 59.0863 5.26696ZM60.4243 1.05842H62.6423L66.0231 6.94153H66.1621L69.5428 1.05842H71.7609L67.0657 8.91942V14H65.1194V8.91942L60.4243 1.05842ZM73.6045 14V1.05842H78.3438C79.2622 1.05842 80.0226 1.21008 80.625 1.51339C81.2274 1.8125 81.6782 2.21903 81.9773 2.73299C82.2764 3.24273 82.426 3.81777 82.426 4.45811C82.426 4.99734 82.327 5.45232 82.129 5.82304C81.931 6.18955 81.6656 6.48445 81.3328 6.70772C81.0042 6.92678 80.6419 7.08687 80.2459 7.18798V7.31436C80.6756 7.33542 81.0947 7.47444 81.5034 7.73142C81.9162 7.98419 82.2575 8.34438 82.5271 8.81199C82.7967 9.27961 82.9315 9.84833 82.9315 10.5182C82.9315 11.1796 82.7756 11.7736 82.4639 12.3002C82.1564 12.8225 81.6803 13.2375 81.0358 13.545C80.3912 13.8483 79.5676 14 78.565 14H73.6045ZM75.5571 12.3254H78.3754C79.3106 12.3254 79.9805 12.1443 80.3849 11.782C80.7893 11.4197 80.9915 10.9668 80.9915 10.4234C80.9915 10.0147 80.8883 9.6398 80.6819 9.29857C80.4755 8.95733 80.1806 8.68561 79.7972 8.4834C79.4181 8.28119 78.9673 8.18008 78.4449 8.18008H75.5571V12.3254ZM75.5571 6.65717H78.1732C78.6113 6.65717 79.0052 6.57291 79.3549 6.4044C79.7087 6.23589 79.9889 5.99998 80.1953 5.69666C80.406 5.38913 80.5113 5.02683 80.5113 4.60977C80.5113 4.07475 80.3238 3.62609 79.9489 3.26379C79.5739 2.9015 78.9989 2.72035 78.2237 2.72035H75.5571V6.65717ZM85.2475 14V1.05842H93.3612V2.73931H87.2001V6.68245H92.9378V8.35701H87.2001V12.3191H93.4371V14H85.2475ZM95.9694 14V1.05842H100.582C101.585 1.05842 102.417 1.23114 103.078 1.57659C103.744 1.92203 104.241 2.40018 104.57 3.01103C104.898 3.61767 105.063 4.31909 105.063 5.1153C105.063 5.9073 104.896 6.60451 104.563 7.20693C104.235 7.80514 103.738 8.27065 103.072 8.60346C102.411 8.93627 101.579 9.10267 100.576 9.10267H97.0816V7.42178H100.399C101.031 7.42178 101.545 7.33121 101.941 7.15006C102.341 6.96891 102.634 6.70561 102.819 6.36017C103.005 6.01472 103.097 5.59977 103.097 5.1153C103.097 4.62662 103.003 4.20324 102.813 3.84515C102.628 3.48707 102.335 3.21324 101.935 3.02367C101.539 2.82988 101.018 2.73299 100.374 2.73299H97.9221V14H95.9694ZM102.358 8.16112L105.556 14H103.331L100.197 8.16112H102.358ZM114.497 4.45811C114.43 3.8599 114.152 3.3965 113.663 3.0679C113.174 2.73509 112.559 2.56869 111.818 2.56869C111.287 2.56869 110.828 2.65295 110.44 2.82145C110.053 2.98575 109.751 3.21324 109.537 3.50392C109.326 3.79039 109.221 4.11688 109.221 4.48339C109.221 4.79092 109.292 5.05632 109.436 5.2796C109.583 5.50287 109.775 5.69034 110.011 5.842C110.251 5.98945 110.508 6.11372 110.781 6.21483C111.055 6.31172 111.319 6.39176 111.571 6.45496L112.835 6.78355C113.248 6.88466 113.671 7.02157 114.105 7.19429C114.539 7.36702 114.942 7.59451 115.312 7.87676C115.683 8.15902 115.982 8.50867 116.21 8.92574C116.441 9.3428 116.557 9.84201 116.557 10.4234C116.557 11.1564 116.368 11.8073 115.988 12.376C115.614 12.9447 115.068 13.3934 114.352 13.722C113.64 14.0506 112.778 14.2149 111.767 14.2149C110.798 14.2149 109.96 14.0611 109.252 13.7536C108.545 13.446 107.991 13.01 107.59 12.4455C107.19 11.8768 106.969 11.2027 106.927 10.4234H108.886C108.924 10.891 109.075 11.2807 109.341 11.5924C109.61 11.8999 109.954 12.1295 110.371 12.2812C110.792 12.4286 111.253 12.5024 111.755 12.5024C112.307 12.5024 112.797 12.416 113.227 12.2433C113.661 12.0663 114.002 11.822 114.251 11.5103C114.499 11.1943 114.624 10.8257 114.624 10.4044C114.624 10.0211 114.514 9.7072 114.295 9.46286C114.08 9.21852 113.787 9.01631 113.417 8.85623C113.05 8.69614 112.635 8.55501 112.172 8.43284L110.642 8.01578C109.606 7.73353 108.785 7.31857 108.178 6.77091C107.576 6.22325 107.274 5.49866 107.274 4.59713C107.274 3.85147 107.477 3.2006 107.881 2.64452C108.285 2.08844 108.833 1.65663 109.524 1.3491C110.215 1.03735 110.994 0.881481 111.862 0.881481C112.738 0.881481 113.511 1.03525 114.181 1.34278C114.855 1.65031 115.386 2.07369 115.774 2.61292C116.161 3.14794 116.363 3.76301 116.38 4.45811H114.497ZM118.891 14V1.05842H127.004V2.73931H120.843V6.68245H126.581V8.35701H120.843V12.3191H127.08V14H118.891ZM129.613 14V1.05842H134.225C135.228 1.05842 136.06 1.23114 136.722 1.57659C137.387 1.92203 137.884 2.40018 138.213 3.01103C138.541 3.61767 138.706 4.31909 138.706 5.1153C138.706 5.9073 138.539 6.60451 138.207 7.20693C137.878 7.80514 137.381 8.27065 136.715 8.60346C136.054 8.93627 135.222 9.10267 134.219 9.10267H130.725V7.42178H134.042C134.674 7.42178 135.188 7.33121 135.584 7.15006C135.984 6.96891 136.277 6.70561 136.462 6.36017C136.648 6.01472 136.74 5.59977 136.74 5.1153C136.74 4.62662 136.646 4.20324 136.456 3.84515C136.271 3.48707 135.978 3.21324 135.578 3.02367C135.182 2.82988 134.661 2.73299 134.017 2.73299H131.565V14H129.613ZM136.001 8.16112L139.199 14H136.974L133.84 8.16112H136.001ZM141.9 1.05842L145.502 11.5987H145.647L149.249 1.05842H151.36L146.703 14H144.447L139.789 1.05842H141.9ZM155.181 1.05842V14H153.229V1.05842H155.181ZM168.774 5.26696H166.802C166.726 4.84568 166.585 4.47496 166.379 4.15479C166.172 3.83462 165.92 3.5629 165.621 3.33962C165.321 3.11635 164.986 2.94784 164.616 2.83409C164.249 2.72035 163.86 2.66348 163.447 2.66348C162.701 2.66348 162.033 2.85094 161.444 3.22588C160.858 3.60082 160.395 4.15058 160.053 4.87517C159.716 5.59977 159.548 6.48445 159.548 7.52921C159.548 8.5824 159.716 9.47129 160.053 10.1959C160.395 10.9205 160.86 11.4681 161.45 11.8389C162.04 12.2096 162.703 12.3949 163.44 12.3949C163.849 12.3949 164.237 12.3402 164.603 12.2306C164.974 12.1169 165.309 11.9505 165.608 11.7314C165.907 11.5124 166.16 11.2449 166.366 10.9289C166.577 10.6087 166.722 10.2422 166.802 9.82937L168.774 9.83569C168.668 10.4718 168.464 11.0574 168.161 11.5924C167.862 12.1232 167.476 12.5824 167.004 12.97C166.537 13.3533 166.002 13.6503 165.399 13.861C164.797 14.0716 164.14 14.1769 163.428 14.1769C162.307 14.1769 161.309 13.9115 160.432 13.3807C159.556 12.8457 158.865 12.0811 158.36 11.0869C157.859 10.0927 157.608 8.90678 157.608 7.52921C157.608 6.14742 157.861 4.96153 158.366 3.97154C158.872 2.97733 159.563 2.21482 160.439 1.68401C161.315 1.14899 162.311 0.881481 163.428 0.881481C164.114 0.881481 164.755 0.980481 165.349 1.17848C165.947 1.37227 166.484 1.65873 166.96 2.03788C167.436 2.41282 167.83 2.87201 168.142 3.41545C168.454 3.95469 168.664 4.57185 168.774 5.26696ZM171.11 14V1.05842H179.224V2.73931H173.063V6.68245H178.801V8.35701H173.063V12.3191H179.3V14H171.11Z" fill="#001845"/>
</svg>
