<svg width="68" height="68" viewBox="0 0 68 68" fill="none" xmlns="http://www.w3.org/2000/svg">
<path d="M68 34C68 52.7777 52.7777 68 34 68C15.2223 68 0 52.7777 0 34C0 15.2223 15.2223 0 34 0C52.7777 0 68 15.2223 68 34ZM4.87401 34C4.87401 50.0858 17.9142 63.126 34 63.126C50.0858 63.126 63.126 50.0858 63.126 34C63.126 17.9142 50.0858 4.87401 34 4.87401C17.9142 4.87401 4.87401 17.9142 4.87401 34Z" fill="#D9D9D9"/>
<path d="M19.5128 41.1989C18.4901 41.1989 17.581 41.0237 16.7855 40.6733C15.9948 40.3229 15.3698 39.8352 14.9105 39.2102C14.4512 38.5852 14.2074 37.8632 14.179 37.044H16.8494C16.8731 37.437 17.0033 37.7803 17.2401 38.0739C17.4768 38.3627 17.7917 38.5876 18.1847 38.7486C18.5777 38.9096 19.018 38.9901 19.5057 38.9901C20.0265 38.9901 20.4882 38.9001 20.8906 38.7202C21.2931 38.5355 21.608 38.2798 21.8352 37.9531C22.0625 37.6264 22.1738 37.25 22.169 36.8239C22.1738 36.3835 22.0601 35.9953 21.8281 35.6591C21.5961 35.3229 21.2599 35.0601 20.8196 34.8707C20.384 34.6813 19.8584 34.5866 19.2429 34.5866H17.9574V32.5554H19.2429C19.7495 32.5554 20.1922 32.4678 20.571 32.2926C20.9545 32.1174 21.2552 31.8712 21.473 31.554C21.6908 31.232 21.7973 30.8603 21.7926 30.4389C21.7973 30.027 21.705 29.6695 21.5156 29.3665C21.331 29.0587 21.0682 28.8196 20.7273 28.6491C20.3911 28.4787 19.9957 28.3935 19.5412 28.3935C19.0961 28.3935 18.6842 28.474 18.3054 28.6349C17.9266 28.7959 17.6212 29.0256 17.3892 29.3239C17.1572 29.6174 17.0341 29.9678 17.0199 30.375H14.4844C14.5033 29.5606 14.7377 28.8456 15.1875 28.2301C15.642 27.6098 16.2481 27.1269 17.0057 26.7812C17.7633 26.4309 18.6132 26.2557 19.5554 26.2557C20.526 26.2557 21.3688 26.438 22.0838 26.8026C22.8035 27.1624 23.3598 27.6477 23.7528 28.2585C24.1458 28.8693 24.3423 29.544 24.3423 30.2827C24.3471 31.1018 24.1056 31.7884 23.6179 32.3423C23.1349 32.8963 22.5005 33.2585 21.7145 33.429V33.5426C22.7372 33.6847 23.5208 34.0634 24.0653 34.679C24.6146 35.2898 24.8868 36.0497 24.8821 36.9588C24.8821 37.7732 24.6501 38.5024 24.1861 39.1463C23.7268 39.7855 23.0923 40.2874 22.2827 40.652C21.4777 41.0166 20.5545 41.1989 19.5128 41.1989ZM27.8526 41L34.0387 28.7557V28.6562H26.8583V26.4545H36.766V28.706L30.587 41H27.8526ZM46.8352 38.2727V37.5057C46.8352 36.9422 46.9536 36.4238 47.1903 35.9503C47.4318 35.4768 47.7822 35.0956 48.2415 34.8068C48.7008 34.518 49.2571 34.3736 49.9105 34.3736C50.5829 34.3736 51.1463 34.518 51.6009 34.8068C52.0554 35.0909 52.3987 35.4697 52.6307 35.9432C52.8674 36.4167 52.9858 36.9375 52.9858 37.5057V38.2727C52.9858 38.8362 52.8674 39.3546 52.6307 39.8281C52.3939 40.3016 52.0459 40.6828 51.5866 40.9716C51.1321 41.2604 50.5734 41.4048 49.9105 41.4048C49.2476 41.4048 48.6866 41.2604 48.2273 40.9716C47.768 40.6828 47.42 40.3016 47.1832 39.8281C46.9512 39.3546 46.8352 38.8362 46.8352 38.2727ZM48.6889 37.5057V38.2727C48.6889 38.6468 48.7789 38.9901 48.9588 39.3026C49.1387 39.6151 49.456 39.7713 49.9105 39.7713C50.3698 39.7713 50.6847 39.6174 50.8551 39.3097C51.0303 38.9972 51.1179 38.6515 51.1179 38.2727V37.5057C51.1179 37.1269 51.035 36.7812 50.8693 36.4688C50.7036 36.1515 50.384 35.9929 49.9105 35.9929C49.4654 35.9929 49.1506 36.1515 48.9659 36.4688C48.7813 36.7812 48.6889 37.1269 48.6889 37.5057ZM39.4418 29.9489V29.1818C39.4418 28.6136 39.5625 28.0928 39.804 27.6193C40.0455 27.1458 40.3958 26.767 40.8551 26.483C41.3144 26.1941 41.8707 26.0497 42.5241 26.0497C43.1918 26.0497 43.7528 26.1941 44.2074 26.483C44.6667 26.767 45.0123 27.1458 45.2443 27.6193C45.4763 28.0928 45.5923 28.6136 45.5923 29.1818V29.9489C45.5923 30.517 45.474 31.0379 45.2372 31.5114C45.0052 31.9801 44.6596 32.3565 44.2003 32.6406C43.741 32.9247 43.1823 33.0668 42.5241 33.0668C41.8565 33.0668 41.2931 32.9247 40.8338 32.6406C40.3793 32.3565 40.0336 31.9777 39.7969 31.5043C39.5601 31.0308 39.4418 30.5123 39.4418 29.9489ZM41.3097 29.1818V29.9489C41.3097 30.3277 41.3973 30.6733 41.5724 30.9858C41.7524 31.2936 42.0696 31.4474 42.5241 31.4474C42.9787 31.4474 43.2912 31.2936 43.4616 30.9858C43.6368 30.6733 43.7244 30.3277 43.7244 29.9489V29.1818C43.7244 28.803 43.6416 28.4574 43.4759 28.1449C43.3101 27.8277 42.9929 27.669 42.5241 27.669C42.0743 27.669 41.7595 27.8277 41.5795 28.1449C41.3996 28.4621 41.3097 28.8078 41.3097 29.1818ZM40.2514 41L50.2514 26.4545H52.027L42.027 41H40.2514Z" fill="#0466C8"/>
<path d="M34 2.43701C34 1.09109 35.0925 -0.00909283 36.435 0.087288C42.2125 0.502078 47.803 2.38763 52.6668 5.58255C58.2112 9.22456 62.5691 14.4089 65.2037 20.497C67.8382 26.585 68.6342 33.3108 67.4937 39.8456C66.4932 45.5782 64.0408 50.9443 60.3881 55.4398C59.5394 56.4844 57.9896 56.5277 57.0084 55.6064C56.0273 54.685 55.9879 53.1486 56.824 52.0939C59.8323 48.2992 61.8553 43.8032 62.6923 39.0076C63.6693 33.4096 62.9874 27.648 60.7305 22.4327C58.4737 17.2174 54.7405 12.7762 49.9908 9.65629C45.9221 6.98363 41.2597 5.38059 36.4343 4.9759C35.093 4.86342 34 3.78293 34 2.43701Z" fill="#0466C8"/>
</svg>
