<svg width="42" height="40" viewBox="0 0 42 40" fill="none" xmlns="http://www.w3.org/2000/svg">
<path d="M36.7152 4.52201C36.6917 4.54672 36.6709 4.57387 36.6532 4.60301L34.7142 7.90956C34.6699 7.98033 34.6078 8.03825 34.5341 8.07755C34.4603 8.11685 34.3775 8.13614 34.2939 8.13349L33.611 8.10967H33.5585C32.58 7.90096 31.7226 7.31761 31.1706 6.48498C31.1246 6.41402 31.1001 6.33129 31.1001 6.24676C31.1001 6.16222 31.1246 6.07949 31.1706 6.00853C31.6482 5.32245 33.0809 3.32136 33.4152 2.2827C33.8259 1.09158 32.7562 1.02011 32.632 1.01535H32.6081C30.9545 0.90275 29.3186 1.41276 28.0234 2.44469C26.0272 4.1075 25.4923 6.41828 25.4589 8.86723C25.4765 9.53728 25.3563 10.2038 25.1058 10.8258C24.8553 11.4477 24.4797 12.0119 24.0023 12.4835C23.582 12.9027 13.1757 23.2703 12.2253 24.3137C11.8176 24.7403 11.3269 25.0795 10.7833 25.3105C10.2397 25.5415 9.65463 25.6595 9.06378 25.6573C7.67323 25.6601 6.32657 26.1433 5.25275 27.0247C4.05882 28.1205 3.58125 28.7256 3.10368 30.8553C2.66908 32.7945 3.7293 34.6669 3.92033 34.9766C3.94036 35.0082 3.96444 35.037 3.99196 35.0624C4.88025 35.9057 5.30529 35.1672 5.30529 35.1672L7.40183 31.9321C7.45444 31.8478 7.53367 31.7833 7.62704 31.7488C7.72041 31.7143 7.82262 31.7117 7.91761 31.7415L9.66552 32.3085C9.7327 32.3297 9.79346 32.3674 9.84223 32.4181L10.4631 33.0708C10.5217 33.1338 10.5602 33.2126 10.5738 33.2975C10.5875 33.3823 10.5755 33.4692 10.5395 33.5473C10.0839 34.5346 9.51152 35.4639 8.83455 36.3154C7.83642 37.5352 8.67217 37.9497 8.83455 38.0116H8.87275C9.40763 38.2927 12.7936 38.2308 14.4221 35.9534C16.0507 33.6759 15.7498 32.4943 15.7737 30.7601C15.7737 29.1354 17.1252 28.0109 17.2876 27.8775L17.321 27.8442C17.7986 27.3677 27.1399 18.0341 28.9738 16.1378C30.8077 14.2416 32.1114 14.4989 32.2213 14.5227C32.3646 14.5227 34.0265 14.7943 35.1631 14.3321C36.2998 13.8699 38.4154 11.8927 39.2177 9.78677C40.02 7.68087 38.9216 5.44156 38.3438 4.36478C37.8375 3.40236 36.911 4.29808 36.7152 4.52201Z" fill="#0466C8"/>
<path d="M18.7952 15.2517L13.9096 10.511L12.071 6.3945L5.79569 2.86401L3.95703 4.69834L7.27138 11.4925L10.4998 12.5693L15.925 17.8483L18.7952 15.2517Z" fill="#0466C8"/>
<path d="M26.8437 21.355L22.7175 25.4716C22.5332 25.6564 22.4297 25.9065 22.4297 26.1672C22.4297 26.4279 22.5332 26.678 22.7175 26.8628L31.8821 36.0058C32.0673 36.1897 32.318 36.2929 32.5793 36.2929C32.8407 36.2929 33.0914 36.1897 33.2766 36.0058L37.4792 31.8131C37.5719 31.7214 37.6455 31.6123 37.6957 31.4921C37.7459 31.3719 37.7718 31.2429 37.7718 31.1127C37.7718 30.9825 37.7459 30.8535 37.6957 30.7333C37.6455 30.6131 37.5719 30.504 37.4792 30.4123L28.2382 21.3598C28.0536 21.1753 27.8033 21.0712 27.5419 21.0703C27.2806 21.0694 27.0296 21.1718 26.8437 21.355Z" fill="#0466C8"/>
</svg>
