<svg width="38" height="38" viewBox="0 0 38 38" fill="none" xmlns="http://www.w3.org/2000/svg">
<circle cx="19" cy="19" r="18.5" fill="white" stroke="#535675"/>
<path d="M24.7272 14.3334C23.761 13.883 22.7149 13.5561 21.6251 13.3672C21.6156 13.3669 21.6061 13.3687 21.5973 13.3725C21.5885 13.3762 21.5807 13.3819 21.5743 13.389C21.4435 13.6287 21.291 13.9411 21.1893 14.1809C20.0335 14.0065 18.858 14.0065 17.7022 14.1809C17.6005 13.9339 17.448 13.6287 17.3099 13.389C17.3027 13.3745 17.2809 13.3672 17.2591 13.3672C16.1694 13.5561 15.1305 13.883 14.157 14.3334C14.1498 14.3334 14.1425 14.3407 14.1353 14.348C12.1593 17.3047 11.6144 20.1815 11.8832 23.0293C11.8832 23.0438 11.8905 23.0583 11.905 23.0656C13.2126 24.0245 14.4694 24.6057 15.7117 24.9907C15.7335 24.998 15.7553 24.9907 15.7625 24.9762C16.0531 24.5766 16.3147 24.1553 16.5399 23.7121C16.5544 23.6831 16.5399 23.654 16.5108 23.6468C16.0967 23.4869 15.7044 23.2981 15.3194 23.0801C15.2903 23.0656 15.2903 23.022 15.3121 23.0002C15.392 22.9421 15.472 22.8767 15.5519 22.8186C15.5664 22.8041 15.5882 22.8041 15.6027 22.8113C18.1018 23.9519 20.797 23.9519 23.267 22.8113C23.2815 22.8041 23.3033 22.8041 23.3178 22.8186C23.3977 22.884 23.4776 22.9421 23.5576 23.0075C23.5866 23.0293 23.5866 23.0728 23.5503 23.0874C23.1725 23.3126 22.773 23.4942 22.3589 23.654C22.3298 23.6613 22.3226 23.6976 22.3298 23.7194C22.5623 24.1625 22.8238 24.5839 23.1071 24.9835C23.1289 24.9907 23.1507 24.998 23.1725 24.9907C24.4221 24.6057 25.6788 24.0245 26.9865 23.0656C27.001 23.0583 27.0083 23.0438 27.0083 23.0293C27.3279 19.7384 26.478 16.8833 24.7562 14.348C24.749 14.3407 24.7417 14.3334 24.7272 14.3334ZM16.9176 21.293C16.1694 21.293 15.5446 20.6029 15.5446 19.7529C15.5446 18.9029 16.1548 18.2128 16.9176 18.2128C17.6877 18.2128 18.2979 18.9102 18.2907 19.7529C18.2907 20.6029 17.6804 21.293 16.9176 21.293ZM21.9811 21.293C21.2329 21.293 20.6081 20.6029 20.6081 19.7529C20.6081 18.9029 21.2183 18.2128 21.9811 18.2128C22.7512 18.2128 23.3614 18.9102 23.3541 19.7529C23.3541 20.6029 22.7512 21.293 21.9811 21.293Z" fill="#0466C8"/>
</svg>
