<svg width="38" height="38" viewBox="0 0 38 38" fill="none" xmlns="http://www.w3.org/2000/svg">
<circle cx="19" cy="19" r="18.5" fill="white" stroke="#535675"/>
<g clip-path="url(#clip0_399_474)">
<g clip-path="url(#clip1_399_474)">
<path fill-rule="evenodd" clip-rule="evenodd" d="M25.2494 13.8938C25.4409 13.8132 25.6505 13.7854 25.8563 13.8133C26.0622 13.8412 26.2569 13.9237 26.42 14.0524C26.5831 14.181 26.7088 14.351 26.784 14.5447C26.8591 14.7384 26.8809 14.9487 26.8472 15.1537L25.0897 25.814C24.9193 26.8423 23.791 27.432 22.848 26.9198C22.0591 26.4913 20.8875 25.8311 19.8336 25.1422C19.3067 24.7974 17.6925 23.6931 17.8909 22.9074C18.0614 22.2356 20.7736 19.7109 22.3234 18.21C22.9316 17.6203 22.6542 17.2801 21.9359 17.8225C20.1513 19.1693 17.2881 21.2173 16.3411 21.7939C15.5058 22.3022 15.0703 22.389 14.5496 22.3022C13.5995 22.1441 12.7185 21.8993 11.9994 21.6009C11.0276 21.198 11.0749 19.862 11.9986 19.473L25.2494 13.8938Z" fill="#0466C8"/>
</g>
</g>
<defs>
<clipPath id="clip0_399_474">
<rect width="17.4353" height="17.4353" fill="white" transform="translate(10.7293 10.4609)"/>
</clipPath>
<clipPath id="clip1_399_474">
<rect width="18.5976" height="18.5976" fill="white" transform="translate(9.9248 10.4609)"/>
</clipPath>
</defs>
</svg>
