<svg width="75" height="75" viewBox="0 0 75 75" fill="none" xmlns="http://www.w3.org/2000/svg">
<path d="M0 40.625C0 18.1884 18.1884 0 40.625 0H48.75C63.2475 0 75 11.7525 75 26.25V41.25C75 59.8896 59.8896 75 41.25 75H34.375C15.3902 75 0 59.6098 0 40.625Z" fill="#ECFFF9"/>
<path d="M22.6877 54.9998H41.7769C42.7408 54.9998 43.69 54.6064 44.3472 53.9501L52.7161 46.3548C53.8783 45.1655 53.8519 43.3041 52.7161 42.1707C51.6357 41.092 49.8827 41.019 48.7146 42.0103L41.5139 48.0751C41.2949 48.2646 41.0176 48.3667 40.7252 48.3667H34.7958C33.9193 48.3667 33.2181 47.6523 33.2181 46.7923C33.2181 45.9174 33.9193 45.2176 34.7958 45.2176H36.9716C38.7683 45.2176 40.2289 43.7452 40.2289 41.9518C40.2289 40.1588 38.7683 38.7009 36.9716 38.7009H29.4789C28.8074 38.7009 28.1502 38.9926 27.6972 39.4882L25.1997 42.2144C25.0241 42.4186 24.7614 42.5352 24.4988 42.5352H22.4097C21.7672 42.5352 21.1541 42.7831 20.7012 43.2352C20.2482 43.6869 20.0002 44.2993 20.0002 44.9406L20.0146 52.3321C20.0146 53.8045 21.2125 54.9998 22.6877 54.9998Z" fill="#4DAC90"/>
<path d="M49.5777 30.9913C50.3497 30.9913 50.9781 30.3667 50.9781 29.5962C50.9781 28.8243 50.3524 28.1983 49.5804 28.1983L48.7712 28.1978C48.6394 27.6906 48.4379 27.215 48.1773 26.7741L48.7511 26.2017C49.2976 25.6575 49.2976 24.7724 48.7511 24.2269C48.2046 23.6814 47.3192 23.6814 46.7727 24.2269L46.1989 24.799C45.7576 24.5387 45.2807 24.3374 44.7725 24.2056V23.3964C44.7725 22.6245 44.1467 21.9999 43.3734 21.9999C42.6001 21.9999 41.9743 22.6245 41.9743 23.3964V24.2056C41.466 24.3374 40.9899 24.5386 40.5482 24.7987L39.9727 24.2242C39.4262 23.6787 38.5408 23.6787 37.9943 24.2242C37.4478 24.7697 37.4478 25.6535 37.9943 26.199L38.5698 26.7735C38.3092 27.2141 38.1077 27.6898 37.9758 28.1969H37.165C36.3916 28.1969 35.7659 28.8215 35.7659 29.5934C35.7659 30.3653 36.3916 30.9899 37.165 30.9899H37.9758C38.1077 31.4964 38.3085 31.9714 38.5688 32.4117L37.9916 32.9879C37.445 33.5334 37.445 34.4171 37.9916 34.9626C38.5381 35.5081 39.4234 35.5082 39.9699 34.9626L40.5465 34.3871C40.9885 34.6479 41.4653 34.8493 41.9743 34.9812V35.7905C41.9743 36.5624 42.6001 37.187 43.3734 37.187C44.1467 37.187 44.7725 36.5624 44.7725 35.7905V34.9812C45.28 34.8494 45.7562 34.6485 46.1975 34.3885L46.7727 34.9626C47.3192 35.5081 48.2046 35.5082 48.7511 34.9626C49.2976 34.4171 49.2976 33.5334 48.7511 32.9879L48.1766 32.4142C48.4372 31.9736 48.6387 31.4979 48.7709 30.9908L49.5777 30.9913ZM43.3734 32.3865C41.8308 32.3865 40.5752 31.1331 40.5752 29.5934C40.5752 28.0537 41.8308 26.8004 43.3734 26.8004C44.907 26.8004 46.165 28.0423 46.1705 29.5835C46.1705 29.5866 46.1688 29.589 46.1688 29.5921C46.1688 29.5955 46.1709 29.5982 46.1709 29.6016C46.1661 31.1372 44.9132 32.3865 43.3734 32.3865Z" fill="#4DAC90"/>
</svg>
